<svg width="46" height="59" viewBox="0 0 46 59" fill="none" xmlns="http://www.w3.org/2000/svg">
<path d="M40.8708 26.4468C40.129 25.4792 39.2259 24.6406 38.3873 23.8021C36.2264 21.867 33.7753 20.4801 31.7111 18.4482C26.9056 13.7394 25.8412 5.96665 28.9052 0C25.8412 0.741799 23.1643 2.41891 20.8744 4.25728C12.5211 10.9657 9.23139 22.8023 13.1662 32.9617C13.2952 33.2842 13.4242 33.6067 13.4242 34.026C13.4242 34.7356 12.9404 35.3806 12.2953 35.6386C11.5535 35.9611 10.7795 35.7676 10.1667 35.2516C9.98366 35.0983 9.83057 34.9124 9.71517 34.7033C6.07068 30.0913 5.49014 23.4796 7.94131 18.1902C2.5552 22.5765 -0.379747 29.9945 0.0395306 36.9932C0.233044 38.6058 0.426556 40.2184 0.974843 41.831C1.42637 43.7662 2.29718 45.7013 3.26475 47.4107C6.74798 52.9903 12.7791 56.9895 19.2618 57.7958C26.1638 58.6667 33.5495 57.4088 38.8389 52.6355C44.741 47.2816 46.8051 38.7026 43.7734 31.3491L43.3542 30.5105C42.6769 29.0269 40.8708 26.4468 40.8708 26.4468ZM30.6791 46.7656C29.776 47.5397 28.2924 48.3782 27.1313 48.7007C23.5191 49.9908 19.9069 48.1847 17.7782 46.0561C21.6162 45.153 23.9061 42.3148 24.5834 39.4444C25.1317 36.8642 24.0996 34.7356 23.6804 32.2521C23.2933 29.8655 23.3578 27.8336 24.2286 25.6082C24.8414 26.8338 25.4865 28.0594 26.2605 29.0269C28.7439 32.2521 32.6465 33.6712 33.485 38.0575C33.614 38.5091 33.6785 38.9606 33.6785 39.4444C33.7753 42.0891 32.6142 44.9917 30.6791 46.7656Z" fill="currentColor"/>
</svg>
