<svg width="29" height="29" viewBox="0 0 29 29" fill="none" xmlns="http://www.w3.org/2000/svg">
<path d="M12.8087 16.6753L10.2107 14.0774C9.98922 13.8559 9.70727 13.7451 9.36491 13.7451C9.02255 13.7451 8.74061 13.8559 8.51908 14.0774C8.29755 14.2989 8.18679 14.5809 8.18679 14.9232C8.18679 15.2656 8.29755 15.5475 8.51908 15.7691L11.9628 19.2128C12.2045 19.4545 12.4864 19.5753 12.8087 19.5753C13.1309 19.5753 13.4128 19.4545 13.6545 19.2128L20.4816 12.3857C20.7031 12.1642 20.8139 11.8823 20.8139 11.5399C20.8139 11.1975 20.7031 10.9156 20.4816 10.6941C20.26 10.4725 19.9781 10.3618 19.6357 10.3618C19.2934 10.3618 19.0114 10.4725 18.7899 10.6941L12.8087 16.6753ZM14.5003 26.5837C12.8288 26.5837 11.258 26.2663 9.78783 25.6315C8.31769 24.9967 7.03887 24.136 5.95137 23.0493C4.86387 21.9626 4.00313 20.6838 3.36916 19.2128C2.73519 17.7419 2.4178 16.171 2.41699 14.5003C2.41619 12.8296 2.73358 11.2588 3.36916 9.78783C4.00474 8.31688 4.86548 7.03806 5.95137 5.95137C7.03726 4.86467 8.31608 4.00394 9.78783 3.36916C11.2596 2.73438 12.8304 2.41699 14.5003 2.41699C16.1702 2.41699 17.7411 2.73438 19.2128 3.36916C20.6846 4.00394 21.9634 4.86467 23.0493 5.95137C24.1352 7.03806 24.9963 8.31688 25.6327 9.78783C26.2691 11.2588 26.5861 12.8296 26.5837 14.5003C26.5812 16.171 26.2639 17.7419 25.6315 19.2128C24.9991 20.6838 24.1384 21.9626 23.0493 23.0493C21.9602 24.136 20.6814 24.9971 19.2128 25.6327C17.7443 26.2683 16.1735 26.5853 14.5003 26.5837Z" fill="#F1070A"/>
</svg>
