<svg width="52" height="52" viewBox="0 0 52 52" fill="none" xmlns="http://www.w3.org/2000/svg">
<path d="M26.0003 10.2916C27.4953 10.2916 28.7087 11.505 28.7087 13V23.2916H39.0003C39.7186 23.2916 40.4075 23.577 40.9154 24.0849C41.4233 24.5928 41.7087 25.2817 41.7087 26C41.7087 26.7183 41.4233 27.4071 40.9154 27.915C40.4075 28.423 39.7186 28.7083 39.0003 28.7083H28.7087V39C28.7087 39.7183 28.4233 40.4071 27.9154 40.915C27.4075 41.423 26.7186 41.7083 26.0003 41.7083C25.282 41.7083 24.5932 41.423 24.0852 40.915C23.5773 40.4071 23.292 39.7183 23.292 39V28.7083H13.0003C12.282 28.7083 11.5932 28.423 11.0852 27.915C10.5773 27.4071 10.292 26.7183 10.292 26C10.292 25.2817 10.5773 24.5928 11.0852 24.0849C11.5932 23.577 12.282 23.2916 13.0003 23.2916H23.292V13C23.292 11.505 24.5053 10.2916 26.0003 10.2916Z" fill="#9C9D9F"/>
</svg>
