<svg width="36" height="36" viewBox="0 0 36 36" fill="none" xmlns="http://www.w3.org/2000/svg">
<path d="M31.0312 9.05957C32.8823 9.0597 34.3828 10.5601 34.3828 12.4111V23.6436C34.3827 25.4945 32.8822 26.995 31.0312 26.9951H4.9248C3.07374 26.9951 1.57338 25.4946 1.57324 23.6436V12.4111C1.57324 10.56 3.07366 9.05957 4.9248 9.05957H31.0312ZM23.0781 13.7881C20.3789 13.7881 18.4951 15.8348 18.4951 18.333V18.3574C18.4951 20.8823 20.4168 22.8766 23 22.876C24.4061 22.8759 25.335 22.4619 26.126 21.7715C26.2199 21.697 26.298 21.6042 26.3555 21.499C26.4128 21.3939 26.448 21.2783 26.46 21.1592C26.4718 21.04 26.4603 20.9191 26.4248 20.8047C26.3893 20.6903 26.3311 20.5837 26.2539 20.4922C26.1767 20.4007 26.0813 20.3257 25.9746 20.2715C25.8677 20.2173 25.7504 20.185 25.6309 20.1768C25.5113 20.1685 25.3907 20.1837 25.2773 20.2227C25.1641 20.2617 25.0598 20.3233 24.9707 20.4033C24.4188 20.8427 23.8787 21.0937 23.0625 21.0938C21.5594 21.0937 20.5168 19.8396 20.5166 18.333V18.3076C20.5166 16.8016 21.584 15.5704 23.0654 15.5703C23.7558 15.5704 24.3214 15.7961 24.8613 16.1982C25.03 16.3183 25.2315 16.3846 25.4385 16.3867C25.5628 16.3882 25.6864 16.3648 25.8018 16.3184C25.9173 16.2717 26.0226 16.2018 26.1113 16.1143C26.2001 16.0267 26.2712 15.9226 26.3193 15.8076C26.3674 15.6929 26.3923 15.5697 26.3926 15.4453C26.3925 15.2975 26.3582 15.1512 26.293 15.0186C26.2276 14.8858 26.1328 14.769 26.0156 14.6787C25.288 14.1395 24.3962 13.7881 23.0781 13.7881ZM13.5371 13.7998C13.0105 13.7999 12.6191 14.0897 12.4082 14.5664L9.34473 21.4844C9.27899 21.613 9.24082 21.7542 9.2334 21.8984C9.23158 22.0164 9.25302 22.1336 9.29688 22.2432C9.34082 22.3528 9.40636 22.453 9.48926 22.5371C9.57215 22.6212 9.67134 22.6879 9.78027 22.7334C9.88933 22.7789 10.0068 22.8029 10.125 22.8027C10.3171 22.8041 10.5049 22.7463 10.6641 22.6387C10.8232 22.531 10.9464 22.378 11.0166 22.1992L11.6318 20.7559H15.499L16.0889 22.1367C16.2646 22.538 16.5663 22.8027 17.0176 22.8027C17.1389 22.8028 17.2592 22.7783 17.3711 22.7314C17.483 22.6846 17.5849 22.6158 17.6699 22.5293C17.7549 22.4429 17.8212 22.34 17.8662 22.2275C17.9112 22.1149 17.9337 21.9943 17.9316 21.873C17.9264 21.7378 17.892 21.6052 17.8311 21.4844L14.7676 14.5664C14.5545 14.0897 14.1777 13.7998 13.6504 13.7998H13.5371ZM14.7803 19.0488H12.3447L13.5625 16.1484L14.7803 19.0488Z" fill="#BEBEBE"/>
</svg>
