<svg width="20" height="20" viewBox="0 0 20 20" fill="none" xmlns="http://www.w3.org/2000/svg">
<path d="M10.0003 1.6665C14.6028 1.6665 18.3337 5.39734 18.3337 9.99984C18.3337 14.6023 14.6028 18.3332 10.0003 18.3332C5.39783 18.3332 1.66699 14.6023 1.66699 9.99984C1.66699 5.39734 5.39783 1.6665 10.0003 1.6665ZM10.0003 4.99984C9.77931 4.99984 9.56735 5.08763 9.41107 5.24391C9.25479 5.4002 9.16699 5.61216 9.16699 5.83317V9.99984C9.16704 10.2208 9.25487 10.4328 9.41116 10.589L11.9112 13.089C12.0683 13.2408 12.2788 13.3248 12.4973 13.3229C12.7158 13.321 12.9248 13.2334 13.0793 13.0789C13.2338 12.9243 13.3215 12.7153 13.3234 12.4968C13.3253 12.2783 13.2413 12.0678 13.0895 11.9107L10.8337 9.65484V5.83317C10.8337 5.61216 10.7459 5.4002 10.5896 5.24391C10.4333 5.08763 10.2213 4.99984 10.0003 4.99984Z" fill="#BEBEBE"/>
</svg>
