<svg width="100" height="100" viewBox="0 0 100 100" fill="none" xmlns="http://www.w3.org/2000/svg">
<g clip-path="url(#clip0_6268_29784)">
<circle cx="50" cy="50" r="50" fill="black" fill-opacity="0.2"/>
<path d="M75 50C75 50.5525 74.7805 51.0824 74.3898 51.4731C73.9991 51.8638 73.4692 52.0833 72.9167 52.0833H52.0833V72.9167C52.0833 73.4692 51.8638 73.9991 51.4731 74.3898C51.0824 74.7805 50.5525 75 50 75C49.4475 75 48.9176 74.7805 48.5269 74.3898C48.1362 73.9991 47.9167 73.4692 47.9167 72.9167V52.0833H27.0833C26.5308 52.0833 26.0009 51.8638 25.6102 51.4731C25.2195 51.0824 25 50.5525 25 50C25 49.4475 25.2195 48.9176 25.6102 48.5269C26.0009 48.1362 26.5308 47.9167 27.0833 47.9167H47.9167V27.0833C47.9167 26.5308 48.1362 26.0009 48.5269 25.6102C48.9176 25.2195 49.4475 25 50 25C50.5525 25 51.0824 25.2195 51.4731 25.6102C51.8638 26.0009 52.0833 26.5308 52.0833 27.0833V47.9167H72.9167C73.4692 47.9167 73.9991 48.1362 74.3898 48.5269C74.7805 48.9176 75 49.4475 75 50Z" fill="white"/>
</g>
<defs>
<clipPath id="clip0_6268_29784">
<rect width="100" height="100" fill="white"/>
</clipPath>
</defs>
</svg>
