<svg width="26" height="26" viewBox="0 0 26 26" fill="none" xmlns="http://www.w3.org/2000/svg">
<path d="M12.9798 21.6331C15.2748 21.6331 17.4758 20.7214 19.0986 19.0986C20.7214 17.4758 21.6331 15.2748 21.6331 12.9798C21.6331 10.6847 20.7214 8.48374 19.0986 6.86092C17.4758 5.23811 15.2748 4.32642 12.9798 4.32642C10.6847 4.32642 8.48374 5.23811 6.86092 6.86092C5.23811 8.48374 4.32642 10.6847 4.32642 12.9798C4.32642 15.2748 5.23811 17.4758 6.86092 19.0986C8.48374 20.7214 10.6847 21.6331 12.9798 21.6331ZM12.9798 23.7964C7.00571 23.7964 2.16309 18.9538 2.16309 12.9798C2.16309 7.00571 7.00571 2.16309 12.9798 2.16309C18.9538 2.16309 23.7964 7.00571 23.7964 12.9798C23.7964 18.9538 18.9538 23.7964 12.9798 23.7964ZM12.9798 15.1431C12.406 15.1431 11.8557 14.9152 11.45 14.5095C11.0443 14.1038 10.8164 13.5535 10.8164 12.9798C10.8164 12.406 11.0443 11.8557 11.45 11.45C11.8557 11.0443 12.406 10.8164 12.9798 10.8164C13.5535 10.8164 14.1038 11.0443 14.5095 11.45C14.9152 11.8557 15.1431 12.406 15.1431 12.9798C15.1431 13.5535 14.9152 14.1038 14.5095 14.5095C14.1038 14.9152 13.5535 15.1431 12.9798 15.1431Z" fill="#BEBEBE"/>
</svg>
