<svg width="26" height="26" viewBox="0 0 26 26" fill="none" xmlns="http://www.w3.org/2000/svg">
<path d="M16.2501 5.41699H18.4168C18.9914 5.41699 19.5425 5.64527 19.9488 6.05159C20.3552 6.45792 20.5834 7.00902 20.5834 7.58366V16.4345C21.3066 16.6901 21.916 17.193 22.3042 17.8545C22.6923 18.516 22.8341 19.2934 22.7044 20.0493C22.5748 20.8053 22.182 21.491 21.5957 21.9854C21.0093 22.4797 20.2671 22.7509 19.5001 22.7509C18.7332 22.7509 17.9909 22.4797 17.4045 21.9854C16.8182 21.491 16.4255 20.8053 16.2958 20.0493C16.1662 19.2934 16.3079 18.516 16.6961 17.8545C17.0842 17.193 17.6937 16.6901 18.4168 16.4345V7.58366H16.2501V10.8337L11.3751 6.50033L16.2501 2.16699V5.41699ZM5.41678 9.56616C4.69366 9.31059 4.08418 8.80761 3.69606 8.14612C3.30794 7.48463 3.16617 6.70722 3.29582 5.9513C3.42547 5.19539 3.81818 4.50965 4.40454 4.0153C4.99091 3.52094 5.73316 3.2498 6.50011 3.2498C7.26706 3.2498 8.00932 3.52094 8.59568 4.0153C9.18205 4.50965 9.57476 5.19539 9.70441 5.9513C9.83406 6.70722 9.69229 7.48463 9.30417 8.14612C8.91605 8.80761 8.30656 9.31059 7.58345 9.56616V16.4345C8.30656 16.6901 8.91605 17.193 9.30417 17.8545C9.69229 18.516 9.83406 19.2934 9.70441 20.0493C9.57476 20.8053 9.18205 21.491 8.59568 21.9854C8.00932 22.4797 7.26706 22.7509 6.50011 22.7509C5.73316 22.7509 4.99091 22.4797 4.40454 21.9854C3.81818 21.491 3.42547 20.8053 3.29582 20.0493C3.16617 19.2934 3.30794 18.516 3.69606 17.8545C4.08418 17.193 4.69366 16.6901 5.41678 16.4345V9.56616ZM6.50011 7.58366C6.78743 7.58366 7.06298 7.46952 7.26615 7.26636C7.46931 7.06319 7.58345 6.78764 7.58345 6.50033C7.58345 6.21301 7.46931 5.93746 7.26615 5.73429C7.06298 5.53113 6.78743 5.41699 6.50011 5.41699C6.2128 5.41699 5.93725 5.53113 5.73408 5.73429C5.53092 5.93746 5.41678 6.21301 5.41678 6.50033C5.41678 6.78764 5.53092 7.06319 5.73408 7.26636C5.93725 7.46952 6.2128 7.58366 6.50011 7.58366ZM6.50011 20.5837C6.78743 20.5837 7.06298 20.4695 7.26615 20.2664C7.46931 20.0632 7.58345 19.7876 7.58345 19.5003C7.58345 19.213 7.46931 18.9375 7.26615 18.7343C7.06298 18.5311 6.78743 18.417 6.50011 18.417C6.2128 18.417 5.93725 18.5311 5.73408 18.7343C5.53092 18.9375 5.41678 19.213 5.41678 19.5003C5.41678 19.7876 5.53092 20.0632 5.73408 20.2664C5.93725 20.4695 6.2128 20.5837 6.50011 20.5837ZM19.5001 20.5837C19.7874 20.5837 20.063 20.4695 20.2661 20.2664C20.4693 20.0632 20.5834 19.7876 20.5834 19.5003C20.5834 19.213 20.4693 18.9375 20.2661 18.7343C20.063 18.5311 19.7874 18.417 19.5001 18.417C19.2128 18.417 18.9372 18.5311 18.7341 18.7343C18.5309 18.9375 18.4168 19.213 18.4168 19.5003C18.4168 19.7876 18.5309 20.0632 18.7341 20.2664C18.9372 20.4695 19.2128 20.5837 19.5001 20.5837Z" fill="#BEBEBE"/>
</svg>
