<svg width="12" height="12" viewBox="0 0 12 12" fill="none" xmlns="http://www.w3.org/2000/svg">
<g clip-path="url(#clip0_872_1159)">
<mask id="mask0_872_1159" style="mask-type:luminance" maskUnits="userSpaceOnUse" x="0" y="0" width="12" height="12">
<path fill-rule="evenodd" clip-rule="evenodd" d="M8.50942 11.9183C8.60491 11.9555 8.70704 11.9727 8.80945 11.9688C8.91187 11.9648 9.01238 11.9398 9.10473 11.8954L11.5753 10.7066C11.7026 10.6453 11.8099 10.5494 11.8851 10.4298C11.9602 10.3102 12 10.1719 12 10.0307V1.9698C12 1.68152 11.8349 1.41883 11.5753 1.29386L9.10473 0.105115C8.96513 0.0379531 8.8081 0.0158468 8.65539 0.0418555C8.50267 0.0678642 8.36181 0.140702 8.25231 0.250287L3.52262 4.56522L1.46246 3.00143C1.36954 2.93088 1.25484 2.89509 1.13828 2.90027C1.02173 2.90545 0.910658 2.95127 0.824356 3.02979L0.163559 3.63082C-0.0543163 3.82896 -0.0545507 4.17175 0.163043 4.37022L1.94968 6.00021L0.163043 7.63019C-0.0545507 7.82871 -0.0543163 8.17146 0.163559 8.36965L0.824356 8.97068C0.910653 9.0492 1.02172 9.09503 1.13828 9.10022C1.25483 9.10541 1.36953 9.06963 1.46246 8.99908L3.52262 7.43524L8.25231 11.7502C8.32543 11.8235 8.41299 11.8807 8.50942 11.9183ZM9.00184 3.27607L5.41309 6.00021L9.00184 8.72435V3.27607Z" fill="white"/>
</mask>
<g mask="url(#mask0_872_1159)">
<path d="M11.5748 1.29622L9.10232 0.105738C8.96268 0.0385057 8.80559 0.016339 8.6528 0.0423054C8.50001 0.0682718 8.35907 0.141087 8.24948 0.250675L0.155336 7.63067C-0.0623983 7.82919 -0.0621639 8.17194 0.155852 8.37013L0.817024 8.97116C0.903401 9.04969 1.01453 9.09552 1.13116 9.10071C1.24778 9.1059 1.36254 9.07011 1.45555 8.99957L11.2028 1.60503C11.5298 1.35702 11.9995 1.59022 11.9995 2.00066V1.97197C11.9995 1.83079 11.9596 1.69247 11.8845 1.57292C11.8094 1.45338 11.702 1.35747 11.5748 1.29622Z" fill="#0065A9"/>
<g filter="url(#filter0_d_872_1159)">
<path d="M11.5748 10.7049L9.10232 11.8953C8.96268 11.9626 8.8056 11.9847 8.65281 11.9587C8.50002 11.9328 8.35908 11.86 8.24948 11.7504L0.155336 4.3704C-0.0623983 4.17189 -0.0621639 3.82914 0.155852 3.63095L0.817024 3.02992C0.903407 2.9514 1.01454 2.90557 1.13117 2.9004C1.24779 2.89522 1.36255 2.93101 1.45555 3.00156L11.2028 10.396C11.5298 10.6441 11.9995 10.4109 11.9995 10.0004V10.0291C11.9995 10.1703 11.9596 10.3086 11.8845 10.4282C11.8094 10.5477 11.702 10.6436 11.5748 10.7049Z" fill="#007ACC"/>
</g>
<g filter="url(#filter1_d_872_1159)">
<path d="M9.10294 11.8955C8.96326 11.9626 8.80615 11.9847 8.65335 11.9587C8.50055 11.9327 8.35961 11.8599 8.25 11.7503C8.52675 12.0271 9 11.831 9 11.4396V0.560985C9 0.169579 8.52675 -0.0264524 8.25 0.250298C8.3596 0.140699 8.50055 0.0678605 8.65335 0.0418536C8.80615 0.0158467 8.96325 0.0379565 9.10294 0.105126L11.575 1.29406C11.7023 1.35527 11.8097 1.45117 11.8849 1.57072C11.9601 1.69028 12 1.82863 12 1.96986V10.0307C12 10.172 11.9601 10.3103 11.8849 10.4299C11.8097 10.5495 11.7023 10.6454 11.575 10.7066L9.10294 11.8954V11.8955Z" fill="#1F9CF0"/>
</g>
<path opacity="0.25" fill-rule="evenodd" clip-rule="evenodd" d="M8.50161 11.9183C8.59709 11.9555 8.69921 11.9727 8.80162 11.9688C8.90402 11.9648 9.00453 11.9399 9.09687 11.8954L11.5675 10.7066C11.6947 10.6453 11.8021 10.5494 11.8772 10.4298C11.9524 10.3103 11.9922 10.1719 11.9922 10.0307V1.96982C11.9922 1.68154 11.8271 1.41885 11.5675 1.29388L9.09687 0.10513C8.95727 0.0379625 8.80025 0.0158486 8.64753 0.0418488C8.49481 0.067849 8.35396 0.140678 8.24445 0.250255L3.51476 4.56524L1.45461 3.00144C1.36168 2.93089 1.24698 2.8951 1.13042 2.90028C1.01387 2.90546 0.902799 2.95129 0.816496 3.0298L0.155746 3.63079C-0.0621288 3.82897 -0.0623632 4.17172 0.155231 4.37024L1.94182 6.00022L0.155231 7.63021C-0.0623632 7.82872 -0.0621288 8.17147 0.155746 8.36966L0.816543 8.97069C0.902844 9.04923 1.01392 9.09507 1.13049 9.10026C1.24706 9.10544 1.36176 9.06965 1.4547 8.9991L3.51486 7.43526L8.2445 11.7502C8.31763 11.8235 8.40516 11.8807 8.50161 11.9183ZM8.99403 3.27608L5.40528 6.00022L8.99403 8.72437V3.27608Z" fill="url(#paint0_linear_872_1159)"/>
</g>
</g>
<defs>
<filter id="filter0_d_872_1159" x="-21.3412" y="-18.4335" width="54.6736" height="51.7361" filterUnits="userSpaceOnUse" color-interpolation-filters="sRGB">
<feFlood flood-opacity="0" result="BackgroundImageFix"/>
<feColorMatrix in="SourceAlpha" type="matrix" values="0 0 0 0 0 0 0 0 0 0 0 0 0 0 0 0 0 0 127 0" result="hardAlpha"/>
<feOffset/>
<feGaussianBlur stdDeviation="10.6667"/>
<feColorMatrix type="matrix" values="0 0 0 0 0 0 0 0 0 0 0 0 0 0 0 0 0 0 0.25 0"/>
<feBlend mode="overlay" in2="BackgroundImageFix" result="effect1_dropShadow_872_1159"/>
<feBlend mode="normal" in="SourceGraphic" in2="effect1_dropShadow_872_1159" result="shape"/>
</filter>
<filter id="filter1_d_872_1159" x="-13.0834" y="-21.3022" width="46.4168" height="54.6048" filterUnits="userSpaceOnUse" color-interpolation-filters="sRGB">
<feFlood flood-opacity="0" result="BackgroundImageFix"/>
<feColorMatrix in="SourceAlpha" type="matrix" values="0 0 0 0 0 0 0 0 0 0 0 0 0 0 0 0 0 0 127 0" result="hardAlpha"/>
<feOffset/>
<feGaussianBlur stdDeviation="10.6667"/>
<feColorMatrix type="matrix" values="0 0 0 0 0 0 0 0 0 0 0 0 0 0 0 0 0 0 0.25 0"/>
<feBlend mode="overlay" in2="BackgroundImageFix" result="effect1_dropShadow_872_1159"/>
<feBlend mode="normal" in="SourceGraphic" in2="effect1_dropShadow_872_1159" result="shape"/>
</filter>
<linearGradient id="paint0_linear_872_1159" x1="5.9922" y1="0.0311607" x2="5.9922" y2="11.9693" gradientUnits="userSpaceOnUse">
<stop stop-color="white"/>
<stop offset="1" stop-color="white" stop-opacity="0"/>
</linearGradient>
<clipPath id="clip0_872_1159">
<rect width="12" height="12" fill="white"/>
</clipPath>
</defs>
</svg>
