<svg width="25" height="24" viewBox="0 0 25 24" fill="none" xmlns="http://www.w3.org/2000/svg">
<path d="M11.4637 4C11.4167 4.46928 11.5151 4.97965 11.7746 5.45108C12.0283 5.91169 12.3971 6.26014 12.8072 6.4729C12.7319 7.26986 13.1991 8.06419 14.003 8.39039C14.7566 8.69592 15.5829 8.49889 16.0966 7.95918C16.4322 8.69385 17.1349 9.201 17.9495 9.201C18.4648 9.20079 18.9343 8.99617 19.296 8.66125C19.7599 9.67517 20.0205 10.8018 20.0205 11.9897C20.0205 16.4137 16.4342 20 12.0103 20C7.58632 20 4 16.4137 4 11.9897C4 7.74954 7.29472 4.28101 11.4637 4Z" fill="#FAB659"/>
<path d="M11.5312 9.91106C11.2164 10.2252 10.8343 10.3823 10.385 10.3823C9.93864 10.3851 9.55693 10.2281 9.23993 9.91106C8.92292 9.59405 8.76549 9.21199 8.76765 8.76487C8.7698 8.31775 8.92723 7.93604 9.23993 7.61975C9.55262 7.30346 9.93433 7.14603 10.385 7.14747C10.8358 7.14891 11.2178 7.30634 11.5312 7.61975C11.8446 7.93317 12.0017 8.31487 12.0024 8.76487C12.0032 9.21486 11.8461 9.59692 11.5312 9.91106Z" fill="#A55E55"/>
<path d="M9.37471 15.3024C9.05986 15.6165 8.67779 15.7736 8.22852 15.7736C7.78211 15.7765 7.40041 15.6194 7.0834 15.3024C6.76639 14.9854 6.60896 14.6033 6.61112 14.1562C6.61328 13.7091 6.7707 13.3274 7.0834 13.0111C7.3961 12.6948 7.7778 12.5373 8.22852 12.5388C8.67923 12.5402 9.06129 12.6976 9.37471 13.0111C9.68812 13.3245 9.84519 13.7062 9.84591 14.1562C9.84663 14.6062 9.68956 14.9882 9.37471 15.3024Z" fill="#A55E55"/>
<path d="M16.006 16.5413C15.799 16.7483 15.5427 16.8518 15.2372 16.8518C14.9332 16.8533 14.6772 16.7501 14.4695 16.5424C14.2618 16.3346 14.1582 16.0784 14.159 15.7736C14.1597 15.4688 14.2632 15.2129 14.4695 15.0059C14.6758 14.7988 14.9317 14.6953 15.2372 14.6953C15.5427 14.6953 15.7986 14.7988 16.0049 15.0059C16.2113 15.2129 16.3148 15.4688 16.3155 15.7736C16.3162 16.0784 16.213 16.3343 16.006 16.5413Z" fill="#A55E55"/>
</svg>
