<svg width="328" height="136" viewBox="0 0 328 136" fill="none" xmlns="http://www.w3.org/2000/svg">
<path d="M164.443 0.0214844C175.808 0.275127 187.308 2.98423 196.258 11.792C205.639 21.0244 211.309 36.0646 212.208 59.0322C213.288 86.5981 208.863 105.679 199.716 117.949C191.04 129.587 178.728 134.314 165.152 134.946V135.024C164.609 135.024 164.067 135.015 163.527 135.003C162.988 135.015 162.446 135.024 161.903 135.024V134.946C148.328 134.314 136.016 129.587 127.34 117.949C126.921 117.388 126.513 116.812 126.114 116.222L150.555 104.033C152.524 107.541 154.788 109.803 157.185 111.224C159.458 112.572 162.052 113.281 164.993 113.416C167.935 113.281 170.528 112.572 172.802 111.224C175.34 109.718 177.732 107.269 179.78 103.395C183.958 95.4939 186.517 82.0324 185.914 60.3184C185.42 42.5202 182.314 32.5421 178.376 27.0781C174.823 22.1483 170.293 20.4971 164.993 20.375C159.693 20.4971 155.163 22.1483 151.61 27.0781C147.673 32.5421 144.567 42.5202 144.072 60.3184C143.646 75.6732 144.803 86.9008 146.993 94.9541L121.346 107.369C116.315 95.5417 114.04 79.6635 114.848 59.0322C115.747 36.0646 121.417 21.0244 130.798 11.792C139.748 2.98423 151.248 0.275127 162.612 0.0214844V0C162.917 9.4027e-07 163.222 0.00252126 163.527 0.00585938C163.833 0.00251407 164.138 9.41273e-07 164.443 0V0.0214844ZM310.413 89.8701H327.462V108.424H309.195V133.997H289.018V108.424H225.693V91.0762L226.324 90.0898L281.937 3.22266L283.116 1.37891H310.413V89.8701ZM84.7197 89.4912H101.769V108.045H83.502V133.618H63.3242V108.045H0V90.6973L0.630859 89.7109L56.2432 2.84375L57.4229 1H84.7197V89.4912ZM250.45 87.7275H286.605L286.934 31.9873L250.45 87.7275ZM24.7568 87.3506H60.9121L61.2402 31.6104L24.7568 87.3506Z" fill="#F1070A"/>
</svg>
