<svg width="40" height="40" viewBox="0 0 40 40" fill="none" xmlns="http://www.w3.org/2000/svg">
<g clip-path="url(#clip0_4336_13105)">
<path d="M20 37.5C29.665 37.5 37.5 29.665 37.5 20C37.5 10.335 29.665 2.5 20 2.5C10.335 2.5 2.5 10.335 2.5 20C2.5 29.665 10.335 37.5 20 37.5Z" fill="#FFC84D"/>
<path d="M20 28.8937C18.363 28.8937 17.085 29.1767 16.213 29.4617C15.761 29.6097 15.391 29.0717 15.685 28.6987C16.472 27.7007 17.859 26.5117 20 26.5117C22.141 26.5117 23.527 27.7007 24.315 28.6987C24.61 29.0727 24.24 29.6097 23.787 29.4617C22.915 29.1767 21.637 28.8937 20 28.8937Z" fill="#FF6D00"/>
<path d="M9.28899 19.3584C9.28899 19.3584 6.46899 22.3834 6.46899 24.8234C6.46899 26.3804 7.73199 27.6394 9.28899 27.6404C10.846 27.6404 12.109 26.3804 12.109 24.8234C12.109 22.3834 9.28899 19.3584 9.28899 19.3584Z" fill="white"/>
<path d="M13.453 12.4842C14.593 11.9522 15.129 11.3842 15.575 10.8772C15.832 10.5852 16.196 10.7192 16.193 11.1352C16.186 12.0342 15.631 13.2552 14.137 13.9522C12.643 14.6482 11.351 14.2892 10.658 13.7162C10.337 13.4512 10.468 13.0852 10.858 13.0762C11.533 13.0612 12.313 13.0152 13.453 12.4842Z" fill="black"/>
<path d="M26.547 12.4842C25.407 11.9522 24.871 11.3842 24.425 10.8772C24.168 10.5852 23.804 10.7192 23.807 11.1352C23.814 12.0342 24.369 13.2552 25.863 13.9522C27.357 14.6482 28.649 14.2892 29.342 13.7162C29.663 13.4512 29.532 13.0852 29.142 13.0762C28.467 13.0612 27.687 13.0152 26.547 12.4842Z" fill="black"/>
<path d="M15.422 21.1206C16.5895 21.1206 17.536 20.1741 17.536 19.0066C17.536 17.839 16.5895 16.8926 15.422 16.8926C14.2545 16.8926 13.308 17.839 13.308 19.0066C13.308 20.1741 14.2545 21.1206 15.422 21.1206Z" fill="black"/>
<path d="M24.578 21.1206C25.7455 21.1206 26.692 20.1741 26.692 19.0066C26.692 17.839 25.7455 16.8926 24.578 16.8926C23.4105 16.8926 22.464 17.839 22.464 19.0066C22.464 20.1741 23.4105 21.1206 24.578 21.1206Z" fill="black"/>
</g>
<defs>
<clipPath id="clip0_4336_13105">
<rect width="40" height="40" fill="white"/>
</clipPath>
</defs>
</svg>
