<svg width="72" height="76" viewBox="0 0 72 76" fill="none" xmlns="http://www.w3.org/2000/svg">
<g clip-path="url(#clip0_4602_14545)" filter="url(#filter0_d_4602_14545)">
<path d="M36 67.5C53.397 67.5 67.5 53.397 67.5 36C67.5 18.603 53.397 4.5 36 4.5C18.603 4.5 4.5 18.603 4.5 36C4.5 53.397 18.603 67.5 36 67.5Z" fill="#FFC84D"/>
<path d="M53.1987 38.54C54.5181 38.54 55.5837 39.7208 55.3407 41.0168C53.8953 48.7532 45.7863 54.677 35.9997 54.677C26.2131 54.677 18.1041 48.7532 16.6587 41.0168C16.4157 39.7208 17.4831 38.54 18.8007 38.54H53.1987Z" fill="#FF6D00"/>
<path d="M35.9998 43.0994C42.4168 43.0994 48.355 41.4074 53.1988 38.54H18.8008C23.6446 41.4074 29.5828 43.0994 35.9998 43.0994Z" fill="white"/>
<path d="M21.9493 30.9562C21.5047 31.1758 20.9935 30.7906 21.0925 30.3046C21.6415 27.6064 23.9635 25.5796 26.7445 25.5796C29.5255 25.5796 31.8475 27.6064 32.3965 30.3046C32.4955 30.7906 31.9843 31.1758 31.5397 30.9562C30.5695 30.4774 28.9171 29.8744 26.7445 29.8744C24.5719 29.8744 22.9195 30.4774 21.9493 30.9562Z" fill="black"/>
<path d="M50.0505 30.9562C50.4951 31.1758 51.0063 30.7906 50.9073 30.3046C50.3583 27.6064 48.0363 25.5796 45.2553 25.5796C42.4743 25.5796 40.1523 27.6064 39.6033 30.3046C39.5043 30.7906 40.0155 31.1758 40.4601 30.9562C41.4303 30.4774 43.0827 29.8744 45.2553 29.8744C47.4279 29.8744 49.0803 30.4774 50.0505 30.9562Z" fill="black"/>
<path d="M56.1941 14.4556C56.1941 14.4556 50.5547 20.5054 50.5547 25.3852C50.5547 28.4992 53.0801 31.0174 56.1941 31.0174C59.3081 31.0174 61.8335 28.4992 61.8335 25.3852C61.8335 20.5054 56.1941 14.4556 56.1941 14.4556Z" fill="white"/>
</g>
<defs>
<filter id="filter0_d_4602_14545" x="-4" y="0" width="80" height="80" filterUnits="userSpaceOnUse" color-interpolation-filters="sRGB">
<feFlood flood-opacity="0" result="BackgroundImageFix"/>
<feColorMatrix in="SourceAlpha" type="matrix" values="0 0 0 0 0 0 0 0 0 0 0 0 0 0 0 0 0 0 127 0" result="hardAlpha"/>
<feOffset dy="4"/>
<feGaussianBlur stdDeviation="2"/>
<feComposite in2="hardAlpha" operator="out"/>
<feColorMatrix type="matrix" values="0 0 0 0 0 0 0 0 0 0 0 0 0 0 0 0 0 0 0.25 0"/>
<feBlend mode="normal" in2="BackgroundImageFix" result="effect1_dropShadow_4602_14545"/>
<feBlend mode="normal" in="SourceGraphic" in2="effect1_dropShadow_4602_14545" result="shape"/>
</filter>
<clipPath id="clip0_4602_14545">
<rect width="72" height="72" fill="white"/>
</clipPath>
</defs>
</svg>
