<svg width="32" height="32" viewBox="0 0 32 32" fill="none" xmlns="http://www.w3.org/2000/svg">
<path d="M16 29.3332C16.8257 29.3342 17.6313 29.078 18.3047 28.6001C18.978 28.1221 19.4858 27.4463 19.7573 26.6665H12.2427C12.5142 27.4463 13.022 28.1221 13.6953 28.6001C14.3687 29.078 15.1743 29.3342 16 29.3332ZM25.3333 19.4478V13.3332C25.3333 9.04384 22.42 5.4305 18.4733 4.34384C18.0827 3.35984 17.128 2.6665 16 2.6665C14.872 2.6665 13.9173 3.35984 13.5267 4.34384C9.58 5.43184 6.66667 9.04384 6.66667 13.3332V19.4478L4.39067 21.7238C4.1406 21.9738 4.00008 22.3129 4 22.6665V23.9998C4 24.3535 4.14048 24.6926 4.39052 24.9426C4.64057 25.1927 4.97971 25.3332 5.33333 25.3332H26.6667C27.0203 25.3332 27.3594 25.1927 27.6095 24.9426C27.8595 24.6926 28 24.3535 28 23.9998V22.6665C27.9999 22.3129 27.8594 21.9738 27.6093 21.7238L25.3333 19.4478Z" fill="currentColor"/>
</svg>
