<svg width="24" height="24" viewBox="0 0 24 24" fill="none" xmlns="http://www.w3.org/2000/svg">
<path d="M12 0C13.6583 7.85387e-07 15.2182 0.315017 16.6797 0.945312C18.1413 1.57571 19.4118 2.43057 20.4902 3.50977C21.5686 4.58896 22.4237 5.85952 23.0557 7.32031C23.6876 8.78103 24.0024 10.3409 24 12C23.9976 13.6591 23.6826 15.219 23.0547 16.6797C22.4267 18.1405 21.5718 19.411 20.4902 20.4902C19.4086 21.5694 18.1381 22.4245 16.6797 23.0557C15.2214 23.6868 13.6615 24.0016 12 24C10.3401 24 8.7802 23.685 7.32031 23.0547C5.86031 22.4243 4.58976 21.5694 3.50977 20.4902C2.42977 19.411 1.57491 18.1405 0.945312 16.6797C0.315818 15.219 0.000800414 13.6591 0 12C-0.000799932 10.3409 0.31422 8.78101 0.945312 7.32031C1.57651 5.85951 2.43137 4.58897 3.50977 3.50977C4.58817 2.43057 5.85871 1.57571 7.32031 0.945312C8.78181 0.315019 10.3417 0 12 0ZM18.0176 6.60156C17.6165 6.60164 17.2859 6.73169 17.0264 6.99121L10.0176 14L6.97266 10.9561C6.71307 10.6965 6.3826 10.5664 5.98145 10.5664C5.58046 10.5665 5.24973 10.6966 4.99023 10.9561C4.73089 11.2156 4.60156 11.5463 4.60156 11.9473C4.60162 12.3483 4.73076 12.679 4.99023 12.9385L9.02637 16.9736C9.30957 17.2568 9.63998 17.3984 10.0176 17.3984C10.3952 17.3984 10.7256 17.2568 11.0088 16.9736L19.0088 8.97363C19.2683 8.71409 19.3984 8.38351 19.3984 7.98242C19.3984 7.58122 19.2684 7.25081 19.0088 6.99121C18.7492 6.73165 18.4187 6.60156 18.0176 6.60156Z" fill="#15B756"/>
</svg>
