<svg width="27" height="27" viewBox="0 0 27 27" fill="none" xmlns="http://www.w3.org/2000/svg">
<path d="M11.925 15.525L9.50625 13.1062C9.3 12.9 9.0375 12.7969 8.71875 12.7969C8.4 12.7969 8.1375 12.9 7.93125 13.1062C7.725 13.3125 7.62188 13.575 7.62188 13.8938C7.62188 14.2125 7.725 14.475 7.93125 14.6813L11.1375 17.8875C11.3625 18.1125 11.625 18.225 11.925 18.225C12.225 18.225 12.4875 18.1125 12.7125 17.8875L19.0688 11.5312C19.275 11.325 19.3781 11.0625 19.3781 10.7438C19.3781 10.425 19.275 10.1625 19.0688 9.95625C18.8625 9.75 18.6 9.64687 18.2813 9.64687C17.9625 9.64687 17.7 9.75 17.4938 9.95625L11.925 15.525ZM13.5 24.75C11.9438 24.75 10.4813 24.4545 9.1125 23.8635C7.74375 23.2725 6.55313 22.4711 5.54063 21.4594C4.52813 20.4476 3.72675 19.257 3.1365 17.8875C2.54625 16.518 2.25075 15.0555 2.25 13.5C2.24925 11.9445 2.54475 10.482 3.1365 9.1125C3.72825 7.743 4.52963 6.55238 5.54063 5.54063C6.55163 4.52888 7.74225 3.7275 9.1125 3.1365C10.4828 2.5455 11.9453 2.25 13.5 2.25C15.0548 2.25 16.5173 2.5455 17.8875 3.1365C19.2578 3.7275 20.4484 4.52888 21.4594 5.54063C22.4704 6.55238 23.2721 7.743 23.8646 9.1125C24.4571 10.482 24.7523 11.9445 24.75 13.5C24.7478 15.0555 24.4523 16.518 23.8635 17.8875C23.2748 19.257 22.4734 20.4476 21.4594 21.4594C20.4454 22.4711 19.2548 23.2729 17.8875 23.8646C16.5203 24.4564 15.0578 24.7515 13.5 24.75Z" fill="#F1070A"/>
</svg>
