<svg width="21" height="21" viewBox="0 0 21 21" fill="none" xmlns="http://www.w3.org/2000/svg">
<path d="M17.0498 17.9487L17.0498 2.19872C17.0493 2.03925 17.0054 1.88295 16.9226 1.74662C16.8399 1.6103 16.7216 1.49912 16.5804 1.42504C16.4391 1.35097 16.2804 1.31682 16.1212 1.32625C15.962 1.33569 15.8084 1.38836 15.677 1.47859L4.30196 9.35359C3.83034 9.67997 3.83034 10.4657 4.30196 10.793L15.677 18.668C15.8082 18.7591 15.9618 18.8126 16.1213 18.8225C16.2807 18.8325 16.4399 18.7985 16.5814 18.7244C16.7229 18.6503 16.8414 18.5387 16.924 18.402C17.0066 18.2652 17.0501 18.1085 17.0498 17.9487Z" fill="#F1070A"/>
</svg>
