<svg width="589" height="643" viewBox="0 0 589 643" fill="none" xmlns="http://www.w3.org/2000/svg">
<path d="M536.993 179.5L577.493 162C587.246 159.787 589.179 162.136 587.993 171L577.493 209.5C575.142 217.754 572.934 220.653 567.493 223L519.993 243L536.993 179.5Z" fill="#A3C6F8"/>
<path d="M541.938 184.964L570.396 172.553C577.249 170.983 578.608 172.649 577.774 178.936L570.396 206.241C568.745 212.095 567.193 214.151 563.37 215.815L529.993 230L541.938 184.964Z" fill="#7EA9E2"/>
<path d="M511.993 251L551.022 235.715C560.017 233.685 561.8 235.839 560.706 243.968L551.022 279.277C548.854 286.847 546.818 289.505 541.8 291.658L482.493 306L511.993 251Z" fill="#A3C6F8"/>
<path d="M515.192 256.846L544.871 245.505C551.296 244.071 552.569 245.593 551.788 251.338L544.871 276.289C543.323 281.639 541.868 283.517 538.284 285.038L493.493 297.5L515.192 256.846Z" fill="#7EA9E2"/>
<g filter="url(#filter0_d_6099_28700)">
<path d="M449.993 105.155L550.993 49.1555C567.76 42.6799 573.14 45.2357 572.493 65.6555L549.993 208.156C547.422 216.04 545.646 220.151 540.493 225.656C536.281 230.155 528.993 234.155 524.493 236.155C522.272 237.162 521.508 238.34 521.493 242.155V278.655C521.077 287.468 518.627 290.435 512.493 294.155L481.993 310.155L449.993 105.155Z" fill="#A3C6F8"/>
</g>
<path d="M535.993 108.997L552.993 72.9974C557.46 64.1709 558.696 63.9749 557.493 76.4974L542.493 166L535.993 108.997Z" fill="#7FA5D8"/>
<path d="M554.993 66.9998C556.648 66.4685 557.493 66.5005 557.493 67C557.493 67.4995 535.993 109 535.993 109H469.993L554.993 66.9998Z" fill="#91B6E7"/>
<path d="M469.993 109H535.993L497.493 146L469.993 109Z" fill="#689ADC"/>
<path d="M497.493 146L535.993 109L542.493 166L497.493 146Z" fill="#84AEE7"/>
<path d="M469.993 222L512.993 226V282C511.336 287.862 502.863 291.322 487.493 297.5L469.993 222Z" fill="#B7CCE9"/>
<path d="M484.993 224L512.993 226.867V267L484.993 224Z" fill="#7EA9E2"/>
<path d="M497.993 146L542.993 164.182L536.993 206L497.993 146Z" fill="#91B6E7"/>
<path d="M484.993 207L536.993 206C535.897 214.61 530.993 221 524.993 224C521.493 225.75 506.358 229.748 492.993 227L484.993 207Z" fill="#B7CCE9"/>
<path d="M497.993 145.5L536.993 206L496.993 207L497.993 145.5Z" fill="#7EA9E2"/>
<path d="M51.3115 179.5L10.8115 162C1.05894 159.787 -0.874709 162.136 0.311523 171L10.8115 209.5C13.1624 217.754 15.3704 220.653 20.8115 223L68.3115 243L51.3115 179.5Z" fill="#A3C6F8"/>
<path d="M46.3662 184.964L17.9083 172.553C11.0555 170.983 9.69682 172.649 10.5303 178.936L17.9083 206.241C19.5602 212.095 21.1117 214.151 24.935 215.815L58.3115 230L46.3662 184.964Z" fill="#7EA9E2"/>
<path d="M76.3115 251L37.2823 235.715C28.288 233.685 26.5047 235.839 27.5987 243.968L37.2823 279.277C39.4504 286.847 41.4868 289.505 46.5048 291.658L105.812 306L76.3115 251Z" fill="#A3C6F8"/>
<path d="M73.1128 256.846L43.4336 245.505C37.0091 244.071 35.7353 245.593 36.5167 251.338L43.4336 276.289C44.9822 281.639 46.4367 283.517 50.021 285.038L94.8115 297.5L73.1128 256.846Z" fill="#7EA9E2"/>
<g filter="url(#filter1_d_6099_28700)">
<path d="M138.312 105.155L37.3115 49.1555C20.5442 42.6799 15.1647 45.2357 15.8115 65.6555L38.3115 208.156C40.8828 216.04 42.6591 220.151 47.8115 225.656C52.0237 230.155 59.3115 234.155 63.8115 236.155C66.0326 237.162 66.7962 238.34 66.8115 242.155V278.655C67.2276 287.468 69.6773 290.435 75.8115 294.155L106.312 310.155L138.312 105.155Z" fill="#A3C6F8"/>
</g>
<path d="M52.3115 108.997L35.3115 72.9974C30.8443 64.1709 29.6085 63.9749 30.8115 76.4974L45.8115 166L52.3115 108.997Z" fill="#7FA5D8"/>
<path d="M33.3115 66.9998C31.6568 66.4685 30.8115 66.5005 30.8115 67C30.8115 67.4995 52.3115 109 52.3115 109H118.312L33.3115 66.9998Z" fill="#91B6E7"/>
<path d="M118.312 109H52.3115L90.8115 146L118.312 109Z" fill="#689ADC"/>
<path d="M90.8115 146L52.3115 109L45.8115 166L90.8115 146Z" fill="#84AEE7"/>
<path d="M118.312 222L75.3115 226V282C76.9686 287.862 85.4415 291.322 100.812 297.5L118.312 222Z" fill="#B7CCE9"/>
<path d="M103.312 224L75.3115 226.867V267L103.312 224Z" fill="#7EA9E2"/>
<path d="M90.3115 146L45.3115 164.182L51.3115 206L90.3115 146Z" fill="#91B6E7"/>
<path d="M103.312 207L51.3115 206C52.4082 214.61 57.3115 221 63.3115 224C66.8115 225.75 81.9467 229.748 95.3115 227L103.312 207Z" fill="#B7CCE9"/>
<path d="M90.3115 145.5L51.3115 206L91.3115 207L90.3115 145.5Z" fill="#7EA9E2"/>
<path d="M168.999 447L179.999 444V570C177.355 569.303 175.372 568.221 171.999 566.518L168.999 447Z" fill="#A3C6F8"/>
<path d="M113.999 354L174.999 366.5V568C123.979 543.5 114.346 500.389 113.999 488.5V354Z" fill="#A3C6F8"/>
<path d="M119.999 356L174.999 399V561.5C130.67 540.062 120.3 500.84 119.999 490.438V356Z" fill="#95D5FF"/>
<path d="M131.999 393.5L174.999 421V546.5C141.148 530.01 132.229 499.339 131.999 491.337L131.999 393.5Z" fill="url(#paint0_linear_6099_28700)"/>
<path d="M131.999 393.5L174.999 421V546.5C141.148 530.01 132.229 499.339 131.999 491.337L131.999 393.5Z" fill="url(#paint1_linear_6099_28700)"/>
<path d="M140.999 436H174.999V536C147.596 522.808 141.185 498.671 140.999 492.269V436Z" fill="#95D5FF"/>
<path d="M418.999 444.5H410.999V570C413.643 569.303 415.626 568.221 418.999 566.518V444.5Z" fill="#A3C6F8"/>
<path d="M476.999 357.5L415.999 384V568C467.019 543.5 476.652 500.389 476.999 488.5V357.5Z" fill="#A3C6F8"/>
<path d="M470.999 384.5L415.999 399V561.5C460.328 540.062 470.698 500.84 470.999 490.438V384.5Z" fill="#95D5FF"/>
<path d="M458.999 411.5L415.999 421V546.5C449.85 530.01 458.769 499.339 458.999 491.337V411.5Z" fill="url(#paint2_linear_6099_28700)"/>
<path d="M449.999 436H415.999V536C443.402 522.808 449.813 498.671 449.999 492.269V436Z" fill="#95D5FF"/>
<path d="M213.999 408C213.999 405.791 215.79 404 217.999 404H372.999C375.208 404 376.999 405.791 376.999 408V571.604C376.999 572.715 376.537 573.776 375.724 574.532L304.213 641.084C301.175 643.686 299.354 643.59 296.012 641.084L215.452 574.546C214.532 573.786 213.999 572.655 213.999 571.462V408Z" fill="#A3C6F8"/>
<path d="M219.999 414C219.999 411.791 221.79 410 223.999 410H367.999C370.208 410 371.999 411.791 371.999 414V569.123C371.999 570.221 371.548 571.271 370.751 572.026L304.125 635.18C301.292 637.652 299.594 637.561 296.477 635.18L221.424 572.042C220.521 571.282 219.999 570.162 219.999 568.981V414Z" fill="#95D5FF"/>
<path d="M227.999 424C227.999 421.239 230.238 419 232.999 419H357.999C360.76 419 362.999 421.239 362.999 424V560.698C362.999 562.064 362.44 563.371 361.451 564.315L302.716 620.373C300.2 622.583 298.692 622.501 295.924 620.373L229.767 564.335C228.646 563.385 227.999 561.99 227.999 560.52V424Z" fill="url(#paint3_linear_6099_28700)"/>
<path d="M236.999 424C236.999 421.239 239.238 419 241.999 419H349.999C352.76 419 354.999 421.239 354.999 424V558.272C354.999 559.64 354.438 560.949 353.447 561.893L302.307 610.581C300.108 612.508 298.79 612.437 296.37 610.581L238.772 561.913C237.648 560.963 236.999 559.566 236.999 558.094V424Z" fill="#95D5FF"/>
<path d="M253.999 439C253.999 436.239 256.238 434 258.999 434H331.999C334.76 434 336.999 436.239 336.999 439V550.663C336.999 552.034 336.436 553.344 335.442 554.288L299.936 588.005C298.389 589.357 297.462 589.307 295.76 588.005L255.777 554.308C254.65 553.358 253.999 551.959 253.999 550.485V439Z" fill="#76ABFF"/>
<g filter="url(#filter2_d_6099_28700)">
<path d="M465.392 384.254H393.706L365.999 464L430.014 483.87C439.835 486.562 442.377 484.877 444.444 479.215L465.392 384.254Z" fill="#A3C6F8"/>
<path d="M454.567 384.455L401.58 424.409L427.728 475.15C432.143 477.137 433.984 476.636 435.731 472.029L454.567 384.455Z" fill="#7FA5D8"/>
<path d="M401.619 424.287L385.327 449.424L373.999 458L427.687 475.026L401.619 424.287Z" fill="#8CB2E4"/>
</g>
<g filter="url(#filter3_d_6099_28700)">
<path d="M126.999 387.254H198.685L226.392 467L162.377 486.87C152.555 489.562 150.014 487.877 147.946 482.215L126.999 387.254Z" fill="#A3C6F8"/>
<path d="M137.823 387.455L190.811 427.409L164.663 478.15C160.248 480.137 158.407 479.636 156.66 475.029L137.823 387.455Z" fill="#7FA5D8"/>
<path d="M190.772 427.287L207.064 452.424L218.392 461L164.704 478.026L190.772 427.287Z" fill="#8CB2E4"/>
</g>
<path d="M150.536 398.832C147.975 391.007 153.805 382.965 162.038 382.965H427.04C435.657 382.965 441.514 391.714 438.229 399.681L424.912 431.981C423.833 434.598 421.872 436.754 419.368 438.074L300.843 500.569C297.329 502.422 293.129 502.432 289.606 500.597L166.476 436.449C163.671 434.987 161.55 432.486 160.566 429.48L150.536 398.832Z" fill="#A3C6F8"/>
<path d="M160.032 398.931C157.389 391.087 163.224 382.965 171.501 382.965H417.528C426.199 382.965 432.056 391.814 428.669 399.796L417.008 427.277C415.899 429.888 413.909 432.027 411.384 433.321L300.718 490.012C297.271 491.777 293.189 491.787 289.734 490.038L174.792 431.86C171.958 430.426 169.802 427.935 168.788 424.925L160.032 398.931Z" fill="#689ADC"/>
<path d="M366.493 5.53887L429.993 58.5389C439.919 66.9518 443.857 71.3741 443.993 78.0389V109.039L346.993 53.0389V12.0376C348.493 -0.964114 357.178 -3.90871 366.493 5.53887Z" fill="#A3C6F8"/>
<path d="M358.993 14L434.493 76V78L366.493 46L358.993 14Z" fill="#91B6E7"/>
<path d="M366.493 46L434.493 78V106.5L366.993 81L366.493 46Z" fill="#689ADC"/>
<path d="M358.993 14L366.493 46L367.493 70L354.993 67L358.993 14Z" fill="#7FA5D8"/>
<path d="M221.499 5.53887L157.999 58.5389C148.073 66.9518 144.135 71.3741 143.999 78.0389V109.039L240.999 53.0389V12.0376C239.499 -0.964114 230.815 -3.90871 221.499 5.53887Z" fill="#A3C6F8"/>
<path d="M228.999 14L153.499 76V78L221.499 46L228.999 14Z" fill="#91B6E7"/>
<path d="M221.499 46L153.499 78V106.5L220.999 81L221.499 46Z" fill="#689ADC"/>
<path d="M228.999 14L221.499 46L220.499 70L232.999 67L228.999 14Z" fill="#7FA5D8"/>
<g filter="url(#filter4_d_6099_28700)">
<path d="M90 157.987C90 140.042 99.6163 123.473 115.198 114.572L269.941 26.1693C285.31 17.389 304.176 17.389 319.545 26.1693L474.288 114.572C489.87 123.473 499.486 140.042 499.486 157.987V339.6C499.486 357.513 489.902 374.058 474.363 382.971L319.621 471.73C304.213 480.568 285.273 480.568 269.865 471.73L115.122 382.971C99.5834 374.058 90 357.513 90 339.599V157.987Z" fill="#A3C6F8"/>
</g>
<path d="M440.857 144.612V157.158H440.855V338.583L439.707 338.604V356.076L485.099 356.973C488.088 352.144 489.689 347.564 489.241 337.708V157.158H489.094C488.675 149.043 487.322 147.545 484.501 141.5L440.857 144.612Z" fill="#A4DFFF"/>
<path d="M295.446 31.8428C303.521 31.0901 310.414 33.4708 326.807 42.5952L393.114 82.0205L456.284 118.758C471.5 127.5 479.243 132.119 484.5 141.5L440.603 162.215L295.446 80.9945V31.8428Z" fill="#C4DBFF"/>
<path d="M150.287 144.613V157.158H150.289V338.583L151.437 338.604V356.076L106.046 356.973C103.057 352.144 101.455 347.564 101.903 337.708V164.324L101.902 164.325C101.006 149.989 102.537 148.545 105.487 143.717L150.287 144.613Z" fill="#B59EFF"/>
<path d="M295.446 31.8429C287.372 31.0901 280.479 33.4708 264.085 42.5952L197.779 82.0206L134.609 118.758C116.44 129.014 110.745 134.466 105.488 143.847L150.289 162.215L295.446 81.4426V31.8429Z" fill="#CFC0FF"/>
<path d="M295.446 467.632C287.372 468.385 280.479 466.004 264.085 456.879L197.779 417.454L134.609 380.717C116.44 370.461 110.745 365.009 105.488 355.628L150.289 337.259L295.446 421.486V467.632Z" fill="#F2C3FF"/>
<path d="M295.446 467.632C303.521 468.385 310.414 466.004 326.807 456.879L393.114 417.454L456.284 380.717C474.453 370.461 480.147 365.009 485.405 355.628L440.603 337.259L295.446 421.038V467.632Z" fill="#76ABFF"/>
<path d="M139.282 174.666C139.282 164.368 144.805 154.861 153.75 149.759L280.538 77.4475C289.343 72.426 300.144 72.4259 308.949 77.4475L435.737 149.759C444.682 154.861 450.205 164.368 450.205 174.666V323.009C450.205 333.289 444.701 342.783 435.78 347.891L308.992 420.495C300.165 425.549 289.322 425.549 280.495 420.495L153.707 347.891C144.786 342.783 139.282 333.289 139.282 323.009V174.666Z" fill="#A3C6F8"/>
<g clip-path="url(#paint4_angular_6099_28700_clip_path)" data-figma-skip-parse="true"><g transform="matrix(0.173999 0.084 -0.074559 0.154443 295 249)"><foreignObject x="-1166.62" y="-1166.62" width="2333.25" height="2333.25"><div xmlns="http://www.w3.org/1999/xhtml" style="background:conic-gradient(from 90deg,rgba(199, 221, 251, 1) 0deg,rgba(197, 217, 244, 1) 74.4231deg,rgba(186, 214, 253, 1) 155.769deg,rgba(190, 216, 251, 1) 225deg,rgba(201, 217, 240, 1) 304.615deg,rgba(199, 221, 251, 1) 360deg);height:100%;width:100%;opacity:1"></div></foreignObject></g></g><path d="M298.774 93.5391C305.72 94.3498 312.829 97.2006 328.344 106.979L365.528 128.933L404.058 150.885C420.685 160.311 428.618 165.332 430.491 171.941L430.48 171.946C431.555 174.177 432.778 177.65 433.179 181.194V306.639C432.538 313.44 432.311 321.69 430.476 326.05L430.491 326.059C428.618 332.668 420.685 337.689 404.058 347.115L365.528 369.067L328.344 391.021C312.829 400.799 305.72 403.65 298.774 404.461C291.499 403.65 284.051 400.799 267.798 391.021L228.842 369.067L188.478 347.115C171.331 337.836 163.01 332.826 160.883 326.367L160.786 326.059C158.546 322.027 157.89 314.84 157.202 307.534V182.09C157.761 177.144 159.647 173.62 160.867 171.681C162.969 165.199 171.289 160.187 188.478 150.885L228.842 128.933L267.798 106.979C284.051 97.2008 291.499 94.3498 298.774 93.5391ZM240.533 278.723L298.774 297.833L342.231 278.568L349.848 282.609V197.81L298.774 200.167L240.533 197.601V278.723Z" data-figma-gradient-fill="{&#34;type&#34;:&#34;GRADIENT_ANGULAR&#34;,&#34;stops&#34;:[{&#34;color&#34;:{&#34;r&#34;:0.78039216995239258,&#34;g&#34;:0.86666667461395264,&#34;b&#34;:0.98431372642517090,&#34;a&#34;:1.0},&#34;position&#34;:0.0},{&#34;color&#34;:{&#34;r&#34;:0.77403771877288818,&#34;g&#34;:0.85287272930145264,&#34;b&#34;:0.96037483215332031,&#34;a&#34;:1.0},&#34;position&#34;:0.20673078298568726},{&#34;color&#34;:{&#34;r&#34;:0.73006761074066162,&#34;g&#34;:0.84105473756790161,&#34;b&#34;:0.99240082502365112,&#34;a&#34;:1.0},&#34;position&#34;:0.43269228935241699},{&#34;color&#34;:{&#34;r&#34;:0.74774378538131714,&#34;g&#34;:0.84900224208831787,&#34;b&#34;:0.98708194494247437,&#34;a&#34;:1.0},&#34;position&#34;:0.6250},{&#34;color&#34;:{&#34;r&#34;:0.78852754831314087,&#34;g&#34;:0.85348105430603027,&#34;b&#34;:0.94205385446548462,&#34;a&#34;:1.0},&#34;position&#34;:0.84615385532379150}],&#34;stopsVar&#34;:[{&#34;color&#34;:{&#34;r&#34;:0.78039216995239258,&#34;g&#34;:0.86666667461395264,&#34;b&#34;:0.98431372642517090,&#34;a&#34;:1.0},&#34;position&#34;:0.0},{&#34;color&#34;:{&#34;r&#34;:0.77403771877288818,&#34;g&#34;:0.85287272930145264,&#34;b&#34;:0.96037483215332031,&#34;a&#34;:1.0},&#34;position&#34;:0.20673078298568726},{&#34;color&#34;:{&#34;r&#34;:0.73006761074066162,&#34;g&#34;:0.84105473756790161,&#34;b&#34;:0.99240082502365112,&#34;a&#34;:1.0},&#34;position&#34;:0.43269228935241699},{&#34;color&#34;:{&#34;r&#34;:0.74774378538131714,&#34;g&#34;:0.84900224208831787,&#34;b&#34;:0.98708194494247437,&#34;a&#34;:1.0},&#34;position&#34;:0.6250},{&#34;color&#34;:{&#34;r&#34;:0.78852754831314087,&#34;g&#34;:0.85348105430603027,&#34;b&#34;:0.94205385446548462,&#34;a&#34;:1.0},&#34;position&#34;:0.84615385532379150}],&#34;transform&#34;:{&#34;m00&#34;:347.99801635742188,&#34;m01&#34;:-149.11805725097656,&#34;m02&#34;:195.55999755859375,&#34;m10&#34;:168.00003051757812,&#34;m11&#34;:308.88568115234375,&#34;m12&#34;:10.557156562805176},&#34;opacity&#34;:1.0,&#34;blendMode&#34;:&#34;NORMAL&#34;,&#34;visible&#34;:true}"/>
<g filter="url(#filter5_d_6099_28700)">
<path d="M280.773 145.658C286.1 133.18 293.916 124.707 300.923 125.875L300.929 126.049C306.811 126.469 310.409 133.149 316.647 144.628L336.966 184.352C338.654 186.934 339.607 188.122 340.751 189.174C342.316 190.472 344.179 191.716 346.86 192.306L391.271 199.314C404.856 201.215 412.541 202.26 414.691 207.961L414.7 207.959C418.126 214.023 412.211 223.832 402.236 233.156L368.685 263.097C366.675 265.28 365.078 267.825 364.056 269.679C364.107 271.669 364.349 274.215 364.714 276.674L375.219 319.723C378.125 332.855 376.297 344.448 370.536 347.257L370.244 347.402C364.768 351.368 357.87 348.008 345.735 342.162L305.936 321.619C301.585 319.732 300.542 319.984 298.994 320.035C296.967 320.302 294.572 320.761 292.487 321.584L252.834 342.5C240.626 348.543 233.742 351.986 228.48 348.171L228.49 348.153C222.427 345.178 221.101 333.888 223.93 320.696L232.145 277.103C232.657 273.399 233.093 268.83 232.815 266.887L232.948 266.851C232.483 265.648 231.772 264.376 230.593 263.094L197.208 233.277C187.283 223.991 181.94 213.812 185.364 207.756L185.42 207.772C187.721 202.165 195.308 201.087 208.522 199.157L253.058 193.779C256.738 192.935 258.09 192.399 259.835 191.389L259.841 191.398C260.955 190.621 262.362 189.42 264.21 187.152L280.773 145.658ZM297.966 255.11L299.532 257.726L296.875 256.572L294.886 259.239L300.383 303.325L306.1 258.964L303.344 254.281L299.527 255.869L301.885 251.801L301.246 250.714L297.966 255.11ZM264.077 258.826L282.485 254.079L284.211 251.073L284.034 250.996L264.077 258.826ZM320.245 254.021L325.428 255.58L319.864 253.314L320.245 254.021ZM293.401 247.32L293.426 247.523L295.363 250.76L300.494 249.436L299.527 247.793L303.513 248.991L304.128 247.928L302.765 246.354L299.377 244.976L293.401 247.32ZM297.36 242.261L299.682 242.976L299.805 242.938L298.276 241.174L297.36 242.261ZM304.814 233.417L305.1 241.326L308.505 240.29L309.347 233.769L310.787 236.445L329.559 204.063L304.814 233.417ZM288.677 239.587L290.485 240.143L290.61 239.925L291.196 233.002L270.318 208.907L288.677 239.587Z" fill="#AACBFA"/>
</g>
<path d="M256.177 201.684C259.505 201.066 260.726 200.674 262.304 199.934L298.191 248.512L194.907 212.188C196.831 207.857 203.723 207.065 215.914 205.623L256.177 201.684Z" fill="#C4DBFF"/>
<path d="M237.145 260.449C239.501 262.879 239.983 265.144 240.421 266.895L298.194 248.515L194.906 212.189C192.281 217.003 197.473 225.714 206.583 233.943L237.145 260.449Z" fill="#CFC0FF"/>
<path d="M305.612 313.169C302.532 311.768 300.783 311.397 299.065 311.099L298.19 248.515L361.84 339.679C357.782 342.125 351.68 338.824 340.864 333.018L305.612 313.169Z" fill="#9BC2FF"/>
<path d="M354.888 275.921C354.35 272.58 354.043 269.068 354.208 267.333L298.19 248.514L361.84 339.677C366.751 337.237 367.488 327.123 364.74 315.159L354.888 275.921Z" fill="#F2C3FF"/>
<path d="M290.549 313.481C293.63 312.08 297.35 311.395 299.068 311.097L298.193 248.514L234.322 339.991C238.38 342.437 244.482 339.136 255.298 333.33L290.549 313.481Z" fill="#C4DBFF"/>
<path d="M239.547 276.086C240.085 272.745 240.588 268.631 240.422 266.895L298.191 248.514L234.321 339.99C229.41 337.55 228.672 327.435 231.421 315.471L239.547 276.086Z" fill="#B59EFF"/>
<path d="M340.642 200.372C337.315 199.754 335.39 198.184 333.64 196.871L298.193 248.577L401.478 212.252C399.554 207.922 392.661 207.13 380.471 205.688L340.642 200.372Z" fill="#C3DAFF"/>
<path d="M359.238 260.514C356.882 262.944 355.067 265.817 354.208 267.334L298.189 248.58L401.477 212.254C404.103 217.068 398.91 225.779 389.8 234.008L359.238 260.514Z" fill="#76ABFF"/>
<path d="M329.951 191.683C331.678 194.593 332.467 195.605 333.706 196.831L298.191 248.516L298.976 137.785C303.704 138.099 306.823 144.296 312.378 155.243L329.951 191.683Z" fill="#A4DFFF"/>
<path d="M268.228 194.066C264.929 198.623 263.432 198.607 262.304 199.936L298.191 248.515L298.976 137.783C293.551 136.977 287.164 144.854 282.578 156.241L268.228 194.066Z" fill="#AFC7FF"/>
<defs>
<filter id="filter0_d_6099_28700" x="445.993" y="46" width="130.551" height="272.156" filterUnits="userSpaceOnUse" color-interpolation-filters="sRGB">
<feFlood flood-opacity="0" result="BackgroundImageFix"/>
<feColorMatrix in="SourceAlpha" type="matrix" values="0 0 0 0 0 0 0 0 0 0 0 0 0 0 0 0 0 0 127 0" result="hardAlpha"/>
<feOffset dy="4"/>
<feGaussianBlur stdDeviation="2"/>
<feComposite in2="hardAlpha" operator="out"/>
<feColorMatrix type="matrix" values="0 0 0 0 0 0 0 0 0 0 0 0 0 0 0 0 0 0 0.25 0"/>
<feBlend mode="normal" in2="BackgroundImageFix" result="effect1_dropShadow_6099_28700"/>
<feBlend mode="normal" in="SourceGraphic" in2="effect1_dropShadow_6099_28700" result="shape"/>
</filter>
<filter id="filter1_d_6099_28700" x="11.7607" y="46" width="130.551" height="272.156" filterUnits="userSpaceOnUse" color-interpolation-filters="sRGB">
<feFlood flood-opacity="0" result="BackgroundImageFix"/>
<feColorMatrix in="SourceAlpha" type="matrix" values="0 0 0 0 0 0 0 0 0 0 0 0 0 0 0 0 0 0 127 0" result="hardAlpha"/>
<feOffset dy="4"/>
<feGaussianBlur stdDeviation="2"/>
<feComposite in2="hardAlpha" operator="out"/>
<feColorMatrix type="matrix" values="0 0 0 0 0 0 0 0 0 0 0 0 0 0 0 0 0 0 0.25 0"/>
<feBlend mode="normal" in2="BackgroundImageFix" result="effect1_dropShadow_6099_28700"/>
<feBlend mode="normal" in="SourceGraphic" in2="effect1_dropShadow_6099_28700" result="shape"/>
</filter>
<filter id="filter2_d_6099_28700" x="361.999" y="384.254" width="107.393" height="108.869" filterUnits="userSpaceOnUse" color-interpolation-filters="sRGB">
<feFlood flood-opacity="0" result="BackgroundImageFix"/>
<feColorMatrix in="SourceAlpha" type="matrix" values="0 0 0 0 0 0 0 0 0 0 0 0 0 0 0 0 0 0 127 0" result="hardAlpha"/>
<feOffset dy="4"/>
<feGaussianBlur stdDeviation="2"/>
<feComposite in2="hardAlpha" operator="out"/>
<feColorMatrix type="matrix" values="0 0 0 0 0 0 0 0 0 0 0 0 0 0 0 0 0 0 0.25 0"/>
<feBlend mode="normal" in2="BackgroundImageFix" result="effect1_dropShadow_6099_28700"/>
<feBlend mode="normal" in="SourceGraphic" in2="effect1_dropShadow_6099_28700" result="shape"/>
</filter>
<filter id="filter3_d_6099_28700" x="122.999" y="387.254" width="107.393" height="108.869" filterUnits="userSpaceOnUse" color-interpolation-filters="sRGB">
<feFlood flood-opacity="0" result="BackgroundImageFix"/>
<feColorMatrix in="SourceAlpha" type="matrix" values="0 0 0 0 0 0 0 0 0 0 0 0 0 0 0 0 0 0 127 0" result="hardAlpha"/>
<feOffset dy="4"/>
<feGaussianBlur stdDeviation="2"/>
<feComposite in2="hardAlpha" operator="out"/>
<feColorMatrix type="matrix" values="0 0 0 0 0 0 0 0 0 0 0 0 0 0 0 0 0 0 0.25 0"/>
<feBlend mode="normal" in2="BackgroundImageFix" result="effect1_dropShadow_6099_28700"/>
<feBlend mode="normal" in="SourceGraphic" in2="effect1_dropShadow_6099_28700" result="shape"/>
</filter>
<filter id="filter4_d_6099_28700" x="80" y="12.584" width="429.485" height="478.775" filterUnits="userSpaceOnUse" color-interpolation-filters="sRGB">
<feFlood flood-opacity="0" result="BackgroundImageFix"/>
<feColorMatrix in="SourceAlpha" type="matrix" values="0 0 0 0 0 0 0 0 0 0 0 0 0 0 0 0 0 0 127 0" result="hardAlpha"/>
<feOffset dy="3"/>
<feGaussianBlur stdDeviation="5"/>
<feComposite in2="hardAlpha" operator="out"/>
<feColorMatrix type="matrix" values="0 0 0 0 0.413999 0 0 0 0 0.609993 0 0 0 0 0.900604 0 0 0 1 0"/>
<feBlend mode="normal" in2="BackgroundImageFix" result="effect1_dropShadow_6099_28700"/>
<feBlend mode="normal" in="SourceGraphic" in2="effect1_dropShadow_6099_28700" result="shape"/>
</filter>
<clipPath id="paint4_angular_6099_28700_clip_path"><path d="M298.774 93.5391C305.72 94.3498 312.829 97.2006 328.344 106.979L365.528 128.933L404.058 150.885C420.685 160.311 428.618 165.332 430.491 171.941L430.48 171.946C431.555 174.177 432.778 177.65 433.179 181.194V306.639C432.538 313.44 432.311 321.69 430.476 326.05L430.491 326.059C428.618 332.668 420.685 337.689 404.058 347.115L365.528 369.067L328.344 391.021C312.829 400.799 305.72 403.65 298.774 404.461C291.499 403.65 284.051 400.799 267.798 391.021L228.842 369.067L188.478 347.115C171.331 337.836 163.01 332.826 160.883 326.367L160.786 326.059C158.546 322.027 157.89 314.84 157.202 307.534V182.09C157.761 177.144 159.647 173.62 160.867 171.681C162.969 165.199 171.289 160.187 188.478 150.885L228.842 128.933L267.798 106.979C284.051 97.2008 291.499 94.3498 298.774 93.5391ZM240.533 278.723L298.774 297.833L342.231 278.568L349.848 282.609V197.81L298.774 200.167L240.533 197.601V278.723Z"/></clipPath><filter id="filter5_d_6099_28700" x="177.517" y="125.768" width="239.13" height="232.766" filterUnits="userSpaceOnUse" color-interpolation-filters="sRGB">
<feFlood flood-opacity="0" result="BackgroundImageFix"/>
<feColorMatrix in="SourceAlpha" type="matrix" values="0 0 0 0 0 0 0 0 0 0 0 0 0 0 0 0 0 0 127 0" result="hardAlpha"/>
<feOffset dx="-2.92" dy="4.87"/>
<feGaussianBlur stdDeviation="1.945"/>
<feComposite in2="hardAlpha" operator="out"/>
<feColorMatrix type="matrix" values="0 0 0 0 0.0352941 0 0 0 0 0.0980392 0 0 0 0 0.368627 0 0 0 0.25 0"/>
<feBlend mode="normal" in2="BackgroundImageFix" result="effect1_dropShadow_6099_28700"/>
<feBlend mode="normal" in="SourceGraphic" in2="effect1_dropShadow_6099_28700" result="shape"/>
</filter>
<linearGradient id="paint0_linear_6099_28700" x1="153.999" y1="421" x2="153.499" y2="546.5" gradientUnits="userSpaceOnUse">
<stop stop-color="#F2C3FF"/>
<stop offset="1" stop-color="#CBFFFF"/>
</linearGradient>
<linearGradient id="paint1_linear_6099_28700" x1="153.999" y1="421" x2="153.499" y2="546.5" gradientUnits="userSpaceOnUse">
<stop stop-color="#F2C3FF"/>
<stop offset="1" stop-color="#CBFFFF"/>
</linearGradient>
<linearGradient id="paint2_linear_6099_28700" x1="437.499" y1="546.5" x2="437.001" y2="430.5" gradientUnits="userSpaceOnUse">
<stop stop-color="#CBFFFF"/>
<stop offset="1" stop-color="#F2C3FF"/>
</linearGradient>
<linearGradient id="paint3_linear_6099_28700" x1="295.999" y1="490.5" x2="295.999" y2="622" gradientUnits="userSpaceOnUse">
<stop stop-color="#F2C3FF"/>
<stop offset="1" stop-color="#CBFFFF"/>
</linearGradient>
</defs>
</svg>
