<svg width="430" height="480" viewBox="0 0 430 480" fill="none" xmlns="http://www.w3.org/2000/svg">
<g filter="url(#filter0_d_6193_28681)">
<path d="M10 145.987C10 128.042 19.6163 111.473 35.1977 102.572L189.941 14.1693C205.31 5.38898 224.176 5.389 239.545 14.1693L394.288 102.572C409.87 111.473 419.486 128.042 419.486 145.987V327.599C419.486 345.513 409.902 362.058 394.363 370.971L239.621 459.73C224.213 468.568 205.273 468.568 189.865 459.73L35.1224 370.971C19.5834 362.058 10 345.513 10 327.599V145.987Z" fill="#151313"/>
</g>
<path fill-rule="evenodd" clip-rule="evenodd" d="M360.857 132.612V145.158H360.856V326.583L359.708 326.604V344.076L405.099 344.973C408.089 340.144 409.69 335.564 409.242 325.708V145.158H409.094C408.675 137.043 407.322 135.545 404.501 129.5L360.857 132.612Z" fill="#1A1918"/>
<path d="M215.445 19.8428C223.52 19.0901 230.413 21.4708 246.806 30.5952L313.113 70.0205L376.283 106.758C391.5 115.5 399.242 120.119 404.5 129.5L360.602 150.215L215.445 68.9945V19.8428Z" fill="#18181D"/>
<path fill-rule="evenodd" clip-rule="evenodd" d="M70.2881 132.613V145.158H70.29V326.583L71.4385 326.604V344.076L26.0469 344.973C23.0578 340.144 21.4563 335.564 21.9043 325.708V152.324L21.9033 152.325C21.0075 137.989 22.5373 136.545 25.4873 131.717L70.2881 132.613Z" fill="#100F0E"/>
<path d="M215.445 19.8429C207.371 19.0901 200.478 21.4708 184.084 30.5952L117.778 70.0206L54.6079 106.758C36.4388 117.014 30.7443 122.466 25.4869 131.847L70.2884 150.215L215.445 69.4426V19.8429Z" fill="#161719"/>
<path d="M215.445 455.632C207.371 456.385 200.478 454.004 184.084 444.879L117.778 405.454L54.6079 368.717C36.4388 358.461 30.7443 353.009 25.4869 343.628L70.2884 325.259L215.445 409.486V455.632Z" fill="#15100E"/>
<path d="M215.445 455.632C223.52 456.385 230.413 454.004 246.806 444.879L313.113 405.454L376.283 368.717C394.452 358.461 400.146 353.009 405.404 343.628L360.602 325.259L215.445 409.038V455.632Z" fill="#141311"/>
<path d="M59.2812 162.666C59.2812 152.368 64.8036 142.861 73.749 137.759L200.537 65.4475C209.342 60.426 220.143 60.4259 228.948 65.4475L355.736 137.759C364.681 142.861 370.204 152.368 370.204 162.666V311.009C370.204 321.289 364.7 330.783 355.779 335.891L228.991 408.495C220.164 413.549 209.321 413.549 200.494 408.495L73.7058 335.891C64.7847 330.783 59.2812 321.289 59.2812 311.009V162.666Z" fill="#171514"/>
<g filter="url(#filter1_d_6193_28681)">
<path d="M81.6833 158.442C82.5793 157.098 160.534 157.994 160.534 157.994V288.814C160.534 288.814 83.0273 318.09 80.7872 314.058C78.5472 310.026 77.8912 302.84 77.2031 295.535V235.5V170.09C77.9155 163.781 80.7872 159.786 81.6833 158.442Z" fill="#171717"/>
<path d="M348.7 157.546C348.252 158.286 269.849 157.098 269.849 157.098V287.918C269.849 287.918 347.804 318.986 350.044 314.954C352.284 310.922 352.492 301.944 353.18 294.638V234.604V169.194C352.467 162.885 349.148 156.805 348.7 157.546Z" fill="#171717"/>
<path d="M218.775 81.5391C225.721 82.3498 232.83 85.2006 248.344 94.9795L285.53 116.932L324.059 138.885C340.686 148.312 348.619 153.332 350.492 159.942L306.138 184.135L218.775 188.167V81.5391Z" fill="#171717"/>
<path d="M218.775 392.461C225.721 391.65 232.83 388.799 248.344 379.02L285.53 357.068L324.059 335.115C340.686 325.688 348.619 320.668 350.492 314.058L306.138 289.865L262.233 266.569L218.775 285.833V392.461Z" fill="#171717"/>
<path d="M218.775 81.5391C211.499 82.3498 204.051 85.2006 187.798 94.9795L148.842 116.932L108.478 138.885C91.0595 148.312 82.7488 153.332 80.7867 159.942L127.252 184.135L218.775 188.167V81.5391Z" fill="#171717"/>
<path d="M218.775 392.461C211.499 391.65 204.051 388.799 187.798 379.02L148.842 357.068L108.478 335.115C91.0595 325.688 82.7488 320.668 80.7867 314.058L158.699 266.121L153 174L287 171.5L277.5 266.121L218.775 392.461Z" fill="#171717"/>
</g>
<g filter="url(#filter2_d_6193_28681)">
<path fill-rule="evenodd" clip-rule="evenodd" d="M202.481 146.423C207.148 135.493 213.995 128.071 220.133 129.094L220.138 129.247C225.29 129.614 228.442 135.466 233.907 145.522L251.706 180.319C253.212 182.623 254.053 183.658 255.081 184.592C256.439 185.711 258.058 186.777 260.372 187.285L299.273 193.425C311.173 195.09 317.904 196.005 319.788 200.998L319.796 200.996C322.797 206.308 317.615 214.9 308.878 223.068L279.489 249.294C277.729 251.207 276.329 253.435 275.434 255.059C275.479 256.802 275.691 259.033 276.011 261.187L285.213 298.896C287.758 310.399 286.158 320.555 281.111 323.015L280.845 323.147C276.05 326.613 270.009 323.671 259.384 318.552L224.521 300.558C220.712 298.905 219.797 299.125 218.442 299.17C216.667 299.404 214.57 299.806 212.744 300.527L178.011 318.848C167.317 324.141 161.286 327.158 156.677 323.816L156.684 323.801C151.374 321.194 150.213 311.305 152.691 299.749L159.888 261.565C160.336 258.32 160.717 254.318 160.474 252.616L160.59 252.585C160.183 251.531 159.559 250.415 158.526 249.291L129.282 223.174C120.588 215.04 115.909 206.123 118.908 200.818L118.958 200.832C120.974 195.922 127.619 194.977 139.193 193.287L178.206 188.576C181.429 187.837 182.613 187.367 184.142 186.482L184.147 186.49C185.123 185.808 186.355 184.756 187.974 182.77L202.481 146.423Z" fill="#272220"/>
</g>
<defs>
<filter id="filter0_d_6193_28681" x="0" y="0.583984" width="429.486" height="478.775" filterUnits="userSpaceOnUse" color-interpolation-filters="sRGB">
<feFlood flood-opacity="0" result="BackgroundImageFix"/>
<feColorMatrix in="SourceAlpha" type="matrix" values="0 0 0 0 0 0 0 0 0 0 0 0 0 0 0 0 0 0 127 0" result="hardAlpha"/>
<feOffset dy="3"/>
<feGaussianBlur stdDeviation="5"/>
<feComposite in2="hardAlpha" operator="out"/>
<feColorMatrix type="matrix" values="0 0 0 0 0.213251 0 0 0 0 0.147996 0 0 0 0 0.132865 0 0 0 1 0"/>
<feBlend mode="normal" in2="BackgroundImageFix" result="effect1_dropShadow_6193_28681"/>
<feBlend mode="normal" in="SourceGraphic" in2="effect1_dropShadow_6193_28681" result="shape"/>
</filter>
<filter id="filter1_d_6193_28681" x="73.2031" y="81.5391" width="283.977" height="318.922" filterUnits="userSpaceOnUse" color-interpolation-filters="sRGB">
<feFlood flood-opacity="0" result="BackgroundImageFix"/>
<feColorMatrix in="SourceAlpha" type="matrix" values="0 0 0 0 0 0 0 0 0 0 0 0 0 0 0 0 0 0 127 0" result="hardAlpha"/>
<feOffset dy="4"/>
<feGaussianBlur stdDeviation="2"/>
<feComposite in2="hardAlpha" operator="out"/>
<feColorMatrix type="matrix" values="0 0 0 0 0 0 0 0 0 0 0 0 0 0 0 0 0 0 0.25 0"/>
<feBlend mode="normal" in2="BackgroundImageFix" result="effect1_dropShadow_6193_28681"/>
<feBlend mode="normal" in="SourceGraphic" in2="effect1_dropShadow_6193_28681" result="shape"/>
</filter>
<filter id="filter2_d_6193_28681" x="78" y="89" width="282.652" height="276.219" filterUnits="userSpaceOnUse" color-interpolation-filters="sRGB">
<feFlood flood-opacity="0" result="BackgroundImageFix"/>
<feColorMatrix in="SourceAlpha" type="matrix" values="0 0 0 0 0 0 0 0 0 0 0 0 0 0 0 0 0 0 127 0" result="hardAlpha"/>
<feOffset/>
<feGaussianBlur stdDeviation="20"/>
<feComposite in2="hardAlpha" operator="out"/>
<feColorMatrix type="matrix" values="0 0 0 0 0 0 0 0 0 0 0 0 0 0 0 0 0 0 0.4 0"/>
<feBlend mode="normal" in2="BackgroundImageFix" result="effect1_dropShadow_6193_28681"/>
<feBlend mode="normal" in="SourceGraphic" in2="effect1_dropShadow_6193_28681" result="shape"/>
</filter>
</defs>
</svg>
