<svg width="420" height="480" viewBox="0 0 420 480" fill="none" xmlns="http://www.w3.org/2000/svg">
<g filter="url(#filter0_d_6039_34060)">
<path d="M0 145.987C0 128.042 9.61632 111.473 25.1977 102.572L179.941 14.1693C195.31 5.38898 214.176 5.389 229.545 14.1693L384.288 102.572C399.87 111.473 409.486 128.042 409.486 145.987V327.599C409.486 345.513 399.902 362.058 384.363 370.971L229.621 459.73C214.213 468.568 195.273 468.568 179.865 459.73L25.1224 370.971C9.58342 362.058 0 345.513 0 327.599V145.987Z" fill="#93422D"/>
</g>
<path fill-rule="evenodd" clip-rule="evenodd" d="M350.856 132.612V145.158H350.855V326.583L349.707 326.604V344.076L395.099 344.973C398.088 340.144 399.689 335.564 399.241 325.708V145.158H399.093C398.674 137.043 397.321 135.545 394.5 129.5L350.856 132.612Z" fill="#B86247"/>
<path d="M205.445 19.8428C213.52 19.0901 220.413 21.4708 236.806 30.5952L303.113 70.0205L366.283 106.758C381.5 115.5 389.242 120.119 394.5 129.5L350.602 150.215L205.445 68.9945V19.8428Z" fill="#B26239"/>
<path fill-rule="evenodd" clip-rule="evenodd" d="M60.2871 132.613V145.158H60.289V326.583L61.4375 326.604V344.076L16.0459 344.973C13.0568 340.144 11.4553 335.564 11.9033 325.708V152.324L11.9023 152.325C11.0065 137.989 12.5363 136.545 15.4863 131.717L60.2871 132.613Z" fill="#B86247"/>
<path d="M205.445 19.8429C197.371 19.0901 190.478 21.4708 174.084 30.5952L107.778 70.0206L44.6079 106.758C26.4388 117.014 20.7443 122.466 15.4869 131.847L60.2884 150.215L205.445 69.4426V19.8429Z" fill="#B06C4F"/>
<path d="M205.445 455.632C197.371 456.385 190.478 454.004 174.084 444.879L107.778 405.454L44.6079 368.717C26.4388 358.461 20.7443 353.009 15.4869 343.628L60.2884 325.259L205.445 409.486V455.632Z" fill="#BC715A"/>
<path d="M205.445 455.632C213.52 456.385 220.413 454.004 236.806 444.879L303.113 405.454L366.283 368.717C384.452 358.461 390.146 353.009 395.404 343.628L350.602 325.259L205.445 409.038V455.632Z" fill="#BB6C48"/>
<path d="M49.2812 162.666C49.2812 152.368 54.8036 142.861 63.749 137.759L190.537 65.4475C199.342 60.426 210.143 60.4259 218.948 65.4475L345.736 137.759C354.681 142.861 360.204 152.368 360.204 162.666V311.009C360.204 321.289 354.7 330.783 345.779 335.891L218.991 408.495C210.164 413.549 199.321 413.549 190.494 408.495L63.7058 335.891C54.7847 330.783 49.2812 321.289 49.2812 311.009V162.666Z" fill="#702D1C"/>
<g filter="url(#filter1_d_6039_34060)">
<path d="M71.6823 158.442C72.5783 157.098 150.533 157.994 150.533 157.994V288.814C150.533 288.814 73.0263 318.09 70.7863 314.058C68.5462 310.026 67.8903 302.84 67.2021 295.535V235.5V170.09C67.9145 163.781 70.7863 159.786 71.6823 158.442Z" fill="#C77656"/>
<path d="M338.7 157.546C338.252 158.286 259.849 157.098 259.849 157.098V287.918C259.849 287.918 337.804 318.986 340.044 314.954C342.284 310.922 342.492 301.944 343.18 294.638V234.604V169.194C342.467 162.885 339.148 156.805 338.7 157.546Z" fill="#C77656"/>
<path d="M208.774 81.5391C215.72 82.3498 222.829 85.2006 238.343 94.9795L275.529 116.932L314.058 138.885C330.685 148.312 338.618 153.332 340.491 159.942L296.137 184.135L208.774 188.167V81.5391Z" fill="#C77656"/>
<path d="M208.774 392.461C215.72 391.65 222.829 388.799 238.343 379.02L275.529 357.068L314.058 335.115C330.685 325.688 338.618 320.668 340.491 314.058L296.137 289.865L252.232 266.569L208.774 285.833V392.461Z" fill="#C77656"/>
<path d="M208.774 81.5391C201.498 82.3498 194.05 85.2006 177.797 94.9795L138.841 116.932L98.4773 138.885C81.0585 148.312 72.7478 153.332 70.7858 159.942L117.251 184.135L208.774 188.167V81.5391Z" fill="#C77656"/>
<path d="M208.774 392.461C201.498 391.65 194.05 388.799 177.797 379.02L138.841 357.068L98.4773 335.115C81.0585 325.688 72.7478 320.668 70.7858 314.058L148.698 266.121L208.774 285.833V392.461Z" fill="#C77656"/>
</g>
<g filter="url(#filter2_d_6039_34060)">
<path fill-rule="evenodd" clip-rule="evenodd" d="M189.632 130.101C194.96 117.623 202.775 109.151 209.783 110.318L209.789 110.493C215.672 110.911 219.27 117.591 225.509 129.072L245.83 168.798C247.522 171.386 248.476 172.573 249.625 173.627C251.187 174.922 253.048 176.163 255.722 176.751L300.134 183.761C313.72 185.661 321.404 186.705 323.554 192.406L323.562 192.404C326.988 198.468 321.073 208.277 311.098 217.601L277.547 247.542C275.538 249.726 273.94 252.27 272.919 254.124C272.969 256.114 273.212 258.66 273.577 261.119L284.083 304.169C286.989 317.301 285.16 328.895 279.399 331.704L279.095 331.854C273.621 335.811 266.724 332.453 254.594 326.609L214.795 306.066C210.45 304.181 209.403 304.43 207.858 304.481C205.831 304.748 203.435 305.207 201.349 306.03L161.696 326.947C149.487 332.99 142.602 336.434 137.34 332.618L137.349 332.6C131.288 329.624 129.962 318.335 132.791 305.143L141.006 261.551C141.519 257.846 141.953 253.278 141.675 251.334L141.808 251.299C141.344 250.095 140.632 248.822 139.453 247.539L106.067 217.723C96.1418 208.436 90.7989 198.256 94.2232 192.2L94.2789 192.217C96.5805 186.61 104.167 185.533 117.38 183.603L161.918 178.225C165.598 177.38 166.95 176.845 168.696 175.834L168.701 175.843C169.814 175.065 171.222 173.864 173.07 171.597L189.632 130.101ZM206.828 239.558L208.392 242.172L205.737 241.018L203.749 243.684L209.244 287.755L214.959 243.404L212.207 238.727L208.389 240.315L210.747 236.247L210.108 235.16L206.828 239.558ZM172.923 243.276L191.346 238.527L193.073 235.519L192.893 235.442L172.923 243.276ZM229.102 238.465L234.277 240.02L228.722 237.76L229.102 238.465ZM202.263 231.766L202.29 231.973L204.224 235.206L209.357 233.883L208.389 232.238L212.377 233.436L212.991 232.376L211.626 230.8L208.239 229.422L202.263 231.766ZM206.221 226.706L208.543 227.422L208.666 227.384L207.136 225.619L206.221 226.706ZM213.674 217.864L213.961 225.771L217.364 224.736L218.206 218.215L219.647 220.894L238.423 188.506L213.674 217.864ZM197.537 224.031L199.347 224.589L199.472 224.37L200.058 217.449L179.176 193.35L197.537 224.031Z" fill="#702D1C"/>
</g>
<path d="M165.845 184.534C169.251 183.901 170.502 183.5 172.117 182.742L208.855 232.472L103.123 195.287C105.092 190.854 112.148 190.043 124.628 188.566L165.845 184.534Z" fill="#D16F51"/>
<path d="M146.363 244.69C148.774 247.177 149.268 249.497 149.716 251.289L208.858 232.473L103.123 195.287C100.435 200.215 105.751 209.132 115.076 217.556L146.363 244.69Z" fill="#9F5C47"/>
<path d="M216.452 298.658C213.299 297.225 211.509 296.844 209.75 296.539L208.854 232.473L274.013 325.796C269.858 328.3 263.612 324.921 252.539 318.978L216.452 298.658Z" fill="#995844"/>
<path d="M266.895 260.528C266.344 257.108 266.031 253.513 266.2 251.736L208.854 232.471L274.012 325.795C279.04 323.297 279.795 312.943 276.981 300.695L266.895 260.528Z" fill="#AD5C43"/>
<path d="M201.03 298.978C204.183 297.545 207.992 296.843 209.75 296.538L208.854 232.472L143.469 326.117C147.624 328.621 153.87 325.241 164.943 319.298L201.03 298.978Z" fill="#B5634A"/>
<path d="M148.821 260.696C149.371 257.276 149.886 253.065 149.717 251.288L208.855 232.472L143.47 326.115C138.443 323.617 137.688 313.263 140.501 301.015L148.821 260.696Z" fill="#D9785A"/>
<path d="M252.312 183.19C248.906 182.556 246.936 180.95 245.143 179.605L208.857 232.536L314.589 195.351C312.62 190.918 305.564 190.107 293.084 188.631L252.312 183.19Z" fill="#D9785A"/>
<path d="M271.349 244.756C268.938 247.242 267.08 250.184 266.201 251.737L208.854 232.538L314.589 195.352C317.277 200.28 311.961 209.197 302.636 217.621L271.349 244.756Z" fill="#9F5C47"/>
<path d="M241.367 174.292C243.135 177.272 243.943 178.307 245.211 179.563L208.855 232.472L209.659 119.118C214.499 119.439 217.692 125.783 223.378 136.989L241.367 174.292Z" fill="#A85B43"/>
<path d="M178.181 176.733C174.805 181.398 173.271 181.382 172.117 182.742L208.854 232.472L209.658 119.117C204.105 118.292 197.566 126.355 192.872 138.012L178.181 176.733Z" fill="#D9785A"/>
<defs>
<filter id="filter0_d_6039_34060" x="-10" y="0.583984" width="429.486" height="478.775" filterUnits="userSpaceOnUse" color-interpolation-filters="sRGB">
<feFlood flood-opacity="0" result="BackgroundImageFix"/>
<feColorMatrix in="SourceAlpha" type="matrix" values="0 0 0 0 0 0 0 0 0 0 0 0 0 0 0 0 0 0 127 0" result="hardAlpha"/>
<feOffset dy="3"/>
<feGaussianBlur stdDeviation="5"/>
<feComposite in2="hardAlpha" operator="out"/>
<feColorMatrix type="matrix" values="0 0 0 0 0.368627 0 0 0 0 0.0980392 0 0 0 0 0.0352941 0 0 0 1 0"/>
<feBlend mode="normal" in2="BackgroundImageFix" result="effect1_dropShadow_6039_34060"/>
<feBlend mode="normal" in="SourceGraphic" in2="effect1_dropShadow_6039_34060" result="shape"/>
</filter>
<filter id="filter1_d_6039_34060" x="63.2021" y="81.5391" width="283.978" height="318.922" filterUnits="userSpaceOnUse" color-interpolation-filters="sRGB">
<feFlood flood-opacity="0" result="BackgroundImageFix"/>
<feColorMatrix in="SourceAlpha" type="matrix" values="0 0 0 0 0 0 0 0 0 0 0 0 0 0 0 0 0 0 127 0" result="hardAlpha"/>
<feOffset dy="4"/>
<feGaussianBlur stdDeviation="2"/>
<feComposite in2="hardAlpha" operator="out"/>
<feColorMatrix type="matrix" values="0 0 0 0 0 0 0 0 0 0 0 0 0 0 0 0 0 0 0.25 0"/>
<feBlend mode="normal" in2="BackgroundImageFix" result="effect1_dropShadow_6039_34060"/>
<feBlend mode="normal" in="SourceGraphic" in2="effect1_dropShadow_6039_34060" result="shape"/>
</filter>
<filter id="filter2_d_6039_34060" x="86.1865" y="110.211" width="239.354" height="232.01" filterUnits="userSpaceOnUse" color-interpolation-filters="sRGB">
<feFlood flood-opacity="0" result="BackgroundImageFix"/>
<feColorMatrix in="SourceAlpha" type="matrix" values="0 0 0 0 0 0 0 0 0 0 0 0 0 0 0 0 0 0 127 0" result="hardAlpha"/>
<feOffset dx="-3" dy="4"/>
<feGaussianBlur stdDeviation="2"/>
<feComposite in2="hardAlpha" operator="out"/>
<feColorMatrix type="matrix" values="0 0 0 0 0.368627 0 0 0 0 0.0980392 0 0 0 0 0.0352941 0 0 0 0.25 0"/>
<feBlend mode="normal" in2="BackgroundImageFix" result="effect1_dropShadow_6039_34060"/>
<feBlend mode="normal" in="SourceGraphic" in2="effect1_dropShadow_6039_34060" result="shape"/>
</filter>
</defs>
</svg>
