<svg width="557" height="580" viewBox="0 0 557 580" fill="none" xmlns="http://www.w3.org/2000/svg">
<path d="M434 93.1555L535 37.1555C551.768 30.6799 557.147 33.2357 556.5 53.6555L534 196.156C531.429 204.04 529.653 208.151 524.5 213.656C520.288 218.155 513 222.155 508.5 224.155C506.279 225.162 505.516 226.34 505.5 230.155V266.655C505.084 275.468 502.635 278.435 496.5 282.155L466 298.155L434 93.1555Z" fill="#2E0070"/>
<path d="M520 96.9974L537 60.9974C541.468 52.1709 542.703 51.9749 541.5 64.4974L526.5 154L520 96.9974Z" fill="#AC09DA"/>
<path d="M539 54.9998C540.655 54.4685 541.5 54.5005 541.5 55C541.5 55.4995 520 96.9998 520 96.9998H454L539 54.9998Z" fill="#7F00A3"/>
<path d="M454 97H520L481.5 134L454 97Z" fill="#6B0189"/>
<path d="M481.5 134L520 97L526.5 154L481.5 134Z" fill="#7F00A3"/>
<path d="M454 210L497 214V270C495.343 275.862 486.871 279.322 471.5 285.5L454 210Z" fill="#660482"/>
<path d="M469 212L497 214.867V255L469 212Z" fill="#9518B8"/>
<path d="M480.889 133.5L526.889 154L521 194L480.889 133.5Z" fill="#9405BC"/>
<path d="M469 195L521 194C519.904 202.61 515 209 509 212C505.5 213.75 490.365 217.748 477 215L469 195Z" fill="#7F00A3"/>
<path d="M481.507 134L521 194L481 195L481.507 134Z" fill="#660282"/>
<path d="M181 411H189V507C186.357 506.303 184.373 505.221 181 503.518V411Z" fill="#2E0070"/>
<path d="M123 321H184V505C132.98 480.5 123.347 437.389 123 425.5V321Z" fill="#2E0070"/>
<path d="M129 336H184V498.5C139.672 477.062 129.302 437.84 129 427.438V336Z" fill="#580570"/>
<path d="M141 358H184V483.5C150.149 467.01 141.23 436.339 141 428.337V358Z" fill="#7F00A3"/>
<path d="M150 373H184V473C156.597 459.808 150.187 435.671 150 429.269V373Z" fill="#580570"/>
<path d="M376 411H368V507C370.644 506.303 372.628 505.221 376 503.518V411Z" fill="#2E0070"/>
<path d="M434 321H373V505C424.021 480.5 433.654 437.389 434 425.5V321Z" fill="#2E0070"/>
<path d="M428 336H373V498.5C417.329 477.062 427.699 437.84 428 427.438V336Z" fill="#580570"/>
<path d="M416 358H373V483.5C406.852 467.01 415.771 436.339 416 428.337V358Z" fill="#7F00A3"/>
<path d="M407 373H373V473C400.404 459.808 406.814 435.671 407 429.269V373Z" fill="#580570"/>
<path d="M197 345C197 342.791 198.791 341 201 341H356C358.21 341 360 342.791 360 345V508.604C360 509.715 359.539 510.776 358.726 511.532L287.214 578.084C284.176 580.686 282.356 580.59 279.013 578.084L198.453 511.546C197.533 510.786 197 509.655 197 508.462V345Z" fill="#2E0070"/>
<path d="M203 351C203 348.791 204.791 347 207 347H351C353.21 347 355 348.791 355 351V506.123C355 507.221 354.549 508.271 353.752 509.026L287.126 572.18C284.293 574.652 282.596 574.561 279.478 572.18L204.425 509.042C203.522 508.282 203 507.162 203 505.981V351Z" fill="#580570"/>
<path d="M211 361C211 358.239 213.239 356 216 356H341C343.762 356 346 358.239 346 361V497.698C346 499.064 345.441 500.371 344.453 501.315L285.717 557.373C283.201 559.583 281.694 559.501 278.925 557.373L212.769 501.335C211.647 500.385 211 498.99 211 497.52V361Z" fill="#7F00A3"/>
<path d="M220 361C220 358.239 222.239 356 225 356H333C335.762 356 338 358.239 338 361V495.272C338 496.64 337.439 497.949 336.448 498.893L285.309 547.581C283.109 549.508 281.791 549.437 279.372 547.581L221.773 498.913C220.649 497.963 220 496.566 220 495.094V361Z" fill="#580570"/>
<path d="M237 376C237 373.239 239.239 371 242 371H315C317.762 371 320 373.239 320 376V487.663C320 489.034 319.438 490.344 318.443 491.288L282.938 525.005C281.391 526.357 280.464 526.307 278.761 525.005L238.778 491.308C237.651 490.358 237 488.959 237 487.485V376Z" fill="#AE15C9"/>
<path d="M122.551 93.1555L21.5513 37.1555C4.78394 30.6799 -0.595566 33.2357 0.0512695 53.6555L22.5513 196.156C25.1226 204.04 26.8989 208.151 32.0513 213.656C36.2634 218.155 43.5513 222.155 48.0513 224.155C50.2723 225.162 51.036 226.34 51.0513 230.155V266.655C51.4674 275.468 53.917 278.435 60.0513 282.155L90.5513 298.155L122.551 93.1555Z" fill="#2E0070"/>
<path d="M36.5513 96.9974L19.5513 60.9974C15.0841 52.1709 13.8483 51.9749 15.0513 64.4974L30.0513 154L36.5513 96.9974Z" fill="#AC09DA"/>
<path d="M17.5513 54.9998C15.8965 54.4685 15.0513 54.5005 15.0513 55C15.0513 55.4995 36.5513 96.9998 36.5513 96.9998H102.551L17.5513 54.9998Z" fill="#7F00A3"/>
<path d="M102.551 97H36.5513L75.0513 134L102.551 97Z" fill="#6B0189"/>
<path d="M75.0513 134L36.5513 97L30.0513 154L75.0513 134Z" fill="#7F00A3"/>
<path d="M102.551 210L59.5513 214V270C61.2083 275.862 69.6812 279.322 85.0513 285.5L102.551 210Z" fill="#660482"/>
<path d="M87.5513 212L59.5513 214.867V255L87.5513 212Z" fill="#9418B7"/>
<path d="M75.8887 133.5L29.5513 152.182L35.5513 194L75.8887 133.5Z" fill="#9405BC"/>
<path d="M87.5513 195L35.5513 194C36.6479 202.61 41.5513 209 47.5513 212C51.0513 213.75 66.1865 217.748 79.5513 215L87.5513 195Z" fill="#7F00A3"/>
<path d="M75.0449 134L35.5513 194L75.5513 195L75.0449 134Z" fill="#640281"/>
<g filter="url(#filter0_d_6117_29542)">
<path d="M74.0005 145.987C74.0005 128.042 83.6168 111.473 99.1981 102.572L253.941 14.1693C269.31 5.38898 288.176 5.389 303.546 14.1693L458.289 102.572C473.87 111.473 483.486 128.042 483.486 145.987V327.6C483.486 345.513 473.903 362.058 458.364 370.971L303.621 459.73C288.213 468.568 269.274 468.568 253.866 459.73L99.1229 370.971C83.5839 362.058 74.0005 345.513 74.0005 327.599V145.987Z" fill="#2E0070"/>
</g>
<path fill-rule="evenodd" clip-rule="evenodd" d="M424.857 132.612V145.158H424.855V326.583L423.707 326.604V344.076L469.099 344.973C472.088 340.144 473.689 335.564 473.241 325.708V145.158H473.094C472.675 137.043 471.322 135.545 468.501 129.5L424.857 132.612Z" fill="#79049A"/>
<path d="M279.447 19.8428C287.522 19.0901 294.415 21.4708 310.808 30.5952L377.115 70.0205L440.285 106.758C455.501 115.5 463.244 120.119 468.501 129.5L424.604 150.215L279.447 68.9945V19.8428Z" fill="url(#paint0_linear_6117_29542)"/>
<path fill-rule="evenodd" clip-rule="evenodd" d="M134.287 132.613V145.158H134.289V326.583L135.437 326.604V344.076L90.0458 344.973C87.0567 340.144 85.4552 335.564 85.9032 325.708V152.324L85.9022 152.325C85.0064 137.989 86.5371 136.545 89.4872 131.717L134.287 132.613Z" fill="#8505A9"/>
<path d="M279.447 19.8429C271.373 19.0901 264.48 21.4708 248.086 30.5952L181.78 70.0206L118.61 106.758C100.441 117.014 94.7462 122.466 89.4889 131.847L134.29 150.215L279.447 69.4426V19.8429Z" fill="#8F11B2"/>
<path d="M279.447 455.632C271.373 456.385 264.48 454.004 248.086 444.879L181.78 405.454L118.61 368.717C100.441 358.461 94.7462 353.009 89.4889 343.628L134.29 325.259L279.447 409.486V455.632Z" fill="#770D95"/>
<path d="M279.447 455.632C287.522 456.385 294.415 454.004 310.808 444.879L377.115 405.454L440.285 368.717C458.454 358.461 464.148 353.009 469.406 343.628L424.604 325.259L279.447 409.038V455.632Z" fill="#920CB7"/>
<path d="M123.282 162.666C123.282 152.368 128.804 142.861 137.749 137.759L264.538 65.4475C273.342 60.426 284.144 60.4259 292.948 65.4475L419.737 137.759C428.682 142.861 434.204 152.368 434.204 162.666V311.009C434.204 321.289 428.701 330.783 419.78 335.891L292.991 408.495C284.165 413.549 273.321 413.549 264.495 408.495L137.706 335.891C128.785 330.783 123.282 321.289 123.282 311.009V162.666Z" fill="#2E0070"/>
<g clip-path="url(#paint1_angular_6117_29542_clip_path)" data-figma-skip-parse="true"><g transform="matrix(0.173999 0.084 -0.074559 0.154443 279 237)"><foreignObject x="-1166.62" y="-1166.62" width="2333.25" height="2333.25"><div xmlns="http://www.w3.org/1999/xhtml" style="background:conic-gradient(from 90deg,rgba(127, 0, 163, 1) 0deg,rgba(146, 12, 183, 1) 74.4231deg,rgba(119, 13, 149, 1) 155.769deg,rgba(133, 5, 169, 1) 225deg,rgba(121, 4, 154, 1) 304.615deg,rgba(127, 0, 163, 1) 360deg);height:100%;width:100%;opacity:1"></div></foreignObject></g></g><path d="M282.775 81.5391C289.72 82.3498 296.83 85.2006 312.344 94.9795L349.529 116.933L388.058 138.885C404.685 148.311 412.619 153.332 414.492 159.941L414.481 159.946C415.556 162.177 416.779 165.65 417.179 169.194V294.639C416.539 301.44 416.311 309.69 414.476 314.05L414.492 314.059C412.619 320.668 404.685 325.689 388.058 335.115L349.529 357.067L312.344 379.021C296.83 388.799 289.72 391.65 282.775 392.461C275.499 391.65 268.051 388.799 251.798 379.021L212.842 357.067L172.478 335.115C155.332 325.836 147.011 320.826 144.883 314.367L144.787 314.059C142.547 310.027 141.891 302.84 141.203 295.534V170.09C141.761 165.144 143.647 161.62 144.868 159.681C146.97 153.199 155.289 148.187 172.478 138.885L212.842 116.933L251.798 94.9795C268.051 85.2008 275.499 82.3498 282.775 81.5391ZM224.534 266.723L282.775 285.833L326.232 266.568L333.848 270.609V185.81L282.775 188.167L224.534 185.601V266.723Z" data-figma-gradient-fill="{&#34;type&#34;:&#34;GRADIENT_ANGULAR&#34;,&#34;stops&#34;:[{&#34;color&#34;:{&#34;r&#34;:0.49803921580314636,&#34;g&#34;:0.0,&#34;b&#34;:0.63921570777893066,&#34;a&#34;:1.0},&#34;position&#34;:0.0},{&#34;color&#34;:{&#34;r&#34;:0.57254904508590698,&#34;g&#34;:0.047058824449777603,&#34;b&#34;:0.71764707565307617,&#34;a&#34;:1.0},&#34;position&#34;:0.20673078298568726},{&#34;color&#34;:{&#34;r&#34;:0.46666666865348816,&#34;g&#34;:0.050980392843484879,&#34;b&#34;:0.58431375026702881,&#34;a&#34;:1.0},&#34;position&#34;:0.43269228935241699},{&#34;color&#34;:{&#34;r&#34;:0.52156865596771240,&#34;g&#34;:0.019607843831181526,&#34;b&#34;:0.66274511814117432,&#34;a&#34;:1.0},&#34;position&#34;:0.6250},{&#34;color&#34;:{&#34;r&#34;:0.47450980544090271,&#34;g&#34;:0.015686275437474251,&#34;b&#34;:0.60392159223556519,&#34;a&#34;:1.0},&#34;position&#34;:0.84615385532379150}],&#34;stopsVar&#34;:[{&#34;color&#34;:{&#34;r&#34;:0.49803921580314636,&#34;g&#34;:0.0,&#34;b&#34;:0.63921570777893066,&#34;a&#34;:1.0},&#34;position&#34;:0.0},{&#34;color&#34;:{&#34;r&#34;:0.57254904508590698,&#34;g&#34;:0.047058824449777603,&#34;b&#34;:0.71764707565307617,&#34;a&#34;:1.0},&#34;position&#34;:0.20673078298568726},{&#34;color&#34;:{&#34;r&#34;:0.46666666865348816,&#34;g&#34;:0.050980392843484879,&#34;b&#34;:0.58431375026702881,&#34;a&#34;:1.0},&#34;position&#34;:0.43269228935241699},{&#34;color&#34;:{&#34;r&#34;:0.52156865596771240,&#34;g&#34;:0.019607843831181526,&#34;b&#34;:0.66274511814117432,&#34;a&#34;:1.0},&#34;position&#34;:0.6250},{&#34;color&#34;:{&#34;r&#34;:0.47450980544090271,&#34;g&#34;:0.015686275437474251,&#34;b&#34;:0.60392159223556519,&#34;a&#34;:1.0},&#34;position&#34;:0.84615385532379150}],&#34;transform&#34;:{&#34;m00&#34;:347.99801635742188,&#34;m01&#34;:-149.11805725097656,&#34;m02&#34;:179.56050109863281,&#34;m10&#34;:168.00001525878906,&#34;m11&#34;:308.88568115234375,&#34;m12&#34;:-1.4428398609161377},&#34;opacity&#34;:1.0,&#34;blendMode&#34;:&#34;NORMAL&#34;,&#34;visible&#34;:true}"/>
<g filter="url(#filter1_d_6117_29542)">
<path fill-rule="evenodd" clip-rule="evenodd" d="M263.633 130.101C268.961 117.623 276.776 109.15 283.784 110.317L283.79 110.492C289.672 110.911 293.27 117.592 299.509 129.072L319.83 168.797C321.52 171.383 322.474 172.571 323.621 173.624C325.184 174.92 327.046 176.162 329.722 176.751L374.134 183.76C387.72 185.66 395.404 186.705 397.554 192.406L397.563 192.404C400.988 198.468 395.074 208.278 385.099 217.601L351.547 247.542C349.538 249.725 347.94 252.269 346.918 254.123C346.969 256.113 347.212 258.66 347.577 261.119L358.083 304.168C360.989 317.3 359.16 328.894 353.399 331.703L353.103 331.85C347.628 335.814 340.73 332.454 328.596 326.608L288.796 306.065C284.438 304.175 283.399 304.432 281.846 304.482C279.822 304.749 277.431 305.208 275.349 306.03L235.696 326.947C223.487 332.99 216.602 336.434 211.34 332.618L211.35 332.6C205.288 329.624 203.961 318.334 206.791 305.142L215.006 261.549C215.519 257.844 215.953 253.276 215.675 251.332L215.807 251.298C215.343 250.094 214.631 248.822 213.453 247.539L180.067 217.722C170.142 208.435 164.799 198.256 168.223 192.2L168.28 192.218C170.581 186.61 178.167 185.532 191.381 183.602L235.918 178.224C239.599 177.379 240.95 176.844 242.696 175.833L242.702 175.843C243.815 175.065 245.222 173.863 247.071 171.596L263.633 130.101ZM280.827 239.556L282.392 242.171L279.737 241.017L277.749 243.683L283.244 287.766L288.96 243.406L286.207 238.726L282.389 240.314L284.747 236.246L284.107 235.158L280.827 239.556ZM246.935 243.271L265.347 238.523L267.073 235.518L266.894 235.441L246.935 243.271ZM303.104 238.465L308.285 240.022L302.724 237.759L303.104 238.465ZM276.263 231.766L276.289 231.973L278.222 235.204L283.356 233.881L282.389 232.237L286.377 233.435L286.991 232.374L285.626 230.799L282.24 229.421L276.263 231.766ZM280.221 226.707L282.541 227.422L282.667 227.383L281.138 225.619L280.221 226.707ZM287.675 217.863L287.961 225.771L291.366 224.735L292.208 218.215L293.648 220.892L312.421 188.508L287.675 217.863ZM271.538 224.032L273.346 224.589L273.472 224.368L274.058 217.447L253.176 193.348L271.538 224.032Z" fill="#2E0070"/>
</g>
<path d="M239.845 184.534C243.251 183.901 244.501 183.5 246.117 182.742L282.854 232.472L177.123 195.287C179.092 190.854 186.148 190.043 198.627 188.566L239.845 184.534Z" fill="#7F00A3"/>
<path d="M220.362 244.69C222.774 247.177 223.268 249.497 223.716 251.289L282.857 232.473L177.122 195.287C174.434 200.215 179.75 209.132 189.075 217.556L220.362 244.69Z" fill="#992FB7"/>
<path d="M290.451 298.658C287.297 297.225 285.507 296.844 283.749 296.539L282.853 232.473L348.011 325.796C343.857 328.3 337.61 324.921 326.538 318.978L290.451 298.658Z" fill="#7F00A3"/>
<path d="M340.895 260.528C340.344 257.108 340.03 253.513 340.199 251.736L282.853 232.471L348.012 325.795C353.039 323.297 353.794 312.943 350.981 300.695L340.895 260.528Z" fill="#AE15C9"/>
<path d="M275.03 298.978C278.184 297.545 281.992 296.843 283.751 296.538L282.855 232.472L217.47 326.117C221.624 328.621 227.871 325.241 238.943 319.298L275.03 298.978Z" fill="#73168D"/>
<path d="M222.819 260.696C223.37 257.276 223.884 253.065 223.715 251.288L282.853 232.472L217.469 326.115C212.441 323.617 211.687 313.263 214.5 301.015L222.819 260.696Z" fill="#8B16AC"/>
<path d="M326.31 183.19C322.904 182.556 320.934 180.95 319.142 179.605L282.856 232.536L388.587 195.351C386.618 190.918 379.562 190.107 367.083 188.631L326.31 183.19Z" fill="#A00DC9"/>
<path d="M345.348 244.756C342.936 247.242 341.079 250.184 340.199 251.737L282.853 232.538L388.588 195.352C391.276 200.28 385.96 209.197 376.635 217.621L345.348 244.756Z" fill="#7F00A3"/>
<path d="M315.366 174.292C317.134 177.272 317.941 178.307 319.21 179.563L282.853 232.472L283.657 119.118C288.497 119.439 291.69 125.783 297.377 136.989L315.366 174.292Z" fill="#8E0EB2"/>
<path d="M252.181 176.733C248.804 181.398 247.271 181.382 246.116 182.742L282.854 232.472L283.657 119.117C278.104 118.292 271.565 126.355 266.871 138.012L252.181 176.733Z" fill="#A21BC8"/>
<defs>
<filter id="filter0_d_6117_29542" x="64.0005" y="0.583984" width="429.486" height="478.774" filterUnits="userSpaceOnUse" color-interpolation-filters="sRGB">
<feFlood flood-opacity="0" result="BackgroundImageFix"/>
<feColorMatrix in="SourceAlpha" type="matrix" values="0 0 0 0 0 0 0 0 0 0 0 0 0 0 0 0 0 0 127 0" result="hardAlpha"/>
<feOffset dy="3"/>
<feGaussianBlur stdDeviation="5"/>
<feComposite in2="hardAlpha" operator="out"/>
<feColorMatrix type="matrix" values="0 0 0 0 0.180392 0 0 0 0 0 0 0 0 0 0.439216 0 0 0 1 0"/>
<feBlend mode="normal" in2="BackgroundImageFix" result="effect1_dropShadow_6117_29542"/>
<feBlend mode="normal" in="SourceGraphic" in2="effect1_dropShadow_6117_29542" result="shape"/>
</filter>
<clipPath id="paint1_angular_6117_29542_clip_path"><path d="M282.775 81.5391C289.72 82.3498 296.83 85.2006 312.344 94.9795L349.529 116.933L388.058 138.885C404.685 148.311 412.619 153.332 414.492 159.941L414.481 159.946C415.556 162.177 416.779 165.65 417.179 169.194V294.639C416.539 301.44 416.311 309.69 414.476 314.05L414.492 314.059C412.619 320.668 404.685 325.689 388.058 335.115L349.529 357.067L312.344 379.021C296.83 388.799 289.72 391.65 282.775 392.461C275.499 391.65 268.051 388.799 251.798 379.021L212.842 357.067L172.478 335.115C155.332 325.836 147.011 320.826 144.883 314.367L144.787 314.059C142.547 310.027 141.891 302.84 141.203 295.534V170.09C141.761 165.144 143.647 161.62 144.868 159.681C146.97 153.199 155.289 148.187 172.478 138.885L212.842 116.933L251.798 94.9795C268.051 85.2008 275.499 82.3498 282.775 81.5391ZM224.534 266.723L282.775 285.833L326.232 266.568L333.848 270.609V185.81L282.775 188.167L224.534 185.601V266.723Z"/></clipPath><filter id="filter1_d_6117_29542" x="160.914" y="110.21" width="238.522" height="232.074" filterUnits="userSpaceOnUse" color-interpolation-filters="sRGB">
<feFlood flood-opacity="0" result="BackgroundImageFix"/>
<feColorMatrix in="SourceAlpha" type="matrix" values="0 0 0 0 0 0 0 0 0 0 0 0 0 0 0 0 0 0 127 0" result="hardAlpha"/>
<feOffset dx="-2.68809" dy="4.48015"/>
<feGaussianBlur stdDeviation="1.79206"/>
<feComposite in2="hardAlpha" operator="out"/>
<feColorMatrix type="matrix" values="0 0 0 0 0.0352941 0 0 0 0 0.0964052 0 0 0 0 0.368627 0 0 0 0.25 0"/>
<feBlend mode="normal" in2="BackgroundImageFix" result="effect1_dropShadow_6117_29542"/>
<feBlend mode="normal" in="SourceGraphic" in2="effect1_dropShadow_6117_29542" result="shape"/>
</filter>
<linearGradient id="paint0_linear_6117_29542" x1="301.907" y1="37" x2="585.407" y2="204.5" gradientUnits="userSpaceOnUse">
<stop stop-color="#7F00A3"/>
<stop offset="0.223559" stop-color="#BC6BD3"/>
<stop offset="0.58679" stop-color="#7F00A3"/>
</linearGradient>
</defs>
</svg>
