<svg width="589" height="643" viewBox="0 0 589 643" fill="none" xmlns="http://www.w3.org/2000/svg">
<path d="M536.995 179.5L577.495 162C587.247 159.787 589.181 162.136 587.995 171L577.495 209.5C575.144 217.754 572.936 220.653 567.495 223L519.995 243L536.995 179.5Z" fill="url(#paint0_linear_6236_28543)"/>
<path d="M541.94 184.964L570.398 172.553C577.251 170.983 578.609 172.649 577.776 178.936L570.398 206.241C568.746 212.095 567.195 214.151 563.371 215.815L529.995 230L541.94 184.964Z" fill="#8D0A4B"/>
<path d="M511.995 251L551.024 235.715C560.018 233.685 561.802 235.839 560.708 243.968L551.024 279.277C548.856 286.847 546.82 289.505 541.801 291.658L482.495 306L511.995 251Z" fill="url(#paint1_linear_6236_28543)"/>
<path d="M515.193 256.846L544.873 245.505C551.297 244.071 552.571 245.593 551.79 251.338L544.873 276.289C543.324 281.639 541.87 283.517 538.285 285.038L493.495 297.5L515.193 256.846Z" fill="#4B076E"/>
<g filter="url(#filter0_d_6236_28543)">
<path d="M449.995 105.155L550.995 49.1555C567.762 42.6799 573.142 45.2357 572.495 65.6555L549.995 208.156C547.423 216.04 545.647 220.151 540.495 225.656C536.283 230.155 528.995 234.155 524.495 236.155C522.274 237.162 521.51 238.34 521.495 242.155V278.655C521.079 287.468 518.629 290.435 512.495 294.155L481.995 310.155L449.995 105.155Z" fill="url(#paint2_linear_6236_28543)"/>
</g>
<path d="M535.995 108.997L552.995 72.9974C557.462 64.1709 558.698 63.9749 557.495 76.4974L542.495 166L535.995 108.997Z" fill="#9A0001"/>
<path d="M554.995 66.9998C556.649 66.4685 557.495 66.5005 557.495 67C557.495 67.4995 535.995 109 535.995 109H469.995L554.995 66.9998Z" fill="#DE0204"/>
<path d="M469.995 109H535.995L497.495 146L469.995 109Z" fill="#91010B"/>
<path d="M497.495 146L535.995 109L542.495 166L497.495 146Z" fill="#D10108"/>
<path d="M469.995 222L512.995 226V282C511.338 287.862 502.865 291.322 487.495 297.5L469.995 222Z" fill="#CF0554"/>
<path d="M484.995 224L512.995 226.867V267L484.995 224Z" fill="#560451"/>
<path d="M497.995 146L542.995 164.182L536.995 206L497.995 146Z" fill="#ED022F"/>
<g filter="url(#filter1_d_6236_28543)">
<path d="M484.995 207L492.995 169.5L510 165L536.995 206C535.898 214.61 530.995 221 524.995 224C521.495 225.75 506.36 229.748 492.995 227L484.995 207Z" fill="url(#paint3_linear_6236_28543)"/>
</g>
<path d="M497.995 145.5L536.995 206L496.995 207L497.995 145.5Z" fill="#BD0434"/>
<path d="M51.3116 179.5L10.8116 162C1.05907 159.787 -0.874588 162.136 0.311646 171L10.8116 209.5C13.1625 217.754 15.3705 220.653 20.8116 223L68.3116 243L51.3116 179.5Z" fill="url(#paint4_linear_6236_28543)"/>
<path d="M46.3664 184.964L17.9084 172.553C11.0556 170.983 9.69694 172.649 10.5305 178.936L17.9084 206.241C19.5603 212.095 21.1118 214.151 24.9351 215.815L58.3116 230L46.3664 184.964Z" fill="#8D0A4B"/>
<path d="M76.3116 251L37.2824 235.715C28.2881 233.685 26.5048 235.839 27.5988 243.968L37.2824 279.277C39.4505 286.847 41.4869 289.505 46.5049 291.658L105.812 306L76.3116 251Z" fill="url(#paint5_linear_6236_28543)"/>
<path d="M73.1129 256.846L43.4337 245.505C37.0092 244.071 35.7354 245.593 36.5168 251.338L43.4337 276.289C44.9823 281.639 46.4369 283.517 50.0212 285.038L94.8116 297.5L73.1129 256.846Z" fill="#4B076E"/>
<g filter="url(#filter2_d_6236_28543)">
<path d="M138.312 105.155L37.3116 49.1555C20.5443 42.6799 15.1648 45.2357 15.8116 65.6555L38.3116 208.156C40.8829 216.04 42.6593 220.151 47.8116 225.656C52.0238 230.155 59.3116 234.155 63.8116 236.155C66.0327 237.162 66.7963 238.34 66.8116 242.155V278.655C67.2278 287.468 69.6774 290.435 75.8116 294.155L106.312 310.155L138.312 105.155Z" fill="url(#paint6_linear_6236_28543)"/>
</g>
<path d="M52.3116 108.997L35.3116 72.9974C30.8444 64.1709 29.6087 63.9749 30.8116 76.4974L45.8116 166L52.3116 108.997Z" fill="#9A0001"/>
<path d="M33.3116 66.9998C31.6569 66.4685 30.8116 66.5005 30.8116 67C30.8116 67.4995 52.3116 109 52.3116 109H118.312L33.3116 66.9998Z" fill="#DE0204"/>
<path d="M118.312 109H52.3116L90.8116 146L118.312 109Z" fill="#91010B"/>
<path d="M90.8116 146L52.3116 109L45.8116 166L90.8116 146Z" fill="#D10108"/>
<path d="M118.312 222L75.3116 226V282C76.9687 287.862 85.4416 291.322 100.812 297.5L118.312 222Z" fill="#CF0554"/>
<path d="M103.312 224L75.3116 226.867V267L103.312 224Z" fill="#560451"/>
<path d="M90.3116 146L45.3116 164.182L51.3116 206L90.3116 146Z" fill="#ED022F"/>
<g filter="url(#filter3_d_6236_28543)">
<path d="M103.312 207L95.3116 169.5L78.3068 165L51.3116 206C52.4083 214.61 57.3116 221 63.3116 224C66.8116 225.75 81.9468 229.748 95.3116 227L103.312 207Z" fill="url(#paint7_linear_6236_28543)"/>
</g>
<path d="M90.3116 145.5L51.3116 206L91.3116 207L90.3116 145.5Z" fill="#BD0434"/>
<path d="M419 444.5H411V570C413.644 569.303 415.628 568.221 419 566.518V444.5Z" fill="url(#paint8_linear_6236_28543)"/>
<path d="M477 357.5L416 384V568C467.021 543.5 476.654 500.389 477 488.5V357.5Z" fill="url(#paint9_linear_6236_28543)"/>
<g filter="url(#filter4_d_6236_28543)">
<path d="M471 384.5L416 399V561.5C460.329 540.062 470.699 500.84 471 490.438V384.5Z" fill="url(#paint10_linear_6236_28543)"/>
</g>
<path d="M459 411.5L416 421V546.5C449.852 530.01 458.771 499.339 459 491.337V411.5Z" fill="url(#paint11_radial_6236_28543)"/>
<path d="M450 436H416V536C443.404 522.808 449.814 498.671 450 492.269V436Z" fill="url(#paint12_radial_6236_28543)"/>
<path d="M172 441H180V566.5C177.356 565.803 175.373 564.721 172 563.018V441Z" fill="url(#paint13_linear_6236_28543)"/>
<path d="M114 354L175 380.5V564.5C123.98 540 114.347 496.889 114 485V354Z" fill="url(#paint14_linear_6236_28543)"/>
<g filter="url(#filter5_d_6236_28543)">
<path d="M120 381L175 395.5V558C130.672 536.562 120.302 497.34 120 486.938V381Z" fill="url(#paint15_linear_6236_28543)"/>
</g>
<path d="M132 408L175 417.5V543C141.149 526.51 132.23 495.839 132 487.837V408Z" fill="url(#paint16_radial_6236_28543)"/>
<path d="M141 432.5H175V532.5C147.597 519.308 141.187 495.171 141 488.769V432.5Z" fill="url(#paint17_radial_6236_28543)"/>
<path d="M214 408C214 405.791 215.791 404 218 404H373C375.21 404 377 405.791 377 408V571.604C377 572.715 376.539 573.776 375.725 574.532L304.214 641.084C301.176 643.686 299.356 643.59 296.013 641.084L215.453 574.546C214.533 573.786 214 572.655 214 571.462V408Z" fill="url(#paint18_linear_6236_28543)"/>
<path d="M220 414C220 411.791 221.791 410 224 410H368C370.21 410 372 411.791 372 414V569.123C372 570.221 371.549 571.271 370.752 572.026L304.126 635.18C301.293 637.652 299.596 637.561 296.478 635.18L221.425 572.042C220.522 571.282 220 570.162 220 568.981V414Z" fill="url(#paint19_linear_6236_28543)"/>
<path d="M228 424C228 421.239 230.239 419 233 419H358C360.762 419 363 421.239 363 424V560.698C363 562.064 362.441 563.371 361.453 564.315L302.717 620.373C300.201 622.583 298.694 622.501 295.925 620.373L229.769 564.335C228.647 563.385 228 561.99 228 560.52V424Z" fill="url(#paint20_linear_6236_28543)"/>
<path d="M237 424C237 421.239 239.239 419 242 419H350C352.762 419 355 421.239 355 424V558.272C355 559.64 354.439 560.949 353.448 561.893L302.309 610.581C300.109 612.508 298.791 612.437 296.372 610.581L238.773 561.913C237.649 560.963 237 559.566 237 558.094V424Z" fill="url(#paint21_linear_6236_28543)"/>
<path d="M295.58 439.078C295.536 436.287 297.787 434 300.579 434H332C334.762 434 337 436.239 337 439V550.663C337 552.034 336.438 553.344 335.443 554.288L299.938 588.005C298.979 588.843 297.909 587.978 297.889 586.705L295.58 439.078Z" fill="#A10231"/>
<path d="M290.822 434C293.454 434 295.636 436.042 295.811 438.669L297.925 470.5V509V586.577C297.925 587.915 296.824 588.818 295.761 588.005L255.778 554.308C254.651 553.358 254 551.959 254 550.485V439C254 436.239 256.239 434 259 434H290.822Z" fill="#62085B"/>
<g filter="url(#filter6_d_6236_28543)">
<path d="M465.393 384.255H393.707L366 464L430.015 483.871C439.836 486.563 442.378 484.878 444.446 479.216L465.393 384.255Z" fill="url(#paint22_linear_6236_28543)"/>
<path d="M454.568 384.456L401.58 424.41L427.728 475.151C432.144 477.138 433.985 476.637 435.731 472.03L454.568 384.456Z" fill="#A10231"/>
<path d="M401.62 424.287L385.328 449.424L374 458L427.688 475.026L401.62 424.287Z" fill="#62085B"/>
</g>
<g filter="url(#filter7_d_6236_28543)">
<path d="M127 387.256H198.686L226.393 467.001L162.378 486.872C152.557 489.564 150.015 487.879 147.948 482.217L127 387.256Z" fill="url(#paint23_linear_6236_28543)"/>
<path d="M137.825 387.457L190.813 427.411L164.665 478.152C160.249 480.139 158.409 479.638 156.662 475.031L137.825 387.457Z" fill="#A10231"/>
<path d="M190.773 427.288L207.065 452.425L218.393 461.001L164.705 478.027L190.773 427.288Z" fill="#62085B"/>
</g>
<g filter="url(#filter8_d_6236_28543)">
<path d="M150.537 398.832C147.976 391.007 153.806 382.965 162.04 382.965H427.041C435.658 382.965 441.515 391.714 438.231 399.681L424.914 431.981C423.835 434.598 421.873 436.754 419.369 438.074L300.844 500.569C297.33 502.422 293.131 502.432 289.607 500.597L166.478 436.449C163.673 434.987 161.551 432.486 160.567 429.48L150.537 398.832Z" fill="url(#paint24_linear_6236_28543)"/>
</g>
<path d="M160.032 398.931C157.39 391.087 163.225 382.965 171.502 382.965H417.529C426.199 382.965 432.057 391.814 428.67 399.796L417.008 427.277C415.9 429.888 413.91 432.027 411.385 433.321L300.718 490.012C297.272 491.777 293.189 491.787 289.735 490.038L174.793 431.86C171.959 430.426 169.803 427.935 168.789 424.925L160.032 398.931Z" fill="#380275"/>
<path d="M366.495 5.53887L429.995 58.5389C439.921 66.9518 443.859 71.3741 443.995 78.0389V109.039L346.995 53.0389V12.0376C348.495 -0.964114 357.179 -3.90871 366.495 5.53887Z" fill="url(#paint25_linear_6236_28543)"/>
<path d="M358.995 14L434.495 76V78L366.495 46L358.995 14Z" fill="#8D0A4B"/>
<path d="M366.495 46L434.495 78V106.5L366.995 81L366.495 46Z" fill="#99032B"/>
<path d="M358.995 14L366.495 46L367.495 70L354.995 67L358.995 14Z" fill="#AF2755"/>
<path d="M221.5 5.53887L158 58.5389C148.073 66.9518 144.136 71.3741 144 78.0389V109.039L241 53.0389V12.0376C239.5 -0.964114 230.815 -3.90871 221.5 5.53887Z" fill="url(#paint26_linear_6236_28543)"/>
<path d="M229 14L153.5 76V78L221.5 46L229 14Z" fill="#8D0A4B"/>
<path d="M221.5 46L153.5 78V106.5L221 81L221.5 46Z" fill="#99032B"/>
<path d="M229 14L221.5 46L220.5 70L233 67L229 14Z" fill="#AF2755"/>
<g filter="url(#filter9_d_6236_28543)">
<path d="M90.0009 157.987C90.0009 140.042 99.6172 123.473 115.199 114.572L269.942 26.1693C285.311 17.389 304.177 17.389 319.546 26.1693L474.289 114.572C489.87 123.473 499.487 140.042 499.487 157.987V339.6C499.487 357.513 489.903 374.058 474.364 382.971L319.621 471.73C304.214 480.568 285.274 480.568 269.866 471.73L115.123 382.971C99.5843 374.058 90.0009 357.513 90.0009 339.599V157.987Z" fill="url(#paint27_linear_6236_28543)"/>
</g>
<path fill-rule="evenodd" clip-rule="evenodd" d="M440.858 144.612V157.158H440.856V338.583L439.707 338.604V356.076L485.099 356.973C488.088 352.144 489.69 347.564 489.242 337.708V157.158H489.094C488.675 149.043 487.322 147.545 484.501 141.5L440.858 144.612Z" fill="url(#paint28_linear_6236_28543)"/>
<path d="M295.448 31.8428C303.522 31.0901 310.415 33.4708 326.809 42.5952L393.115 82.0205L456.285 118.758C471.502 127.5 479.244 132.119 484.502 141.5L440.605 162.215L295.448 80.9945V31.8428Z" fill="url(#paint29_linear_6236_28543)"/>
<path fill-rule="evenodd" clip-rule="evenodd" d="M150.287 144.613V157.158H150.289V338.583L151.438 338.604V356.076L106.046 356.973C103.057 352.144 101.456 347.564 101.904 337.708V164.324L101.903 164.325C101.007 149.989 102.538 148.545 105.488 143.717L150.287 144.613Z" fill="url(#paint30_linear_6236_28543)"/>
<path d="M295.448 31.8429C287.373 31.0901 280.48 33.4708 264.087 42.5952L197.78 82.0206L134.61 118.758C116.441 129.014 110.747 134.466 105.489 143.847L150.291 162.215L295.448 81.4426V31.8429Z" fill="#F30204"/>
<path d="M295.448 467.632C287.373 468.385 280.48 466.004 264.087 456.879L197.78 417.454L134.61 380.717C116.441 370.461 110.747 365.009 105.489 355.628L150.291 337.259L295.448 421.486V467.632Z" fill="url(#paint31_linear_6236_28543)"/>
<path d="M295.448 467.632C303.522 468.385 310.415 466.004 326.809 456.879L393.115 417.454L456.285 380.717C474.454 370.461 480.149 365.009 485.406 355.628L440.605 337.259L295.448 421.038V467.632Z" fill="url(#paint32_linear_6236_28543)"/>
<path d="M139.282 174.666C139.282 164.368 144.805 154.861 153.75 149.759L280.538 77.4475C289.343 72.426 300.144 72.4259 308.949 77.4475L435.737 149.759C444.682 154.861 450.205 164.368 450.205 174.666V323.009C450.205 333.289 444.701 342.783 435.78 347.891L308.992 420.495C300.165 425.549 289.322 425.549 280.495 420.495L153.707 347.891C144.786 342.783 139.282 333.289 139.282 323.009V174.666Z" fill="url(#paint33_linear_6236_28543)"/>
<path d="M295.572 94C302.517 94.8107 309.627 97.6615 325.142 107.44L362.326 129.394L400.855 151.346C417.482 160.772 425.416 165.793 427.289 172.402L427.278 172.407C428.353 174.638 429.576 178.111 429.977 181.655V307.1C429.336 313.901 429.109 322.151 427.273 326.511L427.289 326.52C425.416 333.129 417.482 338.15 400.855 347.576L362.326 369.528L325.142 391.481C309.627 401.26 302.517 404.111 295.572 404.922C288.296 404.111 280.848 401.26 264.596 391.481L225.64 369.528L185.275 347.576C168.129 338.297 159.808 333.287 157.681 326.828L157.584 326.52C155.344 322.488 154.688 315.3 154 307.995V182.551C154.558 177.605 156.445 174.081 157.665 172.142C159.767 165.66 168.087 160.648 185.275 151.346L225.64 129.394L264.596 107.44C280.848 97.6617 288.296 94.8107 295.572 94ZM237.331 279.184L295.572 298.294L339.029 279.029L346.645 283.07V198.271L295.572 200.628L237.331 198.062V279.184Z" fill="url(#paint34_linear_6236_28543)"/>
<g filter="url(#filter10_d_6236_28543)">
<path fill-rule="evenodd" clip-rule="evenodd" d="M275.446 141.892C280.773 129.413 288.589 120.94 295.596 122.107L295.602 122.282C301.484 122.702 305.082 129.382 311.32 140.861L331.64 180.586C333.326 183.165 334.28 184.353 335.423 185.404C336.988 186.703 338.851 187.949 341.533 188.539L385.944 195.548C399.53 197.448 407.214 198.493 409.364 204.194L409.373 204.192C412.798 210.256 406.884 220.066 396.909 229.39L363.358 259.329C361.348 261.513 359.751 264.058 358.729 265.912C358.78 267.902 359.022 270.448 359.387 272.907L369.892 315.955C372.798 329.087 370.97 340.681 365.21 343.49L364.916 343.636C359.44 347.6 352.543 344.24 340.408 338.394L300.609 317.852C296.259 315.965 295.216 316.217 293.668 316.268C291.641 316.535 289.246 316.993 287.16 317.816L247.508 338.733C235.299 344.776 228.415 348.22 223.153 344.404L223.163 344.387C217.1 341.411 215.774 330.121 218.603 316.929L226.818 273.337C227.33 269.632 227.766 265.064 227.488 263.12L227.621 263.085C227.157 261.882 226.445 260.609 225.266 259.327L191.881 229.511C181.956 220.225 176.613 210.046 180.037 203.989L180.093 204.006C182.393 198.398 189.98 197.32 203.195 195.391L247.731 190.012C251.411 189.167 252.763 188.632 254.509 187.621L254.514 187.632C255.628 186.854 257.035 185.652 258.884 183.385L275.446 141.892ZM292.639 251.343L294.205 253.958L291.55 252.805L289.559 255.472L295.056 299.558L300.773 255.196L298.017 250.514L294.201 252.101L296.558 248.034L295.919 246.947L292.639 251.343ZM258.749 255.059L277.158 250.313L278.885 247.306L278.708 247.229L258.749 255.059ZM314.918 250.254L320.098 251.811L314.538 249.548L314.918 250.254ZM288.074 243.555L288.099 243.755L290.037 246.992L295.168 245.67L294.2 244.025L298.187 245.224L298.802 244.161L297.437 242.587L294.053 241.209L288.074 243.555ZM292.032 238.494L294.353 239.21L294.478 239.171L292.949 237.405L292.032 238.494ZM299.487 229.649L299.773 237.559L303.179 236.522L304.02 230.002L305.46 232.678L324.232 200.296L299.487 229.649ZM283.351 235.82L285.157 236.376L285.283 236.155L285.869 229.234L264.992 205.14L283.351 235.82Z" fill="url(#paint35_linear_6236_28543)"/>
</g>
<path d="M250.852 197.918C254.179 197.299 255.401 196.907 256.979 196.167L292.866 244.746L189.582 208.421C191.505 204.091 198.398 203.298 210.589 201.856L250.852 197.918Z" fill="url(#paint36_linear_6236_28543)"/>
<path d="M231.82 256.682C234.176 259.111 234.658 261.377 235.096 263.127L292.868 244.747L189.581 208.422C186.955 213.236 192.148 221.947 201.257 230.175L231.82 256.682Z" fill="url(#paint37_linear_6236_28543)"/>
<path d="M300.286 309.401C297.205 308.001 295.457 307.629 293.739 307.331L292.864 244.748L356.514 335.911C352.456 338.357 346.353 335.056 335.537 329.25L300.286 309.401Z" fill="url(#paint38_linear_6236_28543)"/>
<path d="M349.562 272.154C349.024 268.813 348.717 265.301 348.882 263.565L292.864 244.746L356.514 335.91C361.425 333.47 362.162 323.355 359.414 311.391L349.562 272.154Z" fill="url(#paint39_linear_6236_28543)"/>
<path d="M285.223 309.713C288.303 308.313 292.024 307.627 293.741 307.329L292.866 244.746L228.995 336.223C233.053 338.669 239.155 335.368 249.971 329.562L285.223 309.713Z" fill="url(#paint40_linear_6236_28543)"/>
<path d="M234.22 272.318C234.759 268.977 235.261 264.863 235.096 263.127L292.865 244.746L228.994 336.222C224.083 333.782 223.346 323.668 226.094 311.703L234.22 272.318Z" fill="url(#paint41_linear_6236_28543)"/>
<path d="M335.315 196.606C331.988 195.987 330.063 194.417 328.313 193.104L292.866 244.81L396.151 208.486C394.227 204.155 387.334 203.363 375.144 201.921L335.315 196.606Z" fill="url(#paint42_linear_6236_28543)"/>
<path d="M353.912 256.747C351.556 259.176 349.742 262.049 348.883 263.566L292.864 244.812L396.151 208.487C398.777 213.301 393.584 222.012 384.475 230.24L353.912 256.747Z" fill="url(#paint43_linear_6236_28543)"/>
<path d="M324.626 187.914C326.353 190.824 327.141 191.836 328.38 193.063L292.866 244.747L293.651 134.017C298.379 134.33 301.498 140.528 307.053 151.475L324.626 187.914Z" fill="url(#paint44_linear_6236_28543)"/>
<path d="M262.903 190.297C259.604 194.855 258.106 194.838 256.978 196.168L292.865 244.746L293.65 134.015C288.226 133.209 281.838 141.085 277.253 152.473L262.903 190.297Z" fill="url(#paint45_linear_6236_28543)"/>
<defs>
<filter id="filter0_d_6236_28543" x="445.995" y="46" width="130.551" height="272.155" filterUnits="userSpaceOnUse" color-interpolation-filters="sRGB">
<feFlood flood-opacity="0" result="BackgroundImageFix"/>
<feColorMatrix in="SourceAlpha" type="matrix" values="0 0 0 0 0 0 0 0 0 0 0 0 0 0 0 0 0 0 127 0" result="hardAlpha"/>
<feOffset dy="4"/>
<feGaussianBlur stdDeviation="2"/>
<feComposite in2="hardAlpha" operator="out"/>
<feColorMatrix type="matrix" values="0 0 0 0 0 0 0 0 0 0 0 0 0 0 0 0 0 0 0.25 0"/>
<feBlend mode="normal" in2="BackgroundImageFix" result="effect1_dropShadow_6236_28543"/>
<feBlend mode="normal" in="SourceGraphic" in2="effect1_dropShadow_6236_28543" result="shape"/>
</filter>
<filter id="filter1_d_6236_28543" x="480.995" y="165" width="60" height="70.9375" filterUnits="userSpaceOnUse" color-interpolation-filters="sRGB">
<feFlood flood-opacity="0" result="BackgroundImageFix"/>
<feColorMatrix in="SourceAlpha" type="matrix" values="0 0 0 0 0 0 0 0 0 0 0 0 0 0 0 0 0 0 127 0" result="hardAlpha"/>
<feOffset dy="4"/>
<feGaussianBlur stdDeviation="2"/>
<feComposite in2="hardAlpha" operator="out"/>
<feColorMatrix type="matrix" values="0 0 0 0 0 0 0 0 0 0 0 0 0 0 0 0 0 0 0.25 0"/>
<feBlend mode="normal" in2="BackgroundImageFix" result="effect1_dropShadow_6236_28543"/>
<feBlend mode="normal" in="SourceGraphic" in2="effect1_dropShadow_6236_28543" result="shape"/>
</filter>
<filter id="filter2_d_6236_28543" x="11.7604" y="46" width="130.551" height="272.155" filterUnits="userSpaceOnUse" color-interpolation-filters="sRGB">
<feFlood flood-opacity="0" result="BackgroundImageFix"/>
<feColorMatrix in="SourceAlpha" type="matrix" values="0 0 0 0 0 0 0 0 0 0 0 0 0 0 0 0 0 0 127 0" result="hardAlpha"/>
<feOffset dy="4"/>
<feGaussianBlur stdDeviation="2"/>
<feComposite in2="hardAlpha" operator="out"/>
<feColorMatrix type="matrix" values="0 0 0 0 0 0 0 0 0 0 0 0 0 0 0 0 0 0 0.25 0"/>
<feBlend mode="normal" in2="BackgroundImageFix" result="effect1_dropShadow_6236_28543"/>
<feBlend mode="normal" in="SourceGraphic" in2="effect1_dropShadow_6236_28543" result="shape"/>
</filter>
<filter id="filter3_d_6236_28543" x="47.3116" y="165" width="60" height="70.9375" filterUnits="userSpaceOnUse" color-interpolation-filters="sRGB">
<feFlood flood-opacity="0" result="BackgroundImageFix"/>
<feColorMatrix in="SourceAlpha" type="matrix" values="0 0 0 0 0 0 0 0 0 0 0 0 0 0 0 0 0 0 127 0" result="hardAlpha"/>
<feOffset dy="4"/>
<feGaussianBlur stdDeviation="2"/>
<feComposite in2="hardAlpha" operator="out"/>
<feColorMatrix type="matrix" values="0 0 0 0 0 0 0 0 0 0 0 0 0 0 0 0 0 0 0.25 0"/>
<feBlend mode="normal" in2="BackgroundImageFix" result="effect1_dropShadow_6236_28543"/>
<feBlend mode="normal" in="SourceGraphic" in2="effect1_dropShadow_6236_28543" result="shape"/>
</filter>
<filter id="filter4_d_6236_28543" x="412" y="384.5" width="63" height="185" filterUnits="userSpaceOnUse" color-interpolation-filters="sRGB">
<feFlood flood-opacity="0" result="BackgroundImageFix"/>
<feColorMatrix in="SourceAlpha" type="matrix" values="0 0 0 0 0 0 0 0 0 0 0 0 0 0 0 0 0 0 127 0" result="hardAlpha"/>
<feOffset dy="4"/>
<feGaussianBlur stdDeviation="2"/>
<feComposite in2="hardAlpha" operator="out"/>
<feColorMatrix type="matrix" values="0 0 0 0 0 0 0 0 0 0 0 0 0 0 0 0 0 0 0.25 0"/>
<feBlend mode="normal" in2="BackgroundImageFix" result="effect1_dropShadow_6236_28543"/>
<feBlend mode="normal" in="SourceGraphic" in2="effect1_dropShadow_6236_28543" result="shape"/>
</filter>
<filter id="filter5_d_6236_28543" x="116" y="381" width="63" height="185" filterUnits="userSpaceOnUse" color-interpolation-filters="sRGB">
<feFlood flood-opacity="0" result="BackgroundImageFix"/>
<feColorMatrix in="SourceAlpha" type="matrix" values="0 0 0 0 0 0 0 0 0 0 0 0 0 0 0 0 0 0 127 0" result="hardAlpha"/>
<feOffset dy="4"/>
<feGaussianBlur stdDeviation="2"/>
<feComposite in2="hardAlpha" operator="out"/>
<feColorMatrix type="matrix" values="0 0 0 0 0 0 0 0 0 0 0 0 0 0 0 0 0 0 0.25 0"/>
<feBlend mode="normal" in2="BackgroundImageFix" result="effect1_dropShadow_6236_28543"/>
<feBlend mode="normal" in="SourceGraphic" in2="effect1_dropShadow_6236_28543" result="shape"/>
</filter>
<filter id="filter6_d_6236_28543" x="362" y="384.255" width="107.393" height="108.87" filterUnits="userSpaceOnUse" color-interpolation-filters="sRGB">
<feFlood flood-opacity="0" result="BackgroundImageFix"/>
<feColorMatrix in="SourceAlpha" type="matrix" values="0 0 0 0 0 0 0 0 0 0 0 0 0 0 0 0 0 0 127 0" result="hardAlpha"/>
<feOffset dy="4"/>
<feGaussianBlur stdDeviation="2"/>
<feComposite in2="hardAlpha" operator="out"/>
<feColorMatrix type="matrix" values="0 0 0 0 0 0 0 0 0 0 0 0 0 0 0 0 0 0 0.25 0"/>
<feBlend mode="normal" in2="BackgroundImageFix" result="effect1_dropShadow_6236_28543"/>
<feBlend mode="normal" in="SourceGraphic" in2="effect1_dropShadow_6236_28543" result="shape"/>
</filter>
<filter id="filter7_d_6236_28543" x="123" y="387.256" width="107.393" height="108.87" filterUnits="userSpaceOnUse" color-interpolation-filters="sRGB">
<feFlood flood-opacity="0" result="BackgroundImageFix"/>
<feColorMatrix in="SourceAlpha" type="matrix" values="0 0 0 0 0 0 0 0 0 0 0 0 0 0 0 0 0 0 127 0" result="hardAlpha"/>
<feOffset dy="4"/>
<feGaussianBlur stdDeviation="2"/>
<feComposite in2="hardAlpha" operator="out"/>
<feColorMatrix type="matrix" values="0 0 0 0 0 0 0 0 0 0 0 0 0 0 0 0 0 0 0.25 0"/>
<feBlend mode="normal" in2="BackgroundImageFix" result="effect1_dropShadow_6236_28543"/>
<feBlend mode="normal" in="SourceGraphic" in2="effect1_dropShadow_6236_28543" result="shape"/>
</filter>
<filter id="filter8_d_6236_28543" x="145.928" y="382.965" width="297.229" height="127.001" filterUnits="userSpaceOnUse" color-interpolation-filters="sRGB">
<feFlood flood-opacity="0" result="BackgroundImageFix"/>
<feColorMatrix in="SourceAlpha" type="matrix" values="0 0 0 0 0 0 0 0 0 0 0 0 0 0 0 0 0 0 127 0" result="hardAlpha"/>
<feOffset dy="4"/>
<feGaussianBlur stdDeviation="2"/>
<feComposite in2="hardAlpha" operator="out"/>
<feColorMatrix type="matrix" values="0 0 0 0 0 0 0 0 0 0 0 0 0 0 0 0 0 0 0.25 0"/>
<feBlend mode="normal" in2="BackgroundImageFix" result="effect1_dropShadow_6236_28543"/>
<feBlend mode="normal" in="SourceGraphic" in2="effect1_dropShadow_6236_28543" result="shape"/>
</filter>
<filter id="filter9_d_6236_28543" x="86.0009" y="19.584" width="417.486" height="466.774" filterUnits="userSpaceOnUse" color-interpolation-filters="sRGB">
<feFlood flood-opacity="0" result="BackgroundImageFix"/>
<feColorMatrix in="SourceAlpha" type="matrix" values="0 0 0 0 0 0 0 0 0 0 0 0 0 0 0 0 0 0 127 0" result="hardAlpha"/>
<feOffset dy="4"/>
<feGaussianBlur stdDeviation="2"/>
<feComposite in2="hardAlpha" operator="out"/>
<feColorMatrix type="matrix" values="0 0 0 0 0 0 0 0 0 0 0 0 0 0 0 0 0 0 0.25 0"/>
<feBlend mode="normal" in2="BackgroundImageFix" result="effect1_dropShadow_6236_28543"/>
<feBlend mode="normal" in="SourceGraphic" in2="effect1_dropShadow_6236_28543" result="shape"/>
</filter>
<filter id="filter10_d_6236_28543" x="173" y="122" width="243.35" height="238.006" filterUnits="userSpaceOnUse" color-interpolation-filters="sRGB">
<feFlood flood-opacity="0" result="BackgroundImageFix"/>
<feColorMatrix in="SourceAlpha" type="matrix" values="0 0 0 0 0 0 0 0 0 0 0 0 0 0 0 0 0 0 127 0" result="hardAlpha"/>
<feOffset dy="8"/>
<feGaussianBlur stdDeviation="3"/>
<feComposite in2="hardAlpha" operator="out"/>
<feColorMatrix type="matrix" values="0 0 0 0 0.00597013 0 0 0 0 0.0475888 0 0 0 0 0.22707 0 0 0 0.7 0"/>
<feBlend mode="normal" in2="BackgroundImageFix" result="effect1_dropShadow_6236_28543"/>
<feBlend mode="normal" in="SourceGraphic" in2="effect1_dropShadow_6236_28543" result="shape"/>
</filter>
<linearGradient id="paint0_linear_6236_28543" x1="588" y1="161" x2="525.5" y2="236" gradientUnits="userSpaceOnUse">
<stop stop-color="#F42A43"/>
<stop offset="1" stop-color="#9C0A36"/>
</linearGradient>
<linearGradient id="paint1_linear_6236_28543" x1="561" y1="244.5" x2="498.5" y2="294.5" gradientUnits="userSpaceOnUse">
<stop stop-color="#A12DBD"/>
<stop offset="1" stop-color="#55079C"/>
</linearGradient>
<linearGradient id="paint2_linear_6236_28543" x1="511.27" y1="46" x2="511.27" y2="310.155" gradientUnits="userSpaceOnUse">
<stop stop-color="#FB2524"/>
<stop offset="1" stop-color="#9C1A7E"/>
</linearGradient>
<linearGradient id="paint3_linear_6236_28543" x1="510.995" y1="206" x2="510.995" y2="227.937" gradientUnits="userSpaceOnUse">
<stop stop-color="#BD0434"/>
<stop offset="1" stop-color="#800231"/>
</linearGradient>
<linearGradient id="paint4_linear_6236_28543" x1="0.30676" y1="161" x2="62.8068" y2="236" gradientUnits="userSpaceOnUse">
<stop stop-color="#F42A43"/>
<stop offset="1" stop-color="#9C0A36"/>
</linearGradient>
<linearGradient id="paint5_linear_6236_28543" x1="27.3068" y1="244.5" x2="89.8068" y2="294.5" gradientUnits="userSpaceOnUse">
<stop stop-color="#A12DBD"/>
<stop offset="1" stop-color="#55079C"/>
</linearGradient>
<linearGradient id="paint6_linear_6236_28543" x1="77.036" y1="46" x2="77.036" y2="310.155" gradientUnits="userSpaceOnUse">
<stop stop-color="#FB2524"/>
<stop offset="1" stop-color="#9C1A7E"/>
</linearGradient>
<linearGradient id="paint7_linear_6236_28543" x1="77.3116" y1="206" x2="77.3116" y2="227.937" gradientUnits="userSpaceOnUse">
<stop stop-color="#BD0434"/>
<stop offset="1" stop-color="#800231"/>
</linearGradient>
<linearGradient id="paint8_linear_6236_28543" x1="415" y1="570" x2="415" y2="444.5" gradientUnits="userSpaceOnUse">
<stop stop-color="#922CAF"/>
<stop offset="1" stop-color="#5C1691"/>
</linearGradient>
<linearGradient id="paint9_linear_6236_28543" x1="446.5" y1="568" x2="446.5" y2="357.5" gradientUnits="userSpaceOnUse">
<stop stop-color="#922CAF"/>
<stop offset="1" stop-color="#5C1691"/>
</linearGradient>
<linearGradient id="paint10_linear_6236_28543" x1="443.5" y1="561.5" x2="443.5" y2="384.5" gradientUnits="userSpaceOnUse">
<stop stop-color="#9515B6"/>
<stop offset="1" stop-color="#3C0687"/>
</linearGradient>
<radialGradient id="paint11_radial_6236_28543" cx="0" cy="0" r="1" gradientUnits="userSpaceOnUse" gradientTransform="translate(449.5 502) rotate(-99.915) scale(72.5841 23.1194)">
<stop stop-color="#FE7E6A"/>
<stop offset="1" stop-color="#E50123"/>
</radialGradient>
<radialGradient id="paint12_radial_6236_28543" cx="0" cy="0" r="1" gradientUnits="userSpaceOnUse" gradientTransform="translate(433 486) rotate(-90) scale(50 17)">
<stop stop-color="#E70324"/>
<stop offset="1" stop-color="#AE010A"/>
</radialGradient>
<linearGradient id="paint13_linear_6236_28543" x1="176" y1="566.5" x2="176" y2="441" gradientUnits="userSpaceOnUse">
<stop stop-color="#922CAF"/>
<stop offset="1" stop-color="#5C1691"/>
</linearGradient>
<linearGradient id="paint14_linear_6236_28543" x1="144.5" y1="564.5" x2="144.5" y2="354" gradientUnits="userSpaceOnUse">
<stop stop-color="#922CAF"/>
<stop offset="1" stop-color="#5C1691"/>
</linearGradient>
<linearGradient id="paint15_linear_6236_28543" x1="147.5" y1="558" x2="147.5" y2="381" gradientUnits="userSpaceOnUse">
<stop stop-color="#9515B6"/>
<stop offset="1" stop-color="#3C0687"/>
</linearGradient>
<radialGradient id="paint16_radial_6236_28543" cx="0" cy="0" r="1" gradientUnits="userSpaceOnUse" gradientTransform="translate(141.5 498.5) rotate(-80.085) scale(72.5841 23.1194)">
<stop stop-color="#FE7E6A"/>
<stop offset="1" stop-color="#E50123"/>
</radialGradient>
<radialGradient id="paint17_radial_6236_28543" cx="0" cy="0" r="1" gradientUnits="userSpaceOnUse" gradientTransform="translate(158 482.5) rotate(-90) scale(50 17)">
<stop stop-color="#E70324"/>
<stop offset="1" stop-color="#AE010A"/>
</radialGradient>
<linearGradient id="paint18_linear_6236_28543" x1="295.5" y1="404" x2="295.5" y2="643" gradientUnits="userSpaceOnUse">
<stop stop-color="#600745"/>
<stop offset="1" stop-color="#FF442B"/>
</linearGradient>
<linearGradient id="paint19_linear_6236_28543" x1="296" y1="410" x2="296" y2="637" gradientUnits="userSpaceOnUse">
<stop stop-color="#41056B"/>
<stop offset="1" stop-color="#F90B24"/>
</linearGradient>
<linearGradient id="paint20_linear_6236_28543" x1="296" y1="532" x2="296" y2="622" gradientUnits="userSpaceOnUse">
<stop stop-color="#ED062D"/>
<stop offset="1" stop-color="#FEBD85"/>
</linearGradient>
<linearGradient id="paint21_linear_6236_28543" x1="331" y1="586.5" x2="283.5" y2="542.5" gradientUnits="userSpaceOnUse">
<stop stop-color="#DA20B4"/>
<stop offset="1" stop-color="#9819B3"/>
</linearGradient>
<linearGradient id="paint22_linear_6236_28543" x1="415.697" y1="485.125" x2="415.697" y2="384.255" gradientUnits="userSpaceOnUse">
<stop stop-color="#8829A7"/>
<stop offset="1" stop-color="#380275"/>
</linearGradient>
<linearGradient id="paint23_linear_6236_28543" x1="176.697" y1="488.126" x2="176.697" y2="387.256" gradientUnits="userSpaceOnUse">
<stop stop-color="#8829A7"/>
<stop offset="1" stop-color="#380275"/>
</linearGradient>
<linearGradient id="paint24_linear_6236_28543" x1="295.233" y1="382.965" x2="295.233" y2="503.528" gradientUnits="userSpaceOnUse">
<stop stop-color="#440A88"/>
<stop offset="1" stop-color="#AE4CC4"/>
</linearGradient>
<linearGradient id="paint25_linear_6236_28543" x1="395.001" y1="-16.5" x2="395.495" y2="109.039" gradientUnits="userSpaceOnUse">
<stop stop-color="#9F0F9C"/>
<stop offset="1" stop-color="#FC2A28"/>
</linearGradient>
<linearGradient id="paint26_linear_6236_28543" x1="192.994" y1="-16.5" x2="192.5" y2="109.039" gradientUnits="userSpaceOnUse">
<stop stop-color="#9F0F9C"/>
<stop offset="1" stop-color="#FC2A28"/>
</linearGradient>
<linearGradient id="paint27_linear_6236_28543" x1="191.5" y1="63" x2="381.5" y2="446.5" gradientUnits="userSpaceOnUse">
<stop stop-color="#FB3537"/>
<stop offset="1" stop-color="#650EA2"/>
</linearGradient>
<linearGradient id="paint28_linear_6236_28543" x1="464.512" y1="141.5" x2="464.512" y2="356.973" gradientUnits="userSpaceOnUse">
<stop stop-color="#9D26D8"/>
<stop offset="0.23924" stop-color="#CF5AFE"/>
<stop offset="1" stop-color="#6710B7"/>
</linearGradient>
<linearGradient id="paint29_linear_6236_28543" x1="466.499" y1="148" x2="301.499" y2="51" gradientUnits="userSpaceOnUse">
<stop stop-color="#DA46F9"/>
<stop offset="0.767788" stop-color="#FEBFA8"/>
<stop offset="1" stop-color="#FC3E36"/>
</linearGradient>
<linearGradient id="paint30_linear_6236_28543" x1="126.543" y1="143.717" x2="126.999" y2="383" gradientUnits="userSpaceOnUse">
<stop stop-color="#A10101"/>
<stop offset="0.240385" stop-color="#CA0101"/>
<stop offset="0.53167" stop-color="#970101"/>
<stop offset="1" stop-color="#CA0101"/>
</linearGradient>
<linearGradient id="paint31_linear_6236_28543" x1="124.499" y1="350.5" x2="286.499" y2="447.5" gradientUnits="userSpaceOnUse">
<stop stop-color="#FC092E"/>
<stop offset="0.5" stop-color="#CD033D"/>
<stop offset="1" stop-color="#FD148F"/>
</linearGradient>
<linearGradient id="paint32_linear_6236_28543" x1="463.999" y1="354" x2="302.499" y2="452" gradientUnits="userSpaceOnUse">
<stop stop-color="#3F0688"/>
<stop offset="0.663462" stop-color="#5C0897"/>
<stop offset="1" stop-color="#8509A0"/>
</linearGradient>
<linearGradient id="paint33_linear_6236_28543" x1="232" y1="69" x2="346.5" y2="414" gradientUnits="userSpaceOnUse">
<stop offset="0.173077" stop-color="#951580"/>
<stop offset="0.495569" stop-color="#880859"/>
<stop offset="0.681845" stop-color="#DD1638"/>
<stop offset="0.773659" stop-color="#B50C30"/>
<stop offset="1" stop-color="#910229"/>
</linearGradient>
<linearGradient id="paint34_linear_6236_28543" x1="252.297" y1="112.461" x2="358.797" y2="521.461" gradientUnits="userSpaceOnUse">
<stop stop-color="#FC4661"/>
<stop offset="0.192308" stop-color="#EF1434"/>
<stop offset="0.482564" stop-color="#B7209B"/>
<stop offset="1" stop-color="#EB39B0"/>
</linearGradient>
<linearGradient id="paint35_linear_6236_28543" x1="294.675" y1="122" x2="294.675" y2="346.006" gradientUnits="userSpaceOnUse">
<stop stop-color="#E00303"/>
<stop offset="0.711538" stop-color="#A4032C"/>
<stop offset="1" stop-color="#7C12B4"/>
</linearGradient>
<linearGradient id="paint36_linear_6236_28543" x1="248.173" y1="220.233" x2="243.673" y2="231.233" gradientUnits="userSpaceOnUse">
<stop stop-color="#FE6835"/>
<stop offset="0.764423" stop-color="#FF865D"/>
</linearGradient>
<linearGradient id="paint37_linear_6236_28543" x1="235.673" y1="234.232" x2="249.173" y2="251.232" gradientUnits="userSpaceOnUse">
<stop offset="0.134615" stop-color="#E00410"/>
<stop offset="1" stop-color="#BE0211"/>
</linearGradient>
<linearGradient id="paint38_linear_6236_28543" x1="295.672" y1="259.232" x2="320.672" y2="318.732" gradientUnits="userSpaceOnUse">
<stop stop-color="#7D0464"/>
<stop offset="1" stop-color="#660CB1"/>
</linearGradient>
<linearGradient id="paint39_linear_6236_28543" x1="347.673" y1="319.732" x2="332.673" y2="249.732" gradientUnits="userSpaceOnUse">
<stop stop-color="#FD44E1"/>
<stop offset="1" stop-color="#FD43A8"/>
</linearGradient>
<linearGradient id="paint40_linear_6236_28543" x1="282.173" y1="262.732" x2="272.673" y2="323.732" gradientUnits="userSpaceOnUse">
<stop stop-color="#FA0B29"/>
<stop offset="1" stop-color="#FD1361"/>
</linearGradient>
<linearGradient id="paint41_linear_6236_28543" x1="270.171" y1="236.629" x2="233.916" y2="337.983" gradientUnits="userSpaceOnUse">
<stop stop-color="#680009"/>
<stop offset="1" stop-color="#CF010E"/>
</linearGradient>
<linearGradient id="paint42_linear_6236_28543" x1="344.508" y1="193.104" x2="354.173" y2="222.733" gradientUnits="userSpaceOnUse">
<stop stop-color="#FD77B8"/>
<stop offset="0.841346" stop-color="#FE49BA"/>
</linearGradient>
<linearGradient id="paint43_linear_6236_28543" x1="342.172" y1="228.732" x2="352.672" y2="259.232" gradientUnits="userSpaceOnUse">
<stop offset="0.225855" stop-color="#B317D9"/>
<stop offset="1" stop-color="#4C0866"/>
</linearGradient>
<linearGradient id="paint44_linear_6236_28543" x1="298.673" y1="142.231" x2="298.673" y2="245.231" gradientUnits="userSpaceOnUse">
<stop offset="0.0336538" stop-color="#FFD7C0"/>
<stop offset="0.254808" stop-color="#FEBE98"/>
<stop offset="1" stop-color="#FD1C48"/>
</linearGradient>
<linearGradient id="paint45_linear_6236_28543" x1="270.012" y1="238.542" x2="298.064" y2="135.213" gradientUnits="userSpaceOnUse">
<stop stop-color="#EF0203"/>
<stop offset="1" stop-color="#890102"/>
</linearGradient>
</defs>
</svg>
