<svg width="589" height="646" viewBox="0 0 589 646" fill="none" xmlns="http://www.w3.org/2000/svg">
<path d="M536.998 179.5L577.498 162C587.251 159.787 589.184 162.136 587.998 171L577.498 209.5C575.147 217.754 572.939 220.653 567.498 223L519.998 243L536.998 179.5Z" fill="#A3C6F8"/>
<path d="M541.943 184.964L570.401 172.553C577.254 170.983 578.613 172.649 577.779 178.936L570.401 206.241C568.749 212.095 567.198 214.151 563.375 215.815L529.998 230L541.943 184.964Z" fill="#7EA9E2"/>
<path d="M511.998 251L551.027 235.715C560.022 233.685 561.805 235.839 560.711 243.968L551.027 279.277C548.859 286.847 546.823 289.505 541.805 291.658L482.498 306L511.998 251Z" fill="#A3C6F8"/>
<path d="M515.197 256.846L544.876 245.505C551.3 244.071 552.574 245.593 551.793 251.338L544.876 276.289C543.327 281.639 541.873 283.517 538.289 285.038L493.498 297.5L515.197 256.846Z" fill="#7EA9E2"/>
<g filter="url(#filter0_d_6099_28833)">
<path d="M449.998 105.155L550.998 49.1555C567.765 42.6799 573.145 45.2357 572.498 65.6555L549.998 208.156C547.427 216.04 545.65 220.151 540.498 225.656C536.286 230.155 528.998 234.155 524.498 236.155C522.277 237.162 521.513 238.34 521.498 242.155V278.655C521.082 287.468 518.632 290.435 512.498 294.155L481.998 310.155L449.998 105.155Z" fill="#A3C6F8"/>
</g>
<path d="M535.998 108.997L552.998 72.9974C557.465 64.1709 558.701 63.9749 557.498 76.4974L542.498 166L535.998 108.997Z" fill="#7FA5D8"/>
<path d="M554.998 66.9998C556.653 66.4685 557.498 66.5005 557.498 67C557.498 67.4995 535.998 109 535.998 109H469.998L554.998 66.9998Z" fill="#91B6E7"/>
<path d="M469.998 109H535.998L497.498 146L469.998 109Z" fill="#689ADC"/>
<path d="M497.498 146L535.998 109L542.498 166L497.498 146Z" fill="#84AEE7"/>
<path d="M469.998 222L512.998 226V282C511.341 287.862 502.868 291.322 487.498 297.5L469.998 222Z" fill="#B7CCE9"/>
<path d="M484.998 224L512.998 226.867V267L484.998 224Z" fill="#7EA9E2"/>
<path d="M497.998 146L542.998 164.182L536.998 206L497.998 146Z" fill="#91B6E7"/>
<path d="M484.998 207L536.998 206C535.901 214.61 530.998 221 524.998 224C521.498 225.75 506.363 229.748 492.998 227L484.998 207Z" fill="#B7CCE9"/>
<path d="M497.998 145.5L536.998 206L496.998 207L497.998 145.5Z" fill="#7EA9E2"/>
<path d="M51.3125 179.5L10.8125 162C1.05992 159.787 -0.873733 162.136 0.3125 171L10.8125 209.5C13.1633 217.754 15.3714 220.653 20.8125 223L68.3125 243L51.3125 179.5Z" fill="#A3C6F8"/>
<path d="M46.3672 184.964L17.9093 172.553C11.0565 170.983 9.6978 172.649 10.5313 178.936L17.9093 206.241C19.5611 212.095 21.1127 214.151 24.9359 215.815L58.3125 230L46.3672 184.964Z" fill="#7EA9E2"/>
<path d="M76.3125 251L37.2833 235.715C28.289 233.685 26.5057 235.839 27.5997 243.968L37.2833 279.277C39.4514 286.847 41.4877 289.505 46.5058 291.658L105.812 306L76.3125 251Z" fill="#A3C6F8"/>
<path d="M73.1138 256.846L43.4345 245.505C37.0101 244.071 35.7363 245.593 36.5177 251.338L43.4345 276.289C44.9832 281.639 46.4377 283.517 50.022 285.038L94.8125 297.5L73.1138 256.846Z" fill="#7EA9E2"/>
<g filter="url(#filter1_d_6099_28833)">
<path d="M138.312 105.155L37.3125 49.1555C20.5452 42.6799 15.1657 45.2357 15.8125 65.6555L38.3125 208.156C40.8838 216.04 42.6601 220.151 47.8125 225.656C52.0246 230.155 59.3125 234.155 63.8125 236.155C66.0335 237.162 66.7972 238.34 66.8125 242.155V278.655C67.2286 287.468 69.6782 290.435 75.8125 294.155L106.312 310.155L138.312 105.155Z" fill="#A3C6F8"/>
</g>
<path d="M52.3125 108.997L35.3125 72.9974C30.8453 64.1709 29.6095 63.9749 30.8125 76.4974L45.8125 166L52.3125 108.997Z" fill="#7FA5D8"/>
<path d="M33.3125 66.9998C31.6578 66.4685 30.8125 66.5005 30.8125 67C30.8125 67.4995 52.3125 109 52.3125 109H118.312L33.3125 66.9998Z" fill="#91B6E7"/>
<path d="M118.312 109H52.3125L90.8125 146L118.312 109Z" fill="#689ADC"/>
<path d="M90.8125 146L52.3125 109L45.8125 166L90.8125 146Z" fill="#84AEE7"/>
<path d="M118.312 222L75.3125 226V282C76.9696 287.862 85.4425 291.322 100.812 297.5L118.312 222Z" fill="#B7CCE9"/>
<path d="M103.312 224L75.3125 226.867V267L103.312 224Z" fill="#7EA9E2"/>
<path d="M90.3125 146L45.3125 164.182L51.3125 206L90.3125 146Z" fill="#91B6E7"/>
<path d="M103.312 207L51.3125 206C52.4091 214.61 57.3125 221 63.3125 224C66.8125 225.75 81.9477 229.748 95.3125 227L103.312 207Z" fill="#B7CCE9"/>
<path d="M90.3125 145.5L51.3125 206L91.3125 207L90.3125 145.5Z" fill="#7EA9E2"/>
<g filter="url(#filter2_d_6099_28833)">
<path d="M465.393 384.254H393.707L366 464L430.015 483.87C439.836 486.562 442.378 484.877 444.445 479.215L465.393 384.254Z" fill="#A3C6F8"/>
<path d="M454.568 384.455L401.581 424.409L427.729 475.15C432.144 477.137 433.985 476.636 435.732 472.029L454.568 384.455Z" fill="#7FA5D8"/>
<path d="M401.62 424.287L385.328 449.424L374 458L427.688 475.026L401.62 424.287Z" fill="#8CB2E4"/>
</g>
<g filter="url(#filter3_d_6099_28833)">
<path d="M127 387.254H198.686L226.393 467L162.378 486.87C152.556 489.562 150.015 487.877 147.947 482.215L127 387.254Z" fill="#A3C6F8"/>
<path d="M137.824 387.455L190.812 427.409L164.664 478.15C160.249 480.137 158.408 479.636 156.661 475.029L137.824 387.455Z" fill="#7FA5D8"/>
<path d="M190.773 427.287L207.065 452.424L218.393 461L164.705 478.026L190.773 427.287Z" fill="#8CB2E4"/>
</g>
<path d="M150.537 398.832C147.976 391.007 153.806 382.965 162.039 382.965H427.041C435.658 382.965 441.515 391.714 438.23 399.681L424.913 431.981C423.834 434.598 421.873 436.754 419.369 438.074L300.844 500.569C297.33 502.422 293.13 502.432 289.607 500.597L166.477 436.449C163.672 434.987 161.551 432.486 160.567 429.48L150.537 398.832Z" fill="#A3C6F8"/>
<path d="M160.033 398.931C157.39 391.087 163.225 382.965 171.502 382.965H417.529C426.199 382.965 432.057 391.814 428.67 399.796L417.009 427.277C415.9 429.888 413.91 432.027 411.385 433.321L300.719 490.012C297.272 491.777 293.19 491.787 289.735 490.038L174.793 431.86C171.959 430.426 169.803 427.935 168.789 424.925L160.033 398.931Z" fill="#689ADC"/>
<path d="M169 450L180 447V573C177.356 572.303 175.373 571.221 172 569.518L169 450Z" fill="#A3C6F8"/>
<path d="M114 357L175 369.5V571C123.98 546.5 114.347 503.389 114 491.5V357Z" fill="#A3C6F8"/>
<path d="M120 359L175 402V564.5C130.671 543.062 120.301 503.84 120 493.438V359Z" fill="#689ADC"/>
<path d="M132 396.5L175 424V549.5C141.149 533.01 132.23 502.339 132 494.337L132 396.5Z" fill="#ADC6E9"/>
<path d="M141 439H175V539C147.597 525.808 141.186 501.671 141 495.269V439Z" fill="#689ADC"/>
<path d="M419 447.5H411V573C413.644 572.303 415.627 571.221 419 569.518V447.5Z" fill="#A3C6F8"/>
<path d="M477 360.5L416 387V571C467.02 546.5 476.653 503.389 477 491.5V360.5Z" fill="#A3C6F8"/>
<path d="M471 387.5L416 402V564.5C460.329 543.062 470.699 503.84 471 493.438V387.5Z" fill="#689ADC"/>
<path d="M459 414.5L416 424V549.5C449.851 533.01 458.77 502.339 459 494.337V414.5Z" fill="#ADC6E9"/>
<path d="M450 439H416V539C443.403 525.808 449.814 501.671 450 495.269V439Z" fill="#689ADC"/>
<path d="M214 411C214 408.791 215.791 407 218 407H373C375.209 407 377 408.791 377 411V574.604C377 575.715 376.538 576.776 375.725 577.532L304.214 644.084C301.176 646.686 299.355 646.59 296.013 644.084L215.453 577.546C214.533 576.786 214 575.655 214 574.462V411Z" fill="#A3C6F8"/>
<path d="M220 417C220 414.791 221.791 413 224 413H368C370.209 413 372 414.791 372 417V572.123C372 573.221 371.549 574.271 370.752 575.026L304.126 638.18C301.293 640.652 299.595 640.561 296.478 638.18L221.425 575.042C220.522 574.282 220 573.162 220 571.981V417Z" fill="#689ADC"/>
<path d="M228 427C228 424.239 230.239 422 233 422H358C360.761 422 363 424.239 363 427V563.698C363 565.064 362.441 566.371 361.452 567.315L302.717 623.373C300.201 625.583 298.693 625.501 295.925 623.373L229.768 567.335C228.647 566.385 228 564.99 228 563.52V427Z" fill="#ADC6E9"/>
<path d="M237 427C237 424.239 239.239 422 242 422H350C352.761 422 355 424.239 355 427V561.272C355 562.64 354.439 563.949 353.448 564.893L302.308 613.581C300.109 615.508 298.791 615.437 296.371 613.581L238.773 564.913C237.649 563.963 237 562.566 237 561.094V427Z" fill="#689ADC"/>
<path d="M254 442C254 439.239 256.239 437 259 437H332C334.761 437 337 439.239 337 442V553.663C337 555.034 336.437 556.344 335.443 557.288L299.937 591.005C298.39 592.357 297.463 592.307 295.761 591.005L255.778 557.308C254.651 556.358 254 554.959 254 553.485V442Z" fill="#A4C4F0"/>
<g filter="url(#filter4_d_6099_28833)">
<path d="M465.393 387.254H393.707L366 467L430.015 486.87C439.836 489.562 442.378 487.877 444.445 482.215L465.393 387.254Z" fill="#A3C6F8"/>
<path d="M454.568 387.455L401.581 427.409L427.729 478.15C432.144 480.137 433.985 479.636 435.732 475.029L454.568 387.455Z" fill="#7FA5D8"/>
<path d="M401.62 427.287L385.328 452.424L374 461L427.688 478.026L401.62 427.287Z" fill="#8CB2E4"/>
</g>
<g filter="url(#filter5_d_6099_28833)">
<path d="M127 390.254H198.686L226.393 470L162.378 489.87C152.556 492.562 150.015 490.877 147.947 485.215L127 390.254Z" fill="#A3C6F8"/>
<path d="M137.824 390.455L190.812 430.409L164.664 481.15C160.249 483.137 158.408 482.636 156.661 478.029L137.824 390.455Z" fill="#7FA5D8"/>
<path d="M190.773 430.287L207.065 455.424L218.393 464L164.705 481.026L190.773 430.287Z" fill="#8CB2E4"/>
</g>
<path d="M150.537 401.832C147.976 394.007 153.806 385.965 162.039 385.965H427.041C435.658 385.965 441.515 394.714 438.23 402.681L424.913 434.981C423.834 437.598 421.873 439.754 419.369 441.074L300.844 503.569C297.33 505.422 293.13 505.432 289.607 503.597L166.477 439.449C163.672 437.987 161.551 435.486 160.567 432.48L150.537 401.832Z" fill="#A3C6F8"/>
<path d="M160.033 401.931C157.39 394.087 163.225 385.965 171.502 385.965H417.529C426.199 385.965 432.057 394.814 428.67 402.796L417.009 430.277C415.9 432.888 413.91 435.027 411.385 436.321L300.719 493.012C297.272 494.777 293.19 494.787 289.735 493.038L174.793 434.86C171.959 433.426 169.803 430.935 168.789 427.925L160.033 401.931Z" fill="#689ADC"/>
<path d="M366.498 5.53887L429.998 58.5389C439.924 66.9518 443.862 71.3741 443.998 78.0389V109.039L346.998 53.0389V12.0376C348.498 -0.964114 357.182 -3.90871 366.498 5.53887Z" fill="#A3C6F8"/>
<path d="M358.998 14L434.498 76V78L366.498 46L358.998 14Z" fill="#91B6E7"/>
<path d="M366.498 46L434.498 78V106.5L366.998 81L366.498 46Z" fill="#689ADC"/>
<path d="M358.998 14L366.498 46L367.498 70L354.998 67L358.998 14Z" fill="#7FA5D8"/>
<path d="M221.5 5.53887L158 58.5389C148.074 66.9518 144.136 71.3741 144 78.0389V109.039L241 53.0389V12.0376C239.5 -0.964114 230.816 -3.90871 221.5 5.53887Z" fill="#A3C6F8"/>
<path d="M229 14L153.5 76V78L221.5 46L229 14Z" fill="#91B6E7"/>
<path d="M221.5 46L153.5 78V106.5L221 81L221.5 46Z" fill="#689ADC"/>
<path d="M229 14L221.5 46L220.5 70L233 67L229 14Z" fill="#7FA5D8"/>
<g filter="url(#filter6_d_6099_28833)">
<path d="M90.002 157.987C90.002 140.042 99.6183 123.473 115.2 114.572L269.943 26.1693C285.312 17.389 304.178 17.389 319.547 26.1693L474.29 114.572C489.872 123.473 499.488 140.042 499.488 157.987V339.6C499.488 357.513 489.904 374.058 474.365 382.971L319.623 471.73C304.215 480.568 285.275 480.568 269.867 471.73L115.124 382.971C99.5854 374.058 90.002 357.513 90.002 339.599V157.987Z" fill="#A3C6F8"/>
</g>
<path d="M440.858 144.612V157.158H440.856V338.583L439.708 338.604V356.076L485.099 356.973C488.089 352.144 489.69 347.564 489.242 337.708V157.158H489.095C488.676 149.043 487.323 147.545 484.502 141.5L440.858 144.612Z" fill="#A4DFFF"/>
<path d="M295.447 31.8428C303.522 31.0901 310.415 33.4708 326.808 42.5952L393.115 82.0205L456.285 118.758C471.501 127.5 479.244 132.119 484.501 141.5L440.604 162.215L295.447 80.9945V31.8428Z" fill="#C4DBFF"/>
<path d="M150.288 144.613V157.158H150.29V338.583L151.438 338.604V356.076L106.047 356.973C103.058 352.144 101.456 347.564 101.904 337.708V164.324L101.903 164.325C101.007 149.989 102.538 148.545 105.488 143.717L150.288 144.613Z" fill="#B59EFF"/>
<path d="M295.447 31.8429C287.373 31.0901 280.48 33.4708 264.086 42.5952L197.78 82.0206L134.61 118.758C116.441 129.014 110.746 134.466 105.489 143.847L150.29 162.215L295.447 81.4426V31.8429Z" fill="#CFC0FF"/>
<path d="M295.447 467.632C287.373 468.385 280.48 466.004 264.086 456.879L197.78 417.454L134.61 380.717C116.441 370.461 110.746 365.009 105.489 355.628L150.29 337.259L295.447 421.486V467.632Z" fill="#F2C3FF"/>
<path d="M295.447 467.632C303.522 468.385 310.415 466.004 326.808 456.879L393.115 417.454L456.285 380.717C474.454 370.461 480.148 365.009 485.406 355.628L440.604 337.259L295.447 421.038V467.632Z" fill="#76ABFF"/>
<path d="M139.283 174.666C139.283 164.368 144.806 154.861 153.751 149.759L280.539 77.4475C289.344 72.426 300.145 72.4259 308.95 77.4475L435.738 149.759C444.683 154.861 450.206 164.368 450.206 174.666V323.009C450.206 333.289 444.702 342.783 435.781 347.891L308.993 420.495C300.166 425.549 289.323 425.549 280.496 420.495L153.708 347.891C144.787 342.783 139.283 333.289 139.283 323.009V174.666Z" fill="#A3C6F8"/>
<path d="M298.777 93.5391C305.723 94.3498 312.832 97.2006 328.347 106.979L365.531 128.933L404.061 150.885C420.687 160.311 428.621 165.332 430.494 171.941L430.483 171.946C431.558 174.177 432.781 177.65 433.182 181.194V306.639C432.541 313.44 432.314 321.69 430.479 326.05L430.494 326.059C428.621 332.668 420.687 337.689 404.061 347.115L365.531 369.067L328.347 391.021C312.832 400.799 305.723 403.65 298.777 404.461C291.501 403.65 284.054 400.799 267.801 391.021L228.845 369.067L188.48 347.115C171.334 337.836 163.013 332.826 160.886 326.367L160.789 326.059C158.549 322.027 157.893 314.84 157.205 307.534V182.09C157.764 177.144 159.65 173.62 160.87 171.681C162.972 165.199 171.292 160.187 188.48 150.885L228.845 128.933L267.801 106.979C284.054 97.2008 291.501 94.3498 298.777 93.5391ZM240.536 278.723L298.777 297.833L342.234 278.568L349.851 282.609V197.81L298.777 200.167L240.536 197.601V278.723Z" />
<g filter="url(#filter7_d_6099_28833)">
<path d="M280.774 145.658C286.101 133.18 293.917 124.707 300.924 125.875L300.93 126.049C306.812 126.469 310.41 133.149 316.648 144.628L336.967 184.352C338.655 186.934 339.608 188.122 340.752 189.174C342.317 190.472 344.18 191.716 346.861 192.306L391.272 199.314C404.857 201.215 412.542 202.26 414.692 207.961L414.701 207.959C418.126 214.023 412.212 223.832 402.237 233.156L368.686 263.097C366.676 265.28 365.079 267.825 364.057 269.679C364.108 271.669 364.35 274.215 364.715 276.674L375.22 319.723C378.126 332.855 376.298 344.448 370.537 347.257L370.245 347.402C364.769 351.368 357.871 348.008 345.736 342.162L305.937 321.619C301.586 319.732 300.543 319.984 298.995 320.035C296.968 320.302 294.573 320.761 292.488 321.584L252.835 342.5C240.627 348.543 233.743 351.986 228.481 348.171L228.491 348.153C222.428 345.178 221.102 333.888 223.931 320.696L232.146 277.103C232.658 273.399 233.094 268.83 232.816 266.887L232.949 266.851C232.484 265.648 231.773 264.376 230.594 263.094L197.209 233.277C187.284 223.991 181.941 213.812 185.365 207.756L185.421 207.772C187.722 202.165 195.309 201.087 208.523 199.157L253.059 193.779C256.739 192.935 258.091 192.399 259.836 191.389L259.842 191.398C260.956 190.621 262.363 189.42 264.211 187.152L280.774 145.658ZM297.967 255.11L299.533 257.726L296.876 256.572L294.887 259.239L300.384 303.325L306.101 258.964L303.345 254.281L299.528 255.869L301.886 251.801L301.247 250.714L297.967 255.11ZM264.078 258.826L282.486 254.079L284.212 251.073L284.035 250.996L264.078 258.826ZM320.246 254.021L325.429 255.58L319.865 253.314L320.246 254.021ZM293.402 247.32L293.427 247.523L295.364 250.76L300.495 249.436L299.528 247.793L303.514 248.991L304.129 247.928L302.766 246.354L299.378 244.976L293.402 247.32ZM297.361 242.261L299.683 242.976L299.806 242.938L298.277 241.174L297.361 242.261ZM304.815 233.417L305.101 241.326L308.506 240.29L309.348 233.769L310.788 236.445L329.56 204.063L304.815 233.417ZM288.678 239.587L290.486 240.143L290.611 239.925L291.197 233.002L270.319 208.907L288.678 239.587Z" fill="#AACBFA"/>
</g>
<path d="M256.178 201.684C259.505 201.066 260.727 200.674 262.305 199.934L298.192 248.512L194.908 212.188C196.832 207.857 203.724 207.065 215.915 205.623L256.178 201.684Z" fill="#C4DBFF"/>
<path d="M237.146 260.449C239.502 262.879 239.984 265.144 240.422 266.895L298.195 248.515L194.907 212.189C192.281 217.003 197.474 225.714 206.584 233.943L237.146 260.449Z" fill="#CFC0FF"/>
<path d="M305.613 313.169C302.532 311.768 300.784 311.397 299.066 311.099L298.191 248.515L361.841 339.679C357.783 342.125 351.681 338.824 340.865 333.018L305.613 313.169Z" fill="#9BC2FF"/>
<path d="M354.889 275.921C354.351 272.58 354.044 269.068 354.209 267.333L298.191 248.514L361.841 339.677C366.752 337.237 367.489 327.123 364.741 315.159L354.889 275.921Z" fill="#F2C3FF"/>
<path d="M290.55 313.481C293.631 312.08 297.351 311.395 299.069 311.097L298.194 248.514L234.323 339.991C238.381 342.437 244.483 339.136 255.299 333.33L290.55 313.481Z" fill="#C4DBFF"/>
<path d="M239.548 276.086C240.086 272.745 240.589 268.631 240.423 266.895L298.192 248.514L234.322 339.99C229.411 337.55 228.673 327.435 231.421 315.471L239.548 276.086Z" fill="#B59EFF"/>
<path d="M340.643 200.372C337.316 199.754 335.391 198.184 333.641 196.871L298.194 248.577L401.479 212.252C399.555 207.922 392.662 207.13 380.472 205.688L340.643 200.372Z" fill="#C3DAFF"/>
<path d="M359.239 260.514C356.883 262.944 355.068 265.817 354.209 267.334L298.19 248.58L401.478 212.254C404.104 217.068 398.911 225.779 389.801 234.008L359.239 260.514Z" fill="#76ABFF"/>
<path d="M329.952 191.683C331.679 194.593 332.468 195.605 333.707 196.831L298.192 248.516L298.977 137.785C303.705 138.099 306.824 144.296 312.379 155.243L329.952 191.683Z" fill="#A4DFFF"/>
<path d="M268.229 194.066C264.93 198.623 263.433 198.607 262.305 199.936L298.192 248.515L298.976 137.783C293.552 136.977 287.165 144.854 282.579 156.241L268.229 194.066Z" fill="#AFC7FF"/>
<defs>
<filter id="filter0_d_6099_28833" x="445.998" y="46" width="130.551" height="272.156" filterUnits="userSpaceOnUse" color-interpolation-filters="sRGB">
<feFlood flood-opacity="0" result="BackgroundImageFix"/>
<feColorMatrix in="SourceAlpha" type="matrix" values="0 0 0 0 0 0 0 0 0 0 0 0 0 0 0 0 0 0 127 0" result="hardAlpha"/>
<feOffset dy="4"/>
<feGaussianBlur stdDeviation="2"/>
<feComposite in2="hardAlpha" operator="out"/>
<feColorMatrix type="matrix" values="0 0 0 0 0 0 0 0 0 0 0 0 0 0 0 0 0 0 0.25 0"/>
<feBlend mode="normal" in2="BackgroundImageFix" result="effect1_dropShadow_6099_28833"/>
<feBlend mode="normal" in="SourceGraphic" in2="effect1_dropShadow_6099_28833" result="shape"/>
</filter>
<filter id="filter1_d_6099_28833" x="11.7617" y="46" width="130.551" height="272.156" filterUnits="userSpaceOnUse" color-interpolation-filters="sRGB">
<feFlood flood-opacity="0" result="BackgroundImageFix"/>
<feColorMatrix in="SourceAlpha" type="matrix" values="0 0 0 0 0 0 0 0 0 0 0 0 0 0 0 0 0 0 127 0" result="hardAlpha"/>
<feOffset dy="4"/>
<feGaussianBlur stdDeviation="2"/>
<feComposite in2="hardAlpha" operator="out"/>
<feColorMatrix type="matrix" values="0 0 0 0 0 0 0 0 0 0 0 0 0 0 0 0 0 0 0.25 0"/>
<feBlend mode="normal" in2="BackgroundImageFix" result="effect1_dropShadow_6099_28833"/>
<feBlend mode="normal" in="SourceGraphic" in2="effect1_dropShadow_6099_28833" result="shape"/>
</filter>
<filter id="filter2_d_6099_28833" x="362" y="384.254" width="107.393" height="108.869" filterUnits="userSpaceOnUse" color-interpolation-filters="sRGB">
<feFlood flood-opacity="0" result="BackgroundImageFix"/>
<feColorMatrix in="SourceAlpha" type="matrix" values="0 0 0 0 0 0 0 0 0 0 0 0 0 0 0 0 0 0 127 0" result="hardAlpha"/>
<feOffset dy="4"/>
<feGaussianBlur stdDeviation="2"/>
<feComposite in2="hardAlpha" operator="out"/>
<feColorMatrix type="matrix" values="0 0 0 0 0 0 0 0 0 0 0 0 0 0 0 0 0 0 0.25 0"/>
<feBlend mode="normal" in2="BackgroundImageFix" result="effect1_dropShadow_6099_28833"/>
<feBlend mode="normal" in="SourceGraphic" in2="effect1_dropShadow_6099_28833" result="shape"/>
</filter>
<filter id="filter3_d_6099_28833" x="123" y="387.254" width="107.393" height="108.869" filterUnits="userSpaceOnUse" color-interpolation-filters="sRGB">
<feFlood flood-opacity="0" result="BackgroundImageFix"/>
<feColorMatrix in="SourceAlpha" type="matrix" values="0 0 0 0 0 0 0 0 0 0 0 0 0 0 0 0 0 0 127 0" result="hardAlpha"/>
<feOffset dy="4"/>
<feGaussianBlur stdDeviation="2"/>
<feComposite in2="hardAlpha" operator="out"/>
<feColorMatrix type="matrix" values="0 0 0 0 0 0 0 0 0 0 0 0 0 0 0 0 0 0 0.25 0"/>
<feBlend mode="normal" in2="BackgroundImageFix" result="effect1_dropShadow_6099_28833"/>
<feBlend mode="normal" in="SourceGraphic" in2="effect1_dropShadow_6099_28833" result="shape"/>
</filter>
<filter id="filter4_d_6099_28833" x="362" y="387.254" width="107.393" height="108.869" filterUnits="userSpaceOnUse" color-interpolation-filters="sRGB">
<feFlood flood-opacity="0" result="BackgroundImageFix"/>
<feColorMatrix in="SourceAlpha" type="matrix" values="0 0 0 0 0 0 0 0 0 0 0 0 0 0 0 0 0 0 127 0" result="hardAlpha"/>
<feOffset dy="4"/>
<feGaussianBlur stdDeviation="2"/>
<feComposite in2="hardAlpha" operator="out"/>
<feColorMatrix type="matrix" values="0 0 0 0 0 0 0 0 0 0 0 0 0 0 0 0 0 0 0.25 0"/>
<feBlend mode="normal" in2="BackgroundImageFix" result="effect1_dropShadow_6099_28833"/>
<feBlend mode="normal" in="SourceGraphic" in2="effect1_dropShadow_6099_28833" result="shape"/>
</filter>
<filter id="filter5_d_6099_28833" x="123" y="390.254" width="107.393" height="108.869" filterUnits="userSpaceOnUse" color-interpolation-filters="sRGB">
<feFlood flood-opacity="0" result="BackgroundImageFix"/>
<feColorMatrix in="SourceAlpha" type="matrix" values="0 0 0 0 0 0 0 0 0 0 0 0 0 0 0 0 0 0 127 0" result="hardAlpha"/>
<feOffset dy="4"/>
<feGaussianBlur stdDeviation="2"/>
<feComposite in2="hardAlpha" operator="out"/>
<feColorMatrix type="matrix" values="0 0 0 0 0 0 0 0 0 0 0 0 0 0 0 0 0 0 0.25 0"/>
<feBlend mode="normal" in2="BackgroundImageFix" result="effect1_dropShadow_6099_28833"/>
<feBlend mode="normal" in="SourceGraphic" in2="effect1_dropShadow_6099_28833" result="shape"/>
</filter>
<filter id="filter6_d_6099_28833" x="80.002" y="12.584" width="429.486" height="478.775" filterUnits="userSpaceOnUse" color-interpolation-filters="sRGB">
<feFlood flood-opacity="0" result="BackgroundImageFix"/>
<feColorMatrix in="SourceAlpha" type="matrix" values="0 0 0 0 0 0 0 0 0 0 0 0 0 0 0 0 0 0 127 0" result="hardAlpha"/>
<feOffset dy="3"/>
<feGaussianBlur stdDeviation="5"/>
<feComposite in2="hardAlpha" operator="out"/>
<feColorMatrix type="matrix" values="0 0 0 0 0.413999 0 0 0 0 0.609993 0 0 0 0 0.900604 0 0 0 1 0"/>
<feBlend mode="normal" in2="BackgroundImageFix" result="effect1_dropShadow_6099_28833"/>
<feBlend mode="normal" in="SourceGraphic" in2="effect1_dropShadow_6099_28833" result="shape"/>
</filter>
<clipPath id="paint0_angular_6099_28833_clip_path"><path d="M298.777 93.5391C305.723 94.3498 312.832 97.2006 328.347 106.979L365.531 128.933L404.061 150.885C420.687 160.311 428.621 165.332 430.494 171.941L430.483 171.946C431.558 174.177 432.781 177.65 433.182 181.194V306.639C432.541 313.44 432.314 321.69 430.479 326.05L430.494 326.059C428.621 332.668 420.687 337.689 404.061 347.115L365.531 369.067L328.347 391.021C312.832 400.799 305.723 403.65 298.777 404.461C291.501 403.65 284.054 400.799 267.801 391.021L228.845 369.067L188.48 347.115C171.334 337.836 163.013 332.826 160.886 326.367L160.789 326.059C158.549 322.027 157.893 314.84 157.205 307.534V182.09C157.764 177.144 159.65 173.62 160.87 171.681C162.972 165.199 171.292 160.187 188.48 150.885L228.845 128.933L267.801 106.979C284.054 97.2008 291.501 94.3498 298.777 93.5391ZM240.536 278.723L298.777 297.833L342.234 278.568L349.851 282.609V197.81L298.777 200.167L240.536 197.601V278.723Z"/></clipPath><filter id="filter7_d_6099_28833" x="177.518" y="125.768" width="239.13" height="232.766" filterUnits="userSpaceOnUse" color-interpolation-filters="sRGB">
<feFlood flood-opacity="0" result="BackgroundImageFix"/>
<feColorMatrix in="SourceAlpha" type="matrix" values="0 0 0 0 0 0 0 0 0 0 0 0 0 0 0 0 0 0 127 0" result="hardAlpha"/>
<feOffset dx="-2.92" dy="4.87"/>
<feGaussianBlur stdDeviation="1.945"/>
<feComposite in2="hardAlpha" operator="out"/>
<feColorMatrix type="matrix" values="0 0 0 0 0.0352941 0 0 0 0 0.0980392 0 0 0 0 0.368627 0 0 0 0.25 0"/>
<feBlend mode="normal" in2="BackgroundImageFix" result="effect1_dropShadow_6099_28833"/>
<feBlend mode="normal" in="SourceGraphic" in2="effect1_dropShadow_6099_28833" result="shape"/>
</filter>
</defs>
</svg>
