<svg width="570" height="480" viewBox="0 0 570 480" fill="none" xmlns="http://www.w3.org/2000/svg">
<path d="M508.104 128.867C523.047 123.111 530.051 127.982 528.65 139.938C527.249 151.893 509.038 249.753 509.038 249.753C506.351 266.117 493.186 271.418 469.346 280.75L417.98 176.248C417.98 176.248 493.161 134.624 508.104 128.867Z" fill="#767676"/>
<path d="M499.029 138.577C513.099 132.688 519.071 131.035 519.071 134.34C519.071 137.646 499.775 244.372 499.775 244.372C497.132 260.767 484.179 266.078 460.724 275.429L417.98 182.379C417.98 182.379 484.96 144.466 499.029 138.577Z" fill="#868686"/>
<g filter="url(#filter0_d_6041_34106)">
<path d="M536.836 62.2603C557.278 56.5038 568.597 50.5346 564.943 73.3304C561.289 96.1262 538.114 183.146 538.114 183.146C534.438 199.51 497.235 211.168 464.623 220.5L413.547 109.64C413.547 109.64 516.394 68.0167 536.836 62.2603Z" fill="#767676"/>
</g>
<path d="M524.456 65.7613C529.713 64.1535 553.212 54.9687 551.882 61.5251C550.552 68.0815 525.477 171.556 525.477 171.556C521.86 187.952 504.134 193.263 472.038 202.613L413.547 109.564C413.547 109.564 519.199 67.3691 524.456 65.7613Z" fill="#A6A6A6"/>
<path d="M535.623 130L465.623 153.042L466.982 204C500.179 196.004 522.732 187.978 526.108 170.766L535.623 130Z" fill="#868686"/>
<path d="M61.0659 128.867C46.1231 123.111 39.1187 127.982 40.5196 139.938C41.9205 151.893 60.132 249.753 60.132 249.753C62.8184 266.117 75.9844 271.418 99.8237 280.75L151.189 176.248C151.189 176.248 76.0087 134.624 61.0659 128.867Z" fill="#767676"/>
<path d="M70.1406 138.577C56.0711 132.688 50.0986 131.035 50.0986 134.34C50.0986 137.646 69.3945 244.372 69.3945 244.372C72.0376 260.767 84.9911 266.078 108.446 275.429L151.189 182.379C151.189 182.379 84.2101 144.466 70.1406 138.577Z" fill="#868686"/>
<g filter="url(#filter1_d_6041_34106)">
<path d="M32.334 62.2603C11.8923 56.5038 0.57283 50.5346 4.22667 73.3304C7.88051 96.1262 31.0564 183.146 31.0564 183.146C34.7315 199.51 71.9347 211.168 104.547 220.5L155.623 109.64C155.623 109.64 52.7757 68.0167 32.334 62.2603Z" fill="#767676"/>
</g>
<path d="M44.7141 65.7613C39.4572 64.1535 15.958 54.9687 17.2882 61.5251C18.6183 68.0815 43.6931 171.556 43.6931 171.556C47.31 187.952 65.0358 193.263 97.1316 202.613L155.623 109.564C155.623 109.564 49.9709 67.3691 44.7141 65.7613Z" fill="#A6A6A6"/>
<path d="M33.5469 130L103.547 153.042L102.188 204C68.9906 196.004 46.4382 187.978 43.0614 170.766L33.5469 130Z" fill="#868686"/>
<g filter="url(#filter2_d_6041_34106)">
<path d="M75.5469 145.987C75.5469 128.042 85.1632 111.473 100.745 102.572L255.487 14.1693C270.857 5.38898 289.723 5.389 305.092 14.1693L459.835 102.572C475.416 111.473 485.033 128.042 485.033 145.987V327.599C485.033 345.513 475.449 362.058 459.91 370.971L305.167 459.73C289.76 468.568 270.82 468.568 255.412 459.73L100.669 370.971C85.1303 362.058 75.5469 345.513 75.5469 327.599V145.987Z" fill="#676767"/>
</g>
<path fill-rule="evenodd" clip-rule="evenodd" d="M426.404 132.612V145.158H426.402V326.583L425.254 326.604V344.076L470.645 344.973C473.634 340.144 475.236 335.564 474.788 325.708V145.158H474.641C474.222 137.043 472.869 135.545 470.048 129.5L426.404 132.612Z" fill="#909090"/>
<path d="M280.994 19.8428C289.069 19.0901 295.962 21.4708 312.355 30.5952L378.661 70.0205L441.832 106.758C457.048 115.5 464.791 120.119 470.048 129.5L426.151 150.215L280.994 68.9945V19.8428Z" fill="#7F7F7F"/>
<path fill-rule="evenodd" clip-rule="evenodd" d="M135.834 132.613V145.158H135.836V326.583L136.984 326.604V344.076L91.5927 344.973C88.6061 340.148 87.0059 335.572 87.4501 325.732V152.324L87.4491 152.325C86.5533 137.989 88.084 136.545 91.0341 131.717L135.834 132.613Z" fill="#909090"/>
<path d="M280.994 19.8429C272.92 19.0901 266.027 21.4708 249.633 30.5952L183.327 70.0206L120.157 106.758C101.988 117.014 96.2931 122.466 91.0357 131.847L135.837 150.215L280.994 69.4426V19.8429Z" fill="#858585"/>
<path d="M280.994 455.632C272.92 456.385 266.027 454.004 249.633 444.879L183.327 405.454L120.157 368.717C101.988 358.461 96.2931 353.009 91.0357 343.628L135.837 325.259L280.994 409.486V455.632Z" fill="#8A8A8A"/>
<path d="M280.994 455.632C289.069 456.385 295.962 454.004 312.355 444.879L378.661 405.454L441.832 368.717C460.001 358.461 465.695 353.009 470.953 343.628L426.151 325.259L280.994 409.038V455.632Z" fill="#858585"/>
<path d="M124.828 162.666C124.828 152.368 130.351 142.861 139.296 137.759L266.084 65.4475C274.889 60.426 285.69 60.4259 294.495 65.4475L421.283 137.759C430.228 142.861 435.751 152.368 435.751 162.666V311.009C435.751 321.289 430.247 330.783 421.326 335.891L294.538 408.495C285.711 413.549 274.868 413.549 266.041 408.495L139.253 335.891C130.332 330.783 124.828 321.289 124.828 311.009V162.666Z" fill="#676767"/>
<g filter="url(#filter3_d_6041_34106)">
<path d="M147.23 158.442C148.126 157.098 226.081 157.994 226.081 157.994V288.814C226.081 288.814 148.574 318.09 146.334 314.058C144.094 310.026 143.438 302.84 142.75 295.535V235.5V170.09C143.462 163.781 146.334 159.786 147.23 158.442Z" fill="#A29692"/>
<path d="M414.246 157.546C413.798 158.286 335.396 157.098 335.396 157.098V287.918C335.396 287.918 413.35 318.986 415.59 314.954C417.831 310.922 418.038 301.944 418.727 294.638V234.604V169.194C418.014 162.885 414.694 156.805 414.246 157.546Z" fill="#A29692"/>
<path d="M284.322 81.5391C291.267 82.3498 298.377 85.2006 313.891 94.9795L351.077 116.932L389.606 138.885C406.233 148.312 414.166 153.332 416.039 159.942L371.685 184.135L284.322 188.167V81.5391Z" fill="#A29692"/>
<path d="M284.322 392.461C291.267 391.65 298.377 388.799 313.891 379.02L351.077 357.068L389.606 335.115C406.233 325.688 414.166 320.668 416.039 314.058L371.685 289.865L327.78 266.569L284.322 285.833V392.461Z" fill="#A29692"/>
<path d="M284.322 81.5391C277.046 82.3498 269.598 85.2006 253.345 94.9795L214.389 116.932L174.025 138.885C156.606 148.312 148.296 153.332 146.334 159.942L192.799 184.135L284.322 188.167V81.5391Z" fill="#A29692"/>
<path d="M284.322 392.461C277.046 391.65 269.598 388.799 253.345 379.02L214.389 357.068L174.025 335.115C156.606 325.688 148.296 320.668 146.334 314.058L224.246 266.121L284.322 285.833V392.461Z" fill="#A29692"/>
</g>
<g filter="url(#filter4_d_6041_34106)">
<path fill-rule="evenodd" clip-rule="evenodd" d="M265.18 130.101C270.507 117.623 278.323 109.151 285.331 110.318L285.336 110.493C291.219 110.912 294.816 117.592 301.055 129.072L321.376 168.798C323.066 171.384 324.02 172.571 325.167 173.624C326.73 174.92 328.592 176.162 331.269 176.751L375.681 183.761C389.266 185.661 396.95 186.705 399.1 192.406L399.109 192.404C402.535 198.468 396.62 208.277 386.645 217.602L353.094 247.542C351.085 249.726 349.487 252.27 348.465 254.124C348.516 256.114 348.758 258.66 349.124 261.119L359.628 304.169C362.534 317.301 360.707 328.895 354.946 331.704L354.647 331.852C349.172 335.813 342.275 332.454 330.143 326.609L290.343 306.066C285.994 304.18 284.95 304.43 283.403 304.481C281.376 304.748 278.981 305.207 276.895 306.03L237.243 326.947C225.034 332.99 218.149 336.434 212.887 332.618L212.897 332.6C206.834 329.624 205.508 318.334 208.337 305.142L216.552 261.549C217.065 257.844 217.5 253.276 217.222 251.332L217.353 251.298C216.889 250.094 216.178 248.821 215 247.539L181.613 217.723C171.688 208.436 166.345 198.257 169.769 192.2L169.826 192.218C172.127 186.61 179.714 185.533 192.928 183.603L237.465 178.225C241.146 177.38 242.497 176.845 244.243 175.834L244.248 175.843C245.361 175.065 246.768 173.864 248.617 171.597L265.18 130.101ZM282.374 239.557L283.939 242.172L281.283 241.018L279.294 243.685L284.791 287.765L290.507 243.406L287.753 238.727L283.936 240.315L286.294 236.246L285.654 235.158L282.374 239.557ZM248.485 243.271L266.893 238.524L268.619 235.519L268.44 235.442L248.485 243.271ZM304.651 238.466L309.828 240.022L304.271 237.76L304.651 238.466ZM277.809 231.766L277.835 231.971L279.77 235.205L284.903 233.882L283.936 232.238L287.923 233.436L288.538 232.375L287.173 230.8L283.785 229.421L277.809 231.766ZM281.767 226.707L284.088 227.423L284.213 227.384L282.684 225.618L281.767 226.707ZM289.221 217.863L289.507 225.771L292.913 224.735L293.754 218.215L295.195 220.893L313.968 188.508L289.221 217.863ZM273.084 224.032L274.892 224.589L275.018 224.368L275.604 217.447L254.721 193.346L273.084 224.032Z" fill="#616161"/>
</g>
<path d="M241.392 184.534C244.798 183.901 246.048 183.5 247.664 182.742L284.401 232.472L178.67 195.287C180.639 190.854 187.695 190.043 200.175 188.566L241.392 184.534Z" fill="#AAAAAA"/>
<path d="M221.91 244.69C224.321 247.177 224.815 249.497 225.263 251.289L284.405 232.473L178.67 195.287C175.982 200.215 181.298 209.132 190.623 217.556L221.91 244.69Z" fill="#828282"/>
<path d="M291.998 298.658C288.845 297.225 287.055 296.844 285.296 296.539L284.4 232.473L349.559 325.796C345.404 328.3 339.157 324.921 328.085 318.978L291.998 298.658Z" fill="#7E7E7E"/>
<path d="M342.442 260.528C341.891 257.108 341.577 253.513 341.747 251.736L284.401 232.471L349.559 325.795C354.586 323.297 355.341 312.943 352.528 300.695L342.442 260.528Z" fill="#ADADAD"/>
<path d="M276.577 298.978C279.731 297.545 283.539 296.843 285.298 296.538L284.402 232.472L219.017 326.117C223.171 328.621 229.418 325.241 240.491 319.298L276.577 298.978Z" fill="#979797"/>
<path d="M224.366 260.696C224.917 257.276 225.432 253.065 225.262 251.288L284.4 232.472L219.016 326.115C213.989 323.617 213.234 313.263 216.047 301.015L224.366 260.696Z" fill="#D5D5D5"/>
<path d="M327.858 183.19C324.452 182.556 322.481 180.95 320.689 179.605L284.403 232.536L390.135 195.351C388.166 190.918 381.11 190.107 368.63 188.631L327.858 183.19Z" fill="#D5D5D5"/>
<path d="M346.895 244.756C344.484 247.242 342.626 250.184 341.747 251.737L284.4 232.538L390.135 195.352C392.823 200.28 387.507 209.197 378.182 217.621L346.895 244.756Z" fill="#9D9D9D"/>
<path d="M316.913 174.292C318.681 177.272 319.489 178.307 320.757 179.563L284.401 232.472L285.204 119.118C290.045 119.439 293.237 125.783 298.924 136.989L316.913 174.292Z" fill="#898989"/>
<path d="M253.728 176.733C250.352 181.398 248.818 181.382 247.664 182.742L284.401 232.472L285.204 119.117C279.652 118.292 273.113 126.355 268.418 138.012L253.728 176.733Z" fill="#D5D5D5"/>
<defs>
<filter id="filter0_d_6041_34106" x="410" y="57" width="159.17" height="170.594" filterUnits="userSpaceOnUse" color-interpolation-filters="sRGB">
<feFlood flood-opacity="0" result="BackgroundImageFix"/>
<feColorMatrix in="SourceAlpha" type="matrix" values="0 0 0 0 0 0 0 0 0 0 0 0 0 0 0 0 0 0 127 0" result="hardAlpha"/>
<feOffset dy="3.54705"/>
<feGaussianBlur stdDeviation="1.77352"/>
<feComposite in2="hardAlpha" operator="out"/>
<feColorMatrix type="matrix" values="0 0 0 0 0 0 0 0 0 0 0 0 0 0 0 0 0 0 0.25 0"/>
<feBlend mode="normal" in2="BackgroundImageFix" result="effect1_dropShadow_6041_34106"/>
<feBlend mode="normal" in="SourceGraphic" in2="effect1_dropShadow_6041_34106" result="shape"/>
</filter>
<filter id="filter1_d_6041_34106" x="-0.000173092" y="57" width="159.17" height="170.594" filterUnits="userSpaceOnUse" color-interpolation-filters="sRGB">
<feFlood flood-opacity="0" result="BackgroundImageFix"/>
<feColorMatrix in="SourceAlpha" type="matrix" values="0 0 0 0 0 0 0 0 0 0 0 0 0 0 0 0 0 0 127 0" result="hardAlpha"/>
<feOffset dy="3.54705"/>
<feGaussianBlur stdDeviation="1.77352"/>
<feComposite in2="hardAlpha" operator="out"/>
<feColorMatrix type="matrix" values="0 0 0 0 0 0 0 0 0 0 0 0 0 0 0 0 0 0 0.25 0"/>
<feBlend mode="normal" in2="BackgroundImageFix" result="effect1_dropShadow_6041_34106"/>
<feBlend mode="normal" in="SourceGraphic" in2="effect1_dropShadow_6041_34106" result="shape"/>
</filter>
<filter id="filter2_d_6041_34106" x="65.5469" y="0.583984" width="429.486" height="478.775" filterUnits="userSpaceOnUse" color-interpolation-filters="sRGB">
<feFlood flood-opacity="0" result="BackgroundImageFix"/>
<feColorMatrix in="SourceAlpha" type="matrix" values="0 0 0 0 0 0 0 0 0 0 0 0 0 0 0 0 0 0 127 0" result="hardAlpha"/>
<feOffset dy="3"/>
<feGaussianBlur stdDeviation="5"/>
<feComposite in2="hardAlpha" operator="out"/>
<feColorMatrix type="matrix" values="0 0 0 0 0.359431 0 0 0 0 0.359431 0 0 0 0 0.359431 0 0 0 1 0"/>
<feBlend mode="normal" in2="BackgroundImageFix" result="effect1_dropShadow_6041_34106"/>
<feBlend mode="normal" in="SourceGraphic" in2="effect1_dropShadow_6041_34106" result="shape"/>
</filter>
<filter id="filter3_d_6041_34106" x="138.75" y="81.5391" width="283.977" height="318.922" filterUnits="userSpaceOnUse" color-interpolation-filters="sRGB">
<feFlood flood-opacity="0" result="BackgroundImageFix"/>
<feColorMatrix in="SourceAlpha" type="matrix" values="0 0 0 0 0 0 0 0 0 0 0 0 0 0 0 0 0 0 127 0" result="hardAlpha"/>
<feOffset dy="4"/>
<feGaussianBlur stdDeviation="2"/>
<feComposite in2="hardAlpha" operator="out"/>
<feColorMatrix type="matrix" values="0 0 0 0 0 0 0 0 0 0 0 0 0 0 0 0 0 0 0.25 0"/>
<feBlend mode="normal" in2="BackgroundImageFix" result="effect1_dropShadow_6041_34106"/>
<feBlend mode="normal" in="SourceGraphic" in2="effect1_dropShadow_6041_34106" result="shape"/>
</filter>
<filter id="filter4_d_6041_34106" x="161.732" y="110.211" width="239.354" height="232.01" filterUnits="userSpaceOnUse" color-interpolation-filters="sRGB">
<feFlood flood-opacity="0" result="BackgroundImageFix"/>
<feColorMatrix in="SourceAlpha" type="matrix" values="0 0 0 0 0 0 0 0 0 0 0 0 0 0 0 0 0 0 127 0" result="hardAlpha"/>
<feOffset dx="-3" dy="4"/>
<feGaussianBlur stdDeviation="2"/>
<feComposite in2="hardAlpha" operator="out"/>
<feColorMatrix type="matrix" values="0 0 0 0 0.216741 0 0 0 0 0.216741 0 0 0 0 0.216741 0 0 0 0.25 0"/>
<feBlend mode="normal" in2="BackgroundImageFix" result="effect1_dropShadow_6041_34106"/>
<feBlend mode="normal" in="SourceGraphic" in2="effect1_dropShadow_6041_34106" result="shape"/>
</filter>
</defs>
</svg>
