<svg width="570" height="562" viewBox="0 0 570 562" fill="none" xmlns="http://www.w3.org/2000/svg">
<path d="M203.549 413H367.549V480.799L285.549 562L203.549 480.799V413Z" fill="#FFD62A"/>
<path d="M214.549 413H357.549V471.243L286.049 541L214.549 471.243V413Z" fill="#CB2229"/>
<path d="M269.549 447H302.549V525L286.049 541L269.549 525V447Z" fill="#F5595D"/>
<path d="M61.0659 113.867C46.1231 108.111 39.1187 112.982 40.5196 124.938C41.9205 136.893 60.132 234.753 60.132 234.753C62.8184 251.117 75.9844 256.418 99.8237 265.75L151.189 161.248C151.189 161.248 76.0087 119.624 61.0659 113.867Z" fill="#D1923D"/>
<path d="M70.1406 123.577C56.0711 117.688 50.0986 116.035 50.0986 119.34C50.0986 122.646 69.3945 229.372 69.3945 229.372C72.0376 245.767 84.9911 251.078 108.446 260.429L151.189 167.379C151.189 167.379 84.2101 129.466 70.1406 123.577Z" fill="#E48F25"/>
<g filter="url(#filter0_d_6042_28542)">
<path d="M32.334 47.2603C11.8923 41.5038 0.57283 35.5346 4.22667 58.3304C7.88051 81.1262 31.0564 168.146 31.0564 168.146C34.7315 184.51 71.9347 196.168 104.547 205.5L155.623 94.6405C155.623 94.6405 52.7757 53.0167 32.334 47.2603Z" fill="#D1923D"/>
</g>
<path d="M44.7141 50.7613C39.4572 49.1535 15.958 39.9687 17.2882 46.5251C18.6183 53.0815 43.6931 156.556 43.6931 156.556C47.31 172.952 65.0358 178.263 97.1316 187.613L155.623 94.564C155.623 94.564 49.9709 52.3691 44.7141 50.7613Z" fill="#F5D65C"/>
<path d="M33.5469 115L103.547 138.042L102.188 189C68.9906 181.004 46.4382 172.978 43.0614 155.766L33.5469 115Z" fill="#E49E2E"/>
<path d="M508.106 113.867C523.049 108.111 530.053 112.982 528.652 124.938C527.251 136.893 509.04 234.753 509.04 234.753C506.353 251.117 493.188 256.418 469.348 265.75L417.982 161.248C417.982 161.248 493.163 119.624 508.106 113.867Z" fill="#D1923D"/>
<path d="M499.031 123.577C513.101 117.688 519.073 116.035 519.073 119.34C519.073 122.646 499.777 229.372 499.777 229.372C497.134 245.767 484.181 251.078 460.726 260.429L417.982 167.379C417.982 167.379 484.962 129.466 499.031 123.577Z" fill="#E48F25"/>
<g filter="url(#filter1_d_6042_28542)">
<path d="M536.838 47.2603C557.28 41.5038 568.599 35.5346 564.945 58.3304C561.291 81.1262 538.115 168.146 538.115 168.146C534.44 184.51 497.237 196.168 464.625 205.5L413.549 94.6405C413.549 94.6405 516.396 53.0167 536.838 47.2603Z" fill="#D1923D"/>
</g>
<path d="M524.458 50.7613C529.715 49.1535 553.214 39.9687 551.884 46.5251C550.554 53.0815 525.479 156.556 525.479 156.556C521.862 172.952 504.136 178.263 472.04 187.613L413.549 94.564C413.549 94.564 519.201 52.3691 524.458 50.7613Z" fill="#F5D65C"/>
<path d="M535.625 115L465.625 138.042L466.984 189C500.181 181.004 522.734 172.978 526.11 155.766L535.625 115Z" fill="#E49E2E"/>
<g filter="url(#filter2_d_6042_28542)">
<path d="M80.5479 145.987C80.5479 128.042 90.1642 111.473 105.746 102.572L260.488 14.1693C275.858 5.38898 294.724 5.389 310.093 14.1693L464.836 102.572C480.417 111.473 490.034 128.042 490.034 145.987V327.599C490.034 345.513 480.45 362.058 464.911 370.971L310.168 459.73C294.761 468.568 275.821 468.568 260.413 459.73L105.67 370.971C90.1313 362.058 80.5479 345.513 80.5479 327.599V145.987Z" fill="#C47E03"/>
</g>
<path fill-rule="evenodd" clip-rule="evenodd" d="M431.405 132.612V145.158H431.403V326.583L430.255 326.604V344.076L475.646 344.973C478.635 340.144 480.237 335.564 479.789 325.708V145.158H479.641C479.223 137.043 477.87 135.545 475.049 129.5L431.405 132.612Z" fill="#EEAC1E"/>
<path d="M285.994 19.8428C294.069 19.0901 300.962 21.4708 317.355 30.5952L383.661 70.0205L446.832 106.758C462.048 115.5 469.791 120.119 475.048 129.5L431.151 150.215L285.994 68.9945V19.8428Z" fill="#E9AF33"/>
<path fill-rule="evenodd" clip-rule="evenodd" d="M140.835 132.613V145.158H140.837V326.583L141.985 326.604V344.076L96.5936 344.973C93.6046 340.144 92.0031 335.564 92.4511 325.708V152.324L92.4501 152.325C91.5542 137.989 93.0849 136.545 96.0351 131.717L140.835 132.613Z" fill="#F0B73E"/>
<path d="M285.994 19.8429C277.92 19.0901 271.027 21.4708 254.633 30.5952L188.327 70.0206L125.157 106.758C106.988 117.014 101.293 122.466 96.0357 131.847L140.837 150.215L285.994 69.4426V19.8429Z" fill="#FAB218"/>
<path d="M285.994 455.632C277.92 456.385 271.027 454.004 254.633 444.879L188.327 405.454L125.157 368.717C106.988 358.461 101.293 353.009 96.0357 343.628L140.837 325.259L285.994 409.486V455.632Z" fill="#E6AA29"/>
<path d="M285.994 455.632C294.069 456.385 300.962 454.004 317.355 444.879L383.661 405.454L446.832 368.717C465.001 358.461 470.695 353.009 475.953 343.628L431.151 325.259L285.994 409.038V455.632Z" fill="#F2B229"/>
<path d="M129.83 162.666C129.83 152.368 135.352 142.861 144.298 137.759L271.086 65.4475C279.891 60.426 290.692 60.4259 299.497 65.4475L426.285 137.759C435.23 142.861 440.753 152.368 440.753 162.666V311.009C440.753 321.289 435.249 330.783 426.328 335.891L299.54 408.495C290.713 413.549 279.869 413.549 271.043 408.495L144.255 335.891C135.334 330.783 129.83 321.289 129.83 311.009V162.666Z" fill="#C47E03"/>
<g filter="url(#filter3_d_6042_28542)">
<path d="M152.232 158.442C153.128 157.098 231.083 157.994 231.083 157.994V288.814C231.083 288.814 153.576 318.09 151.336 314.058C149.096 310.026 148.44 302.84 147.752 295.535V235.5V170.09C148.464 163.781 151.336 159.786 152.232 158.442Z" fill="#F2B123"/>
<path d="M419.248 157.546C418.8 158.286 340.398 157.098 340.398 157.098V287.918C340.398 287.918 418.352 318.986 420.592 314.954C422.832 310.922 423.04 301.944 423.729 294.638V234.604V169.194C423.016 162.885 419.696 156.805 419.248 157.546Z" fill="#F2B123"/>
<path d="M289.324 81.5391C296.269 82.3498 303.379 85.2006 318.893 94.9795L356.078 116.932L394.608 138.885C411.235 148.312 419.168 153.332 421.041 159.942L376.687 184.135L289.324 188.167V81.5391Z" fill="#F2B123"/>
<path d="M289.324 392.461C296.269 391.65 303.379 388.799 318.893 379.02L356.078 357.068L394.608 335.115C411.235 325.688 419.168 320.668 421.041 314.058L376.687 289.865L332.782 266.569L289.324 285.833V392.461Z" fill="#F2B123"/>
<path d="M289.324 81.5391C282.048 82.3498 274.6 85.2006 258.347 94.9795L219.391 116.932L179.027 138.885C161.608 148.312 153.298 153.332 151.336 159.942L197.801 184.135L289.324 188.167V81.5391Z" fill="#F2B123"/>
<path d="M289.324 392.461C282.048 391.65 274.6 388.799 258.347 379.02L219.391 357.068L179.027 335.115C161.608 325.688 153.298 320.668 151.336 314.058L229.248 266.121L289.324 285.833V392.461Z" fill="#F2B123"/>
</g>
<g filter="url(#filter4_d_6042_28542)">
<path fill-rule="evenodd" clip-rule="evenodd" d="M270.182 130.101C275.509 117.623 283.325 109.151 290.333 110.318L290.338 110.493C296.221 110.912 299.818 117.592 306.057 129.072L326.378 168.798C328.068 171.384 329.022 172.571 330.169 173.624C331.732 174.92 333.594 176.162 336.271 176.751L380.683 183.761C394.268 185.661 401.952 186.705 404.102 192.406L404.111 192.404C407.537 198.468 401.622 208.277 391.647 217.602L358.096 247.542C356.086 249.726 354.489 252.271 353.467 254.125C353.518 256.115 353.76 258.66 354.126 261.119L364.63 304.169C367.536 317.301 365.709 328.895 359.948 331.704L359.648 331.852C354.173 335.812 347.277 332.454 335.145 326.609L295.345 306.066C290.996 304.18 289.952 304.43 288.405 304.481C286.378 304.748 283.983 305.207 281.897 306.03L242.244 326.947C230.035 332.99 223.151 336.434 217.889 332.618L217.899 332.6C211.836 329.624 210.51 318.334 213.339 305.142L221.554 261.549C222.066 257.844 222.502 253.276 222.224 251.332L222.355 251.298C221.891 250.094 221.179 248.821 220.001 247.539L186.615 217.723C176.69 208.436 171.347 198.257 174.771 192.2L174.828 192.218C177.129 186.61 184.716 185.533 197.93 183.603L242.467 178.225C246.148 177.38 247.499 176.845 249.245 175.834L249.25 175.843C250.363 175.065 251.77 173.864 253.619 171.597L270.182 130.101ZM287.376 239.556L288.941 242.172L286.285 241.018L284.296 243.684L289.793 287.765L295.509 243.406L292.755 238.727L288.938 240.315L291.296 236.246L290.656 235.158L287.376 239.556ZM253.486 243.271L271.895 238.524L273.621 235.519L273.442 235.442L253.486 243.271ZM309.653 238.466L314.831 240.022L309.273 237.76L309.653 238.466ZM282.811 231.766L282.837 231.973L284.771 235.205L289.905 233.881L288.938 232.238L292.925 233.436L293.54 232.375L292.175 230.8L288.787 229.421L282.811 231.766ZM286.769 226.707L289.09 227.423L289.215 227.384L287.686 225.618L286.769 226.707ZM294.223 217.863L294.509 225.771L297.915 224.735L298.756 218.215L300.197 220.893L318.97 188.508L294.223 217.863ZM278.086 224.032L279.894 224.589L280.02 224.368L280.606 217.447L259.723 193.346L278.086 224.032Z" fill="#A97504"/>
</g>
<path d="M246.394 184.534C249.8 183.901 251.05 183.5 252.666 182.742L289.403 232.472L183.672 195.287C185.641 190.854 192.697 190.043 205.177 188.566L246.394 184.534Z" fill="#F8DF78"/>
<path d="M226.912 244.69C229.323 247.177 229.817 249.497 230.265 251.289L289.407 232.473L183.672 195.287C180.984 200.215 186.3 209.132 195.625 217.556L226.912 244.69Z" fill="#F6C44B"/>
<path d="M297 298.658C293.846 297.225 292.057 296.844 290.298 296.539L289.402 232.473L354.561 325.796C350.406 328.3 344.159 324.921 333.087 318.978L297 298.658Z" fill="#F0B13D"/>
<path d="M347.444 260.528C346.893 257.108 346.579 253.513 346.749 251.736L289.403 232.471L354.561 325.795C359.588 323.297 360.343 312.943 357.53 300.695L347.444 260.528Z" fill="#F4DE71"/>
<path d="M281.579 298.978C284.733 297.545 288.541 296.843 290.3 296.538L289.404 232.472L224.019 326.117C228.173 328.621 234.42 325.241 245.493 319.298L281.579 298.978Z" fill="#F6C54F"/>
<path d="M229.368 260.696C229.919 257.276 230.434 253.065 230.264 251.288L289.402 232.472L224.018 326.115C218.991 323.617 218.236 313.263 221.049 301.015L229.368 260.696Z" fill="#EDB137"/>
<path d="M332.86 183.19C329.454 182.556 327.483 180.95 325.691 179.605L289.405 232.536L395.137 195.351C393.168 190.918 386.112 190.107 373.632 188.631L332.86 183.19Z" fill="#FBDB6E"/>
<path d="M351.897 244.756C349.486 247.242 347.628 250.184 346.749 251.737L289.402 232.538L395.137 195.352C397.825 200.28 392.509 209.197 383.184 217.621L351.897 244.756Z" fill="#F5C44E"/>
<path d="M321.915 174.292C323.683 177.272 324.491 178.307 325.759 179.563L289.403 232.472L290.206 119.118C295.047 119.439 298.239 125.783 303.926 136.989L321.915 174.292Z" fill="#F3C649"/>
<path d="M258.73 176.733C255.354 181.398 253.82 181.382 252.666 182.742L289.403 232.472L290.206 119.117C284.654 118.292 278.115 126.355 273.42 138.012L258.73 176.733Z" fill="#FAEE8A"/>
<defs>
<filter id="filter0_d_6042_28542" x="-0.000173092" y="42" width="159.17" height="170.594" filterUnits="userSpaceOnUse" color-interpolation-filters="sRGB">
<feFlood flood-opacity="0" result="BackgroundImageFix"/>
<feColorMatrix in="SourceAlpha" type="matrix" values="0 0 0 0 0 0 0 0 0 0 0 0 0 0 0 0 0 0 127 0" result="hardAlpha"/>
<feOffset dy="3.54705"/>
<feGaussianBlur stdDeviation="1.77352"/>
<feComposite in2="hardAlpha" operator="out"/>
<feColorMatrix type="matrix" values="0 0 0 0 0 0 0 0 0 0 0 0 0 0 0 0 0 0 0.25 0"/>
<feBlend mode="normal" in2="BackgroundImageFix" result="effect1_dropShadow_6042_28542"/>
<feBlend mode="normal" in="SourceGraphic" in2="effect1_dropShadow_6042_28542" result="shape"/>
</filter>
<filter id="filter1_d_6042_28542" x="410.002" y="42" width="159.17" height="170.594" filterUnits="userSpaceOnUse" color-interpolation-filters="sRGB">
<feFlood flood-opacity="0" result="BackgroundImageFix"/>
<feColorMatrix in="SourceAlpha" type="matrix" values="0 0 0 0 0 0 0 0 0 0 0 0 0 0 0 0 0 0 127 0" result="hardAlpha"/>
<feOffset dy="3.54705"/>
<feGaussianBlur stdDeviation="1.77352"/>
<feComposite in2="hardAlpha" operator="out"/>
<feColorMatrix type="matrix" values="0 0 0 0 0 0 0 0 0 0 0 0 0 0 0 0 0 0 0.25 0"/>
<feBlend mode="normal" in2="BackgroundImageFix" result="effect1_dropShadow_6042_28542"/>
<feBlend mode="normal" in="SourceGraphic" in2="effect1_dropShadow_6042_28542" result="shape"/>
</filter>
<filter id="filter2_d_6042_28542" x="70.5479" y="0.583984" width="429.485" height="478.775" filterUnits="userSpaceOnUse" color-interpolation-filters="sRGB">
<feFlood flood-opacity="0" result="BackgroundImageFix"/>
<feColorMatrix in="SourceAlpha" type="matrix" values="0 0 0 0 0 0 0 0 0 0 0 0 0 0 0 0 0 0 127 0" result="hardAlpha"/>
<feOffset dy="3"/>
<feGaussianBlur stdDeviation="5"/>
<feComposite in2="hardAlpha" operator="out"/>
<feColorMatrix type="matrix" values="0 0 0 0 0.666736 0 0 0 0 0.49845 0 0 0 0 0.161877 0 0 0 1 0"/>
<feBlend mode="normal" in2="BackgroundImageFix" result="effect1_dropShadow_6042_28542"/>
<feBlend mode="normal" in="SourceGraphic" in2="effect1_dropShadow_6042_28542" result="shape"/>
</filter>
<filter id="filter3_d_6042_28542" x="143.752" y="81.5391" width="283.977" height="318.922" filterUnits="userSpaceOnUse" color-interpolation-filters="sRGB">
<feFlood flood-opacity="0" result="BackgroundImageFix"/>
<feColorMatrix in="SourceAlpha" type="matrix" values="0 0 0 0 0 0 0 0 0 0 0 0 0 0 0 0 0 0 127 0" result="hardAlpha"/>
<feOffset dy="4"/>
<feGaussianBlur stdDeviation="2"/>
<feComposite in2="hardAlpha" operator="out"/>
<feColorMatrix type="matrix" values="0 0 0 0 0 0 0 0 0 0 0 0 0 0 0 0 0 0 0.25 0"/>
<feBlend mode="normal" in2="BackgroundImageFix" result="effect1_dropShadow_6042_28542"/>
<feBlend mode="normal" in="SourceGraphic" in2="effect1_dropShadow_6042_28542" result="shape"/>
</filter>
<filter id="filter4_d_6042_28542" x="167.462" y="110.211" width="238.522" height="232.074" filterUnits="userSpaceOnUse" color-interpolation-filters="sRGB">
<feFlood flood-opacity="0" result="BackgroundImageFix"/>
<feColorMatrix in="SourceAlpha" type="matrix" values="0 0 0 0 0 0 0 0 0 0 0 0 0 0 0 0 0 0 127 0" result="hardAlpha"/>
<feOffset dx="-2.68809" dy="4.48015"/>
<feGaussianBlur stdDeviation="1.79206"/>
<feComposite in2="hardAlpha" operator="out"/>
<feColorMatrix type="matrix" values="0 0 0 0 0.368627 0 0 0 0 0.0980392 0 0 0 0 0.0352941 0 0 0 0.25 0"/>
<feBlend mode="normal" in2="BackgroundImageFix" result="effect1_dropShadow_6042_28542"/>
<feBlend mode="normal" in="SourceGraphic" in2="effect1_dropShadow_6042_28542" result="shape"/>
</filter>
</defs>
</svg>
