<svg width="18" height="18" viewBox="0 0 18 18" fill="none" xmlns="http://www.w3.org/2000/svg">
<path fill-rule="evenodd" clip-rule="evenodd" d="M3.42815 0.0566406C3.69558 0.0566406 3.9373 0.165926 4.11215 0.342069L15.1822 5.87707C15.2888 5.93052 15.3785 6.01258 15.4411 6.11407C15.5038 6.21557 15.537 6.3325 15.537 6.45178C15.537 6.57107 15.5038 6.688 15.4411 6.78949C15.3785 6.89099 15.2888 6.97305 15.1822 7.0265L4.39244 12.4214V16.9779C4.39244 17.2337 4.29084 17.4789 4.11001 17.6598C3.92917 17.8406 3.6839 17.9422 3.42815 17.9422C3.17241 17.9422 2.92714 17.8406 2.7463 17.6598C2.56546 17.4789 2.46387 17.2337 2.46387 16.9779V1.02221C2.46387 0.766468 2.56546 0.521198 2.7463 0.340359C2.92714 0.15952 3.17241 0.0579263 3.42815 0.0579263" fill="#F1070A"/>
</svg>
