<svg width="79" height="79" viewBox="0 0 79 79" fill="none" xmlns="http://www.w3.org/2000/svg">
<path d="M39.4998 46.5357C43.3856 46.5357 46.5357 43.3856 46.5357 39.4998C46.5357 35.614 43.3856 32.4639 39.4998 32.4639C35.614 32.4639 32.4639 35.614 32.4639 39.4998C32.4639 43.3856 35.614 46.5357 39.4998 46.5357Z" fill="#61DAFB"/>
<path d="M66.2244 27.8967C64.8666 27.4029 63.4471 26.9092 61.9658 26.4771C62.3361 24.9959 62.6447 23.5146 62.8916 22.0951C64.1877 13.9482 62.7682 8.2084 58.8182 5.98652C57.6455 5.30762 56.3494 4.99902 54.8682 4.99902C50.5479 4.99902 45.0549 8.2084 39.5002 13.5779C33.9455 8.2084 28.4525 4.99902 24.1322 4.99902C22.651 4.99902 21.3549 5.30762 20.1822 5.98652C16.2322 8.27012 14.8127 14.01 16.1088 22.0951C16.3557 23.5146 16.6643 24.9959 17.0346 26.4771C15.5533 26.9092 14.1338 27.3412 12.776 27.8967C5.06113 30.8592 0.864258 34.9326 0.864258 39.4998C0.864258 44.067 5.12285 48.1404 12.776 51.1029C14.1338 51.5967 15.5533 52.0904 17.0346 52.5225C16.6643 54.0037 16.3557 55.485 16.1088 56.9045C14.8127 65.0514 16.2322 70.7912 20.1822 73.0131C21.3549 73.692 22.651 74.0006 24.1322 74.0006C28.5143 74.0006 34.0072 70.7912 39.5002 65.4217C45.0549 70.7912 50.5479 74.0006 54.8682 74.0006C56.3494 74.0006 57.6455 73.692 58.8182 73.0131C62.7682 70.7295 64.1877 64.9896 62.8916 56.9045C62.6447 55.485 62.3361 54.0037 61.9658 52.5225C63.4471 52.0904 64.8666 51.6584 66.2244 51.1029C73.9393 48.1404 78.1361 44.067 78.1361 39.4998C78.1361 34.9326 73.9393 30.8592 66.2244 27.8967ZM57.09 9.07246C59.6205 10.5537 60.4846 15.1209 59.4354 21.6014C59.2502 22.8975 58.9416 24.2553 58.5713 25.6748C55.3619 24.9342 51.9674 24.4404 48.3877 24.1318C46.2893 21.1693 44.1291 18.5154 41.9689 16.1084C46.5361 11.6029 51.165 8.51699 54.9299 8.51699C55.7322 8.51699 56.4729 8.70215 57.09 9.07246ZM50.1775 45.6717C49.0666 47.6467 47.7705 49.6217 46.4127 51.5967C44.1291 51.7818 41.8455 51.8436 39.5002 51.8436C37.0932 51.8436 34.8096 51.7818 32.5877 51.5967C31.2299 49.6217 29.9955 47.6467 28.8846 45.6717C27.7119 43.635 26.601 41.5365 25.6135 39.4998C26.601 37.4631 27.7119 35.3646 28.8846 33.3279C29.9955 31.3529 31.2916 29.3779 32.6494 27.4029C34.933 27.2178 37.2166 27.1561 39.5619 27.1561C41.9689 27.1561 44.2525 27.2178 46.4744 27.4029C47.8322 29.3779 49.0666 31.3529 50.1775 33.3279C51.3502 35.3646 52.4611 37.4631 53.4486 39.4998C52.3994 41.5365 51.3502 43.5732 50.1775 45.6717ZM55.3002 43.635C56.226 45.7951 56.9666 47.8936 57.6455 49.992C55.5471 50.4857 53.3252 50.8561 50.9799 51.1646C51.7205 49.992 52.5229 48.7576 53.2018 47.4615C53.9424 46.1654 54.6213 44.8693 55.3002 43.635ZM39.5002 60.3607C38.0189 58.7561 36.5994 57.0279 35.2416 55.2381C36.6611 55.2998 38.0807 55.3615 39.5002 55.3615C40.9197 55.3615 42.3393 55.2998 43.7588 55.2381C42.401 57.0279 40.9814 58.7561 39.5002 60.3607ZM28.0205 51.1029C25.6752 50.7943 23.4533 50.424 21.3549 49.9303C22.0338 47.8936 22.7744 45.7334 23.7002 43.5732C24.3791 44.8076 25.058 46.1037 25.7986 47.3381C26.5393 48.6959 27.2799 49.8686 28.0205 51.1029ZM23.7002 35.3646C22.7744 33.2045 22.0338 31.1061 21.3549 29.0076C23.4533 28.5139 25.6752 28.1436 28.0205 27.835C27.2799 29.0076 26.4775 30.242 25.7986 31.5381C25.058 32.8342 24.3791 34.1303 23.7002 35.3646ZM39.5002 18.6389C40.9814 20.2436 42.401 21.9717 43.7588 23.7615C42.3393 23.6998 40.9197 23.6381 39.5002 23.6381C38.0807 23.6381 36.6611 23.6998 35.2416 23.7615C36.5994 21.9717 38.0189 20.2436 39.5002 18.6389ZM53.2018 31.5998L50.9799 27.8967C53.3252 28.2053 55.5471 28.5756 57.6455 29.0693C56.9666 31.1061 56.226 33.2662 55.3002 35.4264C54.6213 34.1303 53.9424 32.8342 53.2018 31.5998ZM19.565 21.6014C18.5158 15.1209 19.3799 10.5537 21.9104 9.07246C22.5275 8.70215 23.2682 8.51699 24.0705 8.51699C27.7736 8.51699 32.4025 11.5412 37.0314 16.1084C34.8713 18.4537 32.7111 21.1693 30.6127 24.1318C27.033 24.4404 23.6385 24.9959 20.4291 25.6748C20.0588 24.2553 19.8119 22.8975 19.565 21.6014ZM4.32051 39.4998C4.32051 36.599 7.83848 33.5131 14.0104 31.2295C15.2447 30.7357 16.6025 30.3037 17.9604 29.9334C18.9479 33.0193 20.1822 36.2904 21.6635 39.5615C20.1822 42.8326 18.8861 46.042 17.9604 49.1279C9.44316 46.6592 4.32051 42.9561 4.32051 39.4998ZM21.9104 69.9272C19.3799 68.4459 18.5158 63.8787 19.565 57.3982C19.7502 56.1021 20.0588 54.7443 20.4291 53.3248C23.6385 54.0654 27.033 54.5592 30.6127 54.8678C32.7111 57.8303 34.8713 60.4842 37.0314 62.8912C32.4643 67.3967 27.8354 70.4826 24.0705 70.4826C23.2682 70.4826 22.5275 70.2975 21.9104 69.9272ZM59.4354 57.3982C60.4846 63.8787 59.6205 68.4459 57.09 69.9272C56.4729 70.2975 55.7322 70.4826 54.9299 70.4826C51.2268 70.4826 46.5979 67.4584 41.9689 62.8912C44.1291 60.5459 46.2893 57.8303 48.3877 54.8678C51.9674 54.5592 55.3619 54.0037 58.5713 53.3248C58.9416 54.7443 59.1885 56.1021 59.4354 57.3982ZM64.99 47.7701C63.7557 48.2639 62.3979 48.6959 61.04 49.0662C60.0525 45.9803 58.8182 42.7092 57.3369 39.4381C58.8182 36.167 60.1143 32.9576 61.04 29.8717C69.5572 32.3404 74.6799 36.0436 74.6799 39.4998C74.6799 42.4006 71.1002 45.4865 64.99 47.7701Z" fill="#61DAFB"/>
</svg>
