<svg width="20" height="20" viewBox="0 0 20 20" fill="none" xmlns="http://www.w3.org/2000/svg">
<path d="M1.66699 7.49984C1.66699 5.92817 1.66699 5.14317 2.15533 4.65484C2.64366 4.1665 3.42866 4.1665 5.00033 4.1665H15.0003C16.572 4.1665 17.357 4.1665 17.8453 4.65484C18.3337 5.14317 18.3337 5.92817 18.3337 7.49984C18.3337 7.89234 18.3337 8.089 18.212 8.2115C18.0895 8.33317 17.892 8.33317 17.5003 8.33317H2.50033C2.10783 8.33317 1.91116 8.33317 1.78866 8.2115C1.66699 8.089 1.66699 7.8915 1.66699 7.49984ZM1.66699 14.9998C1.66699 16.5715 1.66699 17.3565 2.15533 17.8448C2.64366 18.3332 3.42866 18.3332 5.00033 18.3332H15.0003C16.572 18.3332 17.357 18.3332 17.8453 17.8448C18.3337 17.3565 18.3337 16.5715 18.3337 14.9998V10.8332C18.3337 10.4407 18.3337 10.244 18.212 10.1215C18.0895 9.99984 17.892 9.99984 17.5003 9.99984H2.50033C2.10783 9.99984 1.91116 9.99984 1.78866 10.1215C1.66699 10.244 1.66699 10.4415 1.66699 10.8332V14.9998Z" fill="#9C9D9F"/>
<path d="M5.83398 2.5V5M14.1673 2.5V5" stroke="#9C9D9F" stroke-width="2" stroke-linecap="round"/>
</svg>
