<svg width="34" height="34" viewBox="0 0 34 34" fill="none" xmlns="http://www.w3.org/2000/svg">
<path d="M25.5003 11.3337H24.0837V8.50033C24.0837 4.59033 20.9103 1.41699 17.0003 1.41699C13.0903 1.41699 9.91699 4.59033 9.91699 8.50033V11.3337H8.50033C6.94199 11.3337 5.66699 12.6087 5.66699 14.167V28.3337C5.66699 29.892 6.94199 31.167 8.50033 31.167H25.5003C27.0587 31.167 28.3337 29.892 28.3337 28.3337V14.167C28.3337 12.6087 27.0587 11.3337 25.5003 11.3337ZM17.0003 24.0837C15.442 24.0837 14.167 22.8087 14.167 21.2503C14.167 19.692 15.442 18.417 17.0003 18.417C18.5587 18.417 19.8337 19.692 19.8337 21.2503C19.8337 22.8087 18.5587 24.0837 17.0003 24.0837ZM21.392 11.3337H12.6087V8.50033C12.6087 6.07783 14.5778 4.10866 17.0003 4.10866C19.4228 4.10866 21.392 6.07783 21.392 8.50033V11.3337Z" fill="#BEBEBE"/>
</svg>
