<svg width="47" height="47" viewBox="0 0 47 47" fill="none" xmlns="http://www.w3.org/2000/svg">
<g clip-path="url(#clip0_7702_17367)">
<path d="M46.8657 23.4328C46.8657 36.3744 36.3744 46.8657 23.4328 46.8657C10.4912 46.8657 0 36.3744 0 23.4328C0 10.4912 10.4912 0 23.4328 0C36.3744 0 46.8657 10.4912 46.8657 23.4328ZM1.20542 23.4328C1.20542 35.7087 11.157 45.6603 23.4328 45.6603C35.7087 45.6603 45.6603 35.7087 45.6603 23.4328C45.6603 11.157 35.7087 1.20542 23.4328 1.20542C11.157 1.20542 1.20542 11.157 1.20542 23.4328Z" fill="#F1070A"/>
<path d="M20.3452 26.831C20.6219 28.7306 21.5075 29.3872 23.7486 29.4978H31.926V33.9619H23.932C19.6988 33.556 17.3071 32.6749 15.9861 30.6027L20.3452 26.831ZM32.8917 13.8269L29.7178 18.2351H23.7486C21.2335 18.5007 20.4017 19.3348 20.243 22.3919V23.6992L15.0203 28.2175C14.8206 27.4026 14.6851 26.4761 14.5977 25.4225V21.962C15.3407 16.2592 17.2656 14.413 23.7486 13.8269H32.8917Z" fill="#F1070A"/>
</g>
<defs>
<clipPath id="clip0_7702_17367">
<rect width="46.8657" height="46.8657" rx="23.4328" fill="white"/>
</clipPath>
</defs>
</svg>
