<svg width="47" height="47" viewBox="0 0 47 47" fill="none" xmlns="http://www.w3.org/2000/svg">
<g clip-path="url(#clip0_7702_17403)">
<path d="M46.8569 22.7915C46.8197 21.4311 46.664 20.0766 46.3916 18.7432L45.2106 18.9845C45.4689 20.2492 45.6166 21.5341 45.6519 22.8245L46.8569 22.7915Z" fill="#747678"/>
<path d="M46.1969 17.8746C45.8741 16.5525 45.4368 15.2611 44.8898 14.015L43.786 14.4994C44.3049 15.6815 44.7197 16.9065 45.0259 18.1605L46.1969 17.8746Z" fill="#747678"/>
<path d="M44.3908 12.9514C43.7821 11.7343 43.0685 10.5724 42.2581 9.47913L41.2897 10.1969C42.0584 11.234 42.7353 12.3361 43.3127 13.4906L44.3908 12.9514Z" fill="#747678"/>
<path d="M41.5114 8.52439C40.6456 7.47444 39.69 6.50192 38.6553 5.61785L37.8723 6.53428C38.8537 7.37287 39.7602 8.29536 40.5815 9.2913L41.5114 8.52439Z" fill="#747678"/>
<path d="M37.7503 4.88272C36.673 4.05121 35.5253 3.31513 34.3202 2.68283L33.7601 3.75023C34.9032 4.35001 35.9919 5.04823 37.0138 5.83697L37.7503 4.88272Z" fill="#747678"/>
<path d="M33.2381 2.15012C32.0021 1.58066 30.7188 1.11996 29.4028 0.773244L29.0957 1.93889C30.344 2.26777 31.5613 2.70477 32.7337 3.24493L33.2381 2.15012Z" fill="#747678"/>
<path d="M28.2867 0.508218C26.9553 0.226324 25.6019 0.0609482 24.2418 0.0139673L24.2002 1.21867C25.4903 1.26323 26.7741 1.4201 28.037 1.68749L28.2867 0.508218Z" fill="#747678"/>
<path d="M23.1731 0.00144004C21.8122 0.0165273 20.4553 0.150133 19.1177 0.400742L19.3397 1.58555C20.6085 1.34783 21.8956 1.22109 23.1864 1.20678L23.1731 0.00144004Z" fill="#747678"/>
<path d="M18.0367 0.629772C16.7124 0.943161 15.4179 1.37132 14.1679 1.9094L14.6445 3.0166C15.8302 2.5062 17.0581 2.10006 18.3143 1.80279L18.0367 0.629772Z" fill="#747678"/>
<path d="M13.0125 2.4444C11.7936 3.04958 10.6297 3.7598 9.53399 4.567L10.249 5.53748C11.2883 4.77181 12.3923 4.09813 13.5485 3.52408L13.0125 2.4444Z" fill="#747678"/>
<path d="M8.71578 5.19809C7.65676 6.05281 6.67422 6.99816 5.77929 8.02342L6.68742 8.8161C7.53631 7.84358 8.46831 6.94686 9.47284 6.13611L8.71578 5.19809Z" fill="#747678"/>
<path d="M5.12549 8.80619C4.27602 9.86942 3.52079 11.0046 2.86836 12.1989L3.92623 12.7768C4.54509 11.644 5.26147 10.5671 6.06724 9.55861L5.12549 8.80619Z" fill="#747678"/>
<path d="M2.35197 13.2008C1.75772 14.4251 1.27126 15.6988 0.898107 17.0076L2.05732 17.3381C2.41129 16.0967 2.87272 14.8885 3.43639 13.7271L2.35197 13.2008Z" fill="#747678"/>
<path d="M0.617352 18.0895C0.307027 19.4145 0.112724 20.7641 0.0366448 22.1229L1.24018 22.1902C1.31234 20.9014 1.49665 19.6212 1.79101 18.3643L0.617352 18.0895Z" fill="#747678"/>
<path d="M0.00166541 23.1535C-0.0145595 24.5143 0.0877925 25.8739 0.307561 27.2169L1.49716 27.0223C1.28869 25.7483 1.19161 24.4586 1.207 23.1678L0.00166541 23.1535Z" fill="#747678"/>
<path d="M0.480005 28.1515C0.754047 29.4845 1.14369 30.7911 1.64453 32.0565L2.76535 31.6129C2.29028 30.4126 1.92068 29.1732 1.66073 27.9087L0.480005 28.1515Z" fill="#747678"/>
<path d="M2.03717 32.9892C2.59217 34.2317 3.25436 35.4236 4.01623 36.5513L5.01505 35.8764C4.29237 34.8068 3.66424 33.6762 3.13779 32.4976L2.03717 32.9892Z" fill="#747678"/>
<path d="M4.55096 37.3099C5.35689 38.4065 6.25682 39.4308 7.24054 40.3712L8.0735 39.4998C7.14038 38.6078 6.28674 37.6362 5.52227 36.596L4.55096 37.3099Z" fill="#747678"/>
<path d="M7.88752 40.9668C8.90584 41.8697 10.0009 42.682 11.1602 43.3948L11.7915 42.3679C10.6918 41.6918 9.65313 40.9212 8.6872 40.0649L7.88752 40.9668Z" fill="#747678"/>
<path d="M11.895 43.8283C13.0795 44.4984 14.3201 45.064 15.6028 45.5188L16.0056 44.3826C14.7889 43.9513 13.6121 43.4148 12.4885 42.7792L11.895 43.8283Z" fill="#747678"/>
<path d="M16.4705 45.8075C17.77 46.2118 19.1022 46.5022 20.452 46.6753L20.6054 45.4797C19.3249 45.3155 18.0613 45.04 16.8287 44.6565L16.4705 45.8075Z" fill="#747678"/>
<path d="M21.3038 46.7688C22.659 46.8924 24.0225 46.8977 25.3787 46.7847L25.2786 45.5835C23.9922 45.6907 22.6989 45.6856 21.4133 45.5683L21.3038 46.7688Z" fill="#747678"/>
<path d="M26.2785 46.6922C27.6293 46.527 28.9632 46.2444 30.265 45.8476L29.9135 44.6945C28.6787 45.0709 27.4134 45.339 26.1321 45.4957L26.2785 46.6922Z" fill="#747678"/>
<path d="M31.1777 45.5488C32.4621 45.099 33.7049 44.5382 34.892 43.8727L34.3025 42.8212C33.1765 43.4525 31.9976 43.9845 30.7793 44.4111L31.1777 45.5488Z" fill="#747678"/>
<path d="M35.7924 43.3411C36.9486 42.6233 38.0401 41.8061 39.0545 40.8989L38.2509 40.0004C37.2887 40.861 36.2533 41.6361 35.1566 42.317L35.7924 43.3411Z" fill="#747678"/>
<path d="M39.7271 40.2731C40.7051 39.3268 41.5988 38.2971 42.3981 37.1956L41.4225 36.4877C40.6644 37.5324 39.8166 38.5092 38.8889 39.4068L39.7271 40.2731Z" fill="#747678"/>
<path d="M42.9336 36.4258C43.6882 35.2933 44.3427 34.0972 44.8897 32.851L43.7859 32.3666C43.2671 33.5486 42.6462 34.6832 41.9305 35.7575L42.9336 36.4258Z" fill="#747678"/>
<path d="M45.2217 32.0552C45.7224 30.7898 46.112 29.4831 46.3859 28.1501L45.2052 27.9074C44.9453 29.1719 44.5758 30.4113 44.1008 31.6116L45.2217 32.0552Z" fill="#747678"/>
<path d="M46.5143 27.4753C46.7491 26.1348 46.8667 24.7764 46.8657 23.4155L45.6602 23.4164C45.6612 24.7073 45.5497 25.9958 45.327 27.2674L46.5143 27.4753Z" fill="#747678"/>
<path d="M20.3452 26.831C20.6219 28.7306 21.5075 29.3872 23.7486 29.4978H31.926V33.9619H23.932C19.6988 33.556 17.3071 32.6749 15.9861 30.6027L20.3452 26.831ZM32.8917 13.8269L29.7178 18.2351H23.7486C21.2335 18.5007 20.4017 19.3348 20.243 22.3919V23.6992L15.0203 28.2175C14.8206 27.4026 14.6851 26.4761 14.5977 25.4225V21.962C15.3407 16.2592 17.2656 14.413 23.7486 13.8269H32.8917Z" fill="#747678"/>
</g>
<defs>
<clipPath id="clip0_7702_17403">
<rect width="46.8657" height="46.8657" rx="23.4328" fill="white"/>
</clipPath>
</defs>
</svg>
