<svg width="24" height="24" viewBox="0 0 24 24" fill="none" xmlns="http://www.w3.org/2000/svg">
<circle cx="17.0641" cy="4.90216" r="2.90216" fill="#F1070A"/>
<path d="M14.8184 20C14.6147 20.5849 14.2335 21.0918 13.7285 21.4502C13.2235 21.8086 12.6193 22.0008 12 22C11.3807 22.0008 10.7765 21.8086 10.2715 21.4502C9.76645 21.0918 9.3853 20.5849 9.18164 20H14.8184ZM12 2C12.7176 2 13.3397 2.37544 13.6914 2.93945C13.3551 3.51612 13.1621 4.18666 13.1621 4.90234C13.1622 7.05736 14.9094 8.80469 17.0645 8.80469C17.6928 8.80464 18.2857 8.65454 18.8115 8.39062C18.9339 8.90743 19 9.44604 19 10V14.5859L20.707 16.293C20.8946 16.4805 20.9999 16.7348 21 17V18C21 18.2652 20.8946 18.5195 20.707 18.707C20.5195 18.8946 20.2652 19 20 19H4C3.73478 19 3.48051 18.8946 3.29297 18.707C3.10543 18.5195 3 18.2652 3 18V17C3.00006 16.7348 3.10542 16.4805 3.29297 16.293L5 14.5859V10C5 6.78314 7.18473 4.07394 10.1445 3.25781C10.4375 2.51981 11.154 2 12 2Z" fill="#C4C5C6"/>
</svg>
