<svg width="25" height="24" viewBox="0 0 25 24" fill="none" xmlns="http://www.w3.org/2000/svg">
<path d="M11.4637 4C11.4167 4.46928 11.5151 4.97965 11.7746 5.45108C12.0283 5.91169 12.3971 6.26014 12.8072 6.4729C12.7319 7.26986 13.1991 8.06419 14.003 8.39039C14.7566 8.69592 15.5829 8.49889 16.0966 7.95918C16.4322 8.69385 17.1349 9.201 17.9495 9.201C18.4648 9.20079 18.9343 8.99617 19.296 8.66125C19.7599 9.67517 20.0205 10.8018 20.0205 11.9897C20.0205 16.4137 16.4342 20 12.0103 20C7.58632 20 4 16.4137 4 11.9897C4 7.74954 7.29472 4.28101 11.4637 4Z" fill="#FAB659"/>
<path d="M11.5315 9.91106C11.2166 10.2252 10.8345 10.3823 10.3853 10.3823C9.93887 10.3851 9.55716 10.2281 9.24015 9.91106C8.92314 9.59405 8.76572 9.21199 8.76788 8.76487C8.77003 8.31775 8.92746 7.93604 9.24015 7.61975C9.55285 7.30346 9.93456 7.14603 10.3853 7.14747C10.836 7.14891 11.218 7.30634 11.5315 7.61975C11.8449 7.93317 12.0019 8.31487 12.0027 8.76487C12.0034 9.21486 11.8463 9.59692 11.5315 9.91106Z" fill="#A55E55"/>
<path d="M9.37494 15.3024C9.06008 15.6165 8.67802 15.7736 8.22874 15.7736C7.78234 15.7765 7.40064 15.6194 7.08363 15.3024C6.76662 14.9854 6.60919 14.6033 6.61135 14.1562C6.61351 13.7091 6.77093 13.3274 7.08363 13.0111C7.39633 12.6948 7.77803 12.5373 8.22874 12.5388C8.67946 12.5402 9.06152 12.6976 9.37494 13.0111C9.68835 13.3245 9.84542 13.7062 9.84614 14.1562C9.84686 14.6062 9.68979 14.9882 9.37494 15.3024Z" fill="#A55E55"/>
<path d="M16.0063 16.5413C15.7992 16.7483 15.543 16.8518 15.2375 16.8518C14.9334 16.8533 14.6775 16.7501 14.4697 16.5424C14.262 16.3346 14.1585 16.0784 14.1592 15.7736C14.1599 15.4688 14.2634 15.2129 14.4697 15.0059C14.676 14.7988 14.9319 14.6953 15.2375 14.6953C15.543 14.6953 15.7989 14.7988 16.0052 15.0059C16.2115 15.2129 16.315 15.4688 16.3157 15.7736C16.3164 16.0784 16.2133 16.3343 16.0063 16.5413Z" fill="#A55E55"/>
</svg>
