<svg width="24" height="24" viewBox="0 0 24 24" fill="none" xmlns="http://www.w3.org/2000/svg">
<path d="M19.4859 20.5131L19.4859 2.5131C19.4854 2.33086 19.4351 2.15222 19.3406 1.99642C19.246 1.84062 19.1108 1.71356 18.9494 1.6289C18.788 1.54425 18.6066 1.50521 18.4247 1.51599C18.2427 1.52678 18.0672 1.58697 17.9169 1.6901L4.91694 10.6901C4.37794 11.0631 4.37794 11.9611 4.91694 12.3351L17.9169 21.3351C18.0669 21.4393 18.2425 21.5004 18.4247 21.5117C18.607 21.5231 18.7888 21.4843 18.9506 21.3996C19.1123 21.3149 19.2477 21.1874 19.3421 21.0311C19.4365 20.8748 19.4862 20.6957 19.4859 20.5131Z" fill="#F1070A"/>
</svg>
