<svg width="26" height="26" viewBox="0 0 26 26" fill="none" xmlns="http://www.w3.org/2000/svg">
<path d="M13.0003 18.4163C11.6823 18.4163 10.5314 18.0058 9.54774 17.1846C8.56407 16.3634 7.94549 15.3296 7.69199 14.083H2.16699V11.9163H7.69199C7.94477 10.6705 8.56335 9.63665 9.54774 8.81476C10.5321 7.99287 11.683 7.58229 13.0003 7.58301C14.3177 7.58373 15.4689 7.99467 16.454 8.81584C17.4391 9.63701 18.0573 10.6705 18.3087 11.9163H23.8337V14.083H18.3087C18.0559 15.3288 17.4377 16.3627 16.454 17.1846C15.4703 18.0065 14.3191 18.4171 13.0003 18.4163ZM13.0003 16.2497C13.9031 16.2497 14.6705 15.9337 15.3024 15.3018C15.9344 14.6698 16.2503 13.9025 16.2503 12.9997C16.2503 12.0969 15.9344 11.3295 15.3024 10.6976C14.6705 10.0656 13.9031 9.74968 13.0003 9.74968C12.0975 9.74968 11.3302 10.0656 10.6982 10.6976C10.0663 11.3295 9.75033 12.0969 9.75033 12.9997C9.75033 13.9025 10.0663 14.6698 10.6982 15.3018C11.3302 15.9337 12.0975 16.2497 13.0003 16.2497Z" fill="#BEBEBE"/>
</svg>
