<svg width="20" height="20" viewBox="0 0 20 20" fill="none" xmlns="http://www.w3.org/2000/svg">
<path d="M1.66699 7.50033C1.66699 5.92866 1.66699 5.14366 2.15533 4.65533C2.64366 4.16699 3.42866 4.16699 5.00033 4.16699H15.0003C16.572 4.16699 17.357 4.16699 17.8453 4.65533C18.3337 5.14366 18.3337 5.92866 18.3337 7.50033C18.3337 7.89283 18.3337 8.08949 18.212 8.21199C18.0895 8.33366 17.892 8.33366 17.5003 8.33366H2.50033C2.10783 8.33366 1.91116 8.33366 1.78866 8.21199C1.66699 8.08949 1.66699 7.89199 1.66699 7.50033ZM1.66699 15.0003C1.66699 16.572 1.66699 17.357 2.15533 17.8453C2.64366 18.3337 3.42866 18.3337 5.00033 18.3337H15.0003C16.572 18.3337 17.357 18.3337 17.8453 17.8453C18.3337 17.357 18.3337 16.572 18.3337 15.0003V10.8337C18.3337 10.4412 18.3337 10.2445 18.212 10.122C18.0895 10.0003 17.892 10.0003 17.5003 10.0003H2.50033C2.10783 10.0003 1.91116 10.0003 1.78866 10.122C1.66699 10.2445 1.66699 10.442 1.66699 10.8337V15.0003Z" fill="#9C9D9F"/>
<path d="M5.83398 2.5V5M14.1673 2.5V5" stroke="#9C9D9F" stroke-width="2" stroke-linecap="round"/>
</svg>
