<svg width="24" height="24" viewBox="0 0 24 24" fill="none" xmlns="http://www.w3.org/2000/svg">
<path d="M20 12C20 16.4183 16.4183 20 12 20C7.58174 20 4.00002 16.4183 4.00002 12C4.00002 7.58172 7.58174 4 12 4C16.4183 4 20 7.58172 20 12Z" fill="#CCCCCC"/>
<path d="M18 12C18 8.68629 15.3137 6 12 6C8.68631 6 6.00002 8.68629 6.00002 12C6.00002 15.3137 8.68631 18 12 18V20C7.58174 20 4.00002 16.4183 4.00002 12C4.00002 7.58172 7.58174 4 12 4C16.4183 4 20 7.58172 20 12C20 16.4183 16.4183 20 12 20V18C15.3137 18 18 15.3137 18 12Z" fill="#9397A6"/>
<path d="M15.1462 14.002L12.7579 11.6138C12.9746 11.1615 13.0456 10.6531 12.9611 10.1587C12.8765 9.66436 12.6407 9.20841 12.286 8.85378C11.3393 7.90707 9.80055 7.90707 8.85384 8.85378C7.90714 9.80049 7.90714 11.3392 8.85384 12.286C9.20847 12.6406 9.66442 12.8765 10.1588 12.961C10.6532 13.0455 11.1616 12.9746 11.6139 12.7579L11.714 12.858L11.714 14.002L12.858 14.002L12.858 15.1461L15.1576 15.1347L15.1462 14.002ZM9.71189 11.4279C9.23996 10.956 9.23996 10.1838 9.71189 9.71183C10.1838 9.2399 10.9561 9.2399 11.428 9.71183C11.8999 10.1838 11.8999 10.956 11.428 11.4279C10.9561 11.8998 10.1838 11.8998 9.71189 11.4279Z" fill="#9397A6"/>
</svg>
