<svg width="36" height="36" viewBox="0 0 36 36" fill="none" xmlns="http://www.w3.org/2000/svg">
<rect x="4.5" y="10.5" width="27" height="15" rx="3" fill="#FFC800"/>
<path d="M24.1697 19.7262H23.097V22.0103H21.2402V15.5448C21.2402 14.5107 21.5647 14.124 22.6464 14.124H24.1697C25.7741 14.124 26.9188 14.8974 26.9188 16.7768V17.0735C26.9188 18.9529 25.7741 19.7262 24.1697 19.7262ZM23.097 15.9495V18.1616H24.0795C24.7285 18.1616 25.071 17.712 25.071 17.0285V16.8217C25.071 16.1383 24.7285 15.6887 24.0795 15.6887H23.3584C23.1511 15.6887 23.097 15.7337 23.097 15.9495Z" fill="#2A2B2C"/>
<path d="M18.8158 18.0726L21.2405 22.0112H19.0502L17.6711 19.7631L16.3461 22.0112H14.291L16.6706 18.1355L14.931 15.3119C14.6425 14.8443 14.8679 14.2238 15.3546 14.053C15.8414 13.8821 16.3461 14.053 16.6526 14.5566L17.8063 16.427L18.8609 14.5655C19.1584 14.044 19.6181 13.9001 20.1048 14.044C20.5915 14.1879 20.8079 14.8173 20.5014 15.3119L18.8158 18.0726Z" fill="#2A2B2C"/>
<path d="M10.9288 15.9585V17.2444H13.3896C13.9123 17.2444 14.1197 17.676 14.1197 18.0357C14.1197 18.3954 13.9214 18.8 13.3896 18.8H10.9288V20.1759C10.9288 20.3917 10.9829 20.4366 11.1902 20.4366H13.5608C14.0926 20.4366 14.2909 20.8413 14.2909 21.21C14.2909 21.5787 14.0836 22.0103 13.5608 22.0103H10.4872C9.40554 22.0103 9.08105 21.6236 9.08105 20.5895V15.5448C9.08105 14.5107 9.40554 14.124 10.4872 14.124H13.4707C13.9935 14.124 14.2008 14.5557 14.2008 14.9243C14.2008 15.293 14.0025 15.6977 13.4707 15.6977H11.1902C10.9829 15.6977 10.9288 15.7426 10.9288 15.9585Z" fill="#2A2B2C"/>
</svg>
