<svg width="56" height="75" viewBox="0 0 56 75" fill="none" xmlns="http://www.w3.org/2000/svg">
<g clip-path="url(#clip0_947_4786)">
<path d="M28.5142 2.93647C28.83 2.74258 29.0405 2.3908 29.0405 1.99469C29.0405 1.38254 28.5447 0.886719 27.9325 0.886719C27.3203 0.886719 26.8245 1.38254 26.8245 1.99469C26.8245 2.39357 27.035 2.74258 27.3508 2.93647L25.7636 6.11082C25.5116 6.61495 24.8579 6.75899 24.4175 6.40721L21.9494 4.43224C22.0879 4.24666 22.171 4.01675 22.171 3.76746C22.171 3.1553 21.6752 2.65948 21.0631 2.65948C20.4509 2.65948 19.9551 3.1553 19.9551 3.76746C19.9551 4.37961 20.4509 4.87543 21.0631 4.87543H21.0824L22.3483 11.8391C22.5007 12.6811 23.2347 13.296 24.0934 13.296H31.7716C32.6276 13.296 33.3616 12.6839 33.5167 11.8391L34.7826 4.87543H34.802C35.4141 4.87543 35.9099 4.37961 35.9099 3.76746C35.9099 3.1553 35.4141 2.65948 34.802 2.65948C34.1898 2.65948 33.694 3.1553 33.694 3.76746C33.694 4.01675 33.7771 4.24666 33.9156 4.43224L31.4476 6.40721C31.0071 6.75899 30.3534 6.61495 30.1014 6.11082L28.5142 2.93647Z" fill="#BB7677"/>
</g>
<g clip-path="url(#clip1_947_4786)">
</g>
<rect x="5.32957" y="11.0796" width="45.2054" height="45.3398" rx="22.6027" stroke="#BB7677" stroke-width="2.65914"/>
<g filter="url(#filter0_d_947_4786)">
<rect x="16.4258" y="47.749" width="23.0122" height="23.0122" rx="11.5061" fill="#C19F8B"/>
</g>
<rect x="21.207" y="52.4883" width="13.8073" height="13.8073" rx="6.90365" fill="#B06E48"/>
<path d="M27.955 62.8686C26.2399 62.8686 25.0101 61.9194 24.9778 60.5602H26.6174C26.6498 61.1427 27.2107 61.531 27.9658 61.531C28.7424 61.531 29.3033 61.0888 29.2926 60.4631C29.3033 59.8267 28.7316 59.3736 27.8147 59.3736H27.092V58.1763H27.8147C28.5806 58.1763 29.12 57.7556 29.12 57.1407C29.12 56.5475 28.6669 56.1375 27.9766 56.1375C27.2862 56.1375 26.7145 56.5259 26.6929 57.1192H25.1396C25.1612 55.7708 26.3801 54.8431 27.9766 54.8431C29.6054 54.8431 30.6949 55.8032 30.6841 57.0437C30.6949 57.9174 30.08 58.543 29.2063 58.6941V58.7588C30.3497 58.899 30.9861 59.6002 30.9753 60.571C30.9861 61.9086 29.7133 62.8686 27.955 62.8686Z" fill="#F7F7F7"/>
<defs>
<filter id="filter0_d_947_4786" x="13.6643" y="45.908" width="28.5346" height="28.5346" filterUnits="userSpaceOnUse" color-interpolation-filters="sRGB">
<feFlood flood-opacity="0" result="BackgroundImageFix"/>
<feColorMatrix in="SourceAlpha" type="matrix" values="0 0 0 0 0 0 0 0 0 0 0 0 0 0 0 0 0 0 127 0" result="hardAlpha"/>
<feOffset dy="0.920487"/>
<feGaussianBlur stdDeviation="1.38073"/>
<feComposite in2="hardAlpha" operator="out"/>
<feColorMatrix type="matrix" values="0 0 0 0 0.984314 0 0 0 0 0.498039 0 0 0 0 0.0431373 0 0 0 1 0"/>
<feBlend mode="normal" in2="BackgroundImageFix" result="effect1_dropShadow_947_4786"/>
<feBlend mode="normal" in="SourceGraphic" in2="effect1_dropShadow_947_4786" result="shape"/>
</filter>
<clipPath id="clip0_947_4786">
<rect width="15.9549" height="14.1821" fill="white" transform="translate(19.9551)"/>
</clipPath>
<clipPath id="clip1_947_4786">
<rect x="4" y="9.75" width="47.8646" height="47.9989" rx="23.9323" fill="white"/>
</clipPath>
</defs>
</svg>
