<svg width="16" height="16" viewBox="0 0 16 16" fill="none" xmlns="http://www.w3.org/2000/svg">
<path d="M4.4626 1.72461H11.5251C13.0376 1.72461 14.2626 2.94961 14.2626 4.46211V11.5246C14.2626 13.0371 13.0376 14.2621 11.5251 14.2621H4.4626C2.9501 14.2621 1.7251 13.0371 1.7251 11.5246V4.46211C1.7251 2.94961 2.9501 1.72461 4.4626 1.72461Z" fill="url(#paint0_linear_5452_16878)"/>
<path d="M11.3125 2.40039H4.67495C3.41245 2.40039 2.38745 3.42539 2.38745 4.68789V11.3254C2.38745 12.5879 3.41245 13.6129 4.67495 13.6129H11.3125C12.575 13.6129 13.6 12.5879 13.6 11.3254V4.67539C13.6 3.41289 12.575 2.40039 11.3125 2.40039ZM13.4125 11.3504C13.4125 12.5004 12.4875 13.4254 11.3375 13.4254H4.64995C3.51245 13.4254 2.57495 12.5004 2.57495 11.3504V4.65039C2.57495 3.50039 3.49995 2.57539 4.64995 2.57539H11.35C12.4875 2.57539 13.425 3.50039 13.425 4.65039V11.3504H13.4125Z" fill="white"/>
<path d="M8.01245 2.84961C5.18745 2.84961 2.88745 5.14961 2.88745 7.97461C2.88745 10.7996 5.18745 13.0996 8.01245 13.0996C10.85 13.0996 13.1375 10.7996 13.1375 7.97461C13.1375 5.14961 10.8375 2.84961 8.01245 2.84961ZM8.01245 13.0246C5.22495 13.0246 2.96245 10.7621 2.96245 7.97461C2.96245 5.18711 5.22495 2.92461 8.01245 2.92461C10.8 2.92461 13.0625 5.18711 13.0625 7.97461C13.0625 10.7621 10.8 13.0246 8.01245 13.0246Z" fill="#69C5F3"/>
<path d="M8.01255 3.90039C5.75005 3.90039 3.92505 5.72539 3.92505 7.98789C3.92505 10.2504 5.75005 12.0629 8.01255 12.0629C10.275 12.0629 12.1 10.2379 12.1 7.97539C12.1 5.71289 10.2625 3.90039 8.01255 3.90039ZM8.01255 11.9754C5.80005 11.9754 4.01255 10.1879 4.01255 7.97539C4.01255 5.76289 5.80005 3.97539 8.01255 3.97539C10.225 3.97539 12.0125 5.76289 12.0125 7.97539C12.0125 10.1879 10.2125 11.9754 8.01255 11.9754Z" fill="#68C5F4"/>
<path d="M4.10009 8.91211H11.9001C12.2251 8.91211 12.4751 9.17461 12.4751 9.48711C12.4751 9.81211 12.2126 10.0621 11.9001 10.0621H4.10009C3.77509 10.0621 3.52509 9.79961 3.52509 9.48711C3.51259 9.17461 3.77509 8.91211 4.10009 8.91211Z" fill="white"/>
<path d="M4.07505 9.02539H11.9C12.15 9.02539 12.3625 9.22539 12.3625 9.48789V9.50039C12.3625 9.75039 12.1625 9.96289 11.9 9.96289H4.07505C3.82505 9.96289 3.61255 9.76289 3.61255 9.50039V9.47539C3.62505 9.22539 3.82505 9.02539 4.07505 9.02539Z" fill="#0A93E9"/>
<path d="M3.88745 9.9125H12.1L12.1625 9.875H3.82495L3.88745 9.9125Z" fill="#1694EA"/>
<path d="M3.70005 9.76211H12.275L12.3 9.72461H3.67505L3.70005 9.76211Z" fill="#319DEC"/>
<path d="M3.625 9.52461H12.3625V9.47461H3.625V9.52461Z" fill="#65B1EE"/>
<path d="M3.7125 9.21289H12.2875L12.3 9.23789L12.3125 9.26289H3.6875L3.7 9.23789L3.7125 9.21289Z" fill="#8EC6F3"/>
<path d="M3.89995 9.0625H12.1L12.1375 9.075L12.175 9.1H3.82495L3.86245 9.075L3.89995 9.0625Z" fill="#95CAF3"/>
<path d="M11.675 9.02539H11.6125C11.6125 9.02539 11.825 9.17539 11.825 9.51289C11.825 9.82539 11.6125 9.96289 11.6125 9.96289H11.675C11.675 9.96289 11.8875 9.86289 11.8875 9.51289C11.8875 9.13789 11.675 9.02539 11.675 9.02539Z" fill="url(#paint1_linear_5452_16878)"/>
<path d="M11.075 9.02539H11.0125C11.0125 9.02539 11.2 9.20039 11.2 9.51289C11.2 9.78789 11.0125 9.96289 11.0125 9.96289H11.075C11.075 9.96289 11.2625 9.82539 11.2625 9.51289C11.25 9.17539 11.075 9.02539 11.075 9.02539Z" fill="url(#paint2_linear_5452_16878)"/>
<path d="M7.9624 9.02539H8.0249V9.96289H7.9624V9.02539Z" fill="url(#paint3_linear_5452_16878)"/>
<path d="M7.34995 9.02539H7.41245C7.41245 9.02539 7.38745 9.26289 7.38745 9.51289C7.38745 9.73789 7.41245 9.96289 7.41245 9.96289H7.34995C7.34995 9.96289 7.32495 9.73789 7.32495 9.51289C7.32495 9.26289 7.34995 9.02539 7.34995 9.02539Z" fill="url(#paint4_linear_5452_16878)"/>
<path d="M6.75 9.02539H6.8125C6.8125 9.02539 6.75 9.26289 6.75 9.51289C6.75 9.73789 6.8125 9.96289 6.8125 9.96289H6.75C6.75 9.96289 6.6875 9.73789 6.6875 9.51289C6.6875 9.26289 6.75 9.02539 6.75 9.02539Z" fill="url(#paint5_linear_5452_16878)"/>
<path d="M6.13755 9.02539H6.20005C6.20005 9.02539 6.11255 9.26289 6.11255 9.51289C6.11255 9.73789 6.20005 9.96289 6.20005 9.96289H6.13755C6.13755 9.96289 6.05005 9.73789 6.05005 9.51289C6.05005 9.26289 6.13755 9.02539 6.13755 9.02539Z" fill="url(#paint6_linear_5452_16878)"/>
<path d="M5.5249 9.02539H5.5874C5.5874 9.02539 5.4624 9.22539 5.4624 9.51289C5.4624 9.76289 5.5874 9.96289 5.5874 9.96289H5.5249C5.5249 9.96289 5.3999 9.76289 5.3999 9.51289C5.3999 9.22539 5.5249 9.02539 5.5249 9.02539Z" fill="url(#paint7_linear_5452_16878)"/>
<path d="M4.9126 9.02539H4.9751C4.9751 9.02539 4.7876 9.20039 4.7876 9.51289C4.7876 9.78789 4.9751 9.96289 4.9751 9.96289H4.9126C4.9126 9.96289 4.7251 9.82539 4.7251 9.51289C4.7376 9.17539 4.9126 9.02539 4.9126 9.02539Z" fill="url(#paint8_linear_5452_16878)"/>
<path d="M4.3126 9.02539H4.3751C4.3751 9.02539 4.1626 9.17539 4.1626 9.51289C4.1626 9.82539 4.3751 9.96289 4.3751 9.96289H4.3126C4.3126 9.96289 4.1001 9.86289 4.1001 9.51289C4.1001 9.13789 4.3126 9.02539 4.3126 9.02539Z" fill="url(#paint9_linear_5452_16878)"/>
<path d="M7.7499 4.26342L11.6499 11.0134C11.8124 11.2884 11.7124 11.6384 11.4374 11.8009C11.1624 11.9634 10.8124 11.8634 10.6499 11.5884L6.7499 4.83842C6.5874 4.56342 6.6874 4.21342 6.9624 4.05092C7.2374 3.88842 7.5874 3.98842 7.7499 4.26342Z" fill="white"/>
<path d="M7.65001 4.31334L11.5625 11.0883C11.6875 11.3008 11.6125 11.5883 11.4 11.7133L11.375 11.7258C11.1625 11.8508 10.875 11.7758 10.75 11.5633L6.83751 4.77584C6.71251 4.56334 6.78751 4.27584 7.00001 4.15084L7.01251 4.13834C7.23751 4.01334 7.52501 4.08834 7.65001 4.31334Z" fill="url(#paint10_linear_5452_16878)"/>
<path d="M6.7749 4.58672L10.8749 11.6992L10.8999 11.7117L10.9249 11.7242L10.9499 11.7367L6.7749 4.51172V4.58672Z" fill="url(#paint11_linear_5452_16878)"/>
<path d="M6.8125 4.35L11.1 11.775H11.15L6.8375 4.3125L6.825 4.3375L6.8125 4.35Z" fill="url(#paint12_linear_5452_16878)"/>
<path d="M6.98755 4.16172L11.3625 11.7242L11.4 11.6992L7.02505 4.13672L6.98755 4.16172Z" fill="url(#paint13_linear_5452_16878)"/>
<path d="M7.30005 4.08672L11.575 11.4992L11.5625 11.5242L11.55 11.5492L7.23755 4.07422H7.26255L7.30005 4.08672Z" fill="url(#paint14_linear_5452_16878)"/>
<path d="M7.52495 4.1625L11.625 11.2625V11.3375L7.44995 4.125L7.47495 4.1375L7.49995 4.15L7.52495 4.1625Z" fill="url(#paint15_linear_5452_16878)"/>
<path d="M11.4375 10.8621L11.4125 10.8121C11.4125 10.8121 11.3875 11.0621 11.1125 11.2371C10.85 11.3996 10.6125 11.2871 10.6125 11.2871L10.6375 11.3371C10.6375 11.3371 10.8375 11.4746 11.1375 11.2871C11.4375 11.1121 11.4375 10.8621 11.4375 10.8621ZM11.125 10.3371L11.1 10.2871C11.1 10.2871 11.0375 10.5371 10.775 10.6871C10.5375 10.8371 10.3 10.7621 10.3 10.7621L10.325 10.8121C10.325 10.8121 10.5375 10.8996 10.8125 10.7371C11.0875 10.5746 11.125 10.3371 11.125 10.3371Z" fill="#3C98EA"/>
<path d="M10.825 9.81172L10.8 9.76172C10.8 9.76172 10.6875 9.97422 10.45 10.1117C10.2375 10.2367 10 10.2367 10 10.2367L10.025 10.2867C10.025 10.2867 10.25 10.2867 10.475 10.1617C10.7125 10.0242 10.825 9.81172 10.825 9.81172Z" fill="#4CA4ED"/>
<path d="M10.525 9.28828L10.5 9.23828C10.5 9.23828 10.3375 9.45078 10.125 9.56328C9.925 9.67578 9.6875 9.71328 9.6875 9.71328L9.7125 9.76328C9.7125 9.76328 9.95 9.72578 10.15 9.61328C10.35 9.50078 10.525 9.28828 10.525 9.28828Z" fill="#4DA7EE"/>
<path d="M9.28755 7.16211L9.31255 7.21211C9.31255 7.21211 9.10005 7.31211 8.88755 7.42461C8.68755 7.53711 8.51255 7.68711 8.51255 7.68711L8.48755 7.63711C8.48755 7.63711 8.67505 7.48711 8.86255 7.37461C9.07505 7.26211 9.28755 7.16211 9.28755 7.16211Z" fill="url(#paint16_linear_5452_16878)"/>
<path d="M8.9875 6.63672L9.0125 6.68672C9.0125 6.68672 8.775 6.76172 8.575 6.88672C8.375 6.99922 8.2125 7.17422 8.2125 7.17422L8.1875 7.12422C8.1875 7.12422 8.35 6.94922 8.55 6.83672C8.75 6.69922 8.9875 6.63672 8.9875 6.63672Z" fill="url(#paint17_linear_5452_16878)"/>
<path d="M8.42503 6.22461C8.58753 6.17461 8.71253 6.14961 8.71253 6.14961L8.68753 6.09961C8.68753 6.09961 8.57503 6.11211 8.45003 6.16211C8.37503 6.18711 8.36253 6.24961 8.42503 6.22461Z" fill="#9DD4F7"/>
<path d="M8.0749 5.06285L8.0999 5.11285C8.0999 5.11285 7.8624 5.05035 7.5874 5.20035C7.3499 5.35035 7.2999 5.58785 7.2999 5.58785L7.2749 5.53785C7.2749 5.53785 7.2999 5.32535 7.5624 5.16285C7.8374 4.98785 8.0749 5.06285 8.0749 5.06285Z" fill="url(#paint18_linear_5452_16878)"/>
<path d="M7.77492 4.52566L7.81242 4.57566C7.81242 4.57566 7.56242 4.47566 7.27492 4.63816C6.99992 4.81316 6.99992 5.05066 6.99992 5.05066L6.96242 5.00066C6.96242 5.00066 6.93742 4.78816 7.23742 4.60066C7.54992 4.41316 7.77492 4.52566 7.77492 4.52566Z" fill="url(#paint19_linear_5452_16878)"/>
<path d="M6.9374 8.91186C8.0249 7.03686 9.2749 4.86186 9.2749 4.86186C9.4374 4.58686 9.3374 4.23686 9.0624 4.07436C8.7874 3.91186 8.4374 4.01186 8.2749 4.28686C8.2749 4.28686 6.7499 6.93686 5.5999 8.91186H6.9374ZM6.2624 10.0619C5.7374 10.9619 5.3749 11.6119 5.3749 11.6119C5.2124 11.8869 4.8624 11.9869 4.5874 11.8244C4.3124 11.6619 4.2124 11.3119 4.3749 11.0369C4.3749 11.0369 4.5874 10.6494 4.9249 10.0744C5.3499 10.0619 6.1249 10.0619 6.2624 10.0619Z" fill="white"/>
<path d="M6.80001 8.91222C7.90001 7.01222 9.17501 4.79972 9.17501 4.79972C9.30001 4.58722 9.22501 4.29972 9.01251 4.17472L9.00001 4.16222C8.78751 4.03722 8.50001 4.11222 8.37501 4.32472C8.37501 4.32472 6.87501 6.92472 5.72501 8.91222H6.80001ZM6.13751 10.0622C5.63751 10.9372 5.27501 11.5622 5.27501 11.5622C5.15001 11.7747 4.87501 11.8497 4.65001 11.7247H4.62501C4.41251 11.5997 4.33751 11.3247 4.46251 11.0997C4.46251 11.0997 4.70001 10.6872 5.06251 10.0622H6.13751Z" fill="url(#paint20_linear_5452_16878)"/>
<path d="M6.7625 8.91211L9.25 4.61211V4.53711C9.25 4.53711 7.875 6.92461 6.725 8.91211H6.7625ZM6.0875 10.0621L5.1375 11.7121L5.1 11.7371L5.0625 11.7496C5.0625 11.7496 5.4875 11.0121 6.0375 10.0621H6.0875Z" fill="url(#paint21_linear_5452_16878)"/>
<path d="M6.57505 8.91172L9.20005 4.37422L9.18755 4.34922L9.17505 4.32422C9.17505 4.32422 7.73755 6.81172 6.53755 8.89922L6.57505 8.91172ZM5.91255 10.0617L4.91255 11.7867H4.86255C4.86255 11.7867 5.28755 11.0492 5.86255 10.0492C5.88755 10.0617 5.91255 10.0617 5.91255 10.0617Z" fill="url(#paint22_linear_5452_16878)"/>
<path d="M6.3 8.91211C7.5375 6.77461 9.025 4.18711 9.025 4.18711L8.9875 4.16211L6.2375 8.91211H6.3ZM5.625 10.0746C5.075 11.0371 4.6625 11.7496 4.6625 11.7496L4.625 11.7246C4.625 11.7246 5.025 11.0246 5.575 10.0746C5.6 10.0621 5.5875 10.0621 5.625 10.0746Z" fill="url(#paint23_linear_5452_16878)"/>
<path d="M6 8.91211C7.2375 6.77461 8.775 4.09961 8.775 4.09961H8.725C8.725 4.09961 7.1875 6.76211 5.95 8.91211H6ZM5.275 10.0621C4.775 10.9246 4.4375 11.5121 4.4375 11.5121L4.45 11.5371L4.4625 11.5621C4.4625 11.5621 4.825 10.9371 5.3375 10.0621H5.275Z" fill="url(#paint24_linear_5452_16878)"/>
<path d="M5.8124 8.91289L8.5624 4.15039L8.5374 4.16289L8.5124 4.17539L8.4999 4.18789C8.4999 4.18789 6.9749 6.82539 5.7749 8.91289H5.8124ZM5.1499 10.0629C4.7124 10.8254 4.3999 11.3629 4.3999 11.3629V11.2629C4.3999 11.2629 4.6749 10.7879 5.0999 10.0504C5.1249 10.0629 5.1249 10.0629 5.1499 10.0629Z" fill="url(#paint25_linear_5452_16878)"/>
<path d="M8.2501 4.52567L8.2251 4.57567C8.2251 4.57567 8.4501 4.46317 8.7501 4.62567C9.0251 4.77567 9.0376 5.03817 9.0376 5.03817L9.0626 4.98817C9.0626 4.98817 9.0876 4.75067 8.7751 4.57567C8.4626 4.40067 8.2501 4.52567 8.2501 4.52567Z" fill="url(#paint26_linear_5452_16878)"/>
<path d="M7.95005 5.06259L7.92505 5.11259C7.92505 5.11259 8.17505 5.03759 8.43755 5.18759C8.68755 5.32509 8.73755 5.56259 8.73755 5.56259L8.76255 5.51259C8.76255 5.51259 8.73755 5.28759 8.46255 5.13759C8.17505 4.97509 7.95005 5.06259 7.95005 5.06259Z" fill="url(#paint27_linear_5452_16878)"/>
<path d="M7.63755 5.58789L7.61255 5.63789C7.61255 5.63789 7.83755 5.62539 8.08755 5.77539C8.31255 5.90039 8.42505 6.10039 8.42505 6.10039L8.45005 6.05039C8.45005 6.05039 8.33755 5.85039 8.11255 5.72539C7.87505 5.58789 7.63755 5.58789 7.63755 5.58789Z" fill="url(#paint28_linear_5452_16878)"/>
<path d="M7.3375 6.125L7.3125 6.175C7.3125 6.175 7.5625 6.2125 7.775 6.3375C7.975 6.45 8.125 6.6375 8.125 6.6375L8.15 6.5875C8.15 6.5875 8 6.4 7.8 6.2875C7.5875 6.1625 7.3375 6.125 7.3375 6.125Z" fill="url(#paint29_linear_5452_16878)"/>
<path d="M7.025 6.65039L7 6.70039C7 6.70039 7.2375 6.76289 7.45 6.88789C7.65 7.00039 7.8125 7.16289 7.8125 7.16289L7.8375 7.11289C7.8375 7.11289 7.675 6.95039 7.475 6.83789C7.275 6.72539 7.025 6.65039 7.025 6.65039Z" fill="url(#paint30_linear_5452_16878)"/>
<path d="M6.725 7.17578L6.6875 7.22578C6.6875 7.22578 6.9125 7.31328 7.125 7.43828C7.325 7.55078 7.5 7.68828 7.5 7.68828L7.525 7.63828C7.525 7.63828 7.35 7.50078 7.15 7.38828C6.95 7.27578 6.725 7.17578 6.725 7.17578Z" fill="url(#paint31_linear_5452_16878)"/>
<path d="M6.38745 7.76289L6.41245 7.71289L7.22495 8.17539L7.19995 8.22539L6.38745 7.76289Z" fill="url(#paint32_linear_5452_16878)"/>
<path d="M6.0874 8.3L6.1124 8.25C6.1124 8.25 6.3124 8.4 6.5249 8.5125C6.7249 8.625 6.9249 8.7125 6.9249 8.7125L6.8999 8.75C6.8999 8.75 6.6874 8.6625 6.4874 8.55C6.2749 8.4375 6.0874 8.3 6.0874 8.3Z" fill="url(#paint33_linear_5452_16878)"/>
<path d="M5.8876 8.91289C5.8251 8.86289 5.7876 8.82539 5.7876 8.82539L5.8126 8.77539C5.8126 8.77539 5.8876 8.83789 5.9876 8.91289H5.8876Z" fill="#73B9F1"/>
<path d="M5.39995 10.0625C5.44995 10.1 5.49995 10.1375 5.56245 10.175C5.78745 10.3 6.01245 10.2875 6.01245 10.2875L5.98745 10.3375C5.98745 10.3375 5.76245 10.35 5.53745 10.225C5.44995 10.175 5.37495 10.1125 5.32495 10.0625H5.39995Z" fill="url(#paint34_linear_5452_16878)"/>
<path d="M4.86255 10.4133L4.88755 10.3633C4.88755 10.3633 4.95005 10.6133 5.22505 10.7633C5.47505 10.9008 5.70005 10.8258 5.70005 10.8258L5.67505 10.8758C5.67505 10.8758 5.47505 10.9633 5.20005 10.8133C4.91255 10.6508 4.86255 10.4133 4.86255 10.4133Z" fill="url(#paint35_linear_5452_16878)"/>
<path d="M4.55005 10.9504L4.57505 10.9004C4.57505 10.9004 4.60005 11.1629 4.90005 11.3254C5.17505 11.4754 5.38755 11.3629 5.38755 11.3629L5.35005 11.4129C5.35005 11.4129 5.16255 11.5504 4.86255 11.3754C4.55005 11.2004 4.55005 10.9504 4.55005 10.9504Z" fill="url(#paint36_linear_5452_16878)"/>
<path d="M8.5999 14.2754L13.9499 3.03789L12.5999 2.40039L7.0249 14.0879C7.0249 14.0879 7.1999 14.1754 7.4249 14.2754H8.5999Z" fill="url(#paint37_linear_5452_16878)"/>
<path d="M11.7625 1.72461L14.2625 2.91211V6.49961C13.4 6.08711 7.625 3.33711 7.625 3.33711C7.625 3.33711 8.025 2.49961 8.4 1.72461H11.7625Z" fill="url(#paint38_radial_5452_16878)"/>
<path d="M5.56251 13.7748C5.52501 13.8498 5.46251 13.9373 5.47501 14.0748C5.48751 14.5873 6.32501 15.0623 6.81251 15.0623C7.15001 15.0623 7.26251 14.9248 7.38751 14.6748C7.51251 14.4248 5.70001 13.4748 5.56251 13.7748Z" fill="url(#paint39_radial_5452_16878)"/>
<path d="M11.325 3.13672C11.325 3.13672 12.6125 3.44922 12.7125 3.53672C12.8125 3.62422 12.55 4.12422 12.5 4.19922C12.0875 4.69922 10.8 7.46172 10.8 7.46172L9.61255 6.78672C9.61255 6.78672 10.675 4.81172 11.05 4.11172C11.2875 3.63672 11.325 3.13672 11.325 3.13672Z" fill="url(#paint40_linear_5452_16878)"/>
<path d="M14.3 2.48748C14.525 2.64998 14.825 2.61248 15.0625 2.57498C15.225 2.54998 14.975 2.78748 14.7 3.33748C14.425 3.88748 14.4375 3.92498 14.4 3.88748C14.3625 3.84998 13.125 3.14998 13.1625 3.08748C13.2125 3.02498 13.4125 1.66248 13.5125 1.69998C13.875 1.78748 13.9375 2.22498 14.3 2.48748Z" fill="url(#paint41_linear_5452_16878)"/>
<path d="M12.3751 4.02461C12.4626 3.88711 12.8626 3.03711 13.5001 3.03711C13.7876 3.03711 14.3376 3.76211 14.3876 3.86211C14.4251 3.94961 14.3001 4.29961 14.2376 4.13711C14.1626 3.94961 13.8501 3.54961 13.5126 3.54961C13.1751 3.54961 12.7126 3.93711 12.6001 4.07461C12.4876 4.19961 12.2876 4.16211 12.3751 4.02461Z" fill="url(#paint42_linear_5452_16878)"/>
<path d="M12.3499 3.97594C12.4124 3.87594 12.6999 3.43844 12.8374 3.30094C12.9749 3.16344 13.3249 2.80094 13.6249 2.75094C13.9249 2.70094 14.2374 3.31344 14.1374 3.43844C14.0624 3.52594 13.9374 3.42594 13.7874 3.30094C13.6374 3.18844 13.5374 2.96344 13.0624 3.32594C12.8999 3.45094 12.7374 3.55094 12.3624 4.08844C12.2624 4.22594 12.2874 4.07594 12.3499 3.97594Z" fill="url(#paint43_linear_5452_16878)"/>
<path d="M10.8 7.62442C10.85 7.52442 10.9125 7.37442 10.775 7.26192C10.625 7.14942 9.92503 6.77442 9.80003 6.74942C9.67503 6.72442 9.57503 6.74942 9.52503 6.83692C9.47503 6.92442 5.63753 13.4994 5.56253 13.6869C5.48753 13.8744 5.47503 14.0119 5.58753 14.0494C5.70003 14.0869 6.98753 14.6994 7.11253 14.8369C7.23753 14.9744 7.30003 14.8244 7.35003 14.7494C7.58753 14.4494 10.7375 7.72442 10.8 7.62442Z" fill="url(#paint44_linear_5452_16878)"/>
<path d="M12.4374 3.95C12.4999 3.8625 12.6499 3.6125 12.8374 3.3875C12.9624 3.2375 13.6374 2.9125 13.7874 2.3875C13.8749 2.1 13.7374 1.8125 13.5499 1.6875C12.9124 1.3 11.8124 0.6875 10.1999 0.6875C9.1124 0.6875 8.6499 1.05 8.6499 1.05H9.1999L11.1124 1.8L11.3499 2.8C11.3499 2.8 11.3749 3.1375 11.2624 3.525C11.1874 3.8375 11.1624 4.025 11.0499 4.3375C11.1374 4.375 11.3374 4.2375 11.5624 4.3C11.7624 4.35 11.8874 4.625 12.0249 4.4625C12.2624 4.15 12.3374 4.0875 12.4374 3.95Z" fill="url(#paint45_linear_5452_16878)"/>
<path d="M11.3125 3.17444C11.2125 2.24944 10.9875 1.37444 8.63745 1.38694C8.78745 1.23694 9.14995 1.08694 9.14995 1.08694L8.63745 1.04944C8.63745 1.04944 8.71245 0.986945 8.86245 0.974445C10.2375 0.861945 11.4625 1.14944 11.375 2.93694C11.3625 3.22444 11.3375 3.34944 11.3125 3.17444Z" fill="url(#paint46_linear_5452_16878)"/>
<path d="M8.63745 1.38662C8.79995 1.32412 9.02495 1.28662 9.44995 1.31162C9.97495 1.33662 10.6375 1.53662 10.9125 1.78662C11.05 1.91162 11.0375 1.81162 10.8875 1.64912C10.5 1.19912 9.91245 1.09912 9.14995 1.08662C9.06245 1.07412 8.77495 1.23662 8.63745 1.38662Z" fill="url(#paint47_linear_5452_16878)"/>
<path d="M15.0875 2.57422L15.775 2.92422C15.775 2.92422 15.5125 3.27422 15.3 3.67422C15.075 4.09922 14.925 4.56172 14.925 4.56172L14.2625 4.16172C14.2625 4.16172 14.425 3.71172 14.6625 3.27422C14.85 2.91172 15.0875 2.57422 15.0875 2.57422Z" fill="url(#paint48_linear_5452_16878)"/>
<path d="M15.7751 2.92509C15.8251 2.95009 15.6626 3.33759 15.4251 3.78759C15.1876 4.23759 14.9626 4.58759 14.9251 4.56259C14.8751 4.53759 15.0376 4.15009 15.2751 3.70009C15.5001 3.25009 15.7251 2.90009 15.7751 2.92509Z" fill="#BFC0D0"/>
<defs>
<linearGradient id="paint0_linear_5452_16878" x1="7.99347" y1="14.2702" x2="7.99347" y2="1.72261" gradientUnits="userSpaceOnUse">
<stop stop-color="#1578E4"/>
<stop offset="1" stop-color="#00C3F2"/>
</linearGradient>
<linearGradient id="paint1_linear_5452_16878" x1="11.7547" y1="9.95864" x2="11.7547" y2="9.02339" gradientUnits="userSpaceOnUse">
<stop stop-color="#1492E7"/>
<stop offset="1" stop-color="#DBEDFB"/>
</linearGradient>
<linearGradient id="paint2_linear_5452_16878" x1="11.1302" y1="9.95864" x2="11.1302" y2="9.02339" gradientUnits="userSpaceOnUse">
<stop stop-color="#1492E7"/>
<stop offset="1" stop-color="#DBEDFB"/>
</linearGradient>
<linearGradient id="paint3_linear_5452_16878" x1="7.99328" y1="9.95864" x2="7.99328" y2="9.02339" gradientUnits="userSpaceOnUse">
<stop stop-color="#1492E7"/>
<stop offset="1" stop-color="#DBEDFB"/>
</linearGradient>
<linearGradient id="paint4_linear_5452_16878" x1="7.36895" y1="9.95864" x2="7.36895" y2="9.02339" gradientUnits="userSpaceOnUse">
<stop stop-color="#1492E7"/>
<stop offset="1" stop-color="#DBEDFB"/>
</linearGradient>
<linearGradient id="paint5_linear_5452_16878" x1="6.74475" y1="9.95864" x2="6.74475" y2="9.02339" gradientUnits="userSpaceOnUse">
<stop stop-color="#1492E7"/>
<stop offset="1" stop-color="#DBEDFB"/>
</linearGradient>
<linearGradient id="paint6_linear_5452_16878" x1="6.12042" y1="9.95864" x2="6.12042" y2="9.02339" gradientUnits="userSpaceOnUse">
<stop stop-color="#1492E7"/>
<stop offset="1" stop-color="#DBEDFB"/>
</linearGradient>
<linearGradient id="paint7_linear_5452_16878" x1="5.4959" y1="9.95864" x2="5.4959" y2="9.02339" gradientUnits="userSpaceOnUse">
<stop stop-color="#1492E7"/>
<stop offset="1" stop-color="#DBEDFB"/>
</linearGradient>
<linearGradient id="paint8_linear_5452_16878" x1="4.8566" y1="9.95864" x2="4.8566" y2="9.02339" gradientUnits="userSpaceOnUse">
<stop stop-color="#1492E7"/>
<stop offset="1" stop-color="#DBEDFB"/>
</linearGradient>
<linearGradient id="paint9_linear_5452_16878" x1="4.23222" y1="9.95864" x2="4.23222" y2="9.02339" gradientUnits="userSpaceOnUse">
<stop stop-color="#1492E7"/>
<stop offset="1" stop-color="#DBEDFB"/>
</linearGradient>
<linearGradient id="paint10_linear_5452_16878" x1="9.19751" y1="11.7821" x2="9.19751" y2="4.08109" gradientUnits="userSpaceOnUse">
<stop stop-color="#1285E7"/>
<stop offset="1" stop-color="#00B5EF"/>
</linearGradient>
<linearGradient id="paint11_linear_5452_16878" x1="10.9329" y1="11.7465" x2="6.76003" y2="4.51872" gradientUnits="userSpaceOnUse">
<stop stop-color="#2B90E7"/>
<stop offset="1" stop-color="#00B6EF"/>
</linearGradient>
<linearGradient id="paint12_linear_5452_16878" x1="11.1341" y1="11.7909" x2="6.82287" y2="4.32363" gradientUnits="userSpaceOnUse">
<stop stop-color="#3795EA"/>
<stop offset="1" stop-color="#49C4F2"/>
</linearGradient>
<linearGradient id="paint13_linear_5452_16878" x1="11.3783" y1="11.7161" x2="7.00905" y2="4.14834" gradientUnits="userSpaceOnUse">
<stop stop-color="#3696EA"/>
<stop offset="1" stop-color="#90D9F6"/>
</linearGradient>
<linearGradient id="paint14_linear_5452_16878" x1="11.5728" y1="11.5407" x2="7.25817" y2="4.06759" gradientUnits="userSpaceOnUse">
<stop stop-color="#3097EA"/>
<stop offset="1" stop-color="#B5E5F9"/>
</linearGradient>
<linearGradient id="paint15_linear_5452_16878" x1="11.6353" y1="11.3357" x2="7.46758" y2="4.117" gradientUnits="userSpaceOnUse">
<stop stop-color="#3A98EA"/>
<stop offset="1" stop-color="#BCE7FA"/>
</linearGradient>
<linearGradient id="paint16_linear_5452_16878" x1="8.49767" y1="7.65286" x2="9.30717" y2="7.18548" gradientUnits="userSpaceOnUse">
<stop stop-color="#00A4EC"/>
<stop offset="1" stop-color="#B9DFF6"/>
</linearGradient>
<linearGradient id="paint17_linear_5452_16878" x1="8.18587" y1="7.11247" x2="8.99525" y2="6.64509" gradientUnits="userSpaceOnUse">
<stop stop-color="#00A4EC"/>
<stop offset="1" stop-color="#B9DFF6"/>
</linearGradient>
<linearGradient id="paint18_linear_5452_16878" x1="7.24115" y1="5.47773" x2="8.0454" y2="5.01348" gradientUnits="userSpaceOnUse">
<stop stop-color="#00B4EF"/>
<stop offset="1" stop-color="#C3E9FA"/>
</linearGradient>
<linearGradient id="paint19_linear_5452_16878" x1="6.92792" y1="4.93528" x2="7.73742" y2="4.46791" gradientUnits="userSpaceOnUse">
<stop stop-color="#00B4EF"/>
<stop offset="1" stop-color="#C3E9FA"/>
</linearGradient>
<linearGradient id="paint20_linear_5452_16878" x1="6.82076" y1="11.7998" x2="6.82076" y2="4.09897" gradientUnits="userSpaceOnUse">
<stop stop-color="#1285E7"/>
<stop offset="1" stop-color="#00B5EF"/>
</linearGradient>
<linearGradient id="paint21_linear_5452_16878" x1="5.08512" y1="11.766" x2="9.258" y2="4.53848" gradientUnits="userSpaceOnUse">
<stop stop-color="#3194E9"/>
<stop offset="1" stop-color="#71CFF4"/>
</linearGradient>
<linearGradient id="paint22_linear_5452_16878" x1="4.88292" y1="11.8095" x2="9.19467" y2="4.34122" gradientUnits="userSpaceOnUse">
<stop stop-color="#5AA6EC"/>
<stop offset="1" stop-color="#A2DEF8"/>
</linearGradient>
<linearGradient id="paint23_linear_5452_16878" x1="4.63975" y1="11.7352" x2="9.009" y2="4.16748" gradientUnits="userSpaceOnUse">
<stop stop-color="#66ABEE"/>
<stop offset="1" stop-color="#BEE8FA"/>
</linearGradient>
<linearGradient id="paint24_linear_5452_16878" x1="4.446" y1="11.5599" x2="8.76063" y2="4.08673" gradientUnits="userSpaceOnUse">
<stop stop-color="#7BB6F0"/>
<stop offset="1" stop-color="#B1E3F9"/>
</linearGradient>
<linearGradient id="paint25_linear_5452_16878" x1="4.3819" y1="11.3594" x2="8.55178" y2="4.13689" gradientUnits="userSpaceOnUse">
<stop stop-color="#5AA6EC"/>
<stop offset="1" stop-color="#AFE3F9"/>
</linearGradient>
<linearGradient id="paint26_linear_5452_16878" x1="8.29535" y1="4.4618" x2="9.10485" y2="4.92917" gradientUnits="userSpaceOnUse">
<stop stop-color="#C1E7FA"/>
<stop offset="1" stop-color="#89D4F5"/>
</linearGradient>
<linearGradient id="paint27_linear_5452_16878" x1="7.98205" y1="5.00384" x2="8.79155" y2="5.47109" gradientUnits="userSpaceOnUse">
<stop stop-color="#C1E7FA"/>
<stop offset="1" stop-color="#89D4F5"/>
</linearGradient>
<linearGradient id="paint28_linear_5452_16878" x1="7.65917" y1="5.56352" x2="8.46855" y2="6.03077" gradientUnits="userSpaceOnUse">
<stop stop-color="#C1E7FA"/>
<stop offset="1" stop-color="#89D4F5"/>
</linearGradient>
<linearGradient id="paint29_linear_5452_16878" x1="7.34512" y1="6.10688" x2="8.1545" y2="6.57425" gradientUnits="userSpaceOnUse">
<stop stop-color="#B0DFF8"/>
<stop offset="1" stop-color="#52BDF2"/>
</linearGradient>
<linearGradient id="paint30_linear_5452_16878" x1="7.03125" y1="6.65089" x2="7.84087" y2="7.11827" gradientUnits="userSpaceOnUse">
<stop stop-color="#B4DEF8"/>
<stop offset="1" stop-color="#4EB5F0"/>
</linearGradient>
<linearGradient id="paint31_linear_5452_16878" x1="6.7175" y1="7.19491" x2="7.52687" y2="7.66216" gradientUnits="userSpaceOnUse">
<stop stop-color="#B4DEF8"/>
<stop offset="1" stop-color="#4EB5F0"/>
</linearGradient>
<linearGradient id="paint32_linear_5452_16878" x1="6.40483" y1="7.73614" x2="7.21408" y2="8.20339" gradientUnits="userSpaceOnUse">
<stop stop-color="#B5DDF8"/>
<stop offset="1" stop-color="#46AEEE"/>
</linearGradient>
<linearGradient id="paint33_linear_5452_16878" x1="6.09178" y1="8.2775" x2="6.90128" y2="8.74488" gradientUnits="userSpaceOnUse">
<stop stop-color="#96CEF4"/>
<stop offset="1" stop-color="#46AAEE"/>
</linearGradient>
<linearGradient id="paint34_linear_5452_16878" x1="5.33983" y1="10.0169" x2="5.96008" y2="10.375" gradientUnits="userSpaceOnUse">
<stop stop-color="#8FC1F2"/>
<stop offset="1" stop-color="#3193EA"/>
</linearGradient>
<linearGradient id="paint35_linear_5452_16878" x1="4.8293" y1="10.4654" x2="5.6388" y2="10.9328" gradientUnits="userSpaceOnUse">
<stop stop-color="#8FC1F2"/>
<stop offset="1" stop-color="#3193EA"/>
</linearGradient>
<linearGradient id="paint36_linear_5452_16878" x1="4.51555" y1="11.0083" x2="5.32492" y2="11.4756" gradientUnits="userSpaceOnUse">
<stop stop-color="#8FC1F2"/>
<stop offset="1" stop-color="#3193EA"/>
</linearGradient>
<linearGradient id="paint37_linear_5452_16878" x1="9.59015" y1="8.11702" x2="11.1473" y2="8.87639" gradientUnits="userSpaceOnUse">
<stop offset="0.001"/>
<stop offset="1" stop-opacity="0"/>
</linearGradient>
<radialGradient id="paint38_radial_5452_16878" cx="0" cy="0" r="1" gradientTransform="matrix(-0.908968 1.80681 -3.12637 -1.573 11.905 3.14087)" gradientUnits="userSpaceOnUse">
<stop/>
<stop offset="1" stop-opacity="0"/>
</radialGradient>
<radialGradient id="paint39_radial_5452_16878" cx="0" cy="0" r="1" gradientTransform="matrix(0.886788 0.434753 -0.247499 0.504775 6.40091 14.3694)" gradientUnits="userSpaceOnUse">
<stop offset="0.417" stop-color="#0C0C12"/>
<stop offset="1" stop-color="#3D4651"/>
</radialGradient>
<linearGradient id="paint40_linear_5452_16878" x1="10.5948" y1="4.89597" x2="11.8153" y2="5.51784" gradientUnits="userSpaceOnUse">
<stop stop-color="#344351"/>
<stop offset="0.1" stop-color="#9697A0"/>
<stop offset="0.181" stop-color="#8B8C95"/>
<stop offset="0.351" stop-color="#787A83"/>
<stop offset="0.47" stop-color="#71747D"/>
<stop offset="0.591" stop-color="#777982"/>
<stop offset="0.749" stop-color="#87898F"/>
<stop offset="0.8" stop-color="#8E8F94"/>
<stop offset="0.849" stop-color="#3D3B42"/>
<stop offset="0.9" stop-color="#606E84"/>
</linearGradient>
<linearGradient id="paint41_linear_5452_16878" x1="14.7355" y1="3.6571" x2="13.3578" y2="1.79548" gradientUnits="userSpaceOnUse">
<stop offset="0.27" stop-color="#262B33"/>
<stop offset="0.45" stop-color="#74747E"/>
<stop offset="0.54" stop-color="#B0B0BC"/>
<stop offset="0.73" stop-color="#74747E"/>
</linearGradient>
<linearGradient id="paint42_linear_5452_16878" x1="12.3178" y1="3.80261" x2="14.3519" y2="3.53986" gradientUnits="userSpaceOnUse">
<stop offset="0.14" stop-color="#606E84"/>
<stop offset="0.4" stop-color="#9899A5"/>
<stop offset="0.73" stop-color="#475768"/>
<stop offset="0.92" stop-color="#262B33"/>
</linearGradient>
<linearGradient id="paint43_linear_5452_16878" x1="13.2659" y1="3.97694" x2="13.0686" y2="2.85769" gradientUnits="userSpaceOnUse">
<stop stop-color="#101215" stop-opacity="0.1"/>
<stop offset="0.46" stop-color="#101215" stop-opacity="0.7"/>
<stop offset="0.7" stop-color="#474951"/>
<stop offset="0.91" stop-color="#7B7D88"/>
</linearGradient>
<linearGradient id="paint44_linear_5452_16878" x1="7.2664" y1="10.2145" x2="9.15465" y2="11.1437" gradientUnits="userSpaceOnUse">
<stop offset="0.115" stop-color="#2C3952"/>
<stop offset="0.374" stop-color="#3D414E"/>
<stop offset="0.55" stop-color="#474A54"/>
<stop offset="0.754" stop-color="#4E5057"/>
<stop offset="0.892" stop-color="#323945"/>
<stop offset="1" stop-color="#143052"/>
</linearGradient>
<linearGradient id="paint45_linear_5452_16878" x1="10.1884" y1="3.95988" x2="11.6487" y2="0.755875" gradientUnits="userSpaceOnUse">
<stop offset="0.118" stop-color="#6D7078" stop-opacity="0"/>
<stop offset="0.2" stop-color="#6D7078" stop-opacity="0.7"/>
<stop offset="0.34" stop-color="#35363A"/>
<stop offset="0.374" stop-color="#1D1F22"/>
<stop offset="0.4" stop-color="#101215"/>
<stop offset="0.5" stop-color="#16171A"/>
<stop offset="0.56" stop-color="#292A2E"/>
<stop offset="0.688" stop-color="#4B4D51"/>
<stop offset="0.807" stop-color="#63666B"/>
<stop offset="0.915" stop-color="#72757B"/>
<stop offset="1" stop-color="#777A80"/>
</linearGradient>
<linearGradient id="paint46_linear_5452_16878" x1="8.63295" y1="2.10407" x2="11.3782" y2="2.10407" gradientUnits="userSpaceOnUse">
<stop stop-color="#4A4D56"/>
<stop offset="1" stop-color="#29292D"/>
</linearGradient>
<linearGradient id="paint47_linear_5452_16878" x1="8.63295" y1="1.46124" x2="11.0067" y2="1.46124" gradientUnits="userSpaceOnUse">
<stop stop-color="#767880"/>
<stop offset="0.41" stop-color="#0C0A0B"/>
</linearGradient>
<linearGradient id="paint48_linear_5452_16878" x1="14.5415" y1="4.34372" x2="15.4633" y2="2.74697" gradientUnits="userSpaceOnUse">
<stop stop-color="#858997"/>
<stop offset="0.23" stop-color="#244668"/>
<stop offset="0.282" stop-color="#1A3249"/>
<stop offset="0.4" stop-color="#040506"/>
<stop offset="0.464" stop-color="#313236"/>
<stop offset="0.546" stop-color="#65656E"/>
<stop offset="0.607" stop-color="#868691"/>
<stop offset="0.64" stop-color="#92929E"/>
</linearGradient>
</defs>
</svg>
