<svg width="16" height="16" viewBox="0 0 16 16" fill="none" xmlns="http://www.w3.org/2000/svg">
<g clip-path="url(#clip0_5452_16872)">
<path d="M12.0131 14.546L14.9818 14.5456C15.1156 14.5456 15.248 14.5193 15.3715 14.4682C15.495 14.417 15.6073 14.342 15.7018 14.2475C15.7964 14.153 15.8714 14.0407 15.9226 13.9172C15.9738 13.7937 16.0001 13.6613 16.0001 13.5276V10.6508C16.0001 10.504 15.9683 10.3588 15.9069 10.2254C15.8456 10.0919 15.7561 9.97333 15.6446 9.8777L6.1041 1.70008C5.91951 1.54199 5.6845 1.45509 5.44147 1.45508H2.4726C2.33888 1.45506 2.20648 1.48138 2.08294 1.53254C1.9594 1.5837 1.84715 1.65869 1.75259 1.75324C1.65804 1.84778 1.58303 1.96002 1.53186 2.08355C1.48068 2.20709 1.45435 2.33949 1.45435 2.4732V5.35033C1.45437 5.4972 1.48615 5.64234 1.54751 5.77579C1.60887 5.90923 1.69836 6.02783 1.80985 6.12345L11.3498 14.3007C11.5345 14.4588 11.7696 14.5457 12.0127 14.5457L12.0131 14.546Z" fill="#007DFE"/>
<path d="M12.3703 14.5454H14.9819C15.252 14.5454 15.5109 14.4381 15.7019 14.2472C15.8928 14.0562 16.0001 13.7973 16.0001 13.5273V10.2541C16.0001 10.206 15.9967 10.158 15.9899 10.1101L14.6704 0.87425C14.6358 0.631618 14.5148 0.409623 14.3297 0.249026C14.1445 0.0884281 13.9077 7.94738e-06 13.6626 7.68261e-09H9.74432C9.61058 -1.64218e-05 9.47814 0.0263185 9.35458 0.0775001C9.23102 0.128682 9.11875 0.203707 9.02419 0.29829C8.92963 0.392873 8.85463 0.50516 8.80348 0.628736C8.75233 0.752312 8.72603 0.884756 8.72607 1.0185L8.72732 5.65312C8.72732 5.7625 8.74482 5.87112 8.77945 5.97487L11.4044 13.8492C11.4721 14.0519 11.6017 14.2282 11.7751 14.3532C11.9484 14.4781 12.1567 14.5453 12.3703 14.5454Z" fill="url(#paint0_linear_5452_16872)"/>
<path d="M1.01813 16H9.51025C9.70948 15.9999 9.90431 15.9414 10.0706 15.8317C10.2369 15.722 10.3675 15.566 10.446 15.3829L14.463 6.01038C14.5172 5.88353 14.5452 5.74706 14.5454 5.60913V1.01838C14.5454 0.884646 14.5191 0.752223 14.4679 0.628669C14.4167 0.505115 14.3417 0.392849 14.2472 0.298283C14.1526 0.203716 14.0404 0.128701 13.9168 0.0775216C13.7933 0.026342 13.6609 -1.00764e-09 13.5271 0L9.03575 0C8.83454 5.23409e-05 8.63786 0.0596842 8.4705 0.171375L0.453375 5.522C0.314057 5.61503 0.199832 5.74099 0.120816 5.88871C0.0417997 6.03642 0.000431433 6.20135 0.000375008 6.36888L7.67412e-09 14.9817C-1.64089e-05 15.1155 0.0263061 15.2479 0.0774643 15.3714C0.128623 15.4949 0.203614 15.6072 0.298158 15.7018C0.392701 15.7963 0.504944 15.8713 0.628477 15.9225C0.752009 15.9737 0.884412 16 1.01813 16Z" fill="url(#paint1_linear_5452_16872)"/>
<path d="M13 3H3V13H13V3Z" fill="black"/>
<path d="M4.27341 4.25V8H5.00491V6.584H5.63616L6.44354 8H7.28179L6.38879 6.498C6.40712 6.49225 6.42566 6.48675 6.44441 6.4815C6.48654 6.46938 6.52854 6.4575 6.56654 6.44C6.77016 6.3395 6.92629 6.20225 7.03529 6.025C7.14591 5.8475 7.20129 5.64313 7.20129 5.40875C7.20129 5.17425 7.14704 4.97688 7.03816 4.80275C6.93104 4.62875 6.77729 4.49113 6.57729 4.394C6.37729 4.297 6.14591 4.25 5.88354 4.25H4.27341ZM7.81929 4.25V8H9.24704C9.60237 8 9.92024 7.91958 10.2007 7.75875C10.4789 7.60271 10.7081 7.37205 10.8623 7.09275C11.021 6.80475 11.1005 6.48313 11.1005 6.125C11.1005 5.76687 11.0212 5.44525 10.8623 5.16062C10.7033 4.87612 10.4828 4.65188 10.2007 4.49125C9.92024 4.33042 9.60237 4.25 9.24704 4.25H7.81929ZM5.00504 4.85938H5.83554C5.95879 4.85938 6.06579 4.88287 6.15679 4.92625C6.24966 4.97325 6.32129 5.03688 6.37116 5.12063C6.42116 5.20438 6.44591 5.30175 6.44591 5.41563C6.44591 5.5295 6.42129 5.62625 6.37116 5.71338C6.32116 5.79713 6.24966 5.86088 6.15691 5.90775C6.06566 5.9545 5.95879 5.97463 5.83566 5.97463H5.00504V4.85938ZM8.55091 4.88287H9.23891C9.46216 4.88287 9.65779 4.933 9.82579 5.03325C9.99366 5.13037 10.1228 5.2745 10.2139 5.462C10.3051 5.6495 10.3507 5.8705 10.3507 6.125C10.3507 6.3795 10.3051 6.60054 10.2139 6.78813C10.1228 6.97563 9.99366 7.11912 9.82579 7.21637C9.65779 7.31687 9.46216 7.36717 9.23891 7.36725H8.55091V4.88287ZM4.24854 11V11.75H8.24854V11H4.24854Z" fill="white"/>
</g>
<defs>
<linearGradient id="paint0_linear_5452_16872" x1="16.1795" y1="14.0944" x2="9.96377" y2="0.688246" gradientUnits="userSpaceOnUse">
<stop offset="0.21" stop-color="#007DFE"/>
<stop offset="0.55" stop-color="#FFB700"/>
</linearGradient>
<linearGradient id="paint1_linear_5452_16872" x1="14.9444" y1="0.995245" x2="0.268249" y2="15.6717" gradientUnits="userSpaceOnUse">
<stop offset="0.23" stop-color="#FFB700"/>
<stop offset="0.73" stop-color="#FF0A67"/>
</linearGradient>
<clipPath id="clip0_5452_16872">
<rect width="16" height="16" fill="white"/>
</clipPath>
</defs>
</svg>
