<svg width="16" height="16" viewBox="0 0 16 16" fill="none" xmlns="http://www.w3.org/2000/svg">
<g clip-path="url(#clip0_5452_16866)">
<path d="M16 14.9819V6.48992C16 6.08281 15.7574 5.71452 15.3825 5.55441L6.01059 1.53712C5.88377 1.48276 5.74719 1.45485 5.60921 1.45508H1.01897C0.749054 1.45531 0.490259 1.56264 0.299399 1.7535C0.108538 1.94436 0.00121016 2.20316 0.000976562 2.47307V6.96496C0.000976562 7.16609 0.0605213 7.3628 0.172113 7.52997L5.52232 15.5465C5.61536 15.6858 5.74132 15.8 5.88903 15.879C6.03675 15.958 6.20166 15.9994 6.36918 15.9994L14.9816 15.9999C15.2516 15.9998 15.5105 15.8925 15.7014 15.7016C15.8924 15.5107 15.9998 15.2519 16 14.9819Z" fill="url(#paint0_linear_5452_16866)"/>
<path d="M14.5453 3.62959V1.01844C14.5452 0.748442 14.4379 0.489534 14.247 0.298578C14.0562 0.107622 13.7973 0.000233736 13.5273 0H10.2545C10.2057 0 10.1577 0.00338103 10.1103 0.0101441L0.874253 1.32939C0.631779 1.36428 0.409992 1.48536 0.249522 1.67046C0.089052 1.85556 0.000642183 2.09227 0.000488281 2.33724V6.25529C0.00060517 6.52536 0.107942 6.78433 0.29891 6.9753C0.489879 7.16627 0.748854 7.27361 1.01892 7.27373L5.65327 7.2724C5.76325 7.2724 5.87057 7.25505 5.97526 7.22036L13.8493 4.59553C14.0519 4.52783 14.2282 4.39814 14.3531 4.2248C14.478 4.05146 14.5452 3.84324 14.5453 3.62959Z" fill="url(#paint1_linear_5452_16866)"/>
<path d="M14.5451 3.98675L14.5447 1.018C14.5447 0.884298 14.5183 0.751908 14.4672 0.62839C14.416 0.504872 14.341 0.392644 14.2464 0.298114C14.1519 0.203583 14.0396 0.128603 13.9161 0.0774523C13.7926 0.0263019 13.6602 -1.64086e-05 13.5265 7.67507e-09H10.65C10.5031 3.93536e-05 10.358 0.0318285 10.2246 0.093189C10.0911 0.154549 9.97257 0.24403 9.87696 0.3555L1.69983 9.8955C1.54172 10.0801 1.45482 10.3152 1.45483 10.5583V13.527C1.45483 13.797 1.5621 14.056 1.75304 14.2469C1.94397 14.4379 2.20294 14.5451 2.47296 14.5451H5.34983C5.49671 14.5451 5.64185 14.5133 5.77529 14.452C5.90874 14.3906 6.02734 14.3011 6.12296 14.1896L14.3 4.64962C14.4582 4.46505 14.5452 4.2299 14.5451 3.98675Z" fill="#FF318C"/>
<path d="M12.9999 3H3V12.9996H13L12.9999 3Z" fill="black"/>
<path d="M5.01181 7.79019C5.30164 7.95727 5.62518 8.04085 5.98243 8.04094V8.04056C6.28468 8.04056 6.56201 7.98456 6.81443 7.87256C7.06693 7.76065 7.27668 7.60423 7.44368 7.40331C7.61186 7.20253 7.72818 6.96354 7.78243 6.70731H7.01968C6.97096 6.84083 6.89469 6.9626 6.7958 7.06469C6.69575 7.16743 6.57476 7.24745 6.44105 7.29931C6.30239 7.3544 6.1513 7.38198 5.9878 7.38206C5.7673 7.38206 5.56818 7.32698 5.39043 7.21681C5.21268 7.10665 5.07314 6.95556 4.97181 6.76356C4.87222 6.56981 4.82247 6.35202 4.82256 6.11019C4.82256 5.86844 4.87231 5.65156 4.97181 5.45956C5.07322 5.26581 5.2128 5.11381 5.39055 5.00356C5.5683 4.89331 5.76739 4.83823 5.9878 4.83831C6.15114 4.8384 6.30222 4.86598 6.44105 4.92106C6.57528 4.97316 6.69639 5.05416 6.7958 5.15831C6.89496 5.25913 6.97131 5.38006 7.01968 5.51294H7.78243C7.72824 5.25751 7.61189 5.0194 7.44368 4.81969C7.27651 4.61702 7.06676 4.45969 6.81443 4.34769C6.56193 4.23569 6.2846 4.17969 5.98243 4.17969C5.6251 4.17969 5.30156 4.26415 5.01181 4.43306C4.72189 4.60015 4.4943 4.83123 4.32905 5.12631C4.1638 5.41965 4.08114 5.7476 4.08105 6.11019C4.08105 6.47302 4.16372 6.80194 4.32905 7.09694C4.48986 7.38544 4.72579 7.625 5.01181 7.79019ZM9.03118 7.32081V4.24356H8.3058V7.97681H10.8017V7.32081H9.03118ZM4.24868 10.9996H8.24843V11.7496H4.24868V10.9996Z" fill="white"/>
</g>
<defs>
<linearGradient id="paint0_linear_5452_16866" x1="0.995309" y1="1.05594" x2="15.6713" y2="15.7317" gradientUnits="userSpaceOnUse">
<stop offset="0.29" stop-color="#009AE5"/>
<stop offset="0.7" stop-color="#00D980"/>
</linearGradient>
<linearGradient id="paint1_linear_5452_16866" x1="14.0943" y1="-0.179244" x2="0.688273" y2="6.03603" gradientUnits="userSpaceOnUse">
<stop offset="0.3" stop-color="#FF318C"/>
<stop offset="0.54" stop-color="#009AE5"/>
</linearGradient>
<clipPath id="clip0_5452_16866">
<rect width="16" height="16" fill="white"/>
</clipPath>
</defs>
</svg>
