<svg width="16" height="16" viewBox="0 0 16 16" fill="none" xmlns="http://www.w3.org/2000/svg">
<g clip-path="url(#clip0_5452_16854)">
<path d="M12.013 14.546L14.9818 14.5456C15.1156 14.5456 15.248 14.5192 15.3715 14.4681C15.495 14.4169 15.6073 14.3419 15.7018 14.2473C15.7964 14.1528 15.8713 14.0405 15.9225 13.917C15.9737 13.7934 16 13.661 16 13.5273V10.6507C15.9999 10.5038 15.9682 10.3587 15.9068 10.2252C15.8454 10.0918 15.756 9.9732 15.6445 9.87758L6.1041 1.70008C5.91948 1.54196 5.68442 1.45506 5.44135 1.45508H2.4726C2.33888 1.45506 2.20648 1.48138 2.08294 1.53254C1.9594 1.5837 1.84715 1.65869 1.75259 1.75324C1.65804 1.84778 1.58303 1.96002 1.53186 2.08355C1.48068 2.20709 1.45435 2.33949 1.45435 2.4732V5.35033C1.45437 5.49721 1.48615 5.64234 1.54751 5.77579C1.60887 5.90923 1.69836 6.02783 1.80985 6.12345L11.35 14.3007C11.5346 14.4588 11.7696 14.5457 12.0127 14.5457L12.013 14.546Z" fill="#00D886"/>
<path d="M12.3701 14.5455H14.9817C15.2518 14.5455 15.5108 14.4382 15.7017 14.2473C15.8927 14.0563 15.9999 13.7973 15.9999 13.5273V10.2541C15.9999 10.206 15.9965 10.158 15.9897 10.1101L14.6703 0.874125C14.6357 0.631516 14.5147 0.40955 14.3295 0.248978C14.1444 0.0884062 13.9075 3.64212e-06 13.6624 0L9.7442 0C9.61047 -9.07133e-09 9.47804 0.026347 9.35449 0.077536C9.23094 0.128725 9.11869 0.203753 9.02414 0.298334C8.9296 0.392916 8.85461 0.505197 8.80347 0.628765C8.75232 0.752333 8.72603 0.884766 8.72607 1.0185L8.7272 5.65312C8.7272 5.7625 8.7447 5.87112 8.77945 5.97487L11.4043 13.8492C11.472 14.0519 11.6016 14.2282 11.775 14.3532C11.9483 14.4781 12.1564 14.5454 12.3701 14.5455Z" fill="url(#paint0_linear_5452_16854)"/>
<path d="M1.01813 16H9.51025C9.70949 15.9999 9.90434 15.9415 10.0707 15.8318C10.237 15.7221 10.3676 15.5661 10.4461 15.383L14.4631 6.01038C14.5173 5.88353 14.5453 5.74706 14.5455 5.60913V1.01813C14.5455 0.884412 14.5192 0.752009 14.468 0.628477C14.4168 0.504944 14.3418 0.392701 14.2473 0.298158C14.1527 0.203614 14.0404 0.128623 13.9169 0.0774643C13.7934 0.0263061 13.661 -1.64089e-05 13.5273 7.67412e-09H9.03575C8.8346 4.00197e-05 8.63796 0.059627 8.47062 0.17125L0.453375 5.52212C0.314057 5.61516 0.199832 5.74111 0.120816 5.88883C0.0417997 6.03655 0.000431425 6.20148 0.000375 6.369L0 14.9819C0 15.2519 0.107266 15.5109 0.298202 15.7018C0.489137 15.8927 0.748102 16 1.01813 16Z" fill="url(#paint1_linear_5452_16854)"/>
<path d="M13 3H3V13H13V3Z" fill="black"/>
<path d="M5.92367 4.25C5.56167 4.25 5.23492 4.335 4.94142 4.50612C4.64792 4.67525 4.41729 4.90988 4.24992 5.20863C4.08254 5.5055 3.99829 5.837 3.99829 6.20425C3.99829 6.5715 4.08254 6.90488 4.24992 7.20363C4.41264 7.49602 4.65162 7.73881 4.94142 7.90613C5.23492 8.07513 5.56179 8.1595 5.92367 8.1595C6.27117 8.1595 6.58504 8.08263 6.86417 7.92775C7.14492 7.77275 7.36467 7.5615 7.52492 7.29325C7.68692 7.02325 7.76842 6.72113 7.76842 6.388V6.09113H6.16717V6.67225H7.04604C7.02827 6.81077 6.97562 6.94251 6.89304 7.05513C6.79429 7.19204 6.66033 7.29913 6.49117 7.37638C6.32367 7.45379 6.13629 7.49246 5.92904 7.49238C5.70579 7.49238 5.50454 7.43738 5.32442 7.32575C5.14429 7.21413 5.00329 7.06038 4.90067 6.866C4.79992 6.67008 4.74954 6.44979 4.74954 6.20513C4.74954 5.96046 4.79996 5.74079 4.90079 5.54612C5.00337 5.35004 5.14458 5.19617 5.32442 5.0845C5.50433 4.97283 5.70587 4.917 5.92904 4.917C6.08029 4.917 6.22217 4.94088 6.35354 4.9895C6.48022 5.03368 6.59685 5.1026 6.69667 5.19225C6.79481 5.27792 6.87455 5.38261 6.93104 5.5H7.71954C7.65315 5.25698 7.53032 5.03307 7.36104 4.8465C7.19179 4.65737 6.98217 4.51088 6.73379 4.4065C6.48712 4.30225 6.21708 4.25008 5.92367 4.25ZM10.0314 4.25C9.66954 4.25 9.34092 4.335 9.04567 4.50612C8.75229 4.67525 8.52154 4.90988 8.35229 5.20863C8.18479 5.5055 8.10054 5.837 8.10054 6.20425C8.10054 6.5715 8.18492 6.90488 8.35229 7.20363C8.52129 7.50063 8.75242 7.73479 9.04567 7.90613C9.34092 8.07513 9.6695 8.15958 10.0314 8.1595C10.3951 8.1595 10.7237 8.075 11.0172 7.906C11.3078 7.7392 11.5476 7.49633 11.7105 7.2035C11.8779 6.90475 11.9622 6.5715 11.9622 6.20425C11.9622 5.837 11.8779 5.5055 11.7105 5.2085C11.543 4.90975 11.3124 4.67525 11.0172 4.506C10.7238 4.335 10.3932 4.25 10.0314 4.25ZM10.034 4.898C10.2572 4.898 10.4579 4.95475 10.636 5.06825C10.8144 5.17983 10.9541 5.33554 11.0552 5.53538C11.156 5.73346 11.2064 5.95671 11.2064 6.20513C11.2064 6.4535 11.156 6.677 11.0552 6.87675C10.9542 7.07483 10.8145 7.23054 10.636 7.34387C10.4579 7.45554 10.2572 7.51137 10.034 7.51137C9.81087 7.51137 9.60933 7.45554 9.42942 7.34387C9.25129 7.2305 9.11017 7.07512 9.00767 6.87675C8.90679 6.677 8.85642 6.4535 8.85642 6.20513C8.85642 5.95675 8.90679 5.7335 9.00767 5.53538C9.11017 5.3355 9.25129 5.17988 9.42942 5.06825C9.60942 4.95475 9.81096 4.898 10.034 4.898ZM4.24904 11V11.7495H8.24817V11H4.24904Z" fill="white"/>
</g>
<defs>
<linearGradient id="paint0_linear_5452_16854" x1="15.9087" y1="13.5113" x2="9.82945" y2="0.399" gradientUnits="userSpaceOnUse">
<stop offset="0.24" stop-color="#00D886"/>
<stop offset="0.51" stop-color="#007DFE"/>
</linearGradient>
<linearGradient id="paint1_linear_5452_16854" x1="14.8448" y1="1.09525" x2="0.1685" y2="15.7713" gradientUnits="userSpaceOnUse">
<stop offset="0.27" stop-color="#007DFE"/>
<stop offset="0.7" stop-color="#D249FC"/>
</linearGradient>
<clipPath id="clip0_5452_16854">
<rect width="16" height="16" fill="white"/>
</clipPath>
</defs>
</svg>
