<svg width="16" height="16" viewBox="0 0 16 16" fill="none" xmlns="http://www.w3.org/2000/svg">
<g clip-path="url(#clip0_5452_16860)">
<path d="M14.9806 7.67412e-09H6.48886C6.28962 6.12809e-05 6.09477 0.0585435 5.92843 0.168209C5.76209 0.277874 5.63155 0.433908 5.55298 0.617L1.53623 9.98938C1.48207 10.1162 1.45406 10.2526 1.45386 10.3905V14.9814C1.45386 15.1151 1.4802 15.2475 1.53137 15.371C1.58254 15.4946 1.65755 15.6068 1.7521 15.7013C1.84666 15.7959 1.95891 15.8709 2.08245 15.922C2.20599 15.9732 2.33839 15.9995 2.47211 15.9995H6.96336C7.16461 15.9995 7.36123 15.9399 7.52861 15.8281L15.5455 10.4775C15.6849 10.3845 15.7992 10.2586 15.8782 10.1109C15.9572 9.96314 15.9985 9.79817 15.9985 9.63062L15.9989 1.01813C15.9989 0.884412 15.9725 0.752009 15.9213 0.628477C15.8702 0.504944 15.7952 0.392701 15.7006 0.298158C15.6061 0.203614 15.4938 0.128623 15.3703 0.0774643C15.2467 0.0263061 15.1143 -1.64089e-05 14.9806 7.67412e-09Z" fill="url(#paint0_linear_5452_16860)"/>
<path d="M3.62902 1.45508H1.01739C0.747369 1.45508 0.488405 1.56234 0.297469 1.75328C0.106534 1.94422 -0.000732422 2.20318 -0.000732422 2.4732V5.74633C-0.000732422 5.7945 0.00268424 5.8425 0.00951758 5.89033L1.32864 15.126C1.36331 15.3686 1.48434 15.5906 1.6695 15.7511C1.85467 15.9117 2.09155 16.0001 2.33664 16.0001H6.25477C6.81727 16.0001 7.27314 15.5441 7.27289 14.9816L7.27177 10.3472C7.27177 10.2378 7.25427 10.1292 7.21952 10.0255L4.59502 2.1512C4.52735 1.94854 4.39769 1.77228 4.22435 1.64736C4.05102 1.52244 3.8428 1.45517 3.62914 1.45508H3.62902Z" fill="url(#paint1_linear_5452_16860)"/>
<path d="M3.98602 1.45508L1.01727 1.45558C0.747276 1.45564 0.488363 1.56294 0.297462 1.75386C0.106561 1.94479 -0.000699286 2.20371 -0.000732422 2.4737V5.35008C-0.000711095 5.49695 0.0310694 5.64209 0.0924304 5.77554C0.153791 5.90898 0.243282 6.02758 0.354768 6.1232L9.89477 14.3003C10.0793 14.4584 10.3143 14.5454 10.5573 14.5455H13.526C13.6597 14.5455 13.7921 14.5191 13.9157 14.468C14.0392 14.4168 14.1515 14.3418 14.246 14.2473C14.3406 14.1528 14.4156 14.0405 14.4668 13.917C14.5179 13.7934 14.5443 13.661 14.5443 13.5273V10.6505C14.5442 10.5036 14.5125 10.3584 14.4511 10.225C14.3897 10.0916 14.3003 9.97295 14.1888 9.87733L4.64877 1.70033C4.46421 1.54211 4.22911 1.4552 3.98602 1.45533V1.45508Z" fill="#FF8100"/>
<path d="M12.9988 3H2.99927V12.9996H12.999L12.9988 3Z" fill="black"/>
<path fill-rule="evenodd" clip-rule="evenodd" d="M10.4728 4.25012L9.72831 6.7115L9.67206 7.03288L9.60768 6.7115L8.83643 4.25H7.81856V7.99988H8.53906V5.32425L8.52831 5.1475L9.39081 8H9.92106L10.7942 5.12875L10.7836 5.32425V8H11.5068V4.25L10.4728 4.25012ZM6.56568 6.4385C6.76927 6.34033 6.92552 6.20283 7.03443 6.026C7.1451 5.84742 7.20043 5.642 7.20043 5.40975C7.20043 5.17762 7.14593 4.97687 7.03706 4.80187C6.92989 4.62687 6.77631 4.49117 6.57631 4.39475C6.37631 4.29833 6.14506 4.25012 5.88256 4.25012H4.27281V7.99988H5.00406V6.58275H5.63406L6.44243 7.99975H7.28081L6.38706 6.49738C6.40506 6.49179 6.42314 6.48646 6.44131 6.48137C6.48418 6.469 6.52706 6.45687 6.56568 6.4385ZM5.00431 4.85812H5.83456C5.95781 4.85812 6.06498 4.88133 6.15606 4.92775C6.24522 4.96896 6.31986 5.03615 6.37018 5.1205C6.42018 5.20258 6.44518 5.30079 6.44518 5.41512C6.44518 5.52937 6.42031 5.62675 6.37018 5.71237C6.32031 5.7965 6.24893 5.86137 6.15606 5.908C6.06489 5.95258 5.95773 5.97492 5.83456 5.975H5.00431V4.85812ZM4.24756 10.9999H8.24756V11.7499H4.24756V10.9999Z" fill="white"/>
</g>
<defs>
<linearGradient id="paint0_linear_5452_16860" x1="1.05495" y1="15.0042" x2="15.7304" y2="0.328239" gradientUnits="userSpaceOnUse">
<stop offset="0.29" stop-color="#FF2358"/>
<stop offset="0.75" stop-color="#7256FF"/>
</linearGradient>
<linearGradient id="paint1_linear_5452_16860" x1="-0.179976" y1="1.90601" x2="6.03556" y2="15.3118" gradientUnits="userSpaceOnUse">
<stop offset="0.29" stop-color="#FF8100"/>
<stop offset="0.56" stop-color="#FF2358"/>
</linearGradient>
<clipPath id="clip0_5452_16860">
<rect width="16" height="16" fill="white"/>
</clipPath>
</defs>
</svg>
