<svg width="16" height="16" viewBox="0 0 16 16" fill="none" xmlns="http://www.w3.org/2000/svg">
<g clip-path="url(#clip0_5452_16842)">
<path d="M14.5453 3.98675L14.545 1.018C14.5449 0.748008 14.4376 0.489096 14.2467 0.298194C14.0558 0.107293 13.7968 3.31359e-05 13.5268 0L10.6501 0C10.5032 3.93459e-05 10.3581 0.0318285 10.2247 0.0931889C10.0913 0.154549 9.97269 0.24403 9.87708 0.3555L1.69983 9.8955C1.54172 10.0801 1.45482 10.3152 1.45483 10.5583V13.527C1.45483 13.797 1.5621 14.056 1.75304 14.2469C1.94397 14.4379 2.20294 14.5451 2.47296 14.5451H5.34983C5.49671 14.5451 5.64185 14.5133 5.77529 14.452C5.90874 14.3906 6.02734 14.3011 6.12296 14.1896L14.3001 4.64962C14.4582 4.46498 14.5451 4.22986 14.5451 3.98675H14.5453Z" fill="#D249FC"/>
<path d="M14.5453 3.62996V1.01836C14.5453 0.455822 14.0895 0 13.5269 0H10.2541C10.2059 0 10.1578 0.00357533 10.1099 0.0107255L0.874352 1.32939C0.631762 1.36422 0.409853 1.48532 0.249307 1.67049C0.0887614 1.85566 0.00033675 2.09249 0.000244141 2.33757V6.2555C0.000244141 6.81858 0.456067 7.2744 1.01914 7.27386L5.65299 7.27279C5.76239 7.27279 5.87125 7.2551 5.97474 7.22024L13.8492 4.59577C14.0519 4.52805 14.2282 4.3983 14.3531 4.22488C14.4781 4.05146 14.5453 3.84315 14.5453 3.62942V3.62996Z" fill="url(#paint0_linear_5452_16842)"/>
<path d="M15.9996 14.9812V6.49058C15.9996 6.08302 15.7567 5.71515 15.3829 5.55481L6.01014 1.53713C5.88336 1.48292 5.7469 1.455 5.60901 1.45508H1.01914C0.456067 1.45508 0.000244141 1.9109 0.000244141 2.4729V6.9641C0.000244141 7.16574 0.0597693 7.36201 0.171848 7.52932L5.52214 15.5464C5.7109 15.8296 6.02891 15.9996 6.36943 15.9996H14.9818C15.5438 15.9996 15.9996 15.5432 15.9996 14.9812Z" fill="url(#paint1_linear_5452_16842)"/>
<path d="M12.9999 3H3V12.9996H13L12.9999 3Z" fill="black"/>
<path d="M8.75866 4.26953C8.50533 4.26945 8.27733 4.3157 8.07466 4.40828C7.87374 4.50086 7.7157 4.63003 7.60054 4.79578C7.48704 4.96195 7.43037 5.15161 7.43054 5.36478C7.43045 5.5377 7.46529 5.69491 7.53504 5.83641C7.60479 5.97569 7.70731 6.09597 7.83379 6.18691C7.96479 6.27966 8.11845 6.34266 8.29479 6.37591L9.04679 6.51991C9.17062 6.54449 9.26745 6.59691 9.33729 6.67716C9.40887 6.75582 9.4447 6.85366 9.44479 6.97066C9.44479 7.06482 9.41595 7.14861 9.35828 7.22203C9.30078 7.29545 9.22054 7.35307 9.11754 7.39491C9.0162 7.43507 8.90079 7.45507 8.77129 7.45491C8.63529 7.45491 8.51291 7.43266 8.40466 7.38716C8.29816 7.34174 8.21354 7.27891 8.15079 7.19866C8.09011 7.11793 8.05785 7.01939 8.05904 6.91841H7.34116C7.34466 7.14199 7.40745 7.34103 7.52954 7.51553C7.65187 7.68845 7.82049 7.82286 8.03541 7.91878C8.25016 8.01478 8.49203 8.06282 8.76103 8.06291C9.03153 8.06291 9.27416 8.01541 9.48904 7.91928C9.70379 7.82328 9.87141 7.68966 9.99191 7.51841C10.1126 7.34541 10.173 7.14882 10.1732 6.92866C10.1731 6.75074 10.1346 6.58666 10.0578 6.43641C9.98131 6.28495 9.86886 6.15456 9.73029 6.05666C9.5907 5.95532 9.4292 5.88807 9.24579 5.85491L8.51729 5.71866C8.40195 5.69607 8.31195 5.65066 8.24728 5.58241C8.18266 5.51278 8.15066 5.42678 8.15066 5.32566C8.15066 5.23816 8.17691 5.16166 8.22929 5.09516C8.2817 5.02682 8.35512 4.97349 8.44954 4.93516C8.54379 4.89678 8.64766 4.87741 8.76641 4.87741C8.88508 4.87741 8.99149 4.89741 9.08566 4.93741C9.18008 4.97591 9.25349 5.03011 9.30591 5.10003C9.35999 5.16986 9.38699 5.25011 9.38691 5.34078H10.1023C10.1005 5.13136 10.041 4.94632 9.92404 4.78566C9.80895 4.62316 9.64928 4.49649 9.44503 4.40566C9.24241 4.31503 9.01204 4.26953 8.75866 4.26953ZM4.24904 4.33253V7.99991H4.96391V6.61416H5.80229C6.06412 6.61416 6.29374 6.56699 6.49116 6.47266C6.69033 6.37666 6.84316 6.2422 6.94966 6.06928C7.05791 5.89641 7.11216 5.69203 7.11216 5.46678C7.11208 5.24153 7.05874 5.04328 6.95216 4.87203C6.84724 4.70095 6.69699 4.56832 6.50141 4.47416C6.30591 4.37974 6.07987 4.33253 5.82329 4.33253H4.24904ZM4.96341 4.92728H5.77591C5.89641 4.92728 6.0012 4.95007 6.09029 4.99566C6.18112 5.03916 6.25095 5.10195 6.29979 5.18403C6.34879 5.26416 6.37304 5.36216 6.37304 5.47216C6.37304 5.58232 6.34862 5.67932 6.29979 5.76316C6.25104 5.84541 6.18104 5.90853 6.09029 5.95403C6.00112 5.99778 5.89633 6.01961 5.77591 6.01953H4.96341V4.92728ZM4.24854 11.0002V11.7502H8.24854V11.0002H4.24854Z" fill="white"/>
</g>
<defs>
<linearGradient id="paint0_linear_5452_16842" x1="14.0947" y1="-0.179247" x2="0.68848" y2="6.03638" gradientUnits="userSpaceOnUse">
<stop offset="0.16" stop-color="#D249FC"/>
<stop offset="0.55" stop-color="#FF2D90"/>
</linearGradient>
<linearGradient id="paint1_linear_5452_16842" x1="0.995723" y1="1.05564" x2="15.6717" y2="15.7318" gradientUnits="userSpaceOnUse">
<stop offset="0.3" stop-color="#FF2D90"/>
<stop offset="0.7" stop-color="#7256FF"/>
</linearGradient>
<clipPath id="clip0_5452_16842">
<rect width="16" height="16" fill="white"/>
</clipPath>
</defs>
</svg>
