<svg width="16" height="16" viewBox="0 0 16 16" fill="none" xmlns="http://www.w3.org/2000/svg">
<mask id="mask0_5461_16959" style="mask-type:alpha" maskUnits="userSpaceOnUse" x="0" y="0" width="16" height="16">
<path fill-rule="evenodd" clip-rule="evenodd" d="M11.3459 15.8493C11.4732 15.8989 11.6094 15.9218 11.746 15.9165C11.8825 15.9113 12.0165 15.878 12.1397 15.8188L15.4338 14.2336C15.6034 14.152 15.7466 14.0241 15.8468 13.8647C15.9469 13.7052 16.0001 13.5208 16 13.3325V2.58464C16.0001 2.39634 15.947 2.21186 15.8468 2.05242C15.7466 1.89298 15.6035 1.76506 15.4338 1.68339L12.1397 0.0985139C11.9535 0.00895213 11.7442 -0.0205358 11.5405 0.0141311C11.3369 0.048798 11.1491 0.145906 11.003 0.292014L4.69679 6.04526L1.95004 3.96014C1.82612 3.86611 1.6732 3.8184 1.51779 3.8253C1.36238 3.83219 1.21428 3.89325 1.09917 3.99789L0.21817 4.79926C0.149513 4.86171 0.0946465 4.9378 0.0570791 5.02266C0.0195116 5.10752 7.07861e-05 5.19929 1.92945e-07 5.2921C-7.04002e-05 5.3849 0.0192308 5.4767 0.0566691 5.56162C0.0941074 5.64654 0.148858 5.72271 0.21742 5.78526L2.59954 7.95851L0.217545 10.1319C0.149021 10.1944 0.0943025 10.2706 0.0568875 10.3555C0.0194725 10.4404 0.000183783 10.5322 0.000254369 10.625C0.000324955 10.7178 0.0197532 10.8095 0.0572974 10.8944C0.0948416 10.9792 0.149676 11.0553 0.218295 11.1178L1.09929 11.9191C1.21439 12.0238 1.36248 12.0849 1.51789 12.0918C1.6733 12.0987 1.82623 12.051 1.95017 11.957L4.69692 9.87201L11.0032 15.6251C11.1008 15.7227 11.2174 15.799 11.3459 15.8493ZM12.0024 4.32639L7.21755 7.95851L12.0025 11.5908L12.0024 4.32639Z" fill="white"/>
</mask>
<g mask="url(#mask0_5461_16959)">
<path d="M15.4338 1.68618L12.1371 0.0986764C11.9509 0.00899988 11.7414 -0.0205505 11.5377 0.0141189C11.3339 0.0487884 11.146 0.145961 11 0.292176L0.207707 10.1321C0.139132 10.1946 0.084367 10.2707 0.0469188 10.3556C0.00947068 10.4406 -0.00983603 10.5324 -0.00976543 10.6252C-0.00969483 10.718 0.00975152 10.8097 0.0473288 10.8946C0.0849061 10.9794 0.139786 11.0555 0.208457 11.1179L1.08996 11.9193C1.20509 12.0241 1.35328 12.0852 1.5088 12.0922C1.66432 12.0991 1.81735 12.0513 1.94133 11.9572L14.9377 2.0978C15.3737 1.76705 16 2.07805 16 2.6253V2.58705C16 2.39881 15.9468 2.21439 15.8467 2.055C15.7465 1.89561 15.6034 1.76785 15.4338 1.68618Z" fill="#0065A9"/>
<g filter="url(#filter0_d_5461_16959)">
<path d="M15.4338 14.231L12.1371 15.8182C11.9509 15.9079 11.7414 15.9375 11.5377 15.9029C11.334 15.8683 11.146 15.7712 11 15.625L0.207707 5.78499C0.139132 5.72246 0.084367 5.64631 0.0469188 5.5614C0.00947068 5.47648 -0.00983603 5.38469 -0.00976543 5.29189C-0.00969483 5.19909 0.00975152 5.10732 0.0473288 5.02247C0.0849061 4.93761 0.139786 4.86154 0.208457 4.79912L1.08996 3.99774C1.20509 3.89296 1.35328 3.8318 1.5088 3.82488C1.66432 3.81796 1.81735 3.86572 1.94133 3.95987L14.9377 13.8191C15.3737 14.15 16 13.839 16 13.2917V13.33C16 13.5182 15.9468 13.7027 15.8467 13.862C15.7465 14.0214 15.6034 14.1493 15.4338 14.231Z" fill="#007ACC"/>
</g>
<g filter="url(#filter1_d_5461_16959)">
<path d="M12.1372 15.8189C11.951 15.9084 11.7415 15.9379 11.5378 15.9032C11.3341 15.8685 11.1462 15.7714 11 15.6253C11.369 15.9943 12 15.7329 12 15.211V0.706166C12 0.184291 11.369 -0.0770844 11 0.292041C11.1462 0.145939 11.3341 0.0488367 11.5378 0.0141515C11.7415 -0.0205338 11.951 0.00891051 12.1372 0.0984156L15.4334 1.68367C15.6031 1.76529 15.7463 1.89318 15.8466 2.05262C15.9468 2.21207 16 2.39658 16 2.58492V13.3327C16 13.521 15.9468 13.7055 15.8466 13.865C15.7463 14.0244 15.6031 14.1523 15.4334 14.2339L12.1372 15.8189Z" fill="#1F9CF0"/>
</g>
<path opacity="0.25" fill-rule="evenodd" clip-rule="evenodd" d="M11.3362 15.8493C11.4635 15.8989 11.5997 15.9218 11.7362 15.9165C11.8727 15.9113 12.0067 15.878 12.1298 15.8188L15.424 14.2336C15.5936 14.152 15.7368 14.024 15.837 13.8646C15.9371 13.7052 15.9903 13.5207 15.9902 13.3324V2.58464C15.9903 2.39634 15.9371 2.21186 15.837 2.05242C15.7368 1.89298 15.5936 1.76506 15.424 1.68339L12.1298 0.0985139C11.9437 0.00895213 11.7343 -0.0205358 11.5307 0.0141311C11.3271 0.048798 11.1392 0.145906 10.9932 0.292014L4.68697 6.04526L1.94022 3.96026C1.81629 3.86623 1.66337 3.81853 1.50796 3.82542C1.35255 3.83232 1.20445 3.89338 1.08934 3.99801L0.208344 4.79939C0.139704 4.86184 0.0848527 4.93793 0.0472964 5.0228C0.00973997 5.10766 -0.00969484 5.19942 -0.00976543 5.29222C-0.00983602 5.38502 0.00945917 5.47682 0.0468864 5.56174C0.0843137 5.64666 0.139049 5.72283 0.207594 5.78539L2.58972 7.95851L0.207719 10.1318C0.139157 10.1943 0.0844061 10.2705 0.0469679 10.3554C0.00952957 10.4403 -0.00977163 10.5321 -0.00970103 10.6249C-0.00963044 10.7177 0.00981039 10.8095 0.0473778 10.8944C0.0849453 10.9792 0.139812 11.0553 0.208469 11.1178L1.08947 11.9191C1.20456 12.0238 1.35265 12.0849 1.50806 12.0918C1.66347 12.0987 1.8164 12.051 1.94034 11.957L4.68722 9.87189L10.9935 15.6251C11.091 15.7227 11.2077 15.799 11.3362 15.8493ZM11.9927 4.32626L7.20772 7.95851L11.9927 11.5906V4.32626Z" fill="url(#paint0_linear_5461_16959)"/>
</g>
<defs>
<filter id="filter0_d_5461_16959" x="-1.05152" y="2.78247" width="18.0933" height="14.1772" filterUnits="userSpaceOnUse" color-interpolation-filters="sRGB">
<feFlood flood-opacity="0" result="BackgroundImageFix"/>
<feColorMatrix in="SourceAlpha" type="matrix" values="0 0 0 0 0 0 0 0 0 0 0 0 0 0 0 0 0 0 127 0" result="hardAlpha"/>
<feOffset/>
<feGaussianBlur stdDeviation="0.520875"/>
<feColorMatrix type="matrix" values="0 0 0 0 0 0 0 0 0 0 0 0 0 0 0 0 0 0 0.25 0"/>
<feBlend mode="overlay" in2="BackgroundImageFix" result="effect1_dropShadow_5461_16959"/>
<feBlend mode="normal" in="SourceGraphic" in2="effect1_dropShadow_5461_16959" result="shape"/>
</filter>
<filter id="filter1_d_5461_16959" x="9.95825" y="-1.04175" width="7.0835" height="18.0015" filterUnits="userSpaceOnUse" color-interpolation-filters="sRGB">
<feFlood flood-opacity="0" result="BackgroundImageFix"/>
<feColorMatrix in="SourceAlpha" type="matrix" values="0 0 0 0 0 0 0 0 0 0 0 0 0 0 0 0 0 0 127 0" result="hardAlpha"/>
<feOffset/>
<feGaussianBlur stdDeviation="0.520875"/>
<feColorMatrix type="matrix" values="0 0 0 0 0 0 0 0 0 0 0 0 0 0 0 0 0 0 0.25 0"/>
<feBlend mode="overlay" in2="BackgroundImageFix" result="effect1_dropShadow_5461_16959"/>
<feBlend mode="normal" in="SourceGraphic" in2="effect1_dropShadow_5461_16959" result="shape"/>
</filter>
<linearGradient id="paint0_linear_5461_16959" x1="7.99022" y1="-0.000236118" x2="7.99022" y2="15.9173" gradientUnits="userSpaceOnUse">
<stop stop-color="white"/>
<stop offset="1" stop-color="white" stop-opacity="0"/>
</linearGradient>
</defs>
</svg>
