<svg width="16" height="16" viewBox="0 0 16 16" fill="none" xmlns="http://www.w3.org/2000/svg">
<g clip-path="url(#clip0_5452_16848)">
<path d="M1.45508 12.0133L1.45558 14.9821C1.45558 15.1158 1.48192 15.2482 1.53309 15.3717C1.58427 15.4952 1.65928 15.6075 1.75383 15.702C1.84839 15.7965 1.96064 15.8715 2.08418 15.9227C2.20772 15.9738 2.34012 16.0001 2.47383 16.0001H5.35045C5.49731 16 5.64242 15.9682 5.77584 15.9069C5.90926 15.8455 6.02784 15.756 6.12345 15.6446L14.3005 6.10458C14.4585 5.92003 14.5454 5.68506 14.5455 5.44208V2.47333C14.5455 2.33962 14.5191 2.20721 14.468 2.08367C14.4168 1.96013 14.3418 1.84788 14.2473 1.75332C14.1528 1.65877 14.0405 1.58376 13.917 1.53259C13.7934 1.48142 13.661 1.45508 13.5273 1.45508H10.6503C10.5035 1.4551 10.3583 1.48688 10.2249 1.54824C10.0914 1.6096 9.97283 1.69909 9.8772 1.81058L1.7002 11.3506C1.54209 11.5352 1.45506 11.7703 1.45508 12.0133Z" fill="#00D886"/>
<path d="M1.45496 12.3703V14.9819C1.45496 15.252 1.56223 15.5109 1.75316 15.7019C1.9441 15.8928 2.20306 16.0001 2.47308 16.0001H5.74608C5.79425 16.0001 5.84225 15.9967 5.89008 15.9899L15.1256 14.6707C15.3682 14.636 15.5902 14.515 15.7508 14.3298C15.9113 14.1447 15.9997 13.9078 15.9997 13.6627V9.74469C15.9997 9.18219 15.5438 8.72631 14.9813 8.72656L10.347 8.72769C10.2376 8.72769 10.1288 8.74519 10.0252 8.77994L2.15108 11.4047C1.9484 11.4723 1.77211 11.602 1.64717 11.7753C1.52222 11.9487 1.45494 12.1569 1.45483 12.3706L1.45496 12.3703Z" fill="url(#paint0_linear_5452_16848)"/>
<path d="M0.000244141 1.01813V9.51C0.000329855 9.70922 0.0588235 9.90404 0.168487 10.0704C0.278151 10.2367 0.434172 10.3672 0.617244 10.4458L9.98962 14.4625C10.1164 14.5167 10.2529 14.5447 10.3907 14.5449H14.9815C15.2515 14.5449 15.5105 14.4376 15.7014 14.2467C15.8924 14.0557 15.9996 13.7968 15.9996 13.5267V9.0355C15.9996 8.83431 15.94 8.63762 15.8284 8.47025L10.4777 0.453375C10.3848 0.313997 10.2589 0.199722 10.1112 0.120698C9.96346 0.0416726 9.79852 0.000341994 9.63099 0.000375008L1.01849 7.67412e-09C0.884782 -1.64089e-05 0.752375 0.0263061 0.628836 0.0774643C0.505297 0.128623 0.393045 0.203614 0.29849 0.298158C0.203935 0.392701 0.12893 0.504944 0.0777562 0.628477C0.0265829 0.752009 0.00024414 0.884412 0.000244141 1.01813Z" fill="url(#paint1_linear_5452_16848)"/>
<path d="M12.9999 3H3.00024V12.9996H12.9999V3Z" fill="black"/>
<path d="M9.32065 4.17773C8.9614 4.17773 8.6362 4.26257 8.34503 4.43223C8.05395 4.60023 7.82545 4.83248 7.65953 5.12898C7.49328 5.42373 7.41011 5.75332 7.41003 6.11773C7.41011 6.48207 7.49328 6.81236 7.65953 7.10861C7.82578 7.40336 8.05378 7.63548 8.34503 7.80536C8.63628 7.97311 8.96165 8.05786 9.32065 8.05786C9.62415 8.05786 9.90365 8.00098 10.1573 7.88848C10.4109 7.77598 10.621 7.61886 10.7892 7.41686C10.958 7.21522 11.075 6.97533 11.1299 6.71811H10.3632C10.3132 6.85386 10.2381 6.97353 10.138 7.07711C10.0398 7.17878 9.92111 7.25723 9.78203 7.31248C9.64278 7.36773 9.49003 7.39561 9.32578 7.39561C9.10415 7.39561 8.9049 7.34011 8.7264 7.22936C8.54765 7.11853 8.40736 6.96669 8.30553 6.77386C8.20553 6.57936 8.15549 6.36065 8.1554 6.11773C8.1554 5.87473 8.2054 5.65669 8.3054 5.46361C8.4074 5.26894 8.54774 5.11615 8.7264 5.00523C8.9049 4.89448 9.10415 4.83998 9.32565 4.83998C9.4899 4.83998 9.64265 4.86786 9.78203 4.92311C9.91671 4.97556 10.0382 5.05693 10.138 5.16148C10.238 5.26323 10.3131 5.38186 10.3632 5.51736H11.1299C11.0754 5.26065 10.9583 5.02137 10.7892 4.82073C10.6212 4.61698 10.4109 4.45961 10.1573 4.34698C9.90365 4.23448 9.62415 4.17773 9.32065 4.17773ZM4.27428 4.24161V7.99286H5.00553V6.57611H5.8624C6.13032 6.57603 6.36528 6.52769 6.56728 6.43111C6.77103 6.33298 6.9279 6.19523 7.03678 6.01836C7.1474 5.84148 7.20303 5.63211 7.20303 5.40173C7.20303 5.17136 7.14778 4.96948 7.03878 4.79423C6.93178 4.61907 6.77832 4.48323 6.5784 4.38673C6.37828 4.29011 6.14628 4.24173 5.88365 4.24173L4.27428 4.24161ZM5.00553 4.85011H5.83603C5.95936 4.85019 6.06653 4.87353 6.15753 4.92011C6.24663 4.96131 6.32122 5.02845 6.37153 5.11273C6.42153 5.19473 6.44653 5.29523 6.44653 5.40786C6.44653 5.52036 6.42153 5.6194 6.37153 5.70498C6.32161 5.78907 6.25028 5.85432 6.15753 5.90073C6.06645 5.9454 5.95928 5.96773 5.83603 5.96773H5.00553V4.85011ZM4.24878 10.9999V11.7502H8.24878V10.9999H4.24878Z" fill="white"/>
</g>
<defs>
<linearGradient id="paint0_linear_5452_16848" x1="1.90551" y1="16.1794" x2="15.3117" y2="9.96391" gradientUnits="userSpaceOnUse">
<stop offset="0.1" stop-color="#00D886"/>
<stop offset="0.59" stop-color="#F0EB18"/>
</linearGradient>
<linearGradient id="paint1_linear_5452_16848" x1="15.0044" y1="14.9439" x2="0.328482" y2="0.26799" gradientUnits="userSpaceOnUse">
<stop offset="0.3" stop-color="#F0EB18"/>
<stop offset="0.7" stop-color="#00C4F4"/>
</linearGradient>
<clipPath id="clip0_5452_16848">
<rect width="16" height="16" fill="white"/>
</clipPath>
</defs>
</svg>
