<svg width="16" height="16" viewBox="0 0 16 16" fill="none" xmlns="http://www.w3.org/2000/svg">
<g clip-path="url(#clip0_5462_16960)">
<path d="M1.45483 12.0133L1.45521 14.9821C1.45521 15.1158 1.48154 15.2482 1.53271 15.3717C1.58388 15.4952 1.65888 15.6074 1.75342 15.702C1.84796 15.7965 1.9602 15.8715 2.08372 15.9226C2.20725 15.9738 2.33964 16.0001 2.47333 16.0001H5.34996C5.49684 16.0001 5.64197 15.9683 5.77542 15.9069C5.90886 15.8456 6.02746 15.7561 6.12308 15.6446L14.3002 6.10458C14.4583 5.92003 14.5452 5.68506 14.5452 5.44208V2.47333C14.5452 2.33963 14.5189 2.20723 14.4678 2.0837C14.4166 1.96017 14.3416 1.84792 14.2471 1.75337C14.1526 1.65882 14.0403 1.58381 13.9168 1.53263C13.7933 1.48145 13.6609 1.45509 13.5272 1.45508H10.65C10.5031 1.4551 10.3579 1.48688 10.2245 1.54824C10.0911 1.6096 9.97246 1.69909 9.87683 1.81058L1.69996 11.3506C1.54184 11.5352 1.45495 11.7703 1.45496 12.0133H1.45483Z" fill="#F0EB18"/>
<path d="M1.45483 12.3701V14.982C1.45483 15.544 1.91077 15.9999 2.47272 15.9999H5.74578C5.79441 15.9999 5.84248 15.9965 5.88997 15.9897L15.1256 14.6709C15.3684 14.6362 15.5905 14.5151 15.7511 14.3298C15.9118 14.1445 16.0001 13.9073 15.9998 13.6621V9.74444C15.9998 9.18193 15.5439 8.72599 14.9814 8.72656L10.3468 8.7277C10.2373 8.7277 10.1285 8.7448 10.0248 8.77956L2.15071 11.4046C1.94819 11.4725 1.77209 11.6023 1.64724 11.7756C1.52239 11.9489 1.45509 12.1565 1.45483 12.3701Z" fill="url(#paint0_linear_5462_16960)"/>
<path d="M0.000488441 1.01788V9.50973C0.000488441 9.91665 0.243275 10.2848 0.617145 10.4455L9.98952 14.4624C10.116 14.5165 10.2528 14.5444 10.3907 14.5444H14.9815C15.544 14.5444 15.9999 14.0885 15.9999 13.5265V9.03555C15.9999 8.8338 15.9401 8.63718 15.8284 8.47019L10.4779 0.45309C10.3848 0.313839 10.2589 0.199661 10.1111 0.12064C9.96344 0.0416188 9.79855 0.000185225 9.63104 1.59741e-07H1.01837C0.884679 -7.47583e-05 0.752284 0.0262033 0.628755 0.0773301C0.505226 0.128457 0.392986 0.203431 0.298452 0.297965C0.203918 0.392499 0.128944 0.504737 0.0778175 0.628266C0.0266907 0.751795 0.000413523 0.88419 0.000488441 1.01788Z" fill="url(#paint1_linear_5462_16960)"/>
<path d="M12.9999 3H3.00024V12.9996H12.9999V3Z" fill="black"/>
<path d="M5.30955 6.99012L4.70404 4.25187H3.94604L4.85154 8.00288H5.68217L6.32242 5.278L6.95479 8.00288H7.78792L8.69892 4.25187H7.95679L7.36992 6.99012L6.69479 4.25187H5.95529L5.30955 6.99012ZM9.55554 7.91988C9.76629 8.01813 10.0074 8.06729 10.2789 8.06738C10.5506 8.06738 10.7918 8.01729 11.0025 7.91712C11.2132 7.81712 11.3766 7.67962 11.4928 7.50462C11.6107 7.32762 11.6697 7.12842 11.6697 6.907C11.6697 6.72642 11.6295 6.56029 11.549 6.40863C11.4689 6.25494 11.3532 6.12264 11.2115 6.02275C11.0686 5.91733 10.9052 5.84592 10.7212 5.8085L10.0834 5.66913C9.96734 5.64079 9.87534 5.59258 9.80742 5.5245C9.74134 5.45642 9.70829 5.37067 9.70829 5.26725C9.70829 5.17625 9.73242 5.09679 9.78067 5.02887C9.82892 4.95912 9.89588 4.90554 9.98154 4.86812C10.069 4.82887 10.17 4.80921 10.2843 4.80912C10.3985 4.80912 10.4994 4.82963 10.587 4.87063C10.6763 4.90988 10.745 4.96612 10.7933 5.03937C10.8415 5.11079 10.8655 5.19212 10.8655 5.28337H11.597C11.5952 5.06912 11.538 4.87979 11.4255 4.71537C11.3147 4.54904 11.1593 4.41954 10.9593 4.32687C10.7593 4.234 10.528 4.1875 10.276 4.1875C10.0242 4.1875 9.79917 4.23571 9.60092 4.33212C9.40275 4.42679 9.24825 4.55983 9.13742 4.73125C9.02675 4.90108 8.97142 5.09308 8.97142 5.30725C8.97142 5.48417 9.008 5.64317 9.08117 5.78425C9.15458 5.92551 9.26012 6.04757 9.38929 6.14062C9.52154 6.23538 9.67696 6.30237 9.85555 6.34162L10.5174 6.489C10.6443 6.5195 10.7434 6.574 10.8148 6.6525C10.888 6.73117 10.9245 6.83033 10.9245 6.95C10.9258 7.04208 10.8977 7.13216 10.8442 7.20712C10.7924 7.28212 10.7183 7.34108 10.6219 7.384C10.5272 7.42525 10.4218 7.4455 10.2895 7.4455C10.1574 7.4455 10.0404 7.42229 9.93867 7.37587C9.83692 7.32937 9.75742 7.26508 9.70017 7.183C9.64309 7.10083 9.61454 7.00529 9.61454 6.89637H8.88042C8.88392 7.12679 8.94463 7.33042 9.06254 7.50725C9.18221 7.68408 9.34654 7.82163 9.55554 7.91988ZM4.24842 10.9996H8.24842V11.7496H4.24842V10.9996Z" fill="white"/>
</g>
<defs>
<linearGradient id="paint0_linear_5462_16960" x1="1.90557" y1="16.1791" x2="15.3118" y2="9.96354" gradientUnits="userSpaceOnUse">
<stop offset="0.22" stop-color="#F0EB18"/>
<stop offset="0.59" stop-color="#00C4F4"/>
</linearGradient>
<linearGradient id="paint1_linear_5462_16960" x1="15.0047" y1="14.9434" x2="0.328727" y2="0.26767" gradientUnits="userSpaceOnUse">
<stop offset="0.19" stop-color="#00C4F4"/>
<stop offset="0.83" stop-color="#007DFE"/>
</linearGradient>
<clipPath id="clip0_5462_16960">
<rect width="16" height="16" fill="white"/>
</clipPath>
</defs>
</svg>
