<svg width="48" height="75" viewBox="0 0 48 75" fill="none" xmlns="http://www.w3.org/2000/svg">
<g clip-path="url(#clip0_947_4780)">
<path d="M24.5142 2.93647C24.83 2.74258 25.0405 2.3908 25.0405 1.99469C25.0405 1.38254 24.5447 0.886719 23.9325 0.886719C23.3203 0.886719 22.8245 1.38254 22.8245 1.99469C22.8245 2.39357 23.035 2.74258 23.3508 2.93647L21.7636 6.11082C21.5116 6.61495 20.8579 6.75899 20.4175 6.40721L17.9494 4.43224C18.0879 4.24666 18.171 4.01675 18.171 3.76746C18.171 3.1553 17.6752 2.65948 17.0631 2.65948C16.4509 2.65948 15.9551 3.1553 15.9551 3.76746C15.9551 4.37961 16.4509 4.87543 17.0631 4.87543H17.0824L18.3483 11.8391C18.5007 12.6811 19.2347 13.296 20.0934 13.296H27.7716C28.6276 13.296 29.3616 12.6839 29.5167 11.8391L30.7826 4.87543H30.802C31.4141 4.87543 31.9099 4.37961 31.9099 3.76746C31.9099 3.1553 31.4141 2.65948 30.802 2.65948C30.1898 2.65948 29.694 3.1553 29.694 3.76746C29.694 4.01675 29.7771 4.24666 29.9156 4.43224L27.4476 6.40721C27.0071 6.75899 26.3534 6.61495 26.1014 6.11082L24.5142 2.93647Z" fill="#BAB9B3"/>
</g>
<g clip-path="url(#clip1_947_4780)">
</g>
<rect x="1.32957" y="11.0796" width="45.2054" height="45.3398" rx="22.6027" stroke="#BAB9B3" stroke-width="2.65914"/>
<g filter="url(#filter0_d_947_4780)">
<rect x="12.4258" y="47.749" width="23.0122" height="23.0122" rx="11.5061" fill="#DAE5EB"/>
</g>
<rect x="17.2061" y="52.4883" width="13.8073" height="13.8073" rx="6.90365" fill="#7992A6"/>
<path d="M21.0787 62.7617L21.0679 61.5859L23.8725 59.0079C24.6061 58.3067 24.9944 57.8752 24.9944 57.2604C24.9944 56.57 24.4658 56.1385 23.7539 56.1385C23.0204 56.1385 22.5458 56.6024 22.5458 57.3467H21.0032C20.9924 55.8149 22.1251 54.8441 23.7755 54.8441C25.4474 54.8441 26.5585 55.7933 26.5585 57.1525C26.5585 58.037 26.127 58.7705 24.5198 60.2268L23.3332 61.381V61.4241H26.6664V62.7617H21.0787Z" fill="#F7F7F7"/>
<defs>
<filter id="filter0_d_947_4780" x="9.66432" y="45.908" width="28.5346" height="28.5346" filterUnits="userSpaceOnUse" color-interpolation-filters="sRGB">
<feFlood flood-opacity="0" result="BackgroundImageFix"/>
<feColorMatrix in="SourceAlpha" type="matrix" values="0 0 0 0 0 0 0 0 0 0 0 0 0 0 0 0 0 0 127 0" result="hardAlpha"/>
<feOffset dy="0.920487"/>
<feGaussianBlur stdDeviation="1.38073"/>
<feComposite in2="hardAlpha" operator="out"/>
<feColorMatrix type="matrix" values="0 0 0 0 0.482353 0 0 0 0 0.588235 0 0 0 0 0.694118 0 0 0 1 0"/>
<feBlend mode="normal" in2="BackgroundImageFix" result="effect1_dropShadow_947_4780"/>
<feBlend mode="normal" in="SourceGraphic" in2="effect1_dropShadow_947_4780" result="shape"/>
</filter>
<clipPath id="clip0_947_4780">
<rect width="15.9549" height="14.1821" fill="white" transform="translate(15.9551)"/>
</clipPath>
<clipPath id="clip1_947_4780">
<rect y="9.75" width="47.8646" height="47.9989" rx="23.9323" fill="white"/>
</clipPath>
</defs>
</svg>
