<svg width="28" height="28" viewBox="0 0 28 28" fill="none" xmlns="http://www.w3.org/2000/svg">
<rect width="28" height="28" rx="8" fill="#383A3B"/>
<ellipse cx="20.1897" cy="5.48259" rx="3.54709" ry="3.48259" fill="#F1070A"/>
<path d="M17.4447 23.6C17.1957 24.3018 16.7299 24.9101 16.1126 25.3402C15.4954 25.7704 14.7569 26.0009 14 26C13.2431 26.0009 12.5046 25.7704 11.8874 25.3402C11.2701 24.9101 10.8043 24.3018 10.5553 23.6H17.4447ZM14 2C14.8771 2 15.6374 2.45053 16.0673 3.12734C15.6562 3.81935 15.4204 4.62399 15.4204 5.48281C15.4205 8.06884 17.5559 10.1656 20.1899 10.1656C20.9578 10.1656 21.6825 9.98545 22.3252 9.66875C22.4748 10.2889 22.5556 10.9353 22.5556 11.6V17.1031L24.6419 19.1516C24.8712 19.3766 24.9999 19.6818 25 20V21.2C25 21.5183 24.8711 21.8234 24.6419 22.0484C24.4127 22.2735 24.1019 22.4 23.7778 22.4H4.22222C3.89807 22.4 3.58728 22.2735 3.35807 22.0484C3.12886 21.8234 3 21.5183 3 21.2V20C3.00007 19.6818 3.12885 19.3766 3.35807 19.1516L5.44444 17.1031V11.6C5.44444 7.73977 8.11467 4.48873 11.7322 3.50937C12.0903 2.62378 12.966 2 14 2Z" fill="#C4C5C6"/>
</svg>
