<svg width="120" height="36" viewBox="0 0 120 36" fill="none" xmlns="http://www.w3.org/2000/svg">
<path d="M37.4115 35.1262H29.6914V4.24561L37.1542 4.24561L37.4115 35.1262Z" fill="#F1070A"/>
<path d="M87.0539 16.3697L91.3194 10.417H77.1014C71.3782 10.8448 68.1588 13.4135 68.1588 17.2551C68.1588 22.0371 70.0278 23.4727 75.1399 25.0187L82.781 26.5143C84.9826 26.939 84.9005 29.152 82.4819 29.152H69.008V35.1207H81.5845C87.6557 34.7793 90.9508 33.7432 91.3194 27.7515C91.5257 24.3984 88.9451 21.9176 83.5267 20.3006L76.6318 18.9552C74.4721 18.4658 74.7714 16.3697 76.8736 16.3697H87.0539Z" fill="#F1070A"/>
<path d="M102.259 4.25342V10.3994H110.101C113.468 10.4899 115.641 10.867 117.51 13.033C119.465 15.2993 120 17.4314 120 19.9598V35.12H112.188V19.9598C112.114 18.1786 111.211 16.7912 109.265 16.7912H102.245V35.079H94.4189V4.25342H102.259Z" fill="#F1070A"/>
<path d="M80.7514 3.62988L84.5527 3.67813L81.4495 5.87354L82.5784 9.50342L79.5316 7.2306L76.4279 9.42602L77.3361 6.74457C73.2817 7.79714 70.2056 9.23292 67.4357 11.1806C66.0305 12.1687 64.7023 13.2896 63.3635 14.5622C64.3335 16.0739 64.9006 18.1042 65.2312 20.8193V35.1754H48.6681C43.9545 35.0059 40.6594 33.3896 40.6594 29.7376C40.7294 26.1953 42.5724 24.5967 46.3244 21.8431L54.2647 16.3827H41.251V10.4217L52.5583 10.4443C55.562 10.588 57.8787 10.9324 59.6658 11.631C65.566 7.65889 71.3197 6.26173 77.4286 5.66144L74.6014 3.55247L78.4022 3.60022L79.6225 0L80.7514 3.62988ZM56.4706 21.9441L56.2947 22.1436L56.2791 22.0934L49.3556 27.4915C48.5287 28.1285 48.9268 29.1295 50.3362 29.1295H57.7091V20.9791L56.4706 21.9441Z" fill="#F1070A"/>
<path d="M8.82388 24.1564C9.24871 27.0588 10.6083 28.0621 14.0491 28.2311H26.6033V35.0521H14.3305C7.83159 34.4319 4.15961 33.0857 2.13158 29.9194L8.82388 24.1564ZM28.086 4.28662L23.2132 11.0221H14.0491C10.1877 11.428 8.91072 12.7025 8.66707 17.3737V19.3711L0.648874 26.275C0.342203 25.0297 0.134245 23.6141 0 22.0043V16.7168C1.14082 8.00305 4.09596 5.18218 14.0491 4.28662H28.086Z" fill="#F1070A"/>
</svg>
