<svg width="24" height="24" viewBox="0 0 24 24" fill="none" xmlns="http://www.w3.org/2000/svg">
<rect x="3" y="7" width="18" height="10" rx="3" fill="#FFC800"/>
<path d="M16.1132 13.1508H15.3981V14.6735H14.1603V10.3632C14.1603 9.6738 14.3766 9.41602 15.0977 9.41602H16.1132C17.1828 9.41602 17.946 9.93158 17.946 11.1845V11.3823C17.946 12.6353 17.1828 13.1508 16.1132 13.1508ZM15.3981 10.633V12.1077H16.0531C16.4858 12.1077 16.7141 11.808 16.7141 11.3524V11.2145C16.7141 10.7589 16.4858 10.4591 16.0531 10.4591H15.5724C15.4342 10.4591 15.3981 10.4891 15.3981 10.633Z" fill="#2A2B2C"/>
<path d="M12.5438 12.0482L14.1603 14.674H12.7001L11.7807 13.1752L10.8973 14.674H9.52727L11.1137 12.0902L9.95391 10.2078C9.76162 9.89604 9.91185 9.48239 10.2363 9.36849C10.5608 9.25459 10.8973 9.36849 11.1016 9.7042L11.8708 10.9511L12.5739 9.7102C12.7722 9.3625 13.0786 9.26658 13.4031 9.3625C13.7276 9.45841 13.8718 9.87806 13.6675 10.2078L12.5438 12.0482Z" fill="#2A2B2C"/>
<path d="M7.28589 10.639V11.4962H8.92637C9.27489 11.4962 9.4131 11.784 9.4131 12.0238C9.4131 12.2636 9.2809 12.5334 8.92637 12.5334H7.28589V13.4506C7.28589 13.5945 7.32195 13.6244 7.46015 13.6244H9.04054C9.39507 13.6244 9.52727 13.8942 9.52727 14.14C9.52727 14.3858 9.38907 14.6735 9.04054 14.6735H6.99145C6.27036 14.6735 6.05403 14.4158 6.05403 13.7263V10.3632C6.05403 9.6738 6.27036 9.41602 6.99145 9.41602H8.98045C9.32898 9.41602 9.46718 9.70377 9.46718 9.94956C9.46718 10.1954 9.33498 10.4651 8.98045 10.4651H7.46015C7.32195 10.4651 7.28589 10.4951 7.28589 10.639Z" fill="#2A2B2C"/>
</svg>
