<svg width="24" height="24" viewBox="0 0 24 24" fill="none" xmlns="http://www.w3.org/2000/svg">
<path d="M20 12C20 16.4183 16.4183 20 12 20C7.58172 20 4 16.4183 4 12C4 7.58172 7.58172 4 12 4C16.4183 4 20 7.58172 20 12Z" fill="#CCCCCC"/>
<path d="M18 12C18 8.68629 15.3137 6 12 6C8.68629 6 6 8.68629 6 12C6 15.3137 8.68629 18 12 18V20C7.58172 20 4 16.4183 4 12C4 7.58172 7.58172 4 12 4C16.4183 4 20 7.58172 20 12C20 16.4183 16.4183 20 12 20V18C15.3137 18 18 15.3137 18 12Z" fill="#9397A6"/>
<path d="M15.1465 14.002L12.7583 11.6138C12.975 11.1615 13.046 10.6531 12.9614 10.1587C12.8769 9.66436 12.6411 9.20841 12.2864 8.85378C11.3397 7.90707 9.80093 7.90707 8.85423 8.85378C7.90752 9.80049 7.90752 11.3392 8.85423 12.286C9.20885 12.6406 9.6648 12.8765 10.1592 12.961C10.6535 13.0455 11.1619 12.9746 11.6143 12.7579L11.7144 12.858L11.7144 14.002L12.8584 14.002L12.8584 15.1461L15.158 15.1347L15.1465 14.002ZM9.71227 11.4279C9.24034 10.956 9.24034 10.1838 9.71227 9.71183C10.1842 9.2399 10.9564 9.2399 11.4284 9.71183C11.9003 10.1838 11.9003 10.956 11.4284 11.4279C10.9564 11.8998 10.1842 11.8998 9.71227 11.4279Z" fill="#9397A6"/>
</svg>
