<svg width="17" height="17" viewBox="0 0 17 17" fill="none" xmlns="http://www.w3.org/2000/svg">
<path d="M13.8023 14.5295L13.8023 1.77954C13.8019 1.65045 13.7663 1.52392 13.6994 1.41356C13.6324 1.3032 13.5366 1.2132 13.4223 1.15323C13.308 1.09327 13.1795 1.06562 13.0506 1.07326C12.9217 1.0809 12.7974 1.12353 12.691 1.19658L3.48263 7.57158C3.10084 7.83579 3.10084 8.47187 3.48263 8.73679L12.691 15.1118C12.7972 15.1856 12.9216 15.2289 13.0507 15.2369C13.1797 15.245 13.3085 15.2175 13.4231 15.1575C13.5377 15.0975 13.6336 15.0072 13.7004 14.8965C13.7673 14.7858 13.8025 14.6589 13.8023 14.5295Z" fill="#F1070A"/>
</svg>
