<svg width="17" height="17" viewBox="0 0 17 17" fill="none" xmlns="http://www.w3.org/2000/svg">
<path d="M3.19668 1.781L3.19668 14.531C3.19709 14.6601 3.23269 14.7866 3.29966 14.897C3.36663 15.0073 3.46242 15.0973 3.57674 15.1573C3.69106 15.2173 3.81956 15.2449 3.94842 15.2373C4.07729 15.2296 4.20162 15.187 4.30806 15.114L13.5164 8.73896C13.8982 8.47476 13.8982 7.83867 13.5164 7.57376L4.30806 1.19875C4.20185 1.12496 4.07745 1.08169 3.94837 1.07364C3.81929 1.06559 3.69048 1.09306 3.57592 1.15308C3.46136 1.21309 3.36544 1.30336 3.29858 1.41406C3.23172 1.52477 3.19648 1.65168 3.19668 1.781Z" fill="#F1070A"/>
</svg>
