<svg width="26" height="26" viewBox="0 0 26 26" fill="none" xmlns="http://www.w3.org/2000/svg">
<path d="M2.16309 23.7964V4.32642C2.16309 3.7315 2.37509 3.2224 2.79911 2.79911C3.22312 2.37581 3.73222 2.16381 4.32642 2.16309H21.6331C22.228 2.16309 22.7375 2.37509 23.1615 2.79911C23.5855 3.22312 23.7971 3.73222 23.7964 4.32642V17.3064C23.7964 17.9013 23.5848 18.4108 23.1615 18.8348C22.7382 19.2588 22.2287 19.4705 21.6331 19.4698H6.48975L2.16309 23.7964ZM9.81588 15.4135L12.9798 13.4935L16.1436 15.4135L15.3053 11.817L18.1177 9.38321L14.413 9.08575L12.9798 5.6785L11.5465 9.08575L7.84184 9.38321L10.6542 11.817L9.81588 15.4135Z" fill="#C4C5C6"/>
</svg>
