<svg width="26" height="26" viewBox="0 0 26 26" fill="none" xmlns="http://www.w3.org/2000/svg">
<rect width="26" height="26" rx="13" fill="#F1070A"/>
<path d="M10.8327 7.94434H9.38824C8.98937 7.94434 8.66602 8.26769 8.66602 8.66656V17.3332C8.66602 17.7321 8.98937 18.0554 9.38824 18.0554H10.8327C11.2316 18.0554 11.5549 17.7321 11.5549 17.3332V8.66656C11.5549 8.26769 11.2316 7.94434 10.8327 7.94434Z" fill="#F7F7F7"/>
<path d="M16.611 7.94434H15.1666C14.7677 7.94434 14.4443 8.26769 14.4443 8.66656V17.3332C14.4443 17.7321 14.7677 18.0554 15.1666 18.0554H16.611C17.0099 18.0554 17.3332 17.7321 17.3332 17.3332V8.66656C17.3332 8.26769 17.0099 7.94434 16.611 7.94434Z" fill="#F7F7F7"/>
</svg>
