<svg width="38" height="38" viewBox="0 0 38 38" fill="none" xmlns="http://www.w3.org/2000/svg">
<rect width="38" height="38" rx="19" fill="#F1070A"/>
<path d="M15.8327 11.6104H13.7216C13.1386 11.6104 12.666 12.0829 12.666 12.6659V25.3326C12.666 25.9155 13.1386 26.3881 13.7216 26.3881H15.8327C16.4156 26.3881 16.8882 25.9155 16.8882 25.3326V12.6659C16.8882 12.0829 16.4156 11.6104 15.8327 11.6104Z" fill="#F7F7F7"/>
<path d="M24.277 11.6104H22.1659C21.5829 11.6104 21.1104 12.0829 21.1104 12.6659V25.3326C21.1104 25.9155 21.5829 26.3881 22.1659 26.3881H24.277C24.86 26.3881 25.3326 25.9155 25.3326 25.3326V12.6659C25.3326 12.0829 24.86 11.6104 24.277 11.6104Z" fill="#F7F7F7"/>
</svg>
