<svg width="32" height="32" viewBox="0 0 32 32" fill="none" xmlns="http://www.w3.org/2000/svg">
<rect width="32" height="32" rx="16" fill="#F1070A"/>
<path d="M17.4543 8.72701C17.4543 8.34124 17.301 7.97127 17.0283 7.69849C16.7555 7.42571 16.3855 7.27246 15.9997 7.27246C15.614 7.27246 15.244 7.42571 14.9712 7.69849C14.6984 7.97127 14.5452 8.34124 14.5452 8.72701V14.5452H8.72701C8.34124 14.5452 7.97127 14.6984 7.69849 14.9712C7.42571 15.244 7.27246 15.614 7.27246 15.9997C7.27246 16.3855 7.42571 16.7555 7.69849 17.0283C7.97127 17.301 8.34124 17.4543 8.72701 17.4543H14.5452V23.2725C14.5452 23.6582 14.6984 24.0282 14.9712 24.301C15.244 24.5738 15.614 24.727 15.9997 24.727C16.3855 24.727 16.7555 24.5738 17.0283 24.301C17.301 24.0282 17.4543 23.6582 17.4543 23.2725V17.4543H23.2725C23.6582 17.4543 24.0282 17.301 24.301 17.0283C24.5738 16.7555 24.727 16.3855 24.727 15.9997C24.727 15.614 24.5738 15.244 24.301 14.9712C24.0282 14.6984 23.6582 14.5452 23.2725 14.5452H17.4543V8.72701Z" fill="#F2F2F2"/>
</svg>
