<svg width="134" height="134" viewBox="0 0 134 134" fill="none" xmlns="http://www.w3.org/2000/svg">
<g clip-path="url(#clip0_2129_13271)">
<rect width="134" height="134" rx="67" fill="#303234"/>
<path d="M134 67C134 104.003 104.003 134 67 134C29.9969 134 0 104.003 0 67C0 29.9969 29.9969 0 67 0C104.003 0 134 29.9969 134 67ZM53.9296 67C53.9296 74.2186 59.7814 80.0704 67 80.0704C74.2186 80.0704 80.0704 74.2186 80.0704 67C80.0704 59.7814 74.2186 53.9296 67 53.9296C59.7814 53.9296 53.9296 59.7814 53.9296 67Z" fill="#747678"/>
<path d="M66.2949 1.41016H67.7054V13.3996C67.7054 13.7891 67.3897 14.1049 67.0002 14.1049C66.6107 14.1049 66.2949 13.7891 66.2949 13.3996V1.41016Z" fill="#F2F2F2"/>
<path d="M67.7051 132.59H66.2946V119.895C66.2946 119.506 66.6103 119.19 66.9998 119.19C67.3893 119.19 67.7051 119.506 67.7051 119.895V132.59Z" fill="#F2F2F2"/>
<path d="M132.59 66.2949V67.7054H119.895C119.506 67.7054 119.19 67.3897 119.19 67.0002C119.19 66.6107 119.506 66.2949 119.895 66.2949H132.59Z" fill="#F2F2F2"/>
<path d="M102.712 122.023L101.918 122.529L98.4881 117.146C98.3484 116.926 98.4129 116.635 98.6323 116.495C98.8517 116.356 99.1428 116.42 99.2825 116.64L102.712 122.023Z" fill="#F2F2F2"/>
<path d="M125.522 96.6328L125.093 97.471L119.351 94.527C119.119 94.4083 119.028 94.1245 119.147 93.8931C119.265 93.6616 119.549 93.5702 119.78 93.6889L125.522 96.6328Z" fill="#F2F2F2"/>
<path d="M30.5645 12.4414L31.3572 11.9328L34.9314 17.5032C35.0718 17.7221 35.0082 18.0134 34.7893 18.1539C34.5704 18.2943 34.2791 18.2307 34.1386 18.0118L30.5645 12.4414Z" fill="#F2F2F2"/>
<path d="M8.08496 38.1562L8.50495 37.3132L14.0752 40.0882C14.308 40.2041 14.4027 40.4869 14.2867 40.7197C14.1708 40.9525 13.888 41.0472 13.6552 40.9312L8.08496 38.1562Z" fill="#F2F2F2"/>
<path d="M126.891 40.1611L127.249 41.0323L121.505 43.3922C121.264 43.491 120.989 43.3761 120.89 43.1356C120.791 42.895 120.906 42.6198 121.147 42.521L126.891 40.1611Z" fill="#F2F2F2"/>
<path d="M105.337 13.749L106.099 14.3027L102.443 19.334C102.29 19.5445 101.996 19.5911 101.786 19.4382C101.575 19.2853 101.528 18.9908 101.681 18.7804L105.337 13.749Z" fill="#F2F2F2"/>
<path d="M8.53418 96.7549L8.11305 95.9124L14.0222 92.9587C14.2548 92.8424 14.5377 92.9367 14.654 93.1693C14.7703 93.402 14.676 93.6849 14.4433 93.8011L8.53418 96.7549Z" fill="#F2F2F2"/>
<path d="M31.4736 122.141L30.6822 121.63L34.2011 116.177C34.3421 115.959 34.6336 115.896 34.8521 116.037C35.0707 116.178 35.1335 116.469 34.9925 116.688L31.4736 122.141Z" fill="#F2F2F2"/>
<path d="M1.41016 67.7051V66.2946H14.1049C14.4944 66.2946 14.8102 66.6103 14.8102 66.9998C14.8102 67.3893 14.4944 67.7051 14.1049 67.7051H1.41016Z" fill="#F2F2F2"/>
<g filter="url(#filter0_d_2129_13271)">
<g filter="url(#filter1_d_2129_13271)">
<circle cx="67.0752" cy="67.5176" r="13.9265" transform="rotate(115.087 67.0752 67.5176)" fill="#E6E6E6"/>
</g>
<path d="M67.9504 46.6095L71.381 54.4541L64.055 54.234L67.9504 46.6095Z" fill="#E6E6E6"/>
</g>
</g>
<rect x="0.705263" y="0.705263" width="132.589" height="132.589" rx="66.2947" stroke="#3C3E3F" stroke-width="1.41053"/>
<defs>
<filter id="filter0_d_2129_13271" x="49.6192" y="45.9041" width="34.912" height="41.8905" filterUnits="userSpaceOnUse" color-interpolation-filters="sRGB">
<feFlood flood-opacity="0" result="BackgroundImageFix"/>
<feColorMatrix in="SourceAlpha" type="matrix" values="0 0 0 0 0 0 0 0 0 0 0 0 0 0 0 0 0 0 127 0" result="hardAlpha"/>
<feOffset dy="2.82105"/>
<feGaussianBlur stdDeviation="1.76316"/>
<feComposite in2="hardAlpha" operator="out"/>
<feColorMatrix type="matrix" values="0 0 0 0 0 0 0 0 0 0 0 0 0 0 0 0 0 0 0.15 0"/>
<feBlend mode="normal" in2="BackgroundImageFix" result="effect1_dropShadow_2129_13271"/>
<feBlend mode="normal" in="SourceGraphic" in2="effect1_dropShadow_2129_13271" result="shape"/>
</filter>
<filter id="filter1_d_2129_13271" x="49.6192" y="52.8826" width="34.912" height="34.912" filterUnits="userSpaceOnUse" color-interpolation-filters="sRGB">
<feFlood flood-opacity="0" result="BackgroundImageFix"/>
<feColorMatrix in="SourceAlpha" type="matrix" values="0 0 0 0 0 0 0 0 0 0 0 0 0 0 0 0 0 0 127 0" result="hardAlpha"/>
<feOffset dy="2.82105"/>
<feGaussianBlur stdDeviation="1.76316"/>
<feComposite in2="hardAlpha" operator="out"/>
<feColorMatrix type="matrix" values="0 0 0 0 0 0 0 0 0 0 0 0 0 0 0 0 0 0 0.1 0"/>
<feBlend mode="normal" in2="BackgroundImageFix" result="effect1_dropShadow_2129_13271"/>
<feBlend mode="normal" in="SourceGraphic" in2="effect1_dropShadow_2129_13271" result="shape"/>
</filter>
<clipPath id="clip0_2129_13271">
<rect width="134" height="134" rx="67" fill="white"/>
</clipPath>
</defs>
</svg>
