<svg width="60" height="61" viewBox="0 0 60 61" fill="none" xmlns="http://www.w3.org/2000/svg">
<path d="M25.8 35.8917L19.35 29.3521C18.8 28.7944 18.1 28.5156 17.25 28.5156C16.4 28.5156 15.7 28.7944 15.15 29.3521C14.6 29.9097 14.325 30.6194 14.325 31.4812C14.325 32.3431 14.6 33.0528 15.15 33.6104L23.7 42.2792C24.3 42.8875 25 43.1917 25.8 43.1917C26.6 43.1917 27.3 42.8875 27.9 42.2792L44.85 25.0937C45.4 24.5361 45.675 23.8264 45.675 22.9646C45.675 22.1028 45.4 21.3931 44.85 20.8354C44.3 20.2778 43.6 19.999 42.75 19.999C41.9 19.999 41.2 20.2778 40.65 20.8354L25.8 35.8917ZM30 60.8333C25.85 60.8333 21.95 60.0344 18.3 58.4365C14.65 56.8386 11.475 54.6719 8.775 51.9365C6.075 49.201 3.938 45.9819 2.364 42.2792C0.790004 38.5764 0.0020038 34.6223 3.79747e-06 30.4167C-0.0019962 26.2111 0.786004 22.2569 2.364 18.5542C3.942 14.8514 6.079 11.6323 8.775 8.89688C11.471 6.1614 14.646 3.99472 18.3 2.39683C21.954 0.798945 25.854 0 30 0C34.146 0 38.046 0.798945 41.7 2.39683C45.354 3.99472 48.529 6.1614 51.225 8.89688C53.921 11.6323 56.059 14.8514 57.639 18.5542C59.219 22.2569 60.006 26.2111 60 30.4167C59.994 34.6223 59.206 38.5764 57.636 42.2792C56.066 45.9819 53.929 49.201 51.225 51.9365C48.521 54.6719 45.346 56.8396 41.7 58.4395C38.054 60.0395 34.154 60.8374 30 60.8333Z" fill="#3C3E3F"/>
</svg>
