<svg width="72" height="73" viewBox="0 0 72 73" fill="none" xmlns="http://www.w3.org/2000/svg">
<path d="M31.8 41.9747L25.35 35.4351C24.8 34.8775 24.1 34.5986 23.25 34.5986C22.4 34.5986 21.7 34.8775 21.15 35.4351C20.6 35.9927 20.325 36.7025 20.325 37.5643C20.325 38.4261 20.6 39.1358 21.15 39.6934L29.7 48.3622C30.3 48.9705 31 49.2747 31.8 49.2747C32.6 49.2747 33.3 48.9705 33.9 48.3622L50.85 31.1768C51.4 30.6191 51.675 29.9094 51.675 29.0476C51.675 28.1858 51.4 27.4761 50.85 26.9184C50.3 26.3608 49.6 26.082 48.75 26.082C47.9 26.082 47.2 26.3608 46.65 26.9184L31.8 41.9747ZM36 66.9163C31.85 66.9163 27.95 66.1174 24.3 64.5195C20.65 62.9216 17.475 60.7549 14.775 58.0195C12.075 55.284 9.938 52.0649 8.364 48.3622C6.79 44.6595 6.002 40.7053 6 36.4997C5.998 32.2941 6.786 28.3399 8.364 24.6372C9.942 20.9345 12.079 17.7154 14.775 14.9799C17.471 12.2444 20.646 10.0777 24.3 8.47984C27.954 6.88195 31.854 6.08301 36 6.08301C40.146 6.08301 44.046 6.88195 47.7 8.47984C51.354 10.0777 54.529 12.2444 57.225 14.9799C59.921 17.7154 62.059 20.9345 63.639 24.6372C65.219 28.3399 66.006 32.2941 66 36.4997C65.994 40.7053 65.206 44.6595 63.636 48.3622C62.066 52.0649 59.929 55.284 57.225 58.0195C54.521 60.7549 51.346 62.9226 47.7 64.5225C44.054 66.1225 40.154 66.9204 36 66.9163Z" fill="#F1070A"/>
</svg>
