<svg width="72" height="72" viewBox="0 0 72 72" fill="none" xmlns="http://www.w3.org/2000/svg">
<g clip-path="url(#clip0_574_3518)">
<path d="M36 67.5C53.397 67.5 67.5 53.397 67.5 36C67.5 18.603 53.397 4.5 36 4.5C18.603 4.5 4.5 18.603 4.5 36C4.5 53.397 18.603 67.5 36 67.5Z" fill="#FFC84D"/>
<path d="M35.9991 52.0093C33.0525 52.0093 30.7521 52.5187 29.1825 53.0317C28.3689 53.2981 27.7029 52.3297 28.2321 51.6583C29.6487 49.8619 32.1453 47.7217 35.9991 47.7217C39.8529 47.7217 42.3477 49.8619 43.7661 51.6583C44.2971 52.3315 43.6311 53.2981 42.8157 53.0317C41.2461 52.5187 38.9457 52.0093 35.9991 52.0093Z" fill="#FF6D00"/>
<path d="M16.7205 34.8447C16.7205 34.8447 11.6445 40.2897 11.6445 44.6817C11.6445 47.4843 13.9179 49.7505 16.7205 49.7523C19.5231 49.7523 21.7965 47.4843 21.7965 44.6817C21.7965 40.2897 16.7205 34.8447 16.7205 34.8447Z" fill="#4DC4FF"/>
<path d="M24.2158 22.4711C26.2678 21.5135 27.2326 20.4911 28.0354 19.5785C28.498 19.0529 29.1532 19.2941 29.1478 20.0429C29.1352 21.6611 28.1362 23.8589 25.447 25.1135C22.7578 26.3663 20.4322 25.7201 19.1848 24.6887C18.607 24.2117 18.8428 23.5529 19.5448 23.5367C20.7598 23.5097 22.1638 23.4269 24.2158 22.4711Z" fill="black"/>
<path d="M47.7856 22.4711C45.7336 21.5135 44.7687 20.4911 43.9659 19.5785C43.5033 19.0529 42.8481 19.2941 42.8535 20.0429C42.8661 21.6611 43.8652 23.8589 46.5544 25.1135C49.2436 26.3663 51.5691 25.7201 52.8165 24.6887C53.3943 24.2117 53.1586 23.5529 52.4566 23.5367C51.2416 23.5097 49.8376 23.4269 47.7856 22.4711Z" fill="black"/>
<path d="M27.7603 38.0176C29.8618 38.0176 31.5655 36.314 31.5655 34.2124C31.5655 32.1109 29.8618 30.4072 27.7603 30.4072C25.6587 30.4072 23.9551 32.1109 23.9551 34.2124C23.9551 36.314 25.6587 38.0176 27.7603 38.0176Z" fill="black"/>
<path d="M44.2407 38.0176C46.3423 38.0176 48.0459 36.314 48.0459 34.2124C48.0459 32.1109 46.3423 30.4072 44.2407 30.4072C42.1392 30.4072 40.4355 32.1109 40.4355 34.2124C40.4355 36.314 42.1392 38.0176 44.2407 38.0176Z" fill="black"/>
</g>
<defs>
<clipPath id="clip0_574_3518">
<rect width="72" height="72" fill="white"/>
</clipPath>
</defs>
</svg>
