<svg width="24" height="24" viewBox="0 0 24 24" fill="none" xmlns="http://www.w3.org/2000/svg">
<path d="M6.69439 13.7597C6.88965 13.5643 7.20637 13.5642 7.40167 13.7596L10.2297 16.5884C10.4248 16.7836 10.4249 17.1001 10.2297 17.2953L9.52329 18.0023C9.32815 18.1976 9.32821 18.514 9.52342 18.7093L10.2314 19.4173C10.4267 19.6125 10.4267 19.9291 10.2314 20.1244L9.52454 20.8313C9.32928 21.0265 9.0127 21.0265 8.81744 20.8313L7.04954 19.0634C6.85428 18.8681 6.5377 18.8681 6.34244 19.0634L4.22054 21.1853C4.02528 21.3805 3.7087 21.3805 3.51344 21.1853L2.80648 20.4783C2.61124 20.2831 2.61122 19.9665 2.80642 19.7713L4.92849 17.6484C5.12372 17.4531 5.12366 17.1366 4.92836 16.9413L3.16069 15.1744C2.96536 14.9791 2.96532 14.6625 3.16061 14.4672L3.86756 13.7603C4.06277 13.565 4.37926 13.565 4.57454 13.7601L5.28131 14.4664C5.47664 14.6616 5.79323 14.6615 5.98842 14.4661L6.69439 13.7597ZM3.00027 3.50053C3.00012 3.22411 3.22428 3.00001 3.5007 3.00025L6.33912 3.00265C6.47159 3.00276 6.5986 3.05544 6.69226 3.14911L18.0096 14.4674C18.2048 14.6626 18.5213 14.6627 18.7166 14.4675L19.4246 13.76C19.6198 13.5649 19.9362 13.5649 20.1314 13.76L20.8392 14.4673C21.0346 14.6625 21.0346 14.9792 20.8393 15.1745L19.0715 16.9423C18.8762 17.1376 18.8762 17.4541 19.0714 17.6494L21.1926 19.7713C21.3878 19.9665 21.3877 20.2831 21.1925 20.4783L20.4855 21.1853C20.2903 21.3805 19.9737 21.3805 19.7784 21.1853L17.6566 19.0634C17.4613 18.8682 17.1447 18.8682 16.9494 19.0635L15.1824 20.8313C14.9872 21.0265 14.6707 21.0266 14.4754 20.8314L13.7677 20.1243C13.5723 19.9291 13.5722 19.6125 13.7674 19.4171L14.4747 18.7094C14.6698 18.5141 14.6698 18.1976 14.4745 18.0024L3.14833 6.67716C3.05463 6.58346 3.00195 6.45639 3.00187 6.32387L3.00027 3.50053ZM17.3104 3.1464C17.4042 3.05256 17.5316 2.99989 17.6643 3L20.5007 3.0024C20.7766 3.00264 21.0001 3.22625 21.0003 3.50212L21.0019 6.31852C21.0019 6.45124 20.9492 6.57855 20.8554 6.6724L17.3025 10.2244C17.1072 10.4196 16.7907 10.4196 16.5955 10.2244L13.7667 7.39642C13.5714 7.20115 13.5714 6.8845 13.7667 6.68922L17.3104 3.1464Z" fill="currentColor"/>
</svg>
