<svg width="40" height="40" viewBox="0 0 40 40" fill="none" xmlns="http://www.w3.org/2000/svg">
<g clip-path="url(#clip0_459_788)">
<path d="M20 37.5C29.665 37.5 37.5 29.665 37.5 20C37.5 10.335 29.665 2.5 20 2.5C10.335 2.5 2.5 10.335 2.5 20C2.5 29.665 10.335 37.5 20 37.5Z" fill="#FFC84D"/>
<path d="M20.0002 28.8937C18.3632 28.8937 17.0852 29.1767 16.2132 29.4617C15.7612 29.6097 15.3912 29.0717 15.6852 28.6987C16.4722 27.7007 17.8592 26.5117 20.0002 26.5117C22.1412 26.5117 23.5272 27.7007 24.3152 28.6987C24.6102 29.0727 24.2402 29.6097 23.7872 29.4617C22.9152 29.1767 21.6372 28.8937 20.0002 28.8937Z" fill="#FF6D00"/>
<path d="M9.28875 19.3584C9.28875 19.3584 6.46875 22.3834 6.46875 24.8234C6.46875 26.3804 7.73175 27.6394 9.28875 27.6404C10.8457 27.6404 12.1088 26.3804 12.1088 24.8234C12.1088 22.3834 9.28875 19.3584 9.28875 19.3584Z" fill="#4DC4FF"/>
<path d="M13.4533 12.4842C14.5933 11.9522 15.1293 11.3842 15.5753 10.8772C15.8323 10.5852 16.1963 10.7192 16.1933 11.1352C16.1863 12.0342 15.6313 13.2552 14.1373 13.9522C12.6433 14.6482 11.3513 14.2892 10.6583 13.7162C10.3373 13.4512 10.4683 13.0852 10.8583 13.0762C11.5333 13.0612 12.3133 13.0152 13.4533 12.4842Z" fill="black"/>
<path d="M26.5467 12.4842C25.4067 11.9522 24.8707 11.3842 24.4247 10.8772C24.1677 10.5852 23.8037 10.7192 23.8067 11.1352C23.8137 12.0342 24.3687 13.2552 25.8627 13.9522C27.3567 14.6482 28.6487 14.2892 29.3417 13.7162C29.6627 13.4512 29.5317 13.0852 29.1417 13.0762C28.4667 13.0612 27.6867 13.0152 26.5467 12.4842Z" fill="black"/>
<path d="M15.4216 21.1206C16.5891 21.1206 17.5356 20.1741 17.5356 19.0066C17.5356 17.839 16.5891 16.8926 15.4216 16.8926C14.2541 16.8926 13.3076 17.839 13.3076 19.0066C13.3076 20.1741 14.2541 21.1206 15.4216 21.1206Z" fill="black"/>
<path d="M24.5779 21.1206C25.7454 21.1206 26.6919 20.1741 26.6919 19.0066C26.6919 17.839 25.7454 16.8926 24.5779 16.8926C23.4103 16.8926 22.4639 17.839 22.4639 19.0066C22.4639 20.1741 23.4103 21.1206 24.5779 21.1206Z" fill="black"/>
</g>
<defs>
<clipPath id="clip0_459_788">
<rect width="40" height="40" fill="white"/>
</clipPath>
</defs>
</svg>
