<svg width="11" height="15" viewBox="0 0 11 15" fill="none" xmlns="http://www.w3.org/2000/svg">
<path d="M0.000393003 0.708739L0.000392446 13.4587C0.000797133 13.5878 0.0364002 13.7144 0.103369 13.8247C0.170337 13.9351 0.266134 14.0251 0.38045 14.085C0.494767 14.145 0.623273 14.1727 0.752135 14.165C0.880997 14.1574 1.00534 14.1147 1.11177 14.0417L10.3201 7.6667C10.7019 7.40249 10.7019 6.76641 10.3201 6.50149L1.11177 0.126489C1.00556 0.0526986 0.881157 0.00942599 0.75208 0.00137297C0.623003 -0.00668005 0.494188 0.0207945 0.37963 0.0808117C0.265071 0.140829 0.169151 0.231093 0.102291 0.341797C0.0354313 0.452501 0.000189304 0.579412 0.000393003 0.708739Z" fill="#F1070A"/>
</svg>
