<svg width="26" height="26" viewBox="0 0 26 26" fill="none" xmlns="http://www.w3.org/2000/svg">
<path d="M13 0C20.1797 0 26 5.8203 26 13C26 20.1797 20.1797 26 13 26C5.8203 26 0 20.1797 0 13C0 5.8203 5.8203 0 13 0ZM8.98242 7.3125C8.50893 7.31262 8.12512 7.69643 8.125 8.16992V18.4619C8.12506 18.9355 8.5089 19.3192 8.98242 19.3193H10.6982C11.1717 19.3192 11.5556 18.9354 11.5557 18.4619V8.16992C11.5555 7.69647 11.1717 7.31268 10.6982 7.3125H8.98242ZM15.8438 7.3125C15.3702 7.3125 14.9864 7.69636 14.9863 8.16992V18.4619C14.9864 18.9355 15.3701 19.3193 15.8438 19.3193H17.5586C18.0322 19.3193 18.4169 18.9355 18.417 18.4619V8.16992C18.4169 7.69636 18.0322 7.3125 17.5586 7.3125H15.8438Z" fill="#F1070A"/>
</svg>
