<svg width="65" height="32" viewBox="0 0 65 32" fill="none" xmlns="http://www.w3.org/2000/svg">
<path d="M32.4997 17.9893L38.9372 21.8747L37.2288 14.5518L42.9163 9.62467L35.4268 8.98926L32.4997 2.08301L29.5726 8.98926L22.083 9.62467L27.7705 14.5518L26.0622 21.8747L32.4997 17.9893Z" fill="#F1070A"/>
<path d="M10.0003 26.392L15.1503 29.5003L13.7837 23.642L18.3337 19.7003L12.342 19.192L10.0003 13.667L7.65866 19.192L1.66699 19.7003L6.21699 23.642L4.85033 29.5003L10.0003 26.392Z" fill="#F1070A"/>
<path d="M55.0003 26.392L60.1503 29.5003L58.7837 23.642L63.3337 19.7003L57.342 19.192L55.0003 13.667L52.6587 19.192L46.667 19.7003L51.217 23.642L49.8503 29.5003L55.0003 26.392Z" fill="#F1070A"/>
</svg>
