<svg width="12" height="12" viewBox="0 0 12 12" fill="none" xmlns="http://www.w3.org/2000/svg">
<path d="M10.4987 2.01338L1.49874 2.01337C1.40762 2.01366 1.3183 2.03879 1.2404 2.08606C1.1625 2.13334 1.09897 2.20096 1.05664 2.28165C1.01431 2.36234 0.994795 2.45305 1.00019 2.54402C1.00558 2.63498 1.03567 2.72275 1.08724 2.79787L5.58724 9.29787C5.77374 9.56737 6.22274 9.56737 6.40974 9.29787L10.9097 2.79788C10.9618 2.7229 10.9924 2.63509 10.9981 2.54398C11.0037 2.45286 10.9843 2.36194 10.942 2.28107C10.8996 2.20021 10.8359 2.1325 10.7578 2.0853C10.6796 2.03811 10.59 2.01323 10.4987 2.01338Z" fill="#9C9D9F"/>
</svg>
