<svg width="36" height="36" viewBox="0 0 36 36" fill="none" xmlns="http://www.w3.org/2000/svg">
<path d="M18 25.5C16.175 25.5 14.5815 24.9315 13.2195 23.7945C11.8575 22.6575 11.001 21.226 10.65 19.5H3V16.5H10.65C11 14.775 11.8565 13.3435 13.2195 12.2055C14.5825 11.0675 16.176 10.499 18 10.5C19.824 10.501 21.418 11.07 22.782 12.207C24.146 13.344 25.002 14.775 25.35 16.5H33V19.5H25.35C25 21.225 24.144 22.6565 22.782 23.7945C21.42 24.9325 19.826 25.501 18 25.5ZM18 22.5C19.25 22.5 20.3125 22.0625 21.1875 21.1875C22.0625 20.3125 22.5 19.25 22.5 18C22.5 16.75 22.0625 15.6875 21.1875 14.8125C20.3125 13.9375 19.25 13.5 18 13.5C16.75 13.5 15.6875 13.9375 14.8125 14.8125C13.9375 15.6875 13.5 16.75 13.5 18C13.5 19.25 13.9375 20.3125 14.8125 21.1875C15.6875 22.0625 16.75 22.5 18 22.5Z" fill="#BEBEBE"/>
</svg>
