<svg width="36" height="36" viewBox="0 0 36 36" fill="none" xmlns="http://www.w3.org/2000/svg">
<path d="M22.4996 7.5H25.4996C26.2952 7.5 27.0583 7.81607 27.6209 8.37868C28.1835 8.94129 28.4996 9.70435 28.4996 10.5V22.755C29.5008 23.1089 30.3447 23.8053 30.8821 24.7212C31.4195 25.6371 31.6158 26.7135 31.4363 27.7602C31.2568 28.8068 30.713 29.7563 29.9011 30.4408C29.0892 31.1253 28.0615 31.5007 26.9996 31.5007C25.9376 31.5007 24.9099 31.1253 24.098 30.4408C23.2861 29.7563 22.7424 28.8068 22.5628 27.7602C22.3833 26.7135 22.5796 25.6371 23.117 24.7212C23.6544 23.8053 24.4983 23.1089 25.4996 22.755V10.5H22.4996V15L15.7496 9L22.4996 3V7.5ZM7.49956 13.245C6.49832 12.8911 5.65442 12.1947 5.11702 11.2788C4.57962 10.3629 4.38333 9.28646 4.56284 8.23982C4.74235 7.19317 5.28611 6.24368 6.098 5.55919C6.90989 4.8747 7.93763 4.49927 8.99956 4.49927C10.0615 4.49927 11.0892 4.8747 11.9011 5.55919C12.713 6.24368 13.2568 7.19317 13.4363 8.23982C13.6158 9.28646 13.4195 10.3629 12.8821 11.2788C12.3447 12.1947 11.5008 12.8911 10.4996 13.245V22.755C11.5008 23.1089 12.3447 23.8053 12.8821 24.7212C13.4195 25.6371 13.6158 26.7135 13.4363 27.7602C13.2568 28.8068 12.713 29.7563 11.9011 30.4408C11.0892 31.1253 10.0615 31.5007 8.99956 31.5007C7.93763 31.5007 6.90989 31.1253 6.098 30.4408C5.28611 29.7563 4.74235 28.8068 4.56284 27.7602C4.38333 26.7135 4.57962 25.6371 5.11702 24.7212C5.65442 23.8053 6.49832 23.1089 7.49956 22.755V13.245ZM8.99956 10.5C9.39738 10.5 9.77891 10.342 10.0602 10.0607C10.3415 9.77936 10.4996 9.39782 10.4996 9C10.4996 8.60218 10.3415 8.22064 10.0602 7.93934C9.77891 7.65804 9.39738 7.5 8.99956 7.5C8.60173 7.5 8.2202 7.65804 7.9389 7.93934C7.65759 8.22064 7.49956 8.60218 7.49956 9C7.49956 9.39782 7.65759 9.77936 7.9389 10.0607C8.2202 10.342 8.60173 10.5 8.99956 10.5ZM8.99956 28.5C9.39738 28.5 9.77891 28.342 10.0602 28.0607C10.3415 27.7794 10.4996 27.3978 10.4996 27C10.4996 26.6022 10.3415 26.2206 10.0602 25.9393C9.77891 25.658 9.39738 25.5 8.99956 25.5C8.60173 25.5 8.2202 25.658 7.9389 25.9393C7.65759 26.2206 7.49956 26.6022 7.49956 27C7.49956 27.3978 7.65759 27.7794 7.9389 28.0607C8.2202 28.342 8.60173 28.5 8.99956 28.5ZM26.9996 28.5C27.3974 28.5 27.7789 28.342 28.0602 28.0607C28.3415 27.7794 28.4996 27.3978 28.4996 27C28.4996 26.6022 28.3415 26.2206 28.0602 25.9393C27.7789 25.658 27.3974 25.5 26.9996 25.5C26.6017 25.5 26.2202 25.658 25.9389 25.9393C25.6576 26.2206 25.4996 26.6022 25.4996 27C25.4996 27.3978 25.6576 27.7794 25.9389 28.0607C26.2202 28.342 26.6017 28.5 26.9996 28.5Z" fill="#BEBEBE"/>
</svg>
