<svg width="20" height="20" viewBox="0 0 20 20" fill="none" xmlns="http://www.w3.org/2000/svg">
<path d="M1.66699 18.3332V3.33317C1.66699 2.87484 1.83033 2.48262 2.15699 2.1565C2.48366 1.83039 2.87588 1.66706 3.33366 1.6665H16.667C17.1253 1.6665 17.5178 1.82984 17.8445 2.1565C18.1712 2.48317 18.3342 2.87539 18.3337 3.33317V13.3332C18.3337 13.7915 18.1706 14.184 17.8445 14.5107C17.5184 14.8373 17.1259 15.0004 16.667 14.9998H5.00033L1.66699 18.3332ZM7.56283 11.8748L10.0003 10.3957L12.4378 11.8748L11.792 9.104L13.9587 7.229L11.1045 6.99984L10.0003 4.37484L8.89616 6.99984L6.04199 7.229L8.20866 9.104L7.56283 11.8748Z" fill="#C4C5C6"/>
</svg>
